<?xml version="1.0" encoding="utf-8"?>
<!-- Generator: Adobe Illustrator 15.1.0, SVG Export Plug-In . SVG Version: 6.00 Build 0)  -->
<!DOCTYPE svg PUBLIC "-//W3C//DTD SVG 1.1//EN" "http://www.w3.org/Graphics/SVG/1.1/DTD/svg11.dtd">
<svg version="1.1" id="Layer_1" xmlns="http://www.w3.org/2000/svg" xmlns:xlink="http://www.w3.org/1999/xlink" x="0px" y="0px"
	 width="841.89px" height="595.28px" viewBox="0 0 841.89 595.28" enable-background="new 0 0 841.89 595.28" xml:space="preserve">
<rect x="62.948" y="331" fill-rule="evenodd" clip-rule="evenodd" fill="#808285" width="741" height="20.361"/>
<g>
	<path fill="#808285" d="M423.556,325.74l0.842-5.725c0.229-1.508,0.536-3.418,0.929-5.42h-0.064
		c-0.764,1.793-1.626,3.713-2.386,5.232l-2.845,5.684h-2.306l-0.493-5.621c-0.124-1.525-0.226-3.436-0.31-5.295h-0.042
		c-0.391,1.836-0.804,3.912-1.151,5.42l-1.379,5.725h-2.719l3.48-13.881h3.975l0.431,5.273c0.084,1.295,0.229,2.883,0.249,4.422
		h0.081c0.535-1.543,1.277-3.17,1.874-4.422l2.578-5.273h4.01l-1.879,13.881H423.556L423.556,325.74z"/>
	<path fill="#808285" d="M429.261,325.74l1.694-8.912h2.624l-1.697,8.912H429.261z M431.32,314.445
		c0.02-0.895,0.711-1.494,1.515-1.494c0.763,0,1.31,0.51,1.31,1.293c0,0.928-0.713,1.477-1.549,1.477
		C431.865,315.721,431.32,315.229,431.32,314.445z"/>
	<path fill="#808285" d="M441.578,325.434c-0.547,0.27-1.433,0.441-2.457,0.441c-2.14,0-3.639-1.287-3.639-3.531
		c0-3.076,2.348-5.479,5.633-5.479c0.742,0,1.383,0.141,1.752,0.301l-0.619,1.945c-0.299-0.127-0.652-0.215-1.166-0.215
		c-1.818,0-2.934,1.535-2.934,3.162c0,1.186,0.742,1.785,1.695,1.785c0.745,0,1.271-0.176,1.715-0.354L441.578,325.434z"/>
	<path fill="#808285" d="M452.77,320.416c0,3.162-2.155,5.48-5.158,5.48c-2.194,0-3.66-1.434-3.66-3.572
		c0-3.002,2.085-5.459,5.163-5.459C451.429,316.865,452.77,318.457,452.77,320.416z M446.588,322.271
		c0,1.01,0.492,1.684,1.375,1.684c1.396,0,2.175-2.037,2.175-3.518c0-0.801-0.335-1.645-1.362-1.645
		C447.309,318.793,446.571,320.93,446.588,322.271z"/>
	<path fill="#808285" d="M454.474,325.703l1.096-5.832c0.212-1.094,0.354-2.049,0.462-2.809h2.26l-0.177,1.432h0.039
		c0.807-1.133,1.888-1.627,3.034-1.627c1.417,0,2.211,0.867,2.211,2.35c0,0.391-0.07,1.041-0.142,1.465l-0.954,5.02h-2.545
		l0.902-4.789c0.056-0.301,0.087-0.654,0.087-0.973c0-0.602-0.212-1.027-0.846-1.027c-0.833,0-1.803,1.045-2.154,2.955l-0.728,3.834
		h-2.546V325.703z"/>
	<g>
		<polygon fill="#808285" points="408.45,314.258 408.45,314.26 408.464,314.256 		"/>
		<path fill="#808285" d="M409.536,314.205c-0.047-0.008-0.09-0.012-0.136-0.014c-0.034-0.004-0.07-0.008-0.108-0.01
			c-0.034-0.002-0.067,0-0.104,0c-0.047,0-0.092,0-0.139,0c-0.023,0.002-0.054,0.006-0.078,0.01c-0.054,0-0.109,0.006-0.162,0.018
			c-0.02,0.004-0.039,0.008-0.059,0.014c-0.062,0.006-0.121,0.021-0.182,0.035c-0.003,0-0.01,0.002-0.014,0.006
			c-0.564,0.15-1.078,0.502-1.411,1.035c-0.36,0.574-0.44,1.246-0.278,1.854h0.479c-0.179-0.52-0.129-1.111,0.189-1.617
			c0.247-0.391,0.608-0.666,1.021-0.803v0.004c0.068-0.023,0.134-0.041,0.2-0.055c0.003,0,0.006,0,0.006,0
			c0.06-0.014,0.125-0.027,0.187-0.033c0.021,0,0.041-0.002,0.066-0.006c0.041,0,0.082-0.004,0.123-0.006c0.033,0,0.063,0,0.095,0
			c0.031,0,0.062,0.002,0.093,0.006c0.037,0,0.076,0.006,0.115,0.01c0.025,0.002,0.049,0.008,0.072,0.01
			c0.046,0.01,0.09,0.02,0.13,0.029c0.009,0.002,0.019,0.006,0.026,0.008l0.088-0.449c-0.055-0.012-0.105-0.021-0.154-0.033
			C409.579,314.215,409.559,314.211,409.536,314.205z"/>
		<path fill="#808285" d="M409.901,312.734c-0.24-0.045-0.481-0.066-0.725-0.068c-0.035,0-0.072,0-0.108,0.002
			c-0.084,0.004-0.164,0.008-0.247,0.012c-0.037,0.004-0.079,0.006-0.119,0.014c-0.103,0.01-0.202,0.025-0.305,0.041
			c-0.008,0.002-0.015,0.002-0.023,0.002l0,0c-1.277,0.236-2.408,1.045-2.949,2.258c-0.316,0.721-0.381,1.477-0.234,2.184h0.794
			c-0.159-0.613-0.12-1.275,0.159-1.902c0.421-0.947,1.288-1.584,2.272-1.801c0.056-0.012,0.111-0.025,0.165-0.033
			c0.045-0.006,0.092-0.014,0.133-0.016c0.048-0.006,0.096-0.016,0.143-0.018c0.092-0.01,0.182-0.012,0.271-0.012
			c0.018,0,0.033,0,0.046,0c0.084,0,0.171,0.002,0.255,0.01c0.025,0.002,0.051,0.002,0.077,0.006
			c0.079,0.008,0.155,0.018,0.231,0.033c0.023,0,0.043,0.008,0.067,0.012c0.039,0.006,0.081,0.018,0.122,0.029l0.146-0.719
			c-0.036-0.008-0.075-0.018-0.111-0.023C409.94,312.74,409.922,312.736,409.901,312.734z"/>
		<path fill="#808285" d="M409.991,310.709c-0.03-0.002-0.061-0.002-0.09-0.006c-0.168-0.021-0.334-0.037-0.501-0.043
			c-0.083-0.004-0.163,0-0.245,0c-0.117,0-0.225,0-0.336,0.004c-0.105,0.006-0.211,0.018-0.311,0.029
			c-0.076,0.008-0.152,0.012-0.229,0.021l0,0c-2.365,0.33-4.403,1.969-5.003,4.291c-0.188,0.732-0.215,1.467-0.106,2.166h1.182
			c-0.117-0.613-0.107-1.26,0.06-1.906c0.472-1.826,2.041-3.131,3.89-3.441c0.129-0.018,0.256-0.033,0.382-0.047
			c0.044,0,0.081-0.01,0.12-0.012c0.108-0.008,0.223-0.008,0.336-0.008c0.055,0,0.113-0.002,0.17-0.002
			c0.082,0.002,0.164,0.012,0.246,0.018c0.237,0.018,0.478,0.051,0.713,0.104l0.215-1.076
			C410.315,310.762,410.155,310.729,409.991,310.709z"/>
	</g>
	<g>
		<path fill="#808285" d="M409.356,315.227c-0.804,0-1.496,0.6-1.514,1.494c0,0.039,0.007,0.072,0.012,0.107
			c0.047,0.699,0.543,1.141,1.208,1.164h0.111c0.267-0.008,0.522-0.074,0.741-0.189c0.443-0.236,0.75-0.676,0.75-1.283
			C410.665,315.736,410.119,315.227,409.356,315.227z"/>
		<polygon fill="#808285" points="406.303,325.74 408.926,325.74 410.192,319.078 407.571,319.078 		"/>
		<path fill="#808285" d="M409.638,317.996c0.02,0,0.038-0.002,0.057-0.004h-0.11C409.604,317.994,409.622,317.996,409.638,317.996z
			"/>
	</g>
</g>
<g>
	<path fill="#E6E7E8" d="M376.142,340.08l0.357,1.805c0.081,0.447,0.171,0.932,0.243,1.434h0.025
		c0.082-0.502,0.216-0.996,0.313-1.426l0.469-1.813h1.074l0.44,1.75c0.126,0.502,0.243,0.986,0.321,1.488h0.02
		c0.063-0.492,0.15-0.996,0.258-1.498l0.369-1.74h1.334l-1.344,4.385h-1.273l-0.412-1.531c-0.114-0.434-0.195-0.828-0.285-1.373
		h-0.02c-0.078,0.545-0.168,0.959-0.277,1.363l-0.438,1.541h-1.283l-1.279-4.385H376.142z"/>
	<path fill="#E6E7E8" d="M384.192,340.08l0.357,1.805c0.081,0.447,0.172,0.932,0.243,1.434h0.029
		c0.078-0.502,0.215-0.996,0.309-1.426l0.471-1.813h1.074l0.439,1.75c0.125,0.502,0.242,0.986,0.322,1.488h0.018
		c0.063-0.492,0.152-0.996,0.259-1.498l0.368-1.74h1.336l-1.345,4.385h-1.272l-0.412-1.531c-0.115-0.434-0.195-0.828-0.286-1.373
		h-0.019c-0.079,0.545-0.17,0.959-0.277,1.363l-0.438,1.541h-1.283l-1.28-4.385H384.192z"/>
	<path fill="#E6E7E8" d="M392.246,340.08l0.357,1.805c0.082,0.447,0.172,0.932,0.242,1.434h0.028
		c0.079-0.502,0.214-0.996,0.313-1.426l0.466-1.813h1.076l0.438,1.75c0.127,0.502,0.243,0.986,0.325,1.488h0.017
		c0.063-0.492,0.153-0.996,0.259-1.498l0.367-1.74h1.336l-1.346,4.385h-1.272l-0.413-1.531c-0.114-0.434-0.195-0.828-0.285-1.373
		h-0.018c-0.08,0.545-0.17,0.959-0.278,1.363l-0.438,1.541h-1.28l-1.281-4.385H392.246z"/>
	<path fill="#E6E7E8" d="M398.657,343.738c0-0.492,0.332-0.834,0.808-0.834c0.466,0,0.791,0.332,0.796,0.834
		c0,0.475-0.321,0.824-0.813,0.824C398.989,344.563,398.657,344.213,398.657,343.738z"/>
	<path fill="#E6E7E8" d="M403.57,338.863c0,0.377-0.277,0.682-0.734,0.682c-0.43,0-0.707-0.305-0.707-0.682
		c0-0.385,0.285-0.682,0.726-0.682C403.293,338.182,403.563,338.479,403.57,338.863z M402.162,344.465v-4.385h1.365v4.385H402.162z"
		/>
	<path fill="#E6E7E8" d="M405.697,341.48c0-0.547-0.018-1.004-0.036-1.4h1.157l0.051,0.594h0.028
		c0.19-0.287,0.583-0.699,1.327-0.699c0.572,0,1.012,0.295,1.201,0.752h0.017c0.173-0.232,0.359-0.412,0.573-0.537
		c0.243-0.135,0.512-0.215,0.835-0.215c0.842,0,1.479,0.592,1.479,1.91v2.58H411v-2.385c0-0.637-0.203-1.006-0.641-1.006
		c-0.326,0-0.541,0.217-0.639,0.479c-0.027,0.098-0.046,0.232-0.046,0.35v2.563h-1.325V342c0-0.547-0.197-0.926-0.636-0.926
		c-0.351,0-0.557,0.271-0.636,0.486c-0.047,0.109-0.053,0.232-0.053,0.35v2.555h-1.328V341.48z"/>
	<path fill="#E6E7E8" d="M415.891,338.863c0,0.377-0.279,0.682-0.734,0.682c-0.43,0-0.708-0.305-0.708-0.682
		c0-0.385,0.286-0.682,0.726-0.682C415.611,338.182,415.883,338.479,415.891,338.863z M414.484,344.465v-4.385h1.363v4.385H414.484z
		"/>
	<path fill="#E6E7E8" d="M421.309,344.348c-0.243,0.117-0.701,0.205-1.223,0.205c-1.414,0-2.32-0.867-2.32-2.238
		c0-1.281,0.877-2.332,2.51-2.332c0.359,0,0.754,0.064,1.039,0.172l-0.213,1.012c-0.163-0.07-0.403-0.133-0.762-0.133
		c-0.719,0-1.185,0.508-1.176,1.227c0,0.799,0.537,1.229,1.201,1.229c0.324,0,0.573-0.055,0.779-0.143L421.309,344.348z"/>
	<path fill="#E6E7E8" d="M427.367,342.225c0,1.604-1.137,2.338-2.311,2.338c-1.283,0-2.266-0.844-2.266-2.258
		c0-1.426,0.932-2.33,2.345-2.33C426.471,339.975,427.367,340.898,427.367,342.225z M424.196,342.268
		c0,0.754,0.313,1.318,0.896,1.318c0.537,0,0.869-0.527,0.869-1.326c0-0.646-0.25-1.309-0.869-1.309
		C424.446,340.951,424.196,341.625,424.196,342.268z"/>
	<path fill="#E6E7E8" d="M429.289,341.48c0-0.547-0.018-1.004-0.036-1.4h1.183l0.064,0.611h0.025
		c0.18-0.287,0.619-0.709,1.354-0.709c0.896,0,1.569,0.602,1.569,1.895v2.588h-1.363v-2.43c0-0.566-0.197-0.949-0.692-0.949
		c-0.375,0-0.6,0.26-0.695,0.512c-0.038,0.088-0.045,0.215-0.045,0.338v2.529h-1.363V341.48z"/>
	<path fill="#E6E7E8" d="M435.611,343.281c0.25,0.152,0.77,0.324,1.172,0.324c0.412,0,0.584-0.137,0.584-0.359
		c0-0.234-0.134-0.342-0.638-0.514c-0.913-0.303-1.263-0.797-1.255-1.314c0-0.826,0.701-1.443,1.784-1.443
		c0.511,0,0.959,0.125,1.229,0.258l-0.232,0.943c-0.198-0.109-0.581-0.252-0.951-0.252c-0.332,0-0.521,0.137-0.521,0.35
		c0,0.215,0.172,0.324,0.709,0.512c0.834,0.285,1.175,0.715,1.184,1.352c0,0.826-0.637,1.426-1.893,1.426
		c-0.572,0-1.085-0.133-1.414-0.313L435.611,343.281z"/>
	<path fill="#E6E7E8" d="M441.608,340.08l0.655,2.162c0.071,0.252,0.162,0.584,0.217,0.816h0.033
		c0.054-0.242,0.126-0.564,0.189-0.824l0.546-2.154h1.451l-1.021,2.887c-0.624,1.748-1.047,2.439-1.54,2.877
		c-0.467,0.414-0.969,0.564-1.309,0.602l-0.293-1.148c0.167-0.035,0.381-0.117,0.588-0.232c0.206-0.107,0.44-0.332,0.564-0.545
		c0.047-0.072,0.072-0.145,0.072-0.199c0-0.053-0.008-0.115-0.055-0.225l-1.613-4.016H441.608z"/>
	<path fill="#E6E7E8" d="M446.2,343.281c0.253,0.152,0.771,0.324,1.174,0.324c0.412,0,0.583-0.137,0.583-0.359
		c0-0.234-0.135-0.342-0.635-0.514c-0.916-0.303-1.265-0.797-1.256-1.314c0-0.826,0.698-1.443,1.781-1.443
		c0.514,0,0.961,0.125,1.23,0.258l-0.234,0.943c-0.197-0.109-0.582-0.252-0.949-0.252c-0.333,0-0.521,0.137-0.521,0.35
		c0,0.215,0.171,0.324,0.709,0.512c0.832,0.285,1.176,0.715,1.183,1.352c0,0.826-0.637,1.426-1.892,1.426
		c-0.573,0-1.084-0.133-1.417-0.313L446.2,343.281z"/>
	<path fill="#E6E7E8" d="M452.701,338.898v1.182h0.979v1.006h-0.979v1.586c0,0.527,0.135,0.771,0.538,0.771
		c0.188,0,0.278-0.01,0.403-0.035l0.008,1.029c-0.17,0.063-0.502,0.115-0.878,0.115c-0.438,0-0.806-0.15-1.03-0.375
		c-0.25-0.26-0.377-0.682-0.377-1.299v-1.793h-0.584v-1.006h0.584v-0.813L452.701,338.898z"/>
	<path fill="#E6E7E8" d="M456.549,342.707c0.035,0.566,0.6,0.834,1.236,0.834c0.467,0,0.843-0.063,1.211-0.188l0.178,0.924
		c-0.449,0.188-0.995,0.275-1.586,0.275c-1.486,0-2.338-0.859-2.338-2.23c0-1.109,0.689-2.34,2.215-2.34
		c1.414,0,1.952,1.104,1.952,2.188c0,0.232-0.028,0.439-0.046,0.537H456.549z M458.152,341.775c0-0.332-0.143-0.887-0.77-0.887
		c-0.576,0-0.809,0.529-0.843,0.887H458.152z"/>
	<path fill="#E6E7E8" d="M461.31,341.48c0-0.547-0.017-1.004-0.036-1.4h1.156l0.055,0.594h0.029
		c0.185-0.287,0.582-0.699,1.325-0.699c0.573,0,1.014,0.295,1.202,0.752h0.014c0.172-0.232,0.361-0.412,0.576-0.537
		c0.242-0.135,0.51-0.215,0.833-0.215c0.845,0,1.479,0.592,1.479,1.91v2.58h-1.326v-2.385c0-0.637-0.207-1.006-0.646-1.006
		c-0.323,0-0.538,0.217-0.638,0.479c-0.025,0.098-0.045,0.232-0.045,0.35v2.563h-1.326V342c0-0.547-0.195-0.926-0.637-0.926
		c-0.35,0-0.556,0.271-0.636,0.486c-0.044,0.109-0.052,0.232-0.052,0.35v2.555h-1.329V341.48z"/>
	<path fill="#E6E7E8" d="M470.002,343.738c0-0.492,0.328-0.834,0.805-0.834c0.465,0,0.789,0.332,0.797,0.834
		c0,0.475-0.324,0.824-0.815,0.824C470.33,344.563,470.002,344.213,470.002,343.738z"/>
	<path fill="#E6E7E8" d="M476.797,344.348c-0.242,0.117-0.701,0.205-1.223,0.205c-1.414,0-2.32-0.867-2.32-2.238
		c0-1.281,0.877-2.332,2.51-2.332c0.359,0,0.754,0.064,1.041,0.172l-0.217,1.012c-0.16-0.07-0.404-0.133-0.762-0.133
		c-0.717,0-1.182,0.508-1.174,1.227c0,0.799,0.539,1.229,1.201,1.229c0.322,0,0.574-0.055,0.781-0.143L476.797,344.348z"/>
	<path fill="#E6E7E8" d="M482.855,342.225c0,1.604-1.137,2.338-2.311,2.338c-1.283,0-2.268-0.844-2.268-2.258
		c0-1.426,0.93-2.33,2.35-2.33C481.959,339.975,482.855,340.898,482.855,342.225z M479.684,342.268c0,0.754,0.314,1.318,0.895,1.318
		c0.539,0,0.869-0.527,0.869-1.326c0-0.646-0.248-1.309-0.869-1.309C479.934,340.951,479.684,341.625,479.684,342.268z"/>
	<path fill="#E6E7E8" d="M484.777,341.48c0-0.547-0.018-1.004-0.037-1.4h1.158l0.053,0.594h0.025
		c0.191-0.287,0.584-0.699,1.33-0.699c0.572,0,1.012,0.295,1.199,0.752h0.016c0.174-0.232,0.361-0.412,0.576-0.537
		c0.242-0.135,0.512-0.215,0.832-0.215c0.842,0,1.479,0.592,1.479,1.91v2.58h-1.324v-2.385c0-0.637-0.209-1.006-0.646-1.006
		c-0.322,0-0.539,0.217-0.637,0.479c-0.023,0.098-0.045,0.232-0.045,0.35v2.563h-1.326V342c0-0.547-0.197-0.926-0.637-0.926
		c-0.348,0-0.555,0.271-0.635,0.486c-0.045,0.109-0.055,0.232-0.055,0.35v2.555h-1.326V341.48z"/>
</g>
</svg>
