<?xml version="1.0" encoding="utf-8"?>
<!-- Generator: Adobe Illustrator 15.1.0, SVG Export Plug-In . SVG Version: 6.00 Build 0)  -->
<!DOCTYPE svg PUBLIC "-//W3C//DTD SVG 1.1//EN" "http://www.w3.org/Graphics/SVG/1.1/DTD/svg11.dtd">
<svg version="1.1" id="Layer_1" xmlns="http://www.w3.org/2000/svg" xmlns:xlink="http://www.w3.org/1999/xlink" x="0px" y="0px"
	 width="972.28px" height="102.05px" viewBox="0 0 972.28 102.05" enable-background="new 0 0 972.28 102.05" xml:space="preserve">
<rect x="44.019" y="44.202" fill="#2BACE2" width="176.594" height="14.221"/>
<rect x="220.612" y="44.202" fill="#8EC641" width="176.591" height="14.221"/>
<rect x="397.207" y="44.202" fill="#F5CF1D" width="176.593" height="14.221"/>
<rect x="573.8" y="44.202" fill="#F05486" width="176.592" height="14.221"/>
<rect x="750.392" y="44.202" fill="#EC2227" width="176.592" height="14.221"/>
<g>
	<path fill="#010101" d="M55.234,92.765H53.95v-9.287c0-2.572-1.369-3.858-4.109-3.858c-1.093,0-2.059,0.374-2.892,1.127
		c-0.833,0.748-1.25,1.673-1.25,2.767c0,0.69,0.19,1.625,0.572,2.804c0.38,1.179,0.572,2.09,0.572,2.733
		c0,0.477-0.025,0.798-0.072,0.965c0.286-0.62,0.774-1.311,1.463-2.073c0.548-0.596,1.108-1.201,1.679-1.821
		c-0.594,0-1.095-0.203-1.5-0.608c-0.405-0.405-0.609-0.903-0.609-1.498c0-0.597,0.203-1.097,0.609-1.501
		c0.404-0.407,0.905-0.608,1.5-0.608c0.595,0,1.094,0.201,1.501,0.608c0.405,0.404,0.607,0.904,0.607,1.501
		c0,1.141-0.839,2.595-2.519,4.355c-1.678,1.762-2.553,3.229-2.626,4.394h-1.285v-3.214c0-0.691-0.196-1.674-0.59-2.946
		c-0.392-1.275-0.588-2.244-0.588-2.911c0-1.619,0.536-2.894,1.607-3.822s2.405-1.391,4-1.391c1.644,0,2.923,0.435,3.841,1.303
		c0.917,0.869,1.375,2.043,1.375,3.52v9.464H55.234z M51.021,84.014c0-0.312-0.108-0.573-0.322-0.788
		c-0.215-0.214-0.477-0.32-0.786-0.32c-0.31,0-0.57,0.107-0.786,0.32c-0.214,0.215-0.32,0.477-0.32,0.788
		c0,0.309,0.107,0.569,0.32,0.784c0.215,0.216,0.476,0.32,0.786,0.32c0.309,0,0.572-0.105,0.786-0.32
		C50.912,84.585,51.021,84.322,51.021,84.014z"/>
	<path fill="#010101" d="M55.45,76.513c-2.739-0.977-5.31-1.465-7.716-1.465c-0.857,0-1.796,0.074-2.821,0.213
		c0.024-1.236,0.535-2.234,1.536-2.998c0.903-0.69,1.988-1.035,3.249-1.035c1.905,0,3.356,0.632,4.356,1.892v-3.464h1.179v5.894
		C55.329,75.858,55.402,76.18,55.45,76.513z M54.057,75.155c-1.046-1.93-2.488-2.894-4.322-2.894c-1.666,0-2.785,0.632-3.357,1.893
		c0.5-0.07,1.06-0.106,1.678-0.106C50.342,74.048,52.342,74.418,54.057,75.155z"/>
	<path fill="#010101" d="M69.522,92.765h-1.395c-1.856-1.432-3.594-2.37-5.213-2.823c0.071,0.215,0.107,0.428,0.107,0.644
		c0,0.692-0.244,1.274-0.731,1.752c-0.488,0.475-1.078,0.713-1.768,0.713c-0.691,0-1.273-0.238-1.75-0.713
		c-0.476-0.478-0.714-1.06-0.714-1.752c0-0.69,0.238-1.281,0.714-1.769c0.477-0.488,1.06-0.733,1.75-0.733
		c0.261,0,0.512,0.036,0.75,0.109v-5.25c-0.31,0.167-0.667,0.249-1.071,0.249c-0.643,0-1.195-0.231-1.661-0.695
		c-0.463-0.466-0.696-1.019-0.696-1.661c0-0.644,0.233-1.197,0.696-1.662c0.465-0.463,1.018-0.697,1.661-0.697
		c0.644,0,1.197,0.231,1.662,0.697c0.464,0.465,0.697,1.019,0.697,1.662v7.714c2.356,0.833,4.25,1.798,5.678,2.893V78.763h1.286
		L69.522,92.765L69.522,92.765z M61.415,80.835c0-0.333-0.12-0.62-0.357-0.857c-0.238-0.237-0.524-0.358-0.858-0.358
		c-0.332,0-0.619,0.121-0.856,0.358c-0.239,0.237-0.357,0.524-0.357,0.857c0,0.331,0.118,0.619,0.357,0.855
		c0.239,0.238,0.525,0.358,0.856,0.358c0.333,0,0.621-0.12,0.858-0.358C61.294,81.454,61.415,81.166,61.415,80.835z M61.842,90.55
		c0-0.358-0.131-0.667-0.394-0.931c-0.262-0.262-0.572-0.392-0.927-0.392c-0.356,0-0.668,0.13-0.929,0.392
		c-0.264,0.264-0.393,0.572-0.393,0.931c0,0.356,0.129,0.665,0.393,0.927c0.261,0.265,0.572,0.395,0.929,0.395
		c0.356,0,0.667-0.13,0.927-0.395C61.71,91.215,61.842,90.906,61.842,90.55z"/>
	<path fill="#010101" d="M80.808,92.765h-1.285V82.084c0-0.715-0.269-1.305-0.804-1.769c-0.535-0.464-1.267-0.697-2.196-0.697
		c-0.833,0-1.5,0.28-2,0.842c-0.499,0.558-0.773,1.159-0.821,1.803H72.38c0.023-1,0.423-1.88,1.195-2.645
		c0.774-0.762,1.77-1.143,2.985-1.143c1.38,0,2.434,0.335,3.16,1c0.726,0.667,1.089,1.549,1.089,2.644L80.808,92.765L80.808,92.765z
		"/>
	<path fill="#010101" d="M94.594,92.765h-1.286v-9.323c0-1.166-0.364-2.093-1.09-2.785c-0.727-0.692-1.66-1.037-2.804-1.037
		c-0.809,0-1.595,0.229-2.356,0.679c-0.762,0.455-1.287,1.037-1.572,1.751c1.405,0.118,2.369,0.645,2.893,1.57
		c-0.572,0.122-1.071,0.436-1.5,0.948c-0.429,0.512-0.643,1.077-0.643,1.696v6.501h-1.288v-6.466c0-1.405,0.619-2.357,1.857-2.857
		c-0.786-0.379-1.69-0.512-2.714-0.393c0.19-1.334,0.791-2.429,1.803-3.285c1.013-0.857,2.208-1.285,3.591-1.285
		c1.546,0,2.785,0.428,3.713,1.285c0.928,0.856,1.393,2.036,1.393,3.537v9.464H94.594z"/>
</g>
<g>
	<path fill="#010101" d="M234.339,92.765h-1.286v-9.287c0-2.572-1.369-3.858-4.107-3.858c-1.095,0-2.06,0.374-2.894,1.127
		c-0.833,0.748-1.25,1.673-1.25,2.767c0,0.69,0.19,1.625,0.572,2.804s0.572,2.09,0.572,2.733c0,0.477-0.024,0.798-0.071,0.965
		c0.286-0.62,0.774-1.311,1.463-2.073c0.548-0.596,1.107-1.201,1.679-1.821c-0.595,0-1.096-0.203-1.5-0.608
		c-0.405-0.405-0.608-0.903-0.608-1.498c0-0.597,0.203-1.097,0.608-1.501c0.404-0.407,0.904-0.608,1.5-0.608
		s1.094,0.201,1.501,0.608c0.404,0.404,0.608,0.904,0.608,1.501c0,1.141-0.839,2.595-2.518,4.355
		c-1.678,1.762-2.554,3.229-2.625,4.394h-1.288v-3.214c0-0.691-0.196-1.674-0.589-2.946c-0.394-1.275-0.589-2.244-0.589-2.911
		c0-1.619,0.535-2.894,1.607-3.822s2.404-1.391,4-1.391c1.645,0,2.923,0.435,3.841,1.303c0.917,0.869,1.375,2.043,1.375,3.52V92.765
		z M230.125,84.014c0-0.312-0.107-0.573-0.323-0.788c-0.213-0.214-0.476-0.32-0.784-0.32c-0.31,0-0.572,0.107-0.786,0.32
		c-0.215,0.215-0.321,0.477-0.321,0.788c0,0.309,0.107,0.569,0.321,0.784c0.214,0.216,0.476,0.32,0.786,0.32
		c0.309,0,0.572-0.105,0.784-0.32C230.017,84.585,230.125,84.322,230.125,84.014z"/>
	<path fill="#010101" d="M234.553,76.513c-2.738-0.977-5.31-1.465-7.715-1.465c-0.855,0-1.797,0.074-2.822,0.213
		c0.025-1.236,0.536-2.234,1.536-2.998c0.905-0.69,1.99-1.035,3.25-1.035c1.905,0,3.356,0.632,4.356,1.892v-3.464h1.178v5.894
		C234.433,75.858,234.506,76.18,234.553,76.513z M233.159,75.155c-1.046-1.93-2.488-2.894-4.321-2.894
		c-1.667,0-2.786,0.632-3.357,1.893c0.502-0.07,1.06-0.106,1.678-0.106C229.446,74.048,231.447,74.418,233.159,75.155z"/>
</g>
<g>
	<path fill="#010101" d="M409.237,89.728c0,2.214-1.537,3.322-4.608,3.322c-3.094,0-4.643-1.108-4.643-3.322v-6.785
		c-0.312,0.167-0.668,0.249-1.071,0.249c-0.644,0-1.197-0.231-1.661-0.695c-0.464-0.466-0.698-1.019-0.698-1.661
		c0-0.644,0.233-1.197,0.698-1.662c0.463-0.463,1.019-0.697,1.661-0.697c0.643,0,1.195,0.231,1.66,0.697
		c0.463,0.465,0.697,1.019,0.697,1.662v8.784c0,1.5,1.119,2.252,3.357,2.252c2.214,0,3.322-0.752,3.322-2.252V72.798h1.286V89.728
		L409.237,89.728z M400.129,80.835c0-0.333-0.12-0.62-0.357-0.857c-0.238-0.237-0.523-0.358-0.857-0.358
		c-0.333,0-0.621,0.121-0.857,0.358c-0.238,0.237-0.357,0.524-0.357,0.857c0,0.331,0.119,0.619,0.357,0.855
		c0.238,0.238,0.525,0.358,0.857,0.358c0.332,0,0.619-0.12,0.857-0.358C400.009,81.454,400.129,81.166,400.129,80.835z"/>
	<path fill="#010101" d="M420.522,92.765h-1.285V82.084c0-0.715-0.269-1.305-0.804-1.769s-1.267-0.697-2.196-0.697
		c-0.833,0-1.5,0.28-2,0.842c-0.499,0.558-0.773,1.159-0.821,1.803h-1.321c0.024-1,0.422-1.88,1.196-2.645
		c0.773-0.762,1.768-1.143,2.983-1.143c1.38,0,2.434,0.335,3.16,1c0.726,0.667,1.09,1.549,1.09,2.644v10.646H420.522z"/>
	<path fill="#010101" d="M436.237,90.727c0,0.644-0.23,1.191-0.696,1.644c-0.465,0.451-1.02,0.68-1.661,0.68
		c-0.641,0-1.191-0.229-1.643-0.68c-0.453-0.453-0.68-1-0.68-1.644v-0.25c-1.476,0.597-2.619,1.359-3.428,2.286h-1.572V82.94
		c-0.311,0.167-0.667,0.251-1.072,0.251c-0.643,0-1.195-0.232-1.66-0.698c-0.464-0.463-0.697-1.016-0.697-1.661
		c0-0.642,0.233-1.194,0.697-1.66c0.464-0.465,1.017-0.696,1.66-0.696c0.644,0,1.197,0.231,1.661,0.696
		c0.464,0.465,0.697,1.019,0.697,1.66v10.537c0.476-0.524,1.321-1.06,2.536-1.607c1.357-0.619,2.237-1.096,2.643-1.43
		c0.81-0.644,1.215-1.465,1.215-2.465v-7.106h1.287v7.287c0,1.142-0.263,1.975-0.787,2.501
		C435.738,88.953,436.237,89.68,436.237,90.727z M426.702,80.835c0-0.333-0.12-0.62-0.356-0.857
		c-0.239-0.237-0.524-0.358-0.859-0.358c-0.333,0-0.618,0.121-0.855,0.358c-0.238,0.237-0.358,0.524-0.358,0.857
		c0,0.331,0.12,0.619,0.358,0.855c0.237,0.238,0.523,0.358,0.855,0.358c0.333,0,0.62-0.12,0.859-0.358
		C426.582,81.454,426.702,81.166,426.702,80.835z M435.095,90.692c0-0.334-0.119-0.619-0.358-0.856
		c-0.236-0.237-0.523-0.358-0.855-0.358s-0.62,0.121-0.857,0.358c-0.238,0.237-0.356,0.522-0.356,0.856
		c0,0.333,0.119,0.618,0.356,0.856c0.239,0.239,0.525,0.356,0.857,0.356s0.619-0.117,0.855-0.356
		C434.976,91.311,435.095,91.025,435.095,90.692z"/>
	<path fill="#010101" d="M449.31,92.765h-1.287v-9.323c0-1.166-0.364-2.093-1.09-2.785c-0.728-0.692-1.661-1.037-2.803-1.037
		c-0.81,0-1.595,0.229-2.358,0.679c-0.763,0.455-1.286,1.037-1.572,1.751c1.405,0.118,2.37,0.645,2.893,1.57
		c-0.571,0.122-1.071,0.436-1.5,0.948c-0.427,0.512-0.643,1.077-0.643,1.696v6.501h-1.285v-6.466c0-1.405,0.619-2.357,1.856-2.857
		c-0.786-0.379-1.692-0.512-2.715-0.393c0.19-1.334,0.792-2.429,1.805-3.285c1.012-0.857,2.208-1.285,3.589-1.285
		c1.548,0,2.786,0.428,3.715,1.285c0.93,0.858,1.392,2.036,1.392,3.537v9.464H449.31z"/>
	<path fill="#010101" d="M462.917,92.765h-1.286v-6.107c0-0.833-0.44-1.501-1.322-2c-0.738-0.405-1.595-0.607-2.573-0.607
		c-0.951,0-1.761,0.254-2.427,0.766c-0.667,0.512-1,1.174-1,1.983v1.786c0.334-0.169,0.726-0.253,1.178-0.253
		c0.667,0,1.225,0.233,1.679,0.697c0.452,0.465,0.679,1.02,0.679,1.663c0,0.641-0.228,1.194-0.679,1.66
		c-0.455,0.464-1.013,0.697-1.679,0.697c-0.739,0-1.333-0.238-1.784-0.713c-0.454-0.478-0.68-1.038-0.68-1.679v-3.859
		c0-1.192,0.476-2.167,1.428-2.931c0.88-0.712,1.94-1.071,3.178-1.071c1.667,0,3.001,0.478,4.001,1.43v-1.75
		c0-0.854-0.453-1.571-1.357-2.143c-0.786-0.477-1.655-0.715-2.607-0.715c-1,0-1.906,0.216-2.715,0.644
		c-0.881,0.477-1.429,1.119-1.643,1.929h-1.25c0.166-1.095,0.808-2,1.928-2.714c1.047-0.667,2.25-0.999,3.608-0.999
		c1.38,0,2.571,0.32,3.572,0.963c1.167,0.762,1.751,1.799,1.751,3.107v10.216H462.917z M456.667,90.727
		c0-0.333-0.12-0.616-0.356-0.856c-0.239-0.238-0.526-0.357-0.856-0.357c-0.334,0-0.612,0.119-0.84,0.357
		c-0.226,0.24-0.339,0.523-0.339,0.856c0,0.335,0.113,0.612,0.339,0.84c0.228,0.228,0.506,0.339,0.84,0.339
		c0.332,0,0.617-0.111,0.856-0.339C456.547,91.341,456.667,91.063,456.667,90.727z"/>
	<path fill="#010101" d="M474.203,92.765h-1.286V82.084c0-0.715-0.268-1.305-0.804-1.769c-0.535-0.464-1.267-0.697-2.196-0.697
		c-0.833,0-1.5,0.28-2,0.842c-0.498,0.558-0.773,1.159-0.821,1.803h-1.321c0.023-1,0.423-1.88,1.195-2.645
		c0.774-0.762,1.769-1.143,2.983-1.143c1.381,0,2.435,0.335,3.161,1c0.725,0.667,1.088,1.549,1.088,2.644L474.203,92.765
		L474.203,92.765z"/>
	<path fill="#010101" d="M484.704,92.765h-1.286l-6.643-7.431l0.714-0.82l5.93,6.429v-8c-0.334,0.168-0.703,0.251-1.107,0.251
		c-0.642,0-1.196-0.232-1.661-0.697c-0.463-0.464-0.696-1.005-0.696-1.624c0-0.692,0.226-1.262,0.679-1.718
		c0.455-0.45,1.012-0.676,1.679-0.676c0.763,0,1.368,0.248,1.821,0.75c0.381,0.452,0.572,1,0.572,1.644L484.704,92.765
		L484.704,92.765z M483.526,80.798c0-0.332-0.12-0.618-0.36-0.855c-0.238-0.237-0.521-0.356-0.854-0.356
		c-0.335,0-0.621,0.119-0.857,0.356c-0.239,0.237-0.356,0.523-0.356,0.855c0,0.333,0.117,0.62,0.356,0.858
		c0.237,0.237,0.523,0.357,0.857,0.357c0.331,0,0.618-0.12,0.854-0.357C483.406,81.418,483.526,81.131,483.526,80.798z"/>
</g>
<g>
	<path fill="#010101" d="M578.98,90.55c0,0.665-0.233,1.24-0.696,1.714c-0.464,0.477-1.031,0.715-1.696,0.715
		c-0.739,0-1.345-0.265-1.821-0.786c-0.405-0.452-0.609-1-0.609-1.643V78.476h1.287v9.965c0.334-0.188,0.715-0.284,1.143-0.284
		c0.665,0,1.232,0.232,1.696,0.696C578.746,89.316,578.98,89.883,578.98,90.55z M577.803,90.55c0-0.335-0.121-0.619-0.358-0.858
		c-0.238-0.236-0.522-0.356-0.856-0.356c-0.333,0-0.618,0.12-0.856,0.356c-0.238,0.239-0.357,0.523-0.357,0.858
		c0,0.333,0.119,0.616,0.357,0.855c0.238,0.238,0.523,0.357,0.856,0.357c0.332,0,0.618-0.119,0.856-0.357
		C577.682,91.166,577.803,90.883,577.803,90.55z"/>
	<path fill="#010101" d="M587.694,90.692c0,0.641-0.215,1.194-0.642,1.66c-0.43,0.464-0.999,0.697-1.716,0.697
		c-0.643,0-1.194-0.233-1.658-0.697c-0.466-0.462-0.699-1.02-0.699-1.66c0-0.644,0.232-1.198,0.699-1.663
		c0.462-0.463,1.016-0.697,1.658-0.697c0.405,0,0.761,0.084,1.073,0.253v-3.75c0-0.978-2.3-1.835-6.894-2.572
		c0.142-2.523,1.297-3.787,3.464-3.787c0.501,0,1.209,0.127,2.126,0.376c0.915,0.249,1.576,0.375,1.983,0.375
		c0.234,0,0.461-0.274,0.678-0.823l1.105,0.286c-0.357,1.142-0.966,1.715-1.822,1.715c-0.501,0-1.22-0.129-2.162-0.393
		c-0.938-0.262-1.648-0.394-2.123-0.394c-0.429,0-0.828,0.186-1.195,0.556c-0.37,0.367-0.565,0.744-0.59,1.124
		c1.522,0.264,3.024,0.655,4.499,1.179c1.476,0.523,2.213,1.274,2.213,2.251v5.965H587.694z M586.553,90.692
		c0-0.334-0.12-0.619-0.357-0.856c-0.238-0.237-0.523-0.358-0.854-0.358c-0.336,0-0.621,0.121-0.859,0.358s-0.356,0.522-0.356,0.856
		c0,0.333,0.118,0.618,0.356,0.856c0.238,0.239,0.523,0.356,0.859,0.356c0.33,0,0.616-0.117,0.854-0.356
		C586.433,91.311,586.553,91.025,586.553,90.692z"/>
	<path fill="#010101" d="M588.338,76.513c-2.738-0.977-5.31-1.465-7.714-1.465c-0.856,0-1.798,0.074-2.821,0.213
		c0.024-1.236,0.535-2.234,1.533-2.998c0.907-0.69,1.989-1.035,3.251-1.035C585.802,71.226,587.72,72.988,588.338,76.513z
		 M586.946,75.155c-1.047-1.93-2.488-2.894-4.322-2.894c-1.666,0-2.786,0.632-3.357,1.893c0.501-0.07,1.062-0.106,1.679-0.106
		C583.23,74.048,585.231,74.418,586.946,75.155z"/>
	<path fill="#010101" d="M588.125,68.477h-1.179v-3.964h1.179V68.477z"/>
	<path fill="#010101" d="M602.412,92.765h-1.394c-1.858-1.432-3.596-2.37-5.215-2.823c0.071,0.215,0.107,0.428,0.107,0.644
		c0,0.692-0.244,1.274-0.731,1.752c-0.489,0.475-1.079,0.713-1.77,0.713c-0.691,0-1.275-0.238-1.75-0.713
		c-0.477-0.478-0.714-1.06-0.714-1.752c0-0.69,0.237-1.281,0.714-1.769c0.475-0.488,1.059-0.733,1.75-0.733
		c0.263,0,0.51,0.036,0.75,0.109v-5.25c-0.31,0.167-0.667,0.249-1.071,0.249c-0.643,0-1.195-0.231-1.659-0.695
		c-0.467-0.466-0.697-1.019-0.697-1.661c0-0.644,0.229-1.197,0.697-1.662c0.463-0.463,1.017-0.697,1.659-0.697
		c0.644,0,1.197,0.231,1.661,0.697c0.464,0.465,0.697,1.019,0.697,1.662v7.714c2.357,0.833,4.252,1.798,5.678,2.893V78.763h1.288
		L602.412,92.765L602.412,92.765z M594.304,80.835c0-0.333-0.12-0.62-0.358-0.857s-0.523-0.358-0.857-0.358
		s-0.618,0.121-0.856,0.358c-0.239,0.237-0.356,0.524-0.356,0.857c0,0.331,0.117,0.619,0.356,0.855
		c0.238,0.238,0.522,0.358,0.856,0.358s0.619-0.12,0.857-0.358C594.184,81.454,594.304,81.166,594.304,80.835z M594.732,90.55
		c0-0.358-0.131-0.667-0.395-0.931c-0.263-0.262-0.569-0.392-0.928-0.392c-0.357,0-0.666,0.13-0.929,0.392
		c-0.263,0.264-0.394,0.572-0.394,0.931c0,0.356,0.131,0.665,0.394,0.927c0.263,0.265,0.571,0.395,0.929,0.395
		c0.358,0,0.665-0.13,0.928-0.395C594.602,91.215,594.732,90.906,594.732,90.55z"/>
	<path fill="#010101" d="M616.696,92.765h-1.392c-1.856-1.432-3.595-2.37-5.215-2.823c0.071,0.215,0.107,0.428,0.107,0.644
		c0,0.692-0.243,1.274-0.732,1.752c-0.488,0.475-1.078,0.713-1.769,0.713c-0.691,0-1.274-0.238-1.75-0.713
		c-0.476-0.478-0.713-1.06-0.713-1.752c0-0.69,0.237-1.281,0.713-1.769c0.476-0.488,1.059-0.733,1.75-0.733
		c0.263,0,0.51,0.036,0.75,0.109v-5.25c-0.309,0.167-0.666,0.249-1.071,0.249c-0.643,0-1.196-0.231-1.66-0.695
		c-0.466-0.466-0.697-1.019-0.697-1.661c0-0.644,0.23-1.197,0.697-1.662c0.463-0.463,1.018-0.697,1.66-0.697
		c0.644,0,1.196,0.231,1.663,0.697c0.462,0.465,0.696,1.019,0.696,1.662v7.714c2.357,0.833,4.25,1.798,5.678,2.893V78.763h1.287
		v14.002H616.696z M608.591,80.835c0-0.333-0.121-0.62-0.358-0.857c-0.238-0.237-0.523-0.358-0.857-0.358s-0.618,0.121-0.856,0.358
		c-0.237,0.237-0.357,0.524-0.357,0.857c0,0.331,0.12,0.619,0.357,0.855c0.238,0.238,0.522,0.358,0.856,0.358
		s0.619-0.12,0.857-0.358C608.47,81.454,608.591,81.166,608.591,80.835z M609.019,90.55c0-0.358-0.132-0.667-0.393-0.931
		c-0.265-0.262-0.571-0.392-0.929-0.392c-0.358,0-0.667,0.13-0.93,0.392c-0.263,0.264-0.394,0.572-0.394,0.931
		c0,0.356,0.131,0.665,0.394,0.927c0.263,0.265,0.571,0.395,0.93,0.395c0.357,0,0.664-0.13,0.929-0.395
		C608.887,91.215,609.019,90.906,609.019,90.55z"/>
	<path fill="#010101" d="M616.912,76.513c-2.737-0.977-5.31-1.465-7.714-1.465c-0.857,0-1.799,0.074-2.822,0.213
		c0.025-1.236,0.536-2.234,1.536-2.998c0.903-0.69,1.988-1.035,3.249-1.035c1.905,0,3.358,0.632,4.357,1.892v-3.464h1.178v5.894
		C616.794,75.858,616.864,76.18,616.912,76.513z M615.519,75.155c-1.046-1.93-2.489-2.894-4.322-2.894
		c-1.667,0-2.785,0.632-3.358,1.893c0.502-0.07,1.062-0.106,1.68-0.106C611.805,74.048,613.804,74.418,615.519,75.155z"/>
	<path fill="#010101" d="M630.305,92.765h-1.43l-3.678-5.645l-3.645,5.645h-1.427v-11.93c0-0.644,0.226-1.197,0.678-1.662
		c0.454-0.463,1.013-0.697,1.679-0.697c0.644,0,1.195,0.231,1.66,0.697c0.465,0.465,0.697,1.019,0.697,1.662
		c0,0.619-0.227,1.165-0.678,1.642c-0.453,0.475-1.013,0.715-1.679,0.715c-0.334,0-0.692-0.084-1.071-0.251v7.895l3.284-5.072h0.965
		l3.356,5.072V78.763h1.287V92.765L630.305,92.765z M623.733,80.835c0-0.333-0.12-0.62-0.358-0.857s-0.523-0.358-0.857-0.358
		c-0.333,0-0.617,0.121-0.855,0.358s-0.358,0.524-0.358,0.857c0,0.331,0.12,0.619,0.358,0.855c0.239,0.238,0.522,0.358,0.855,0.358
		c0.334,0,0.619-0.12,0.857-0.358C623.614,81.454,623.733,81.166,623.733,80.835z"/>
	<path fill="#010101" d="M643.911,92.765h-1.284v-6.107c0-0.833-0.442-1.501-1.322-2c-0.739-0.405-1.596-0.607-2.571-0.607
		c-0.954,0-1.763,0.254-2.429,0.766c-0.668,0.512-1,1.174-1,1.983v1.786c0.332-0.169,0.726-0.253,1.182-0.253
		c0.661,0,1.224,0.233,1.677,0.697c0.45,0.465,0.678,1.02,0.678,1.663c0,0.641-0.228,1.194-0.678,1.66
		c-0.453,0.464-1.016,0.697-1.677,0.697c-0.742,0-1.337-0.238-1.787-0.713c-0.455-0.478-0.68-1.038-0.68-1.679v-3.859
		c0-1.192,0.477-2.167,1.43-2.931c0.881-0.712,1.939-1.071,3.179-1.071c1.665,0,2.999,0.478,4.001,1.43v-1.75
		c0-0.854-0.453-1.571-1.356-2.143c-0.786-0.477-1.657-0.715-2.608-0.715c-0.999,0-1.904,0.216-2.714,0.644
		c-0.883,0.477-1.43,1.119-1.643,1.929h-1.25c0.167-1.095,0.81-2,1.929-2.714c1.047-0.667,2.25-0.999,3.607-0.999
		c1.38,0,2.571,0.32,3.571,0.963c1.165,0.762,1.75,1.799,1.75,3.107v10.216H643.911z M637.663,90.727
		c0-0.333-0.122-0.616-0.359-0.856c-0.237-0.238-0.523-0.357-0.855-0.357c-0.333,0-0.613,0.119-0.839,0.357
		c-0.227,0.24-0.34,0.523-0.34,0.856c0,0.335,0.113,0.612,0.34,0.84c0.225,0.228,0.506,0.339,0.839,0.339
		c0.332,0,0.618-0.111,0.855-0.339C637.541,91.341,637.663,91.063,637.663,90.727z"/>
	<path fill="#010101" d="M657.876,92.765h-1.285v-9.287c0-1.763-0.572-2.99-1.715-3.677l-2.285,2.105l-2.428-2.105
		c-1.194,0.761-1.787,1.999-1.787,3.713c0,0.74,0.189,1.757,0.571,3.055c0.381,1.298,0.572,2.422,0.572,3.373
		c0.235-0.475,0.719-1.011,1.444-1.605c0.728-0.596,1.208-1.072,1.446-1.43c-0.548-0.046-1.006-0.262-1.376-0.643
		c-0.368-0.381-0.554-0.856-0.554-1.429c0-0.596,0.197-1.094,0.592-1.499c0.392-0.407,0.886-0.609,1.481-0.609
		c0.595,0,1.095,0.202,1.499,0.609c0.406,0.405,0.607,0.903,0.607,1.499c0,1.096-0.832,2.406-2.501,3.929
		c-1.667,1.523-2.535,2.856-2.604,4.001h-1.289v-3.216c0-0.69-0.2-1.673-0.605-2.945c-0.406-1.274-0.607-2.245-0.607-2.911
		c0-1.167,0.263-2.226,0.785-3.18c0.619-1.071,1.463-1.75,2.535-2.034l2.216,1.965l2.034-1.965c1.047,0.19,1.87,0.797,2.464,1.82
		c0.524,0.882,0.785,1.882,0.785,3.002v9.464H657.876z M653.732,84.798c0-0.309-0.106-0.571-0.32-0.784
		c-0.213-0.216-0.477-0.322-0.786-0.322c-0.311,0-0.57,0.108-0.785,0.322c-0.215,0.213-0.321,0.476-0.321,0.784
		c0,0.311,0.107,0.571,0.321,0.786c0.214,0.214,0.475,0.321,0.785,0.321c0.31,0,0.572-0.107,0.786-0.321
		C653.627,85.369,653.732,85.108,653.732,84.798z"/>
	<path fill="#010101" d="M657.876,75.619h-1.321v-5.143h1.321V75.619z"/>
	<path fill="#010101" d="M671.701,89.728c-0.049,2.214-1.645,3.322-4.788,3.322c-3.145,0-4.714-1.108-4.714-3.322v-4.394
		c0-0.643,0.23-1.197,0.697-1.661c0.462-0.462,1.018-0.697,1.66-0.697c0.644,0,1.195,0.233,1.662,0.697
		c0.462,0.463,0.695,1.019,0.695,1.661c0,0.642-0.215,1.194-0.644,1.662c-0.428,0.463-0.998,0.695-1.714,0.695
		c-0.405,0-0.762-0.081-1.071-0.25v2c0,1.621,1.166,2.43,3.501,2.43c2.283,0,3.428-0.809,3.428-2.43V82.8
		c0-1-0.417-1.799-1.249-2.394c-0.763-0.524-1.703-0.787-2.821-0.787c-0.976,0-1.871,0.229-2.68,0.679
		c-0.882,0.5-1.404,1.132-1.572,1.894h-1.285c0.237-1.118,0.861-2.018,1.873-2.697c1.013-0.679,2.258-1.019,3.733-1.019
		c1.404,0,2.595,0.335,3.57,1c1.144,0.762,1.718,1.798,1.718,3.106V89.728L671.701,89.728z M665.771,85.334
		c0-0.333-0.12-0.62-0.358-0.857c-0.236-0.237-0.522-0.358-0.855-0.358c-0.334,0-0.619,0.121-0.857,0.358s-0.357,0.524-0.357,0.857
		c0,0.332,0.119,0.618,0.357,0.856s0.523,0.358,0.857,0.358c0.333,0,0.619-0.12,0.855-0.358
		C665.65,85.952,665.771,85.666,665.771,85.334z"/>
	<path fill="#010101" d="M685.306,92.765h-1.285v-5.822c0-0.833-0.442-1.5-1.322-2.001c-0.738-0.403-1.595-0.605-2.571-0.605
		c-0.951,0-1.762,0.256-2.43,0.767c-0.666,0.512-0.996,1.173-0.996,1.983v1.499c0.33-0.169,0.726-0.253,1.178-0.253
		c0.665,0,1.227,0.233,1.677,0.697c0.452,0.465,0.679,1.02,0.679,1.663c0,0.641-0.227,1.194-0.679,1.66
		c-0.451,0.464-1.012,0.697-1.677,0.697c-0.739,0-1.335-0.238-1.786-0.713c-0.453-0.478-0.679-1.038-0.679-1.679v-3.572
		c0-1.193,0.476-2.167,1.43-2.931c0.88-0.714,1.939-1.071,3.179-1.071h0.214c1.071-0.879,1.977-1.735,2.715-2.571
		c-0.881-0.595-1.846-0.894-2.894-0.894c-1,0-1.905,0.216-2.714,0.644c-0.882,0.477-1.43,1.119-1.644,1.929h-1.25
		c0.168-1.095,0.809-2,1.928-2.714c1.05-0.667,2.252-0.999,3.608-0.999c1.358,0,2.584,0.344,3.68,1.036
		c0.499-0.573,0.821-1.239,0.964-2.001h1.285c-0.167,0.952-0.619,1.892-1.357,2.821c0.501,0.644,0.751,1.382,0.751,2.214v10.216
		H685.306z M679.057,90.727c0-0.333-0.121-0.616-0.358-0.856c-0.237-0.238-0.524-0.357-0.857-0.357s-0.613,0.119-0.838,0.357
		c-0.227,0.24-0.34,0.523-0.34,0.856c0,0.335,0.113,0.612,0.34,0.84c0.224,0.228,0.505,0.339,0.838,0.339s0.62-0.111,0.857-0.339
		C678.938,91.341,679.057,91.063,679.057,90.727z M684.021,84.513v-2.036c0-0.332-0.107-0.715-0.32-1.142
		c-0.668,0.714-1.383,1.358-2.144,1.928C682.556,83.501,683.38,83.917,684.021,84.513z"/>
	<path fill="#010101" d="M685.306,101.05h-1.248v-2.894c-0.19,0.073-0.404,0.108-0.643,0.108c-0.523,0-0.972-0.186-1.34-0.554
		c-0.369-0.371-0.554-0.816-0.554-1.34c0-0.521,0.183-0.969,0.554-1.339c0.369-0.368,0.816-0.554,1.34-0.554
		c0.521,0,0.971,0.186,1.337,0.554c0.369,0.37,0.554,0.817,0.554,1.339V101.05L685.306,101.05z M684.343,96.334
		c0-0.263-0.091-0.481-0.27-0.659c-0.177-0.178-0.398-0.269-0.657-0.269c-0.264,0-0.483,0.091-0.661,0.269
		c-0.182,0.178-0.269,0.399-0.269,0.659c0,0.262,0.087,0.482,0.269,0.66c0.178,0.179,0.397,0.269,0.661,0.269
		c0.259,0,0.48-0.09,0.657-0.269C684.252,96.816,684.343,96.599,684.343,96.334z"/>
	<path fill="#010101" d="M698.806,89.799c0,2.165-1.095,3.251-3.285,3.251c-2.142,0-3.214-1.086-3.214-3.251v-3.394
		c0-0.594,0.298-1.404,0.892-2.429c0.596-1.024,0.896-1.823,0.896-2.392c0-0.55-0.234-1.031-0.698-1.447s-1.03-0.624-1.696-0.624
		c-1.048,0-1.846,0.344-2.393,1.034c0.213-0.095,0.487-0.142,0.82-0.142c0.618,0,1.126,0.196,1.519,0.59
		c0.394,0.393,0.59,0.887,0.59,1.482c0,0.62-0.196,1.137-0.59,1.554c-0.393,0.415-0.9,0.625-1.519,0.625
		c-0.737,0-1.303-0.273-1.697-0.821c-0.393-0.549-0.589-1.217-0.589-2c0-0.883,0.341-1.662,1.019-2.342
		c0.679-0.677,1.624-1.016,2.84-1.016c1.045,0,1.91,0.261,2.589,0.785c0.678,0.524,1.018,1.238,1.018,2.143
		c0,0.691-0.286,1.596-0.856,2.715c-0.569,1.119-0.856,1.94-0.856,2.464v3.321c0,1.335,0.655,2.001,1.965,2.001
		c1.308,0,1.965-0.666,1.965-2.001V78.763h1.285v11.036H698.806z M691.271,82.513c0-0.333-0.106-0.608-0.32-0.822
		c-0.215-0.213-0.488-0.321-0.822-0.321c-0.333,0-0.608,0.108-0.82,0.321c-0.215,0.214-0.323,0.489-0.323,0.822
		s0.108,0.606,0.323,0.82c0.212,0.215,0.487,0.32,0.82,0.32c0.334,0,0.607-0.105,0.822-0.32
		C691.164,83.119,691.271,82.846,691.271,82.513z"/>
	<path fill="#010101" d="M713.985,92.765h-1.287v-9.287c0-1.167-0.363-2.1-1.089-2.804c-0.726-0.702-1.661-1.053-2.803-1.053
		c-0.81,0-1.59,0.232-2.34,0.695c-0.75,0.464-1.27,1.055-1.555,1.77c1.263,0.121,2.226,0.643,2.895,1.571
		c-1.287,0.428-1.93,1.298-1.93,2.607c0,0.928,0.107,1.882,0.32,2.858c0.097,0.427,0.144,0.928,0.144,1.499
		c0,0.69-0.209,1.269-0.624,1.731c-0.418,0.463-0.996,0.698-1.732,0.698c-0.645,0-1.191-0.226-1.642-0.679
		c-0.455-0.454-0.681-1-0.681-1.645c0-0.643,0.226-1.195,0.681-1.66c0.451-0.465,0.997-0.697,1.642-0.697
		c0.262,0,0.549,0.06,0.855,0.179c-0.143-1.094-0.215-1.928-0.215-2.5c0-1.096,0.478-1.953,1.43-2.572
		c-0.644-0.286-1.273-0.429-1.894-0.429c-0.31,0-0.534,0.014-0.679,0.035c0.121-1.333,0.699-2.434,1.732-3.303
		c1.036-0.868,2.245-1.303,3.625-1.303c1.524,0,2.762,0.435,3.716,1.303c0.952,0.869,1.429,2.055,1.429,3.555L713.985,92.765
		L713.985,92.765z M705.198,90.727c0-0.333-0.119-0.616-0.356-0.856c-0.239-0.238-0.521-0.357-0.856-0.357s-0.612,0.119-0.841,0.357
		c-0.225,0.24-0.339,0.523-0.339,0.856c0,0.335,0.114,0.612,0.339,0.84c0.227,0.228,0.506,0.339,0.841,0.339
		s0.617-0.111,0.856-0.339C705.079,91.341,705.198,91.063,705.198,90.727z"/>
	<path fill="#010101" d="M725.271,92.765h-1.285V82.084c0-0.715-0.27-1.305-0.805-1.769s-1.268-0.697-2.196-0.697
		c-0.834,0-1.499,0.28-1.998,0.842c-0.501,0.558-0.774,1.159-0.822,1.803h-1.322c0.026-1,0.423-1.88,1.196-2.645
		c0.773-0.762,1.769-1.143,2.983-1.143c1.381,0,2.434,0.335,3.16,1c0.727,0.667,1.09,1.549,1.09,2.644L725.271,92.765
		L725.271,92.765z"/>
	<path fill="#010101" d="M741.237,92.765h-1.572l-3.393-12.395l-3.395,12.395h-1.57v-9.822c-0.311,0.167-0.668,0.249-1.072,0.249
		c-0.645,0-1.196-0.231-1.66-0.695c-0.465-0.466-0.697-1.019-0.697-1.661c0-0.644,0.232-1.197,0.697-1.662
		c0.463-0.463,1.016-0.697,1.66-0.697c0.644,0,1.197,0.231,1.662,0.697c0.462,0.465,0.696,1.019,0.696,1.662v7.464
		c0,0.595-0.06,1.429-0.18,2.499c0.169-0.783,0.382-1.654,0.645-2.605l2.606-9.43h1.214l2.606,9.43
		c0.264,0.951,0.478,1.823,0.644,2.605c-0.118-1.07-0.178-1.904-0.178-2.499v-9.536h1.286V92.765L741.237,92.765z M731.45,80.835
		c0-0.333-0.12-0.62-0.358-0.857s-0.522-0.358-0.856-0.358c-0.335,0-0.618,0.121-0.857,0.358c-0.237,0.237-0.355,0.524-0.355,0.857
		c0,0.331,0.118,0.619,0.355,0.855c0.239,0.238,0.522,0.358,0.857,0.358c0.334,0,0.618-0.12,0.856-0.358
		C731.33,81.454,731.45,81.166,731.45,80.835z"/>
</g>
<g>
	<path fill="#010101" d="M764.924,92.765h-1.393c-1.858-1.432-3.596-2.37-5.216-2.823c0.073,0.215,0.108,0.428,0.108,0.644
		c0,0.692-0.245,1.274-0.733,1.752c-0.487,0.475-1.078,0.713-1.768,0.713c-0.69,0-1.274-0.238-1.749-0.713
		c-0.478-0.478-0.715-1.06-0.715-1.752c0-0.69,0.237-1.281,0.715-1.769c0.474-0.488,1.057-0.733,1.749-0.733
		c0.261,0,0.511,0.036,0.75,0.109v-5.25c-0.31,0.167-0.666,0.249-1.073,0.249c-0.641,0-1.195-0.231-1.659-0.695
		c-0.465-0.466-0.696-1.019-0.696-1.661c0-0.644,0.23-1.197,0.696-1.662c0.462-0.463,1.019-0.697,1.659-0.697
		c0.644,0,1.197,0.231,1.664,0.697c0.464,0.465,0.697,1.019,0.697,1.662v7.714c2.357,0.833,4.249,1.798,5.678,2.893V78.763h1.286
		L764.924,92.765L764.924,92.765z M756.814,80.835c0-0.333-0.119-0.62-0.358-0.857c-0.236-0.237-0.522-0.358-0.856-0.358
		s-0.619,0.121-0.856,0.358s-0.358,0.524-0.358,0.857c0,0.331,0.119,0.619,0.358,0.855c0.237,0.238,0.522,0.358,0.856,0.358
		s0.62-0.12,0.856-0.358C756.695,81.454,756.814,81.166,756.814,80.835z M757.244,90.55c0-0.358-0.131-0.667-0.394-0.931
		c-0.263-0.262-0.569-0.392-0.928-0.392c-0.359,0-0.667,0.13-0.929,0.392c-0.264,0.264-0.395,0.572-0.395,0.931
		c0,0.356,0.131,0.665,0.395,0.927c0.262,0.265,0.569,0.395,0.929,0.395c0.358,0,0.665-0.13,0.928-0.395
		C757.113,91.215,757.244,90.906,757.244,90.55z"/>
	<path fill="#010101" d="M765.137,76.513c-2.738-0.977-5.311-1.465-7.714-1.465c-0.857,0-1.799,0.074-2.823,0.213
		c0.025-1.236,0.536-2.234,1.535-2.998c0.908-0.69,1.989-1.035,3.251-1.035c1.906,0,3.358,0.632,4.357,1.892v-3.464h1.18v5.894
		C765.02,75.858,765.089,76.18,765.137,76.513z M763.745,75.155c-1.047-1.93-2.488-2.894-4.321-2.894
		c-1.668,0-2.788,0.632-3.359,1.893c0.501-0.07,1.061-0.106,1.681-0.106C760.028,74.048,762.029,74.418,763.745,75.155z"/>
	<path fill="#010101" d="M778.53,92.765h-1.429l-3.678-5.645l-3.644,5.645h-1.429v-11.93c0-0.644,0.226-1.197,0.678-1.662
		c0.454-0.463,1.011-0.697,1.679-0.697c0.643,0,1.194,0.231,1.661,0.697c0.465,0.465,0.695,1.019,0.695,1.662
		c0,0.619-0.225,1.165-0.678,1.642c-0.452,0.475-1.012,0.715-1.678,0.715c-0.333,0-0.689-0.084-1.07-0.251v7.895l3.284-5.072h0.964
		l3.356,5.072V78.763h1.287V92.765L778.53,92.765z M771.96,80.835c0-0.333-0.122-0.62-0.359-0.857
		c-0.238-0.237-0.523-0.358-0.855-0.358c-0.333,0-0.619,0.121-0.857,0.358c-0.239,0.237-0.358,0.524-0.358,0.857
		c0,0.331,0.119,0.619,0.358,0.855c0.238,0.238,0.524,0.358,0.857,0.358c0.332,0,0.617-0.12,0.855-0.358
		C771.838,81.454,771.96,81.166,771.96,80.835z"/>
	<path fill="#010101" d="M792.138,92.765h-1.286v-6.107c0-0.833-0.441-1.501-1.32-2c-0.738-0.405-1.596-0.607-2.572-0.607
		c-0.953,0-1.762,0.254-2.429,0.766c-0.668,0.512-0.999,1.174-0.999,1.983v1.786c0.331-0.169,0.726-0.253,1.18-0.253
		c0.664,0,1.226,0.233,1.677,0.697c0.453,0.465,0.678,1.02,0.678,1.663c0,0.641-0.225,1.194-0.678,1.66
		c-0.452,0.464-1.013,0.697-1.677,0.697c-0.739,0-1.336-0.238-1.787-0.713c-0.451-0.478-0.68-1.038-0.68-1.679v-3.859
		c0-1.192,0.478-2.167,1.431-2.931c0.881-0.712,1.939-1.071,3.179-1.071c1.667,0,3.001,0.478,4.001,1.43v-1.75
		c0-0.854-0.452-1.571-1.356-2.143c-0.787-0.477-1.657-0.715-2.608-0.715c-1,0-1.904,0.216-2.714,0.644
		c-0.882,0.477-1.43,1.119-1.643,1.929h-1.248c0.165-1.095,0.807-2,1.926-2.714c1.049-0.667,2.252-0.999,3.609-0.999
		c1.379,0,2.569,0.32,3.571,0.963c1.165,0.762,1.749,1.799,1.749,3.107v10.216H792.138z M785.889,90.727
		c0-0.333-0.122-0.616-0.356-0.856c-0.239-0.238-0.524-0.357-0.858-0.357c-0.332,0-0.613,0.119-0.839,0.357
		c-0.226,0.24-0.34,0.523-0.34,0.856c0,0.335,0.114,0.612,0.34,0.84c0.224,0.228,0.507,0.339,0.839,0.339
		c0.334,0,0.619-0.111,0.858-0.339C785.767,91.341,785.889,91.063,785.889,90.727z"/>
	<path fill="#010101" d="M806.104,92.765h-1.287v-9.287c0-1.763-0.57-2.99-1.716-3.677l-2.285,2.105l-2.429-2.105
		c-1.19,0.761-1.786,1.999-1.786,3.713c0,0.74,0.191,1.757,0.572,3.055c0.382,1.298,0.571,2.422,0.571,3.373
		c0.238-0.475,0.721-1.011,1.447-1.605c0.727-0.596,1.208-1.072,1.445-1.43c-0.547-0.046-1.006-0.262-1.376-0.643
		c-0.369-0.381-0.554-0.856-0.554-1.429c0-0.596,0.197-1.094,0.592-1.499c0.39-0.407,0.885-0.609,1.479-0.609
		s1.097,0.202,1.501,0.609c0.405,0.405,0.607,0.903,0.607,1.499c0,1.096-0.834,2.406-2.502,3.929
		c-1.665,1.523-2.535,2.856-2.604,4.001h-1.288v-3.216c0-0.69-0.201-1.673-0.605-2.945c-0.406-1.274-0.609-2.245-0.609-2.911
		c0-1.167,0.264-2.226,0.786-3.18c0.618-1.071,1.465-1.75,2.536-2.034l2.214,1.965l2.036-1.965c1.046,0.19,1.869,0.797,2.463,1.82
		c0.524,0.882,0.786,1.882,0.786,3.002v9.464H806.104z M801.958,84.798c0-0.309-0.106-0.571-0.319-0.784
		c-0.215-0.216-0.476-0.322-0.786-0.322c-0.312,0-0.571,0.108-0.787,0.322c-0.214,0.213-0.321,0.476-0.321,0.784
		c0,0.311,0.108,0.571,0.321,0.786c0.215,0.214,0.476,0.321,0.787,0.321c0.311,0,0.57-0.107,0.786-0.321
		C801.853,85.369,801.958,85.108,801.958,84.798z"/>
	<path fill="#010101" d="M806.104,75.619h-1.323v-5.143h1.323V75.619z"/>
	<path fill="#010101" d="M819.926,89.728c-0.048,2.214-1.643,3.322-4.787,3.322c-3.143,0-4.714-1.108-4.714-3.322v-4.394
		c0-0.643,0.231-1.197,0.695-1.661c0.464-0.462,1.019-0.697,1.662-0.697c0.643,0,1.196,0.233,1.661,0.697
		c0.464,0.463,0.697,1.019,0.697,1.661c0,0.642-0.214,1.194-0.645,1.662c-0.428,0.463-0.999,0.695-1.714,0.695
		c-0.405,0-0.762-0.081-1.073-0.25v2c0,1.621,1.17,2.43,3.503,2.43c2.284,0,3.428-0.809,3.428-2.43V82.8
		c0-1-0.416-1.799-1.249-2.394c-0.763-0.524-1.703-0.787-2.821-0.787c-0.977,0-1.869,0.229-2.679,0.679
		c-0.882,0.5-1.405,1.132-1.572,1.894h-1.287c0.237-1.118,0.863-2.018,1.875-2.697c1.012-0.679,2.257-1.019,3.732-1.019
		c1.404,0,2.596,0.335,3.57,1c1.143,0.762,1.717,1.798,1.717,3.106V89.728L819.926,89.728z M813.995,85.334
		c0-0.333-0.118-0.62-0.356-0.857c-0.237-0.237-0.524-0.358-0.857-0.358c-0.334,0-0.62,0.121-0.856,0.358
		c-0.24,0.237-0.358,0.524-0.358,0.857c0,0.332,0.118,0.618,0.358,0.856c0.236,0.238,0.522,0.358,0.856,0.358
		c0.333,0,0.62-0.12,0.857-0.358C813.878,85.952,813.995,85.666,813.995,85.334z"/>
	<path fill="#010101" d="M833.532,92.765h-1.286v-5.822c0-0.833-0.441-1.5-1.321-2.001c-0.739-0.403-1.596-0.605-2.572-0.605
		c-0.951,0-1.761,0.256-2.428,0.767c-0.667,0.512-0.998,1.173-0.998,1.983v1.499c0.331-0.169,0.726-0.253,1.178-0.253
		c0.664,0,1.226,0.233,1.678,0.697c0.452,0.465,0.678,1.02,0.678,1.663c0,0.641-0.226,1.194-0.678,1.66
		c-0.452,0.464-1.014,0.697-1.678,0.697c-0.737,0-1.335-0.238-1.787-0.713c-0.452-0.478-0.679-1.038-0.679-1.679v-3.572
		c0-1.193,0.477-2.167,1.431-2.931c0.882-0.714,1.94-1.071,3.179-1.071h0.215c1.071-0.879,1.977-1.735,2.714-2.571
		c-0.882-0.595-1.846-0.894-2.893-0.894c-1.001,0-1.904,0.216-2.715,0.644c-0.881,0.477-1.429,1.119-1.643,1.929h-1.25
		c0.167-1.095,0.809-2,1.929-2.714c1.048-0.667,2.25-0.999,3.606-0.999c1.358,0,2.584,0.344,3.68,1.036
		c0.501-0.573,0.822-1.239,0.964-2.001h1.286c-0.167,0.952-0.618,1.892-1.358,2.821c0.501,0.644,0.751,1.382,0.751,2.214v10.216
		H833.532z M827.281,90.727c0-0.333-0.12-0.616-0.355-0.856c-0.24-0.238-0.525-0.357-0.859-0.357c-0.332,0-0.612,0.119-0.838,0.357
		c-0.227,0.24-0.34,0.523-0.34,0.856c0,0.335,0.113,0.612,0.34,0.84c0.225,0.228,0.506,0.339,0.838,0.339
		c0.334,0,0.619-0.111,0.859-0.339C827.163,91.341,827.281,91.063,827.281,90.727z M832.246,84.513v-2.036
		c0-0.332-0.107-0.715-0.32-1.142c-0.666,0.714-1.382,1.358-2.143,1.928C830.781,83.501,831.603,83.917,832.246,84.513z"/>
	<path fill="#010101" d="M833.532,101.05h-1.25v-2.894c-0.189,0.073-0.403,0.108-0.643,0.108c-0.523,0-0.971-0.186-1.34-0.554
		c-0.368-0.371-0.554-0.816-0.554-1.34c0-0.521,0.185-0.969,0.554-1.339c0.37-0.368,0.816-0.554,1.34-0.554s0.97,0.186,1.338,0.554
		c0.369,0.37,0.555,0.817,0.555,1.339V101.05L833.532,101.05z M832.567,96.334c0-0.263-0.089-0.481-0.268-0.659
		c-0.178-0.178-0.397-0.269-0.659-0.269c-0.263,0-0.482,0.091-0.662,0.269c-0.177,0.178-0.264,0.399-0.264,0.659
		c0,0.262,0.087,0.482,0.264,0.66c0.18,0.179,0.399,0.269,0.662,0.269c0.262,0,0.481-0.09,0.659-0.269
		C832.478,96.816,832.567,96.599,832.567,96.334z"/>
	<path fill="#010101" d="M847.03,89.799c0,2.165-1.094,3.251-3.283,3.251c-2.143,0-3.215-1.086-3.215-3.251v-3.394
		c0-0.594,0.299-1.404,0.894-2.429s0.894-1.823,0.894-2.392c0-0.55-0.231-1.031-0.697-1.447c-0.464-0.416-1.03-0.624-1.697-0.624
		c-1.046,0-1.845,0.344-2.393,1.034c0.214-0.095,0.487-0.142,0.822-0.142c0.617,0,1.124,0.196,1.518,0.59
		c0.395,0.393,0.59,0.887,0.59,1.482c0,0.62-0.195,1.137-0.59,1.554c-0.394,0.415-0.9,0.625-1.518,0.625
		c-0.738,0-1.305-0.273-1.697-0.821c-0.394-0.549-0.59-1.217-0.59-2c0-0.883,0.34-1.662,1.018-2.342
		c0.681-0.677,1.626-1.016,2.84-1.016c1.048,0,1.912,0.261,2.591,0.785c0.678,0.524,1.018,1.238,1.018,2.143
		c0,0.691-0.286,1.596-0.855,2.715c-0.57,1.119-0.859,1.94-0.859,2.464v3.321c0,1.335,0.657,2.001,1.968,2.001
		c1.308,0,1.964-0.666,1.964-2.001V78.763h1.284v11.036H847.03z M839.495,82.513c0-0.333-0.105-0.608-0.318-0.822
		c-0.215-0.213-0.49-0.321-0.822-0.321c-0.335,0-0.608,0.108-0.822,0.321c-0.212,0.214-0.321,0.489-0.321,0.822
		s0.109,0.606,0.321,0.82c0.214,0.215,0.487,0.32,0.822,0.32c0.332,0,0.607-0.105,0.822-0.32
		C839.39,83.119,839.495,82.846,839.495,82.513z"/>
	<path fill="#010101" d="M862.211,92.765h-1.287v-9.287c0-1.167-0.363-2.1-1.089-2.804c-0.726-0.702-1.661-1.053-2.803-1.053
		c-0.811,0-1.589,0.232-2.34,0.695c-0.749,0.464-1.268,1.055-1.555,1.77c1.261,0.121,2.227,0.643,2.894,1.571
		c-1.286,0.428-1.928,1.298-1.928,2.607c0,0.928,0.106,1.882,0.32,2.858c0.096,0.427,0.144,0.928,0.144,1.499
		c0,0.69-0.21,1.269-0.624,1.731c-0.418,0.463-0.996,0.698-1.733,0.698c-0.643,0-1.19-0.226-1.642-0.679
		c-0.455-0.454-0.68-1-0.68-1.645c0-0.643,0.225-1.195,0.68-1.66c0.451-0.465,0.999-0.697,1.642-0.697
		c0.262,0,0.549,0.06,0.857,0.179c-0.144-1.094-0.216-1.928-0.216-2.5c0-1.096,0.476-1.953,1.43-2.572
		c-0.645-0.286-1.274-0.429-1.892-0.429c-0.312,0-0.536,0.014-0.68,0.035c0.119-1.333,0.698-2.434,1.731-3.303
		c1.036-0.868,2.246-1.303,3.625-1.303c1.522,0,2.762,0.435,3.716,1.303c0.951,0.869,1.428,2.055,1.428,3.555L862.211,92.765
		L862.211,92.765z M853.426,90.727c0-0.333-0.12-0.616-0.357-0.856c-0.238-0.238-0.522-0.357-0.857-0.357s-0.613,0.119-0.84,0.357
		c-0.226,0.24-0.338,0.523-0.338,0.856c0,0.335,0.112,0.612,0.338,0.84s0.505,0.339,0.84,0.339s0.619-0.111,0.857-0.339
		C853.306,91.341,853.426,91.063,853.426,90.727z"/>
	<path fill="#010101" d="M873.497,92.765h-1.286V82.084c0-0.715-0.267-1.305-0.803-1.769c-0.535-0.464-1.27-0.697-2.195-0.697
		c-0.836,0-1.501,0.28-2.002,0.842c-0.5,0.558-0.773,1.159-0.821,1.803h-1.322c0.025-1,0.423-1.88,1.196-2.645
		c0.773-0.762,1.769-1.143,2.983-1.143c1.379,0,2.435,0.335,3.159,1c0.728,0.667,1.091,1.549,1.091,2.644V92.765z"/>
	<path fill="#010101" d="M889.462,92.765h-1.573l-3.393-12.395l-3.394,12.395h-1.57v-9.822c-0.31,0.167-0.667,0.249-1.071,0.249
		c-0.645,0-1.198-0.231-1.661-0.695c-0.464-0.466-0.697-1.019-0.697-1.661c0-0.644,0.231-1.197,0.697-1.662
		c0.462-0.463,1.017-0.697,1.661-0.697c0.643,0,1.194,0.231,1.66,0.697c0.464,0.465,0.697,1.019,0.697,1.662v7.464
		c0,0.595-0.062,1.429-0.179,2.499c0.167-0.783,0.383-1.654,0.644-2.605l2.608-9.43h1.211l2.608,9.43
		c0.262,0.951,0.477,1.823,0.643,2.605c-0.118-1.07-0.178-1.904-0.178-2.499v-9.536h1.287L889.462,92.765L889.462,92.765z
		 M879.675,80.835c0-0.333-0.12-0.62-0.356-0.857c-0.24-0.237-0.521-0.358-0.856-0.358s-0.619,0.121-0.857,0.358
		c-0.239,0.237-0.357,0.524-0.357,0.857c0,0.331,0.118,0.619,0.357,0.855c0.238,0.238,0.522,0.358,0.857,0.358
		s0.616-0.12,0.856-0.358C879.555,81.454,879.675,81.166,879.675,80.835z"/>
</g>
<g>
	<path fill="#010101" d="M44.449,23.548c0-3.178,0.475-5.51,1.42-6.999c0.945-1.487,2.415-2.232,4.405-2.232
		c1.991,0,3.462,0.745,4.407,2.232c0.945,1.489,1.42,3.821,1.42,6.999c0,3.177-0.475,5.51-1.42,6.997
		c-0.945,1.489-2.416,2.232-4.407,2.232c-1.99,0-3.46-0.744-4.405-2.232C44.924,29.06,44.449,26.726,44.449,23.548z M54.513,23.548
		c0-2.851-0.378-4.875-1.134-6.072c-0.756-1.199-1.791-1.797-3.103-1.797c-1.312,0-2.345,0.598-3.102,1.797
		c-0.756,1.197-1.135,3.221-1.135,6.072c0,2.849,0.379,4.874,1.135,6.07c0.756,1.198,1.791,1.798,3.102,1.798
		c1.312,0,2.345-0.599,3.103-1.798C54.133,28.423,54.513,26.397,54.513,23.548z"/>
	<path fill="#010101" d="M72.668,26.158h-6.619v-1.249h6.619V26.158z"/>
	<path fill="#010101" d="M83.107,19.424c0.227-1.689,0.826-2.962,1.798-3.82c0.97-0.856,2.288-1.287,3.952-1.287
		c1.664,0,2.983,0.441,3.952,1.324c0.971,0.883,1.457,2.094,1.457,3.632c0,0.604-0.107,1.172-0.322,1.702
		c-0.213,0.528-0.592,1.077-1.135,1.645c-0.542,0.567-1.279,1.191-2.213,1.872c-0.934,0.681-2.118,1.45-3.556,2.308
		c-0.857,0.505-1.518,1.154-1.984,1.947c-0.467,0.795-0.726,1.557-0.775,2.289h9.948l-0.415,1.362H82.579
		c0-1.438,0.296-2.736,0.889-3.896c0.591-1.159,1.545-2.143,2.855-2.95c1.136-0.705,2.106-1.33,2.914-1.873
		c0.807-0.541,1.457-1.053,1.948-1.532c0.491-0.479,0.85-0.945,1.079-1.398c0.226-0.455,0.339-0.958,0.339-1.515
		c0-1.134-0.322-2.009-0.964-2.628c-0.645-0.618-1.583-0.927-2.818-0.927c-1.134,0-2.087,0.372-2.856,1.116
		c-0.77,0.745-1.205,1.722-1.305,2.932L83.107,19.424z"/>
	<path fill="#010101" d="M101.453,32.701c-1.338,0-2.478-0.322-3.424-0.964c-0.946-0.643-1.595-1.381-1.947-2.213l1.209-0.643
		c0.279,0.705,0.8,1.298,1.572,1.778c0.768,0.479,1.619,0.719,2.553,0.719c1.336,0,2.427-0.466,3.271-1.4
		c0.845-0.933,1.267-2.105,1.267-3.517c0-1.21-0.365-2.212-1.097-3.008c-0.732-0.794-1.777-1.191-3.14-1.191
		c-1.262,0-2.333,0.441-3.216,1.323h-1.06l0.567-9.155h8.964l-0.265,1.438h-7.262l-0.378,5.636c0.429-0.277,0.958-0.46,1.589-0.549
		c0.63-0.087,1.135-0.132,1.513-0.132c1.59,0,2.869,0.492,3.839,1.475c0.97,0.983,1.455,2.321,1.455,4.011
		c0,1.815-0.535,3.334-1.607,4.558C104.789,32.09,103.319,32.701,101.453,32.701z"/>
</g>
<g>
	<path fill="#010101" d="M221.796,19.424c0.228-1.689,0.827-2.962,1.797-3.82c0.971-0.856,2.29-1.287,3.953-1.287
		s2.983,0.441,3.954,1.324c0.97,0.883,1.455,2.094,1.455,3.632c0,0.604-0.107,1.172-0.321,1.702
		c-0.214,0.528-0.592,1.077-1.134,1.645c-0.543,0.567-1.281,1.191-2.214,1.872c-0.933,0.681-2.118,1.45-3.556,2.308
		c-0.858,0.505-1.519,1.154-1.985,1.947c-0.467,0.795-0.725,1.557-0.774,2.289h9.947l-0.415,1.362h-11.234
		c0-1.438,0.296-2.736,0.889-3.896c0.593-1.159,1.544-2.143,2.857-2.95c1.134-0.705,2.106-1.33,2.912-1.873
		c0.807-0.541,1.457-1.053,1.948-1.532s0.851-0.945,1.078-1.398c0.228-0.455,0.34-0.958,0.34-1.515c0-1.134-0.32-2.009-0.964-2.628
		c-0.643-0.618-1.583-0.927-2.818-0.927c-1.135,0-2.086,0.372-2.855,1.116c-0.771,0.745-1.207,1.722-1.305,2.932L221.796,19.424z"/>
	<path fill="#010101" d="M246.345,26.914c0,1.641-0.485,3.014-1.457,4.123c-0.972,1.111-2.251,1.665-3.839,1.665
		c-1.839,0-3.259-0.611-4.255-1.834c-0.997-1.222-1.494-2.817-1.494-4.786c0-2.623,0.844-5.093,2.534-7.414
		c1.69-2.32,3.896-3.845,6.62-4.577l0.643,1.098c-1.563,0.403-3.122,1.317-4.671,2.743c-1.551,1.425-2.629,3.146-3.235,5.164h0.077
		c0.277-0.531,0.787-0.99,1.532-1.381c0.744-0.39,1.532-0.587,2.363-0.587c1.515,0,2.755,0.549,3.728,1.646
		C245.861,23.871,246.345,25.25,246.345,26.914z M244.833,26.914c0-1.286-0.347-2.364-1.039-3.234
		c-0.696-0.87-1.672-1.305-2.933-1.305c-1.11,0-2.061,0.435-2.856,1.305c-0.794,0.87-1.191,1.948-1.191,3.234
		c0,1.186,0.384,2.233,1.154,3.141c0.77,0.907,1.735,1.362,2.894,1.362c1.186,0,2.143-0.415,2.875-1.248
		C244.467,29.335,244.833,28.252,244.833,26.914z"/>
	<path fill="#010101" d="M263.253,26.158h-6.619v-1.249h6.619V26.158z"/>
	<path fill="#010101" d="M278.344,32.701c-1.336,0-2.476-0.322-3.422-0.964c-0.945-0.643-1.596-1.381-1.948-2.213l1.21-0.643
		c0.277,0.705,0.799,1.298,1.57,1.778c0.77,0.479,1.621,0.719,2.553,0.719c1.337,0,2.428-0.466,3.271-1.4
		c0.845-0.933,1.267-2.105,1.267-3.517c0-1.21-0.366-2.212-1.097-3.008c-0.732-0.794-1.777-1.191-3.14-1.191
		c-1.262,0-2.334,0.441-3.216,1.323h-1.059l0.567-9.155h8.964l-0.264,1.438h-7.262l-0.379,5.636c0.428-0.277,0.958-0.46,1.59-0.549
		c0.629-0.087,1.134-0.132,1.512-0.132c1.59,0,2.869,0.492,3.839,1.475c0.971,0.983,1.457,2.321,1.457,4.011
		c0,1.815-0.536,3.334-1.608,4.558C281.679,32.09,280.211,32.701,278.344,32.701z"/>
	<path fill="#010101" d="M286.931,23.548c0-3.178,0.473-5.51,1.419-6.999c0.946-1.487,2.416-2.232,4.406-2.232
		c1.992,0,3.461,0.745,4.407,2.232c0.945,1.489,1.418,3.821,1.418,6.999c0,3.177-0.473,5.51-1.418,6.997
		c-0.946,1.489-2.416,2.232-4.407,2.232c-1.99,0-3.46-0.744-4.406-2.232C287.403,29.06,286.931,26.726,286.931,23.548z
		 M296.994,23.548c0-2.851-0.379-4.875-1.135-6.072c-0.756-1.199-1.791-1.797-3.103-1.797c-1.311,0-2.343,0.598-3.102,1.797
		c-0.757,1.197-1.134,3.221-1.134,6.072c0,2.849,0.377,4.874,1.134,6.07c0.756,1.198,1.791,1.798,3.102,1.798
		c1.312,0,2.345-0.599,3.103-1.798C296.614,28.423,296.994,26.397,296.994,23.548z"/>
</g>
<g>
	<path fill="#010101" d="M402.759,32.701c-1.337,0-2.477-0.322-3.422-0.964c-0.947-0.643-1.596-1.381-1.949-2.213l1.21-0.643
		c0.278,0.705,0.799,1.298,1.571,1.778c0.769,0.479,1.62,0.719,2.552,0.719c1.337,0,2.428-0.466,3.271-1.4
		c0.845-0.933,1.267-2.105,1.267-3.517c0-1.21-0.367-2.212-1.098-3.008c-0.732-0.794-1.777-1.191-3.139-1.191
		c-1.262,0-2.333,0.441-3.215,1.323h-1.06l0.567-9.155h8.963l-0.264,1.438h-7.262l-0.378,5.636c0.429-0.277,0.957-0.46,1.59-0.549
		c0.631-0.087,1.135-0.132,1.512-0.132c1.59,0,2.869,0.492,3.84,1.475c0.969,0.983,1.456,2.321,1.456,4.011
		c0,1.815-0.538,3.334-1.608,4.558C406.095,32.09,404.625,32.701,402.759,32.701z"/>
	<path fill="#010101" d="M421.181,32.399h-7.187v-1.363h2.836V16.474l-2.836,2.458l-0.833-0.945l4.352-3.82h0.831v16.87h2.836
		V32.399z"/>
	<path fill="#010101" d="M439.564,26.158h-6.62v-1.249h6.62V26.158z"/>
	<path fill="#010101" d="M459.384,32.399h-7.187v-1.363h2.837V16.474l-2.837,2.458l-0.831-0.945l4.351-3.82h0.831v16.87h2.837v1.363
		H459.384z"/>
	<path fill="#010101" d="M463.243,23.548c0-3.178,0.473-5.51,1.417-6.999c0.945-1.487,2.414-2.232,4.407-2.232
		c1.991,0,3.462,0.745,4.406,2.232c0.946,1.489,1.418,3.821,1.418,6.999c0,3.177-0.473,5.51-1.418,6.997
		c-0.945,1.489-2.415,2.232-4.406,2.232c-1.993,0-3.461-0.744-4.407-2.232C463.716,29.06,463.243,26.726,463.243,23.548z
		 M473.304,23.548c0-2.851-0.378-4.875-1.135-6.072c-0.755-1.199-1.791-1.797-3.102-1.797c-1.313,0-2.346,0.598-3.1,1.797
		c-0.758,1.197-1.137,3.221-1.137,6.072c0,2.849,0.379,4.874,1.137,6.07c0.753,1.198,1.788,1.798,3.1,1.798
		c1.311,0,2.344-0.599,3.102-1.798C472.926,28.423,473.304,26.397,473.304,23.548z"/>
	<path fill="#010101" d="M476.934,23.548c0-3.178,0.476-5.51,1.419-6.999c0.947-1.487,2.416-2.232,4.409-2.232
		c1.989,0,3.459,0.745,4.404,2.232c0.945,1.489,1.419,3.821,1.419,6.999c0,3.177-0.475,5.51-1.419,6.997
		c-0.945,1.489-2.415,2.232-4.404,2.232c-1.993,0-3.464-0.744-4.409-2.232C477.41,29.06,476.934,26.726,476.934,23.548z
		 M486.998,23.548c0-2.851-0.379-4.875-1.136-6.072c-0.755-1.199-1.788-1.797-3.101-1.797s-2.346,0.598-3.103,1.797
		c-0.756,1.197-1.136,3.221-1.136,6.072c0,2.849,0.38,4.874,1.136,6.07c0.755,1.198,1.791,1.798,3.103,1.798
		s2.346-0.599,3.101-1.798C486.619,28.423,486.998,26.397,486.998,23.548z"/>
</g>
<g>
	<path fill="#010101" d="M582.986,32.399h-7.186v-1.363h2.837V16.474l-2.837,2.458l-0.832-0.945l4.351-3.82h0.832v16.87h2.839v1.363
		H582.986z"/>
	<path fill="#010101" d="M586.846,23.548c0-3.178,0.474-5.51,1.417-6.999c0.946-1.487,2.415-2.232,4.406-2.232
		c1.993,0,3.463,0.745,4.407,2.232c0.946,1.489,1.419,3.821,1.419,6.999c0,3.177-0.474,5.51-1.419,6.997
		c-0.945,1.489-2.414,2.232-4.407,2.232c-1.991,0-3.461-0.744-4.406-2.232C587.319,29.06,586.846,26.726,586.846,23.548z
		 M596.909,23.548c0-2.851-0.381-4.875-1.136-6.072c-0.757-1.199-1.791-1.797-3.102-1.797c-1.313,0-2.345,0.598-3.103,1.797
		c-0.755,1.197-1.136,3.221-1.136,6.072c0,2.849,0.381,4.874,1.136,6.07c0.757,1.198,1.79,1.798,3.103,1.798
		c1.311,0,2.345-0.599,3.102-1.798C596.528,28.423,596.909,26.397,596.909,23.548z"/>
	<path fill="#010101" d="M610.374,32.399h-7.186v-1.363h2.836V16.474l-2.836,2.458l-0.833-0.945l4.351-3.82h0.831v16.87h2.839v1.363
		H610.374z"/>
	<path fill="#010101" d="M628.758,26.158h-6.619v-1.249h6.619V26.158z"/>
	<path fill="#010101" d="M639.197,19.424c0.227-1.689,0.824-2.962,1.797-3.82c0.97-0.856,2.289-1.287,3.953-1.287
		c1.663,0,2.98,0.441,3.951,1.324c0.971,0.883,1.458,2.094,1.458,3.632c0,0.604-0.109,1.172-0.324,1.702
		c-0.215,0.528-0.591,1.077-1.134,1.645c-0.543,0.567-1.279,1.191-2.212,1.872c-0.935,0.681-2.119,1.45-3.557,2.308
		c-0.856,0.505-1.519,1.154-1.985,1.947c-0.467,0.795-0.725,1.557-0.774,2.289h9.948l-0.418,1.362h-11.233
		c0-1.438,0.297-2.736,0.89-3.896c0.594-1.159,1.545-2.143,2.855-2.95c1.135-0.705,2.104-1.33,2.912-1.873
		c0.809-0.541,1.458-1.053,1.949-1.532c0.489-0.479,0.85-0.945,1.077-1.398c0.228-0.455,0.339-0.958,0.339-1.515
		c0-1.134-0.32-2.009-0.963-2.628c-0.644-0.618-1.582-0.927-2.816-0.927c-1.137,0-2.088,0.372-2.858,1.116
		c-0.77,0.745-1.206,1.722-1.306,2.932L639.197,19.424z"/>
	<path fill="#010101" d="M652.436,23.548c0-3.178,0.473-5.51,1.418-6.999c0.945-1.487,2.413-2.232,4.406-2.232
		c1.991,0,3.461,0.745,4.406,2.232c0.944,1.489,1.419,3.821,1.419,6.999c0,3.177-0.476,5.51-1.419,6.997
		c-0.947,1.489-2.415,2.232-4.406,2.232c-1.993,0-3.462-0.744-4.406-2.232C652.908,29.06,652.436,26.726,652.436,23.548z
		 M662.498,23.548c0-2.851-0.38-4.875-1.138-6.072c-0.753-1.199-1.788-1.797-3.1-1.797c-1.313,0-2.346,0.598-3.102,1.797
		c-0.757,1.197-1.136,3.221-1.136,6.072c0,2.849,0.379,4.874,1.136,6.07c0.756,1.198,1.789,1.798,3.102,1.798
		c1.312,0,2.345-0.599,3.1-1.798C662.118,28.423,662.498,26.397,662.498,23.548z"/>
	<path fill="#010101" d="M666.129,23.548c0-3.178,0.474-5.51,1.418-6.999c0.946-1.487,2.414-2.232,4.407-2.232
		c1.992,0,3.461,0.745,4.406,2.232c0.945,1.489,1.417,3.821,1.417,6.999c0,3.177-0.473,5.51-1.417,6.997
		c-0.946,1.489-2.414,2.232-4.406,2.232c-1.993,0-3.462-0.744-4.407-2.232C666.602,29.06,666.129,26.726,666.129,23.548z
		 M676.189,23.548c0-2.851-0.378-4.875-1.135-6.072c-0.754-1.199-1.788-1.797-3.101-1.797s-2.345,0.598-3.101,1.797
		c-0.759,1.197-1.137,3.221-1.137,6.072c0,2.849,0.378,4.874,1.137,6.07c0.754,1.198,1.788,1.798,3.101,1.798
		s2.346-0.599,3.101-1.798C675.813,28.423,676.189,26.397,676.189,23.548z"/>
</g>
<g>
	<path fill="#010101" d="M753.358,19.424c0.227-1.689,0.826-2.962,1.798-3.82c0.971-0.856,2.288-1.287,3.951-1.287
		c1.664,0,2.981,0.441,3.953,1.324c0.97,0.883,1.457,2.094,1.457,3.632c0,0.604-0.107,1.172-0.321,1.702
		c-0.216,0.528-0.593,1.077-1.136,1.645c-0.542,0.567-1.28,1.191-2.213,1.872s-2.117,1.45-3.555,2.308
		c-0.857,0.505-1.519,1.154-1.985,1.947c-0.467,0.795-0.726,1.557-0.775,2.289h9.948l-0.416,1.362H752.83
		c0-1.438,0.295-2.736,0.89-3.896c0.592-1.159,1.544-2.143,2.854-2.95c1.135-0.705,2.104-1.33,2.913-1.873
		c0.805-0.541,1.456-1.053,1.947-1.532s0.849-0.945,1.08-1.398c0.227-0.455,0.34-0.958,0.34-1.515c0-1.134-0.323-2.009-0.967-2.628
		c-0.643-0.618-1.581-0.927-2.816-0.927c-1.136,0-2.086,0.372-2.857,1.116c-0.77,0.745-1.204,1.722-1.305,2.932L753.358,19.424z"/>
	<path fill="#010101" d="M766.599,23.548c0-3.178,0.473-5.51,1.416-6.999c0.949-1.487,2.416-2.232,4.409-2.232
		c1.991,0,3.459,0.745,4.406,2.232c0.946,1.489,1.417,3.821,1.417,6.999c0,3.177-0.472,5.51-1.417,6.997
		c-0.948,1.489-2.415,2.232-4.406,2.232c-1.993,0-3.461-0.744-4.409-2.232C767.069,29.06,766.599,26.726,766.599,23.548z
		 M776.659,23.548c0-2.851-0.378-4.875-1.135-6.072c-0.755-1.199-1.791-1.797-3.101-1.797c-1.313,0-2.348,0.598-3.103,1.797
		c-0.757,1.197-1.135,3.221-1.135,6.072c0,2.849,0.378,4.874,1.135,6.07c0.755,1.198,1.79,1.798,3.103,1.798
		c1.31,0,2.345-0.599,3.101-1.798C776.282,28.423,776.659,26.397,776.659,23.548z"/>
	<path fill="#010101" d="M780.292,23.548c0-3.178,0.472-5.51,1.417-6.999c0.948-1.487,2.415-2.232,4.407-2.232
		c1.991,0,3.46,0.745,4.406,2.232c0.945,1.489,1.418,3.821,1.418,6.999c0,3.177-0.474,5.51-1.418,6.997
		c-0.947,1.489-2.416,2.232-4.406,2.232c-1.992,0-3.462-0.744-4.407-2.232C780.764,29.06,780.292,26.726,780.292,23.548z
		 M790.354,23.548c0-2.851-0.38-4.875-1.137-6.072c-0.755-1.199-1.79-1.797-3.101-1.797c-1.313,0-2.347,0.598-3.102,1.797
		c-0.758,1.197-1.136,3.221-1.136,6.072c0,2.849,0.378,4.874,1.136,6.07c0.754,1.198,1.789,1.798,3.102,1.798
		c1.311,0,2.344-0.599,3.101-1.798C789.976,28.423,790.354,26.397,790.354,23.548z"/>
	<path fill="#010101" d="M813.312,29.26c0,2.294-1.159,3.442-3.479,3.442c-2.27,0-3.404-1.147-3.404-3.442v-3.594
		c0-0.63,0.316-1.487,0.946-2.571c0.631-1.084,0.946-1.929,0.946-2.535c0-0.581-0.246-1.09-0.738-1.531
		c-0.493-0.442-1.093-0.663-1.797-0.663c-1.109,0-1.954,0.365-2.535,1.098c0.228-0.102,0.518-0.153,0.87-0.153
		c0.655,0,1.192,0.208,1.608,0.625c0.416,0.417,0.624,0.94,0.624,1.57c0,0.656-0.208,1.205-0.624,1.646
		c-0.416,0.441-0.953,0.662-1.608,0.662c-0.782,0-1.38-0.289-1.797-0.871c-0.416-0.58-0.625-1.286-0.625-2.118
		c0-0.932,0.36-1.758,1.079-2.477c0.719-0.719,1.722-1.079,3.008-1.079c1.107,0,2.023,0.278,2.743,0.832
		c0.717,0.555,1.076,1.312,1.076,2.27c0,0.731-0.303,1.69-0.906,2.875c-0.605,1.185-0.907,2.056-0.907,2.609v3.518
		c0,1.414,0.693,2.12,2.081,2.12c1.385,0,2.08-0.706,2.08-2.12V17.572h1.363V29.26H813.312z M805.331,21.543
		c0-0.354-0.112-0.644-0.341-0.87c-0.226-0.227-0.517-0.34-0.869-0.34s-0.645,0.113-0.87,0.34c-0.227,0.226-0.34,0.516-0.34,0.87
		c0,0.353,0.113,0.643,0.34,0.87c0.228,0.228,0.518,0.34,0.87,0.34s0.644-0.114,0.869-0.34
		C805.22,22.186,805.331,21.896,805.331,21.543z"/>
	<path fill="#010101" d="M813.538,15.189c-2.898-1.033-5.622-1.551-8.167-1.551c-0.909,0-1.906,0.075-2.99,0.228
		c0.025-1.313,0.566-2.37,1.625-3.178c0.96-0.731,2.106-1.098,3.443-1.098c1.362,0,2.534,0.329,3.518,0.984
		c-0.076-0.202-0.113-0.404-0.113-0.606c0-0.505,0.184-0.939,0.548-1.304c0.365-0.366,0.8-0.549,1.306-0.549
		s0.939,0.183,1.307,0.549c0.365,0.365,0.547,0.799,0.547,1.304c0,0.504-0.182,0.939-0.547,1.306
		c-0.367,0.365-0.801,0.549-1.307,0.549c-0.126,0-0.288-0.025-0.49-0.076C812.846,12.629,813.286,13.776,813.538,15.189z
		 M812.064,13.75c-1.107-2.043-2.633-3.064-4.576-3.064c-1.766,0-2.952,0.669-3.556,2.005c0.529-0.077,1.121-0.114,1.778-0.114
		C808.13,12.579,810.246,12.969,812.064,13.75z M813.691,9.968c0-0.276-0.096-0.51-0.284-0.7c-0.188-0.188-0.421-0.282-0.698-0.282
		c-0.275,0-0.511,0.095-0.699,0.282c-0.189,0.19-0.283,0.424-0.283,0.7c0,0.278,0.094,0.511,0.283,0.7
		c0.188,0.188,0.424,0.284,0.699,0.284c0.277,0,0.51-0.096,0.698-0.284S813.691,10.246,813.691,9.968z"/>
	<path fill="#010101" d="M817.021,1.155c-0.354,2.169-1.286,3.695-2.801,4.579c-1.208,0.705-2.886,1.059-5.029,1.059h-0.682V6.073
		c0.832-0.353,1.425-0.846,1.777-1.476c-0.505,0-0.946-0.183-1.323-0.549c-0.379-0.365-0.566-0.813-0.566-1.342
		s0.188-0.983,0.566-1.363c0.378-0.378,0.831-0.567,1.361-0.567c0.505,0,0.933,0.177,1.286,0.53c0.355,0.354,0.554,0.82,0.606,1.398
		c0,1.262-0.568,2.295-1.702,3.102c3-0.251,4.703-1.801,5.106-4.652L817.021,1.155L817.021,1.155z M811.155,2.705
		c0-0.252-0.08-0.465-0.245-0.643c-0.164-0.176-0.372-0.264-0.624-0.264s-0.467,0.088-0.644,0.264
		c-0.177,0.177-0.264,0.391-0.264,0.643c0,0.254,0.087,0.46,0.264,0.624c0.177,0.165,0.389,0.246,0.644,0.246
		c0.253,0,0.46-0.081,0.624-0.246C811.075,3.165,811.155,2.958,811.155,2.705z"/>
	<path fill="#010101" d="M829.956,30.243c0,0.681-0.244,1.261-0.738,1.74c-0.491,0.479-1.079,0.718-1.759,0.718
		c-0.681,0-1.263-0.239-1.74-0.718c-0.48-0.479-0.718-1.06-0.718-1.74v-0.265c-1.565,0.631-2.775,1.438-3.633,2.421h-1.665V21.997
		c-0.325,0.177-0.705,0.265-1.134,0.265c-0.681,0-1.266-0.247-1.758-0.738c-0.493-0.491-0.737-1.079-0.737-1.758
		c0-0.68,0.243-1.268,0.737-1.759c0.489-0.492,1.077-0.738,1.758-0.738s1.268,0.246,1.761,0.738
		c0.491,0.491,0.738,1.079,0.738,1.759v11.158c0.502-0.553,1.399-1.121,2.686-1.702c1.438-0.655,2.369-1.159,2.799-1.513
		c0.855-0.68,1.284-1.55,1.284-2.61V17.57h1.365v7.716c0,1.209-0.28,2.093-0.832,2.649
		C829.429,28.365,829.956,29.134,829.956,30.243z M819.855,19.766c0-0.354-0.125-0.655-0.378-0.907
		c-0.253-0.252-0.554-0.378-0.908-0.378c-0.354,0-0.654,0.125-0.906,0.378c-0.253,0.252-0.379,0.556-0.379,0.907
		c0,0.354,0.126,0.656,0.379,0.908c0.252,0.252,0.553,0.377,0.906,0.377c0.354,0,0.655-0.125,0.908-0.377
		C819.731,20.42,819.855,20.119,819.855,19.766z M828.747,30.206c0-0.353-0.128-0.656-0.381-0.909
		c-0.25-0.252-0.552-0.378-0.907-0.378c-0.354,0-0.653,0.127-0.906,0.378c-0.252,0.252-0.379,0.556-0.379,0.909
		c0,0.354,0.127,0.657,0.379,0.907c0.253,0.252,0.553,0.378,0.906,0.378c0.355,0,0.657-0.125,0.907-0.378
		C828.619,30.863,828.747,30.559,828.747,30.206z"/>
	<path fill="#010101" d="M839.98,30.128c0,0.708-0.252,1.312-0.757,1.816c-0.504,0.504-1.097,0.756-1.776,0.756
		c-0.807,0-1.464-0.278-1.968-0.832c-0.429-0.479-0.643-1.06-0.643-1.741V9.665l-2.724,3.934l-1.248-0.453
		c-0.128-1.689-0.417-3.656-0.87-5.9h1.173c0.403,2.193,0.643,3.847,0.718,4.955l3.104-4.576c0.325,0.025,0.609,0.177,0.849,0.454
		c0.238,0.278,0.359,0.567,0.359,0.869v18.951c0.354-0.201,0.77-0.302,1.249-0.302c0.681,0,1.272,0.246,1.777,0.737
		C839.728,28.825,839.98,29.424,839.98,30.128z M838.695,30.128c0-0.351-0.129-0.654-0.378-0.907
		c-0.253-0.252-0.556-0.378-0.908-0.378c-0.354,0-0.657,0.127-0.907,0.378c-0.253,0.252-0.379,0.556-0.379,0.907
		c0,0.354,0.126,0.657,0.379,0.908c0.25,0.253,0.553,0.379,0.907,0.379c0.353,0,0.655-0.126,0.908-0.379
		C838.566,30.786,838.695,30.484,838.695,30.128z"/>
	<path fill="#010101" d="M854.619,29.184c0,2.345-1.625,3.518-4.879,3.518c-3.279,0-4.918-1.172-4.918-3.518v-7.187
		c-0.328,0.177-0.705,0.265-1.135,0.265c-0.682,0-1.268-0.247-1.758-0.738c-0.492-0.491-0.739-1.079-0.739-1.758
		c0-0.68,0.246-1.268,0.739-1.759c0.489-0.492,1.076-0.738,1.758-0.738s1.269,0.246,1.76,0.738c0.49,0.491,0.737,1.079,0.737,1.759
		v9.306c0,1.59,1.185,2.382,3.557,2.382c2.346,0,3.518-0.794,3.518-2.382V11.253h1.362v17.93H854.619z M844.976,19.766
		c0-0.354-0.129-0.655-0.38-0.907c-0.252-0.252-0.554-0.378-0.908-0.378c-0.354,0-0.655,0.125-0.907,0.378
		c-0.251,0.252-0.378,0.556-0.378,0.907c0,0.354,0.127,0.656,0.378,0.908c0.252,0.252,0.554,0.377,0.907,0.377
		c0.354,0,0.656-0.125,0.908-0.377C844.847,20.42,844.976,20.119,844.976,19.766z"/>
</g>
</svg>
