<?xml version="1.0" encoding="utf-8"?>
<!-- Generator: Adobe Illustrator 19.0.0, SVG Export Plug-In . SVG Version: 6.00 Build 0)  -->
<svg version="1.1" id="Layer_1" xmlns="http://www.w3.org/2000/svg" xmlns:xlink="http://www.w3.org/1999/xlink" x="0px" y="0px"
	 viewBox="-27 208.7 781 149" style="enable-background:new -27 208.7 781 149;" xml:space="preserve">
<style type="text/css">
	.st0{fill:#131420;}
	.st1{fill:#E7E7E7;}
	.st2{fill:#D1D3D4;}
	.st3{fill:#E6E7E8;}
</style>
<g>
	<g>
		<path class="st0" d="M-4.3,314.1c-1.8,0.7-3.3,0.1-4.7-1c-0.3-0.2-0.6-0.5-0.8-0.7c-0.6-0.7-1.3-1.4-1.8-2.2
			c-2.6-3.7-4.3-7.9-5.2-12.4c-0.3-1.5-0.5-2.9-0.4-4.4c0.1-1.2,0.2-2.4,0.9-3.5c0.8-1.4,2.2-2,3.8-1.7c0.2,0,0.4,0.1,0.6,0.1
			c0-0.2,0-0.4-0.1-0.6c-1-3.8-1.8-7.6-2.3-11.5c-0.9-5.8-1.2-11.6-0.7-17.5c0.5-5.7,1.8-11.2,4.3-16.3c3.6-7.4,9.2-12.9,16.5-16.6
			c4.3-2.2,8.8-3.6,13.6-4.6c4.3-0.9,8.7-1.4,13.2-1.3c7.8,0.1,15.4,1.3,22.7,4.2c5.8,2.3,11,5.7,15.1,10.5c2.3,2.7,4.2,5.6,5.6,8.8
			c1.7,3.8,2.8,7.9,3.4,12c0.8,5.7,0.8,11.4,0.2,17.1c-0.5,5.1-1.5,10.1-2.8,15.1c-0.1,0.2-0.1,0.4-0.2,0.7c0.2-0.1,0.4-0.1,0.6-0.1
			c1.7-0.4,3.1,0.3,3.9,1.8c0.5,1,0.7,2,0.8,3.1c0.1,2.2-0.2,4.4-0.8,6.6c-1,3.8-2.5,7.3-4.7,10.5c-0.7,1-1.5,2-2.5,2.8
			c-0.3,0.3-0.7,0.5-1.1,0.8c-1.3,0.8-2.3,0.9-3.8,0.4c-0.1,0.2-0.2,0.5-0.3,0.7c-1.7,5.1-3.9,10-6.6,14.6c-2.8,4.7-6,8.9-10,12.6
			c-3.2,2.9-6.7,5.3-10.7,6.9c-3.1,1.2-6.3,1.9-9.6,1.8c-3.5-0.1-6.8-1-9.9-2.5c-4-1.8-7.4-4.4-10.5-7.5c-3.4-3.3-6.2-7.1-8.6-11.2
			c-2.8-4.7-5-9.6-6.7-14.8C-4.1,314.5-4.2,314.3-4.3,314.1z M55.8,255.7c-0.3,0.1-0.6,0.2-0.9,0.3c-0.3,0.1-0.7,0.2-1,0.3
			c-4.4,1.1-8.9,1.6-13.4,1.8c-4.2,0.2-8.4,0.2-12.6,0c-3-0.2-5.9-0.5-8.9-1c-1.4-0.3-2.8-0.4-4.2-0.2c-2.5,0.3-4.8,1.3-6.9,2.7
			c-2.1,1.4-3.8,3.1-5.4,5c-2.4,2.9-4.2,6.1-5.6,9.5c-2.3,5.5-3.5,11.3-3.6,17.2c0,0.4,0,0.8-0.2,1.2c-0.4,1.2-1.7,1.7-2.8,1.1
			c-0.4-0.2-0.7-0.5-1.1-0.8c-0.5-0.5-1-1-1.6-1.5c-0.9-0.7-1.4-0.5-1.6,0.6c-0.3,1.2-0.2,2.5-0.1,3.7c0.5,3.7,1.7,7.1,3.5,10.3
			c0.7,1.4,1.6,2.6,2.6,3.7c0.5,0.5,1.1,1,1.7,1.4c0.5,0.3,0.7,0.2,1-0.3c0.1-0.2,0.1-0.3,0.2-0.5c0.6-0.9,1.8-1,2.5,0
			c0.3,0.5,0.6,1,0.8,1.6c0.3,0.9,0.6,1.9,0.9,2.9c2.4,6.8,5.5,13.1,9.9,18.9c2.6,3.4,5.5,6.4,9,8.9c3.2,2.3,6.7,4,10.6,4.7
			c0.8,0.1,1.6,0.3,2.4,0.3c3,0.3,6-0.4,8.8-1.4c3.4-1.2,6.3-3.2,9-5.5c3.5-3,6.5-6.6,9-10.4c3.7-5.7,6.4-11.8,8.4-18.2
			c0.2-0.6,0.4-1.2,0.8-1.7c0.7-0.9,1.9-0.9,2.5,0.1c0.1,0.1,0.1,0.3,0.2,0.4c0.3,0.6,0.5,0.7,1,0.3c0.5-0.3,0.9-0.6,1.3-1
			c0.9-0.9,1.6-1.9,2.3-2.9c1.8-2.9,3-5.9,3.7-9.2c0.4-1.8,0.7-3.6,0.5-5.4c0-0.4-0.1-0.7-0.3-1.1c-0.2-0.6-0.5-0.8-1.1-0.4
			c-0.5,0.3-0.9,0.7-1.3,1c-0.3,0.3-0.6,0.7-0.9,1c-0.6,0.6-1.3,0.8-2.2,0.4c-0.7-0.3-1-0.8-1-1.7c0-0.7,0-1.4,0.1-2
			c0.2-2.6-0.3-5.1-1.1-7.5c-0.2-0.7-0.6-1.3-0.8-1.9c-0.8-2-1.9-3.7-3.2-5.3c-0.8-0.9-1.6-1.9-2.4-2.9c-0.6-0.7-1.1-1.5-1.8-2.2
			c-1.4-1.5-2.7-3.1-3.8-4.9c-1.1-1.7-1.9-3.6-2.3-5.6C56.3,258.3,56,257.1,55.8,255.7z M38.6,254.5c0,0.1,0,0.1,0,0.2
			c1,0,2-0.1,3-0.1c3-0.2,6-0.8,8.9-1.6c3.4-1,6.5-2.4,9.2-4.8c2.7-2.4,4.7-5.3,5.4-8.9c0.1-0.7,0.2-1.3,0.3-2
			c0-0.4-0.1-0.6-0.4-0.6c-0.3,0-0.4,0.2-0.5,0.6c0,0,0,0,0,0.1c-0.2,2.3-1.1,4.3-2.4,6.2c-1.6,2.3-3.7,4.1-6,5.6
			c-4.7,3.1-9.8,4.8-15.3,5.3C40,254.3,39.3,254.4,38.6,254.5z M-6,241.5c0.1-0.1,0.2-0.3,0.3-0.5c0.7-0.9,1.3-1.9,2-2.8
			c2.5-3.2,5.5-5.9,8.8-8.2c1.6-1.2,3.3-2.3,5.3-2.8c0.2-0.1,0.5-0.2,0.4-0.5c-0.1-0.3-0.4-0.2-0.6-0.2c0,0-0.1,0-0.1,0
			c-1.8,0.7-3.6,1.4-5.3,2.4c-3.9,2.4-7,5.7-9.5,9.6C-5.3,239.4-5.8,240.4-6,241.5z M62.5,255.6c-0.2,0.4-0.2,0.8-0.2,1.1
			c0,1.5,0.3,3,0.9,4.5c0.9,2.4,2.3,4.5,3.8,6.6c0.7,1,1.5,1.8,2.4,2.7c0.4,0.5,1,0.8,1.6,1.1c-0.6-0.8-1.2-1.5-1.8-2.2
			c-0.5-0.6-1-1.1-1.5-1.7C64.9,264.1,63.2,260.1,62.5,255.6z"/>
		<path class="st0" d="M18.1,321.3c0-0.4,0-0.8,0-1.2c0-1.3,0.6-1.9,1.9-2c2.8,0,5.7-0.1,8.5-0.1c5.1-0.1,10.3-0.1,15.4-0.1
			c0.3,0,0.5,0,0.8,0c1,0,1.6,0.6,1.7,1.5c0.4,3.7-0.2,7.1-2.4,10.2c-4.5,6.4-13.5,7.9-20,3.3C20.1,330.1,18.2,326.1,18.1,321.3z
			 M21.2,321.5c0,1.4,0.2,2.6,0.7,3.8c2.9,7.3,12.8,9.3,18.4,3.8c2-1.9,3-4.3,3.1-7.1c0-0.2,0-0.5,0-0.8
			C36,321.3,28.6,321.4,21.2,321.5z"/>
		<path class="st0" d="M15.9,271.1c3.2,0.1,5.9,0.9,8.2,2.9c0.4,0.3,0.7,0.7,1,1c0.4,0.5,0.4,1.1,0.1,1.7c-0.4,0.7-1.2,0.9-1.9,0.6
			c-0.3-0.1-0.5-0.3-0.7-0.5c-1.7-1.7-3.7-2.5-6-2.6c-2.8-0.1-5.3,0.7-7.4,2.6c-0.2,0.2-0.5,0.4-0.7,0.5c-0.6,0.3-1.2,0.1-1.6-0.3
			c-0.4-0.4-0.6-1.1-0.3-1.7c0.2-0.3,0.4-0.7,0.7-0.9c2-1.8,4.3-2.9,7-3.2C14.9,271.2,15.5,271.2,15.9,271.1z"/>
		<path class="st0" d="M58.1,276.1c0,1.1-1.1,1.8-2.1,1.3c-0.3-0.1-0.5-0.4-0.8-0.6c-3.2-2.7-6.8-3.2-10.7-1.7
			c-0.9,0.4-1.7,0.9-2.4,1.6c-0.2,0.2-0.4,0.4-0.7,0.5c-0.6,0.3-1.3,0.3-1.8-0.2c-0.5-0.4-0.6-1.1-0.3-1.7c0.2-0.3,0.4-0.6,0.6-0.8
			c1.7-1.7,3.8-2.7,6.2-3.1c3.7-0.6,7,0.1,10.1,2.3c0.5,0.3,0.9,0.8,1.3,1.2C57.9,275.2,58.1,275.6,58.1,276.1z"/>
		<path class="st0" d="M16,292.9c-1,0-2.1-0.2-3-0.8c-0.9-0.6-1.6-1.4-1.5-2.5c0.1-1.2,0.7-2,1.8-2.4c1.9-0.9,3.7-0.8,5.5,0.2
			c1,0.6,1.6,1.4,1.5,2.6c-0.1,1.2-0.8,1.9-1.8,2.4C17.7,292.8,16.9,292.9,16,292.9z"/>
		<path class="st0" d="M48.6,293c-0.7-0.2-1.4-0.3-2.1-0.5c-0.4-0.1-0.8-0.4-1.2-0.7c-1.3-1.1-1.3-2.8-0.1-4c1.1-1,2.4-1.3,3.8-1.3
			c0.7,0,1.4,0.2,2.1,0.5c0.4,0.2,0.8,0.5,1.2,0.8c1.1,1,1.1,2.5,0.1,3.6c-0.4,0.5-1,0.9-1.6,1.1C50,292.7,49.3,292.8,48.6,293z"/>
		<path class="st0" d="M32.3,313.2c-0.8,0-1.6-0.2-2.4-0.5c-1-0.4-1.9-0.7-2.8-1.3c-0.2-0.1-0.4-0.2-0.5-0.4
			c-0.7-0.5-0.9-1.2-0.6-1.9c0.3-0.8,1.1-1.3,2-1.1c0.5,0.1,1,0.3,1.5,0.6c0.4,0.2,0.8,0.5,1.1,0.8c1.1,0.8,2.5,0.8,3.6,0
			c0.4-0.3,0.8-0.6,1.2-0.9c0.8-0.5,1.6-0.6,2.4-0.3c1.1,0.4,1.4,1.7,0.5,2.5c-0.5,0.5-1.1,0.9-1.7,1.1c-0.9,0.4-1.8,0.7-2.7,1
			C33.3,313.1,32.8,313.1,32.3,313.2z"/>
	</g>
</g>
<g>
	<g>
		<path class="st0" d="M126.6,314.1c-1,0.4-2,0.4-3-0.1c-0.5-0.2-1-0.5-1.4-0.8c-1-0.8-1.9-1.7-2.7-2.8c-3.1-4.5-5.1-9.5-5.7-14.9
			c-0.2-1.4-0.2-2.8,0.2-4.1c0.2-0.6,0.4-1.1,0.7-1.6c0.8-1.4,2.2-1.9,3.7-1.6c0.2,0,0.3,0.1,0.6,0.1c0-0.2,0-0.4-0.1-0.5
			c-0.9-3.5-1.6-6.9-2.2-10.5c-0.9-5.7-1.3-11.4-1-17.2c0.4-5.4,1.4-10.7,3.5-15.7c1.5-3.6,3.5-6.8,6-9.8c3.4-3.9,7.4-6.9,12.1-9.2
			c4.3-2.1,8.8-3.4,13.4-4.3c4.2-0.8,8.4-1.3,12.7-1.2c7.8,0.1,15.4,1.3,22.6,4.2c5.8,2.3,10.9,5.7,15,10.4c2.5,2.9,4.5,6.2,6,9.7
			c1.5,3.5,2.5,7.2,3,11c0.7,4.9,0.8,9.8,0.4,14.7c-0.5,5.9-1.5,11.7-3,17.5c-0.1,0.2-0.1,0.5-0.2,0.8c0.2,0,0.4-0.1,0.6-0.1
			c1.6-0.4,3.1,0.2,3.9,1.7c0.5,0.9,0.7,1.8,0.8,2.8c0.2,2.2-0.1,4.4-0.7,6.5c-1,3.9-2.5,7.5-4.8,10.8c-0.6,0.9-1.3,1.6-2,2.4
			c-0.4,0.5-1,0.8-1.5,1.2c-1.2,0.8-2.4,1.1-3.9,0.5c-0.1,0.3-0.2,0.5-0.3,0.8c-1.8,5.5-4.2,10.7-7.2,15.6
			c-2.7,4.3-5.8,8.3-9.6,11.7c-3.2,2.9-6.7,5.2-10.8,6.8c-3.3,1.3-6.7,1.9-10.2,1.6c-3.3-0.2-6.4-1.1-9.4-2.6
			c-4.1-2-7.7-4.8-10.8-8.1c-4.3-4.4-7.6-9.5-10.4-15c-1.7-3.3-3.1-6.7-4.2-10.2c-0.1-0.2-0.1-0.4-0.2-0.6
			C126.8,314.2,126.7,314.2,126.6,314.1z M186.7,255.8c-0.6,0.2-1.2,0.4-1.9,0.5c-5.1,1.3-10.2,1.8-15.4,2c-3.5,0.1-7,0.1-10.5-0.1
			c-3.1-0.2-6.1-0.5-9.1-1c-0.6-0.1-1.2-0.2-1.8-0.3c-2.7-0.2-5.2,0.5-7.6,1.8c-2.3,1.3-4.2,2.9-6,4.9c-2.8,3.1-4.9,6.7-6.6,10.5
			c-2.3,5.5-3.5,11.3-3.6,17.3c0,0.5,0,0.9-0.2,1.4c-0.4,1.2-1.7,1.7-2.8,1.1c-0.4-0.2-0.7-0.5-1.1-0.8c-0.5-0.5-1-1-1.6-1.5
			c-1-0.7-1.4-0.6-1.6,0.6c-0.2,1.1-0.2,2.3-0.1,3.4c0.3,2.6,1,5.1,2.1,7.6c1,2.4,2.2,4.6,3.9,6.6c0.4,0.5,0.9,0.9,1.5,1.3
			c0.8,0.6,1,0.5,1.5-0.4c0,0,0,0,0-0.1c0.6-1.1,1.9-1.2,2.7-0.1c0.4,0.6,0.6,1.2,0.8,1.8c2.2,7,5.2,13.6,9.4,19.6
			c2.8,4,6.1,7.6,10.1,10.6c3.3,2.4,6.9,4.1,10.9,4.9c0.9,0.2,1.8,0.3,2.7,0.3c3,0.2,5.8-0.5,8.6-1.5c2.5-0.9,4.8-2.3,7-3.9
			c3.8-2.8,6.9-6.3,9.6-10.1c4.4-6.2,7.5-12.9,9.7-20.1c0.2-0.6,0.4-1.1,0.8-1.6c0.7-1,1.9-0.9,2.6,0.1c0.1,0.2,0.2,0.4,0.3,0.5
			c0.2,0.4,0.4,0.5,0.8,0.3c0.5-0.3,0.9-0.6,1.3-0.9c1-0.9,1.7-2,2.4-3.1c1.7-2.7,2.9-5.7,3.6-8.8c0.5-1.9,0.8-3.7,0.6-5.7
			c0-0.5-0.2-0.9-0.3-1.3c-0.2-0.5-0.4-0.6-0.9-0.3c-0.5,0.3-1,0.7-1.5,1.1c-0.4,0.3-0.6,0.7-1,1.1c-0.6,0.7-1.4,0.6-2.2,0.3
			c-0.7-0.3-1-0.9-1-1.6c0-0.7,0-1.4,0.1-2.2c0.2-2.5-0.3-5-1.1-7.3c-0.2-0.7-0.6-1.3-0.8-2c-0.8-2-1.9-3.8-3.3-5.5
			c-0.8-0.9-1.5-1.8-2.3-2.8c-0.6-0.7-1.1-1.5-1.8-2.2c-1.4-1.5-2.8-3.1-3.9-4.9c-1.1-1.7-1.9-3.5-2.3-5.5
			C187.2,258.4,187,257.1,186.7,255.8z M169.6,254.5c0,0,0,0.1,0,0.1c0.2,0,0.4,0,0.6,0c1.3-0.1,2.6-0.1,3.9-0.3c3.1-0.3,6-1,8.9-2
			c2.8-1,5.4-2.4,7.7-4.3c3-2.6,5-5.7,5.5-9.7c0.1-0.4,0.1-0.9,0.1-1.3c0-0.3-0.1-0.5-0.4-0.5c-0.3,0-0.4,0.2-0.5,0.4
			c0,0.1,0,0.1,0,0.2c-0.2,2.3-1.1,4.3-2.4,6.2c-1.3,1.9-3,3.5-4.9,4.9c-4.9,3.5-10.4,5.5-16.4,6
			C171.1,254.3,170.3,254.4,169.6,254.5z M201.9,271.6c-0.5-0.6-0.9-1.2-1.4-1.8c-0.1-0.1-0.2-0.3-0.3-0.4
			c-3.4-3.6-5.5-7.9-6.5-12.8c-0.1-0.3-0.1-0.6-0.2-1c-0.3,0.4-0.2,0.8-0.2,1.2c0,1.5,0.3,3,0.9,4.5c0.9,2.4,2.3,4.5,3.8,6.6
			c0.7,1,1.5,1.8,2.4,2.7C200.7,271,201.3,271.4,201.9,271.6z M139.1,228c-0.1,0.1-0.2,0.1-0.4,0.1c-3.8,1.9-7.2,4.3-10.1,7.4
			c-1.3,1.4-2.3,2.9-3.1,4.6c-0.2,0.4-0.4,0.9-0.6,1.4c0,0,0.1,0.1,0.1,0.1C128.5,235.8,133.4,231.4,139.1,228z M141.7,227
			c0,0,0-0.1-0.1-0.1c-0.3,0.1-0.5,0.2-0.8,0.3c0.2,0,0.4,0,0.5,0C141.5,227.1,141.6,227,141.7,227z"/>
		<path class="st0" d="M163.2,325.3c-3.4-0.1-6.9-0.4-10.3-1.4c-0.8-0.2-1.5-0.5-2.3-0.8c-0.3-0.1-0.6-0.3-0.9-0.6
			c-0.5-0.4-0.6-1.1-0.4-1.7c0.3-0.6,0.8-0.9,1.5-0.8c0.3,0,0.5,0.1,0.8,0.2c2.6,1.1,5.4,1.6,8.2,1.9c2.4,0.2,4.7,0.2,7.1,0
			c1.5-0.1,3-0.3,4.4-0.8c0.7-0.2,1.3-0.6,2-0.9c0.2-0.1,0.3-0.2,0.5-0.3c0.7-0.3,1.5-0.1,1.9,0.5c0.4,0.6,0.4,1.4-0.1,1.9
			c-0.2,0.2-0.5,0.4-0.7,0.6c-1.4,0.9-2.9,1.3-4.5,1.6C168.1,325.2,165.7,325.3,163.2,325.3z"/>
		<path class="st0" d="M187.9,282.2c0,1-0.9,1.7-1.9,1.4c-0.3-0.1-0.6-0.2-0.8-0.4c-2.6-1.3-5.3-1.6-8.2-1c-0.9,0.2-1.7,0.5-2.4,1
			c-0.2,0.1-0.4,0.2-0.6,0.3c-0.7,0.3-1.4,0.1-1.8-0.5c-0.4-0.5-0.4-1.3,0-1.9c0.2-0.2,0.4-0.4,0.7-0.6c1.4-0.9,2.9-1.4,4.5-1.7
			c2.9-0.4,5.7,0,8.3,1.2c0.5,0.2,0.9,0.4,1.3,0.7C187.7,281.3,187.9,281.7,187.9,282.2z"/>
		<path class="st0" d="M146.3,278.8c2.4,0,4.2,0.3,5.9,1c0.3,0.1,0.6,0.3,0.9,0.5c0.7,0.5,0.9,1.3,0.5,2c-0.4,0.7-1.1,0.9-1.9,0.6
			c-0.4-0.2-0.8-0.4-1.3-0.5c-2-0.6-4-0.7-6-0.3c-1.1,0.2-2.2,0.5-3.1,1.3c-0.1,0.1-0.3,0.2-0.4,0.2c-0.6,0.3-1.3,0.1-1.7-0.3
			c-0.4-0.5-0.5-1.2-0.1-1.8c0.3-0.4,0.7-0.8,1.1-1c1-0.7,2.2-1.1,3.4-1.3C144.7,279,145.8,278.9,146.3,278.8z"/>
		<path class="st0" d="M179.5,292.9c-0.8,0-1.5-0.1-2.2-0.4c-0.4-0.2-0.9-0.5-1.3-0.8c-1.1-1-1.1-2.4-0.2-3.5c0.5-0.6,1.1-1,1.8-1.3
			c1.5-0.5,3-0.5,4.4,0.1c0.5,0.2,1,0.5,1.4,1c0.8,1,0.9,2.2,0.1,3.3c-0.5,0.6-1.1,1-1.8,1.3C181,292.8,180.3,292.9,179.5,292.9z"/>
		<path class="st0" d="M147,293c-0.7-0.2-1.4-0.3-2.1-0.5c-0.4-0.1-0.8-0.4-1.2-0.6c-1.7-1.3-1.6-3.3,0.1-4.5
			c1.8-1.2,4.6-1.1,6.3,0.2c1.7,1.3,1.6,3.4-0.1,4.6C149.1,292.7,148.1,292.9,147,293z"/>
		<path class="st0" d="M163.3,313.2c-0.9,0-1.7-0.2-2.5-0.5c-0.9-0.4-1.9-0.7-2.7-1.3c-0.2-0.1-0.4-0.3-0.6-0.4
			c-0.6-0.5-0.8-1.1-0.6-1.8c0.2-0.7,0.9-1.2,1.6-1.2c0.7,0,1.3,0.2,1.9,0.5c0.4,0.3,0.8,0.5,1.2,0.8c1,0.8,2.5,0.8,3.5,0
			c0.4-0.3,0.8-0.6,1.2-0.8c0.7-0.5,1.5-0.6,2.4-0.3c0.6,0.2,1,0.5,1.2,1.1c0.1,0.6,0,1.2-0.6,1.6c-0.5,0.4-1.1,0.8-1.7,1.1
			c-0.8,0.4-1.7,0.7-2.6,0.9C164.4,313.1,163.8,313.1,163.3,313.2z"/>
	</g>
</g>
<g>
	<g>
		<path class="st0" d="M258.4,314.1c-1.3,0.5-2.5,0.3-3.7-0.4c-1.2-0.7-2.1-1.6-2.9-2.7c-1.4-1.8-2.5-3.8-3.5-5.9
			c-1.3-3-2.3-6.1-2.7-9.4c-0.2-1.5-0.2-2.9,0.2-4.4c0.2-0.6,0.4-1.1,0.7-1.6c0.8-1.4,2.2-1.9,3.7-1.6c0.2,0,0.4,0.1,0.6,0.1
			c-0.2-0.7-0.3-1.3-0.5-2c-1.1-4.3-1.9-8.7-2.4-13.2c-0.5-4.8-0.7-9.7-0.3-14.5c0.5-5.9,1.9-11.6,4.6-17
			c3.8-7.3,9.4-12.6,16.8-16.2c4.3-2.1,8.8-3.5,13.5-4.3c4.2-0.8,8.4-1.3,12.6-1.2c7.8,0.1,15.4,1.3,22.6,4.2
			c5.8,2.3,10.9,5.7,15,10.4c2.5,2.8,4.4,6,5.9,9.4c1.6,3.7,2.6,7.5,3.2,11.4c0.7,4.9,0.8,9.8,0.4,14.7c-0.4,5.9-1.5,11.7-3,17.5
			c-0.1,0.2-0.1,0.5-0.2,0.8c0.2,0,0.4-0.1,0.6-0.1c1.6-0.4,3.1,0.2,3.9,1.7c0.8,1.4,0.9,2.9,0.8,4.5c-0.1,2.4-0.6,4.8-1.3,7.1
			c-1,3.1-2.3,6-4.2,8.6c-0.8,1.2-1.8,2.3-2.9,3.1c-0.8,0.6-1.6,1-2.6,1.1c-0.6,0-1.2-0.1-1.9-0.2c-0.1,0.2-0.2,0.5-0.3,0.7
			c-2.1,6.3-4.9,12.2-8.6,17.7c-3,4.4-6.4,8.4-10.7,11.7c-3.1,2.4-6.6,4.3-10.4,5.5c-5.6,1.7-11,1.2-16.3-1.1
			c-4.2-1.8-7.9-4.5-11.1-7.7c-4.3-4.2-7.7-9.1-10.5-14.4c-2-3.8-3.7-7.7-5-11.8c-0.1-0.2-0.1-0.4-0.2-0.6
			C258.6,314.2,258.5,314.2,258.4,314.1z M318.5,255.8c-0.6,0.2-1.2,0.4-1.8,0.5c-5.1,1.3-10.2,1.8-15.4,2
			c-3.7,0.1-7.4,0.1-11.1-0.1c-2.9-0.2-5.7-0.5-8.5-1c-1.7-0.3-3.3-0.4-4.9-0.1c-2.8,0.5-5.1,1.8-7.3,3.5c-2.6,2.1-4.8,4.6-6.6,7.5
			c-4.5,7.1-6.6,14.9-6.8,23.3c0,0.4,0,0.7-0.1,1c-0.3,1.5-1.7,2.2-3,1.5c-0.4-0.2-0.8-0.6-1.1-1c-0.6-0.6-1.1-1.2-1.9-1.6
			c-0.5-0.3-0.8-0.2-1,0.4c-0.2,0.5-0.3,1-0.3,1.5c-0.2,2.3,0.3,4.5,0.9,6.7c0.9,3,2.2,5.9,4,8.5c0.6,0.8,1.3,1.5,1.9,2.2
			c0.3,0.3,0.7,0.5,1.1,0.7c0.4,0.2,0.6,0.1,0.8-0.3c0.1-0.2,0.2-0.4,0.3-0.5c0.6-1,1.9-1.1,2.5-0.1c0.3,0.5,0.6,1,0.8,1.6
			c2.2,7.1,5.3,13.8,9.5,19.9c2.8,4,6.1,7.6,10.1,10.6c3.3,2.4,6.9,4.1,10.9,4.9c0.9,0.2,1.8,0.3,2.7,0.3c2.9,0.2,5.7-0.5,8.4-1.4
			c3.1-1.1,5.9-2.9,8.5-5c4-3.3,7.2-7.2,10-11.6c3.5-5.5,6.1-11.4,8-17.6c0.2-0.6,0.5-1.2,0.8-1.7c0.6-0.9,1.9-0.9,2.5,0.1
			c0.1,0.1,0.2,0.3,0.2,0.5c0.3,0.6,0.5,0.7,1,0.3c0.5-0.3,0.9-0.6,1.3-1c0.9-0.9,1.6-1.9,2.3-2.9c1.7-2.7,2.9-5.7,3.6-8.8
			c0.5-1.8,0.8-3.7,0.6-5.6c0-0.4-0.1-0.8-0.2-1.2c-0.2-0.7-0.5-0.8-1.1-0.4c-0.5,0.3-0.9,0.7-1.4,1.1c-0.3,0.3-0.6,0.7-0.9,1
			c-0.6,0.7-1.4,0.6-2.2,0.3c-0.7-0.2-1-0.8-1-1.6c0-0.7,0-1.4,0.1-2.2c0.2-2.5-0.3-5-1.1-7.3c-0.2-0.7-0.6-1.3-0.8-2
			c-0.8-2.1-2-3.8-3.4-5.5c-0.8-0.9-1.5-1.8-2.3-2.8c-0.6-0.7-1.1-1.5-1.7-2.1c-1.4-1.5-2.8-3.1-3.9-4.9c-1.1-1.7-1.9-3.5-2.3-5.5
			C319.1,258.4,318.8,257.1,318.5,255.8z M301.4,254.5c0,0.1,0,0.1,0,0.2c0.2,0,0.4,0,0.6,0c1.3-0.1,2.6-0.1,3.9-0.3
			c3.1-0.3,6.1-1,9-2c2.8-0.9,5.3-2.3,7.5-4.3c2.7-2.4,4.7-5.3,5.4-8.9c0.1-0.7,0.2-1.4,0.3-2.1c0-0.3-0.2-0.6-0.4-0.6
			c-0.3,0-0.4,0.2-0.5,0.5c0,0.1,0,0.2,0,0.3c-0.1,1-0.3,1.9-0.7,2.9c-0.9,2.3-2.3,4.3-4.1,6c-2.1,2.1-4.7,3.6-7.3,4.9
			c-3.6,1.8-7.5,2.8-11.6,3.2C302.9,254.3,302.2,254.4,301.4,254.5z M333.7,271.5c-0.6-0.7-1.1-1.4-1.7-2.1c-3.5-3.7-5.6-8-6.5-12.9
			c-0.1-0.3-0.1-0.6-0.2-0.9c-0.2,0.2-0.2,0.5-0.2,0.7c0.1,0.9,0.1,1.9,0.2,2.8c0.2,1.5,0.9,2.8,1.6,4.2c1.3,2.4,2.8,4.6,4.6,6.6
			C332.1,270.6,332.8,271.2,333.7,271.5z M270.9,228c-0.1,0-0.2,0.1-0.4,0.1c-3.8,1.9-7.2,4.3-10.1,7.4c-1.3,1.4-2.3,2.9-3.1,4.6
			c-0.2,0.4-0.4,0.9-0.6,1.4c0,0,0.1,0.1,0.1,0.1C260.3,235.8,265.2,231.4,270.9,228z M272.7,227.2c0,0,0,0.1,0.1,0.1
			c0.3-0.1,0.5-0.2,0.8-0.3c0-0.1,0-0.1-0.1-0.2C273.2,227,272.9,227.1,272.7,227.2z"/>
		<path class="st0" d="M294.8,323.2c-2.4,0-4.9,0-7.3,0c-0.3,0-0.6,0-0.9-0.1c-0.8-0.1-1.3-0.7-1.3-1.4c0-0.7,0.5-1.3,1.2-1.5
			c0.2-0.1,0.5-0.1,0.7-0.1c5.1,0,10.2,0,15.3,0c0.3,0,0.6,0,0.8,0.1c0.7,0.2,1.1,0.8,1.1,1.4c0,0.7-0.5,1.3-1.2,1.4
			c-0.3,0.1-0.7,0.1-1,0.1C299.8,323.2,297.3,323.2,294.8,323.2C294.8,323.2,294.8,323.2,294.8,323.2z"/>
		<path class="st0" d="M311.3,292.9c-0.8,0-1.5-0.1-2.2-0.4c-0.5-0.2-0.9-0.5-1.3-0.9c-1-0.9-1.1-2.3-0.2-3.4
			c0.5-0.6,1.2-1.1,1.9-1.3c1.4-0.5,2.8-0.5,4.2,0.1c0.5,0.2,0.9,0.5,1.3,0.8c1.1,1,1.1,2.5,0.1,3.6c-0.4,0.5-1,0.8-1.6,1.1
			C312.9,292.8,312.1,292.9,311.3,292.9z"/>
		<path class="st0" d="M278.9,292.9c-1,0-2-0.2-2.8-0.7c-0.6-0.3-1.1-0.7-1.4-1.3c-0.5-0.9-0.5-1.8,0.2-2.6c0.3-0.4,0.7-0.8,1.1-1
			c1.9-1,3.8-1,5.6,0c0.4,0.2,0.7,0.5,1,0.8c1,1.1,0.9,2.7-0.2,3.7c-0.8,0.7-1.8,1-2.9,1.1C279.2,292.9,279,292.9,278.9,292.9z"/>
		<path class="st0" d="M295.1,313.2c-0.9,0-1.7-0.2-2.4-0.5c-0.9-0.4-1.9-0.6-2.7-1.2c-0.2-0.2-0.4-0.3-0.6-0.4
			c-0.6-0.4-0.8-1-0.6-1.7c0.2-0.7,0.9-1.2,1.6-1.3c0.7,0,1.3,0.2,1.9,0.5c0.4,0.3,0.8,0.5,1.2,0.8c1.1,0.8,2.5,0.8,3.6,0
			c0.4-0.3,0.8-0.6,1.2-0.8c0.8-0.5,1.6-0.6,2.4-0.3c1.2,0.4,1.5,1.8,0.6,2.6c-0.5,0.5-1.1,0.8-1.8,1.1c-0.8,0.4-1.7,0.7-2.6,1
			C296.2,313.1,295.6,313.1,295.1,313.2z"/>
		<path class="st0" d="M311.9,278.2c0.9,0,2.2,0.1,3.4,0.5c0.6,0.2,1.3,0.5,1.9,0.8c0.3,0.1,0.6,0.4,0.8,0.7c0.4,0.5,0.4,1.2,0,1.8
			c-0.4,0.5-1,0.7-1.6,0.6c-0.1,0-0.3-0.1-0.4-0.2c-1-0.7-2.2-0.9-3.4-1c-2.1-0.1-4.1,0.1-6.1,0.9c-0.1,0-0.2,0.1-0.2,0.1
			c-0.8,0.3-1.6-0.1-1.9-0.8c-0.3-0.7-0.1-1.6,0.7-2c0.5-0.3,1.1-0.5,1.6-0.7C308.2,278.4,309.8,278.2,311.9,278.2z"/>
		<path class="st0" d="M278.9,278.3c1.6,0,3.1,0.1,4.7,0.5c0.3,0.1,0.6,0.2,0.9,0.3c0.6,0.4,0.9,1.1,0.7,1.7
			c-0.2,0.7-0.8,1.1-1.5,1.1c-0.2,0-0.4-0.1-0.6-0.1c-2.7-0.6-5.5-0.6-8.2,0c-0.4,0.1-0.7,0.3-1.1,0.5c-0.8,0.5-1.7,0.3-2.2-0.4
			c-0.5-0.7-0.3-1.6,0.5-2.2c0.7-0.5,1.5-0.7,2.3-0.9C275.8,278.4,277.3,278.3,278.9,278.3z"/>
	</g>
</g>
<g>
	<g>
		<path class="st0" d="M391.8,314.1c-1.1,0.4-2.1,0.4-3.1-0.1c-0.5-0.2-1-0.5-1.4-0.8c-1-0.8-1.9-1.7-2.6-2.8
			c-3.1-4.5-5.1-9.5-5.7-14.9c-0.2-1.4-0.2-2.8,0.2-4.1c0.2-0.6,0.4-1.1,0.7-1.6c0.8-1.4,2.2-1.9,3.7-1.5c0.2,0,0.3,0.1,0.6,0.1
			c0-0.2,0-0.4-0.1-0.5c-0.9-3.5-1.6-6.9-2.2-10.5c-0.9-5.7-1.3-11.4-1-17.2c0.4-5.4,1.4-10.7,3.5-15.7c1.5-3.6,3.5-6.8,6-9.8
			c3.4-3.9,7.4-6.9,12.1-9.2c4.3-2.1,8.8-3.4,13.4-4.3c4.2-0.8,8.4-1.3,12.7-1.2c7.8,0.1,15.4,1.3,22.6,4.2
			c5.8,2.3,10.9,5.7,15,10.4c2.5,2.9,4.5,6.2,6,9.7c1.5,3.5,2.5,7.2,3,11c0.7,4.9,0.8,9.8,0.4,14.7c-0.5,5.9-1.5,11.7-3,17.5
			c-0.1,0.2-0.1,0.5-0.2,0.8c0.2,0,0.4-0.1,0.6-0.1c1.6-0.4,3,0.2,3.8,1.7c0.5,0.9,0.7,1.8,0.8,2.8c0.2,1.8,0,3.7-0.4,5.5
			c-0.9,4.3-2.5,8.3-5.1,11.9c-0.8,1.2-1.7,2.2-2.8,3.1c-0.7,0.6-1.5,1-2.4,1.2c-0.7,0.1-1.4,0-2.1-0.2c-0.1,0.3-0.2,0.5-0.3,0.8
			c-1.8,5.5-4.2,10.7-7.2,15.6c-2.7,4.3-5.8,8.3-9.6,11.7c-3.2,2.9-6.7,5.2-10.8,6.8c-3.3,1.3-6.7,1.9-10.2,1.6
			c-3.3-0.2-6.4-1.1-9.4-2.6c-4.1-2-7.7-4.8-10.8-8.1c-4.3-4.4-7.6-9.5-10.4-15c-1.7-3.3-3.1-6.7-4.2-10.2
			C392,314.6,391.9,314.4,391.8,314.1z M451.8,255.8c-0.6,0.2-1.2,0.3-1.8,0.5c-5.1,1.3-10.2,1.8-15.4,2c-3.5,0.1-7,0.1-10.6-0.1
			c-3-0.2-6.1-0.5-9.1-1c-1.7-0.3-3.3-0.4-4.9-0.1c-2.8,0.5-5.1,1.8-7.3,3.5c-2.6,2.1-4.8,4.6-6.6,7.5c-4.5,7.1-6.6,14.9-6.8,23.3
			c0,0.3,0,0.7-0.1,1c-0.3,1.5-1.7,2.2-3,1.5c-0.4-0.2-0.7-0.5-1-0.9c-0.6-0.7-1.2-1.3-2-1.7c-0.5-0.2-0.7-0.1-0.9,0.3
			c-0.2,0.5-0.3,1.1-0.3,1.6c-0.2,2.1,0.2,4.1,0.8,6.2c0.9,3.2,2.2,6.3,4.2,9.1c0.6,0.8,1.2,1.5,1.9,2.2c0.3,0.3,0.7,0.5,1.1,0.7
			c0.5,0.2,0.6,0.2,0.9-0.3c0.1-0.2,0.1-0.3,0.2-0.5c0.6-1,1.9-1.1,2.5-0.1c0.3,0.5,0.6,1,0.8,1.6c2.2,7.1,5.3,13.8,9.5,19.9
			c2.8,4,6.1,7.6,10.1,10.6c3.3,2.4,6.9,4.1,10.9,4.9c0.9,0.2,1.8,0.3,2.7,0.3c2.9,0.2,5.7-0.5,8.4-1.4c3.1-1.1,5.9-2.9,8.5-5
			c4-3.3,7.3-7.3,10.1-11.6c3.5-5.5,6.1-11.4,8-17.6c0.2-0.6,0.5-1.1,0.8-1.6c0.6-0.9,1.9-0.9,2.5,0c0.1,0.2,0.2,0.4,0.3,0.5
			c0.3,0.5,0.4,0.6,0.9,0.3c0.5-0.3,0.9-0.6,1.3-1c0.9-0.9,1.7-1.9,2.3-3c1.7-2.7,2.9-5.7,3.6-8.7c0.5-1.8,0.8-3.7,0.6-5.6
			c0-0.4-0.1-0.7-0.2-1.1c-0.2-0.8-0.6-1-1.3-0.5c-0.6,0.4-1.1,0.9-1.6,1.4c-0.2,0.2-0.4,0.5-0.6,0.7c-0.7,0.7-1.4,0.6-2.2,0.3
			c-0.7-0.3-1-0.9-1-1.6c0-0.7,0-1.4,0.1-2.2c0.2-2.5-0.3-5-1.1-7.3c-0.2-0.7-0.6-1.4-0.8-2.1c-0.8-2-1.9-3.7-3.3-5.3
			c-0.8-0.9-1.6-1.9-2.4-2.9c-0.6-0.7-1.1-1.5-1.7-2.1c-1.4-1.5-2.8-3.1-3.9-4.9c-1.1-1.7-1.9-3.5-2.3-5.5
			C452.4,258.4,452.1,257.1,451.8,255.8z M434.7,254.5c0,0,0,0.1,0,0.1c0.1,0,0.2,0,0.3,0c1.4-0.1,2.8-0.1,4.2-0.3
			c3.1-0.3,6-1,8.9-2c3.8-1.3,7-3.3,9.6-6.3c2.2-2.5,3.4-5.5,3.7-8.9c0-0.5-0.1-0.7-0.4-0.7c-0.3,0-0.4,0.2-0.5,0.6
			c0,0.1,0,0.1,0,0.2c-0.2,0.9-0.4,1.9-0.7,2.8c-0.8,2.4-2.3,4.4-4.1,6.1c-2.5,2.4-5.5,4.1-8.6,5.5c-3.2,1.4-6.6,2.2-10.1,2.5
			C436.2,254.3,435.5,254.4,434.7,254.5z M467,271.5c-0.7-0.8-1.3-1.6-2-2.4c-3.4-3.7-5.4-8.1-6.3-13c0-0.1,0-0.3-0.1-0.4
			c-0.2,0.3-0.2,0.6-0.2,0.9c0,1.4,0.1,2.7,0.6,4c0.4,1.3,1,2.5,1.7,3.7c1.2,2,2.5,3.9,4.1,5.6C465.3,270.6,466,271.2,467,271.5z
			 M390,241.4c3.6-5.7,8.5-10,14.2-13.5c-0.2,0-0.3,0.1-0.4,0.2c-3.8,1.8-7.2,4.3-10.1,7.3c-0.9,0.9-1.7,2-2.3,3.1
			C390.8,239.5,390.3,240.4,390,241.4z M406,227.2c0.3,0,0.6,0,0.8-0.2c0,0,0-0.1-0.1-0.1C406.5,227,406.2,227.1,406,227.2z"/>
		<path class="st0" d="M428.2,319.7c3.5,0.1,6.7,0.8,9.8,2.6c0.8,0.4,1.5,1,2.2,1.5c0.3,0.2,0.5,0.5,0.6,0.7
			c0.3,0.6,0.2,1.2-0.2,1.7c-0.4,0.5-1.1,0.6-1.7,0.4c-0.2-0.1-0.5-0.2-0.7-0.4c-2.6-2.1-5.6-3.1-8.9-3.3c-3.5-0.2-6.7,0.4-9.8,2.1
			c-0.6,0.3-1.1,0.7-1.7,1c-0.2,0.1-0.5,0.3-0.7,0.4c-0.6,0.2-1.3,0-1.7-0.5c-0.4-0.5-0.4-1.2,0-1.8c0.2-0.3,0.5-0.5,0.8-0.8
			c2.5-1.7,5.2-2.8,8.1-3.3C425.6,319.9,426.9,319.8,428.2,319.7z"/>
		<path class="st0" d="M411.7,284.2c-1.9-0.1-3.6-0.4-5.3-1.3c-1.1-0.6-2.1-1.4-2.8-2.5c-0.2-0.3-0.3-0.6-0.4-1
			c-0.1-0.6,0.2-1.2,0.8-1.5c0.5-0.3,1.2-0.2,1.7,0.2c0.1,0.1,0.2,0.2,0.3,0.3c1,1.6,2.5,2.2,4.3,2.5c2.9,0.4,5.5-0.3,7.7-2.1
			c0.2-0.1,0.3-0.3,0.5-0.4c0.6-0.3,1.4-0.2,1.8,0.3c0.4,0.5,0.5,1.2,0.1,1.8c-0.2,0.3-0.5,0.6-0.8,0.8c-1.7,1.4-3.7,2.2-5.8,2.5
			C413.2,284.1,412.5,284.1,411.7,284.2z"/>
		<path class="st0" d="M446.6,284.1c-2,0-3.6-0.3-5.2-1c-1-0.4-1.8-1-2.6-1.8c-0.3-0.3-0.5-0.7-0.6-1.2c-0.1-1.2,1.1-2,2.1-1.5
			c0.2,0.1,0.4,0.2,0.5,0.4c1.1,1.2,2.5,1.7,4,1.9c1.7,0.2,3.3,0.1,4.9-0.5c0.8-0.3,1.5-0.7,2.1-1.2c0.2-0.1,0.3-0.3,0.5-0.4
			c0.6-0.3,1.3-0.2,1.8,0.3c0.5,0.5,0.6,1.3,0.2,1.9c-0.2,0.3-0.5,0.6-0.8,0.8c-1.6,1.3-3.5,1.9-5.5,2.2
			C447.5,284.1,446.9,284.1,446.6,284.1z"/>
		<path class="st0" d="M444.6,293c-0.9,0-1.8-0.2-2.7-0.7c-0.8-0.4-1.3-1-1.5-1.9c-0.2-1,0.1-1.9,0.8-2.6c0.6-0.6,1.3-0.9,2.1-1.1
			c1.3-0.3,2.6-0.2,3.9,0.3c0.5,0.2,1,0.5,1.4,1c0.8,1,0.8,2.2,0.1,3.2c-0.5,0.6-1.1,1-1.8,1.3c-0.3,0.1-0.7,0.2-1.1,0.3
			C445.4,292.9,445,292.9,444.6,293z"/>
		<path class="st0" d="M412.1,293c-0.7-0.2-1.4-0.3-2.1-0.5c-0.4-0.1-0.8-0.4-1.2-0.6c-1.7-1.3-1.6-3.3,0.2-4.5
			c1.8-1.2,4.6-1.1,6.3,0.2c1.7,1.3,1.6,3.4-0.1,4.6C414.3,292.6,413.3,292.9,412.1,293z"/>
		<path class="st0" d="M428.4,313.2c-0.9,0-1.7-0.2-2.4-0.5c-0.9-0.4-1.9-0.6-2.7-1.2c-0.2-0.2-0.4-0.3-0.6-0.4
			c-0.6-0.4-0.8-1-0.6-1.7c0.2-0.7,0.9-1.2,1.6-1.3c0.7,0,1.3,0.2,1.9,0.5c0.4,0.3,0.8,0.5,1.2,0.8c1.1,0.8,2.5,0.8,3.6,0
			c0.4-0.3,0.8-0.6,1.2-0.8c0.8-0.5,1.6-0.6,2.4-0.3c1.2,0.4,1.5,1.8,0.6,2.6c-0.5,0.5-1.1,0.8-1.8,1.1c-0.8,0.4-1.7,0.7-2.6,1
			C429.5,313.1,428.9,313.1,428.4,313.2z"/>
		<path class="st0" d="M428.2,329c-1.1,0-2.3,0-3.4,0c-0.3,0-0.6,0-0.9-0.1c-0.6-0.2-1-0.8-1-1.5c0-0.6,0.5-1.2,1.1-1.4
			c0.2-0.1,0.5-0.1,0.7-0.1c2.3,0,4.5,0,6.8,0c0.3,0,0.6,0,0.9,0.1c0.7,0.2,1.1,0.8,1.1,1.5c0,0.7-0.5,1.3-1.2,1.4
			c-0.3,0.1-0.6,0.1-1,0.1C430.3,329,429.3,329,428.2,329C428.2,329,428.2,329,428.2,329z"/>
	</g>
</g>
<g>
	<g>
		<path class="st0" d="M516.2,288.3c-0.2-0.9-0.4-1.7-0.6-2.4c-1.2-4.8-2-9.7-2.5-14.6c-0.3-3.6-0.4-7.2-0.2-10.8
			c0.4-6.1,1.6-12.1,4.2-17.7c4-8.4,10.3-14.3,18.7-18c4.2-1.9,8.5-3.1,13-3.8c3.9-0.7,7.8-1.1,11.8-1c7.8,0.1,15.4,1.3,22.7,4.2
			c5.8,2.3,10.9,5.7,15,10.4c2.5,2.9,4.5,6.1,6,9.7c1.5,3.5,2.5,7.2,3,11c0.7,4.9,0.8,9.8,0.4,14.7c-0.5,5.9-1.5,11.7-3,17.5
			c-0.1,0.2-0.1,0.5-0.2,0.8c0.2,0,0.4-0.1,0.6-0.1c1.6-0.4,3,0.2,3.8,1.7c0.5,0.9,0.7,1.8,0.8,2.8c0.2,1.8,0,3.7-0.4,5.5
			c-0.9,4.3-2.5,8.3-5.1,11.9c-0.8,1.2-1.7,2.2-2.8,3.1c-0.7,0.6-1.5,1-2.4,1.2c-0.7,0.1-1.4,0-2.1-0.2c-0.1,0.3-0.2,0.5-0.3,0.8
			c-1.8,5.5-4.2,10.7-7.2,15.6c-2.7,4.3-5.8,8.3-9.6,11.7c-3.2,2.9-6.7,5.2-10.8,6.8c-3.3,1.3-6.7,1.9-10.2,1.6
			c-3.3-0.2-6.4-1.1-9.4-2.6c-4.1-2-7.7-4.8-10.8-8.1c-4.3-4.4-7.6-9.5-10.4-15c-1.7-3.3-3.1-6.7-4.2-10.2c-0.1-0.2-0.2-0.4-0.2-0.7
			c-1.1,0.4-2.1,0.4-3.1-0.1c-0.5-0.2-1-0.5-1.4-0.8c-1.1-0.8-2-1.9-2.8-3.1c-3-4.4-4.9-9.3-5.5-14.6c-0.2-1.4-0.2-2.8,0.2-4.2
			c0.2-0.6,0.4-1.1,0.7-1.6c0.8-1.4,2.2-1.9,3.7-1.5C515.8,288.2,515.9,288.3,516.2,288.3z M525.3,308c0.2-0.1,0.3-0.2,0.4-0.2
			c1.6-0.9,3.1-1.8,4.7-2.6c4.8-2.3,9.9-4.1,15-5.7c4.3-1.3,8.7-2.3,13.1-3.4c1.2-0.3,2.5-0.4,3.8-0.3c2.1,0.3,4.2,0.8,6.2,1.4
			c3.2,1,6.4,2.2,9.5,3.5c5.2,2.2,10.3,4.5,15.2,7.3c0.7,0.4,1.4,0.8,2.1,1.2c0.1-0.2,0.1-0.4,0.2-0.6c1.3-4.5,2.6-8.9,3.9-13.4
			c0.4-1.4,0.6-2.7,0.6-4.1c0-0.5,0-1,0-1.4c0.2-2.5-0.3-4.9-1.1-7.3c-0.2-0.7-0.6-1.4-0.8-2.1c-0.8-2-1.9-3.7-3.3-5.3
			c-0.8-1-1.7-1.9-2.4-2.9c-0.7-1-1.6-1.9-2.4-2.9c-0.8-0.9-1.6-1.8-2.2-2.8c-0.8-1.2-1.5-2.4-2.2-3.7c-0.9-1.8-1.2-3.8-1.5-5.8
			c-0.1-0.4-0.1-0.8-0.2-1.3c-0.7,0.2-1.3,0.4-1.9,0.5c-5.1,1.3-10.3,1.8-15.5,2c-3.5,0.1-7,0.1-10.6-0.1c-3-0.2-6-0.5-9-1
			c-1.7-0.3-3.3-0.4-4.9-0.1c-2.8,0.5-5.1,1.8-7.3,3.5c-2.3,1.8-4.3,4-5.9,6.5c-5.3,8-7.8,16.9-7.3,26.5c0,1,0.1,2,0.3,2.9
			c1.1,3.6,2.1,7.3,3.2,10.9C525.1,307.5,525.2,307.7,525.3,308z M594.4,312.4c-0.3-0.2-0.5-0.3-0.7-0.5c-1.7-1-3.4-1.9-5.1-2.8
			c-5.3-2.8-10.7-5.2-16.2-7.2c-2.7-1-5.5-2-8.3-2.6c-0.9-0.2-1.9-0.4-2.8-0.3c-1.5,0.2-3,0.5-4.5,0.8c-5.6,1.1-11,2.7-16.3,4.6
			c-3.7,1.3-7.4,2.8-10.9,4.7c-1,0.5-1.9,1.2-2.9,1.8c-0.3,0.2-0.4,0.4-0.3,0.8c2.2,7.2,5.3,14,9.7,20.2c2.8,4,6.1,7.6,10.1,10.5
			c3.3,2.4,6.9,4.1,10.9,4.9c0.9,0.2,1.8,0.3,2.7,0.3c3,0.2,5.8-0.5,8.6-1.5c1.7-0.6,3.4-1.5,4.9-2.5c4.1-2.7,7.6-6.1,10.5-10
			c4.2-5.5,7.3-11.6,9.7-18.2C593.7,314.5,594,313.5,594.4,312.4z M522.8,310.7c0-0.1-0.1-0.3-0.1-0.4c-1.6-5.4-3.2-10.9-4.8-16.3
			c0-0.2-0.1-0.4-0.2-0.5c-0.6-0.7-1.3-1.4-2-2c-1-0.8-1.4-0.6-1.6,0.6c-0.2,1.1-0.2,2.1-0.1,3.2c0.6,4.6,2.1,8.8,4.7,12.7
			c0.6,0.9,1.4,1.7,2.2,2.5c0.3,0.3,0.7,0.6,1.1,0.7C522.4,311.5,522.8,311.2,522.8,310.7z M606.9,294.1c-0.1-0.8-0.1-1.5-0.3-2.3
			c-0.2-0.9-0.6-1-1.3-0.5c-0.6,0.4-1.1,0.9-1.6,1.4c-0.4,0.3-0.6,0.8-0.7,1.3c-0.7,2.4-1.4,4.8-2.1,7.2c-0.9,3.1-1.8,6.3-2.7,9.4
			c-0.1,0.2-0.2,0.5,0,0.7c0.3,0.2,0.5,0.1,0.7-0.1c0.4-0.3,0.9-0.6,1.3-0.9c0.9-0.9,1.7-1.9,2.3-3c1-1.6,1.8-3.4,2.5-5.2
			C606.1,299.5,606.8,296.9,606.9,294.1z M566.7,254.5c0,0.1,0,0.1,0,0.2c0.2,0,0.3,0,0.5,0c1.3-0.1,2.7-0.1,4-0.3
			c3.1-0.3,6-1,8.9-2c3.3-1.1,6.2-2.8,8.7-5.3c1.5-1.5,2.7-3.2,3.5-5.2c0.6-1.5,1-3.1,1.1-4.8c0-0.4-0.1-0.6-0.4-0.7
			c-0.3,0-0.5,0.2-0.5,0.6c0,0.1,0,0.1,0,0.2c-0.2,0.9-0.4,1.9-0.7,2.8c-0.9,2.5-2.4,4.5-4.4,6.3c-2,1.9-4.4,3.3-6.9,4.6
			c-3.7,1.9-7.6,2.9-11.7,3.2C568.2,254.3,567.5,254.4,566.7,254.5z M590.5,255.7c0,0.3-0.1,0.6-0.1,0.9c0,1.4,0.2,2.7,0.6,4
			c0.8,2.4,2.1,4.6,3.6,6.7c0.8,1.1,1.8,2.2,2.7,3.3c0.4,0.5,1,0.8,1.7,1.1c-0.6-0.8-1.2-1.5-1.8-2.2c-0.5-0.6-1-1.1-1.5-1.7
			C593,264.1,591.3,260.1,590.5,255.7z M536.2,228c-0.1,0-0.2,0.1-0.2,0.1c-4.1,1.9-7.6,4.5-10.7,7.8c-1.4,1.5-2.4,3.2-3.1,5
			c0,0.1-0.1,0.2-0.1,0.2c0,0.1,0,0.2,0,0.2C525.7,235.8,530.5,231.4,536.2,228z M538.8,227c0-0.1,0-0.1-0.1-0.2
			c-0.3,0.1-0.5,0.2-0.8,0.3c0,0,0,0.1,0,0.1C538.3,227.2,538.6,227.1,538.8,227z"/>
		<path class="st1" d="M594.4,312.4c-0.4,1.1-0.7,2.1-1.1,3.1c-2.3,6.5-5.5,12.6-9.7,18.2c-3,3.9-6.4,7.3-10.5,10
			c-1.6,1-3.2,1.9-4.9,2.5c-2.8,1-5.6,1.7-8.6,1.5c-0.9-0.1-1.8-0.2-2.7-0.3c-4-0.7-7.6-2.5-10.9-4.9c-4-2.9-7.3-6.5-10.1-10.5
			c-4.4-6.2-7.4-13-9.7-20.2c-0.1-0.4,0-0.6,0.3-0.8c1-0.6,1.9-1.3,2.9-1.8c3.5-1.9,7.2-3.3,10.9-4.7c5.3-1.9,10.8-3.5,16.3-4.6
			c1.5-0.3,3-0.6,4.5-0.8c0.9-0.1,1.9,0.1,2.8,0.3c2.8,0.6,5.6,1.6,8.3,2.6c5.6,2.1,11,4.5,16.2,7.2c1.7,0.9,3.4,1.9,5.1,2.8
			C593.8,312.1,594.1,312.2,594.4,312.4z M560.2,319.7C560.2,319.7,560.2,319.8,560.2,319.7c-3.2,0.1-6.5,0.1-9.7,0.1
			c-0.4,0-0.8,0-1.2,0.1c-0.8,0.2-1.2,0.9-1.2,1.7c0,0.8,0.5,1.4,1.3,1.6c0.3,0.1,0.6,0.1,1,0.1c6.6,0,13.2-0.1,19.8-0.1
			c0.3,0,0.6,0,0.9-0.1c0.8-0.2,1.3-0.9,1.3-1.6c0-0.8-0.5-1.5-1.3-1.7c-0.3-0.1-0.7-0.1-1-0.1C566.7,319.7,563.5,319.7,560.2,319.7
			z M560.4,331.4C560.4,331.4,560.4,331.4,560.4,331.4c3.1-0.1,6.1-0.1,9.2-0.1c0.4,0,0.7,0,1.1-0.1c0.8-0.2,1.4-0.9,1.4-1.7
			s-0.6-1.5-1.4-1.7c-0.3-0.1-0.6-0.1-0.9-0.1c-6.3,0-12.5,0-18.8,0.1c-0.3,0-0.6,0-0.9,0.1c-0.8,0.2-1.3,0.9-1.3,1.7
			c0,0.8,0.5,1.4,1.3,1.6c0.3,0.1,0.7,0.1,1,0.1C554.2,331.4,557.3,331.4,560.4,331.4z M560.7,311.2c0,0,0-0.1,0-0.1
			c-2.9,0-5.9,0-8.8,0c-0.3,0-0.7,0-1,0c-0.9,0.1-1.5,0.8-1.6,1.7c0,0.9,0.6,1.6,1.5,1.7c0.4,0.1,0.8,0.1,1.2,0.1
			c5.9,0,11.8,0.1,17.7,0.1c0.3,0,0.6,0,0.9-0.1c0.8-0.2,1.4-0.9,1.4-1.7c0-0.8-0.5-1.5-1.4-1.7c-0.3-0.1-0.7-0.1-1-0.1
			C566.7,311.2,563.7,311.2,560.7,311.2z"/>
		<path class="st0" d="M576.6,292.9c-0.8,0-1.5-0.1-2.2-0.4c-0.4-0.2-0.9-0.5-1.3-0.8c-1.1-1-1.1-2.4-0.2-3.5c0.5-0.6,1.1-1,1.8-1.2
			c1.5-0.5,3-0.5,4.4,0.1c0.5,0.2,1,0.5,1.4,1c0.8,1,0.9,2.2,0.1,3.3c-0.5,0.6-1.1,1-1.8,1.3C578.1,292.8,577.4,292.9,576.6,292.9z"
			/>
		<path class="st0" d="M544.1,293c-0.7-0.2-1.4-0.3-2.1-0.5c-0.4-0.1-0.8-0.4-1.2-0.6c-1.7-1.3-1.6-3.3,0.1-4.5
			c1.8-1.2,4.6-1.1,6.3,0.2c1.7,1.3,1.6,3.4-0.1,4.6C546.2,292.7,545.2,292.9,544.1,293z"/>
		<path class="st0" d="M543.4,278.5c1.8,0.1,3.4,0.2,5,0.7c0.3,0.1,0.6,0.2,0.8,0.4c0.6,0.4,0.8,1.1,0.6,1.8c-0.2,0.6-0.9,1-1.6,0.9
			c-0.2,0-0.4-0.1-0.6-0.2c-2.3-0.6-4.7-0.7-7-0.2c-0.4,0.1-0.7,0.2-1.1,0.4c-0.2,0.1-0.3,0.2-0.5,0.2c-0.7,0.2-1.5,0-1.8-0.7
			c-0.4-0.6-0.2-1.4,0.3-1.9c0.2-0.2,0.5-0.3,0.7-0.5c1-0.5,2-0.7,3.1-0.8C542,278.6,542.8,278.5,543.4,278.5z"/>
		<path class="st0" d="M576.6,279.1c1.9,0,3.1,0.1,4.4,0.4c0.6,0.2,1.1,0.4,1.5,0.8c0.8,0.9,0.4,2.3-0.7,2.5c-0.3,0.1-0.7,0.1-1-0.1
			c-0.9-0.5-1.8-0.5-2.7-0.6c-1.5-0.1-2.9,0-4.4,0.3c-0.4,0.1-0.7,0.2-1.1,0.3c-0.5,0.1-0.9,0.2-1.3-0.1c-1-0.5-1.1-1.8-0.3-2.5
			c0.3-0.2,0.6-0.4,0.9-0.5C573.6,279.2,575.4,279.1,576.6,279.1z"/>
		<path class="st0" d="M560.2,319.7c3.2,0,6.5,0,9.7,0c0.3,0,0.7,0,1,0.1c0.8,0.2,1.3,0.9,1.3,1.7c0,0.8-0.5,1.4-1.3,1.6
			c-0.3,0.1-0.6,0.1-0.9,0.1c-6.6,0-13.2,0.1-19.8,0.1c-0.3,0-0.7,0-1-0.1c-0.8-0.2-1.3-0.9-1.3-1.6c0-0.8,0.4-1.5,1.2-1.7
			c0.4-0.1,0.8-0.1,1.2-0.1C553.7,319.8,557,319.8,560.2,319.7C560.2,319.8,560.2,319.7,560.2,319.7z"/>
		<path class="st0" d="M560.4,331.4c-3.1,0-6.2,0-9.2,0c-0.3,0-0.7,0-1-0.1c-0.8-0.2-1.3-0.9-1.3-1.6c0-0.8,0.5-1.5,1.3-1.7
			c0.3-0.1,0.6-0.1,0.9-0.1c6.3,0,12.5-0.1,18.8-0.1c0.3,0,0.6,0,0.9,0.1c0.8,0.2,1.4,0.9,1.4,1.7s-0.5,1.5-1.4,1.7
			c-0.4,0.1-0.7,0.1-1.1,0.1C566.5,331.3,563.5,331.3,560.4,331.4C560.4,331.4,560.4,331.4,560.4,331.4z"/>
		<path class="st0" d="M560.7,311.2c3,0,6,0,9,0c0.3,0,0.7,0,1,0.1c0.8,0.2,1.4,0.9,1.4,1.7c0,0.8-0.6,1.5-1.4,1.7
			c-0.3,0.1-0.6,0.1-0.9,0.1c-5.9,0-11.8-0.1-17.7-0.1c-0.4,0-0.8,0-1.2-0.1c-0.9-0.2-1.5-0.9-1.5-1.7c0-0.9,0.6-1.5,1.6-1.7
			c0.3,0,0.7,0,1,0c2.9,0,5.9,0,8.8,0C560.7,311.2,560.7,311.2,560.7,311.2z"/>
	</g>
</g>
<g>
	<path class="st0" d="M730,309.4c-0.4,1.1-0.7,2.1-1.1,3.2c0.5,0.2,0.9,0.4,1.2,0.6c2.4,1.2,4.7,2.4,7,3.6c1.3,0.7,2.7,1.4,4,2.1
		c0.1,0.1,0.3,0.2,0.4,0.3c0.5,0.4,0.7,0.7,0.5,1.3c-0.1,0.2-0.2,0.4-0.3,0.6c-4.6,9.4-9.1,18.8-13.7,28.1c-0.1,0.3-0.3,0.6-0.4,0.8
		c-0.4,0.7-1.1,1-2,0.7c-0.2-0.1-0.5-0.2-0.7-0.3c-3.5-1.7-7-3.4-10.5-5.1c-0.2-0.1-0.3-0.2-0.5-0.2c-1.3-0.4-2.1-1.4-2.8-2.4
		c-0.5-0.8-1-1.7-1.5-2.5c-0.5-0.1-0.9,0-1.3,0.3c-2.9,1.9-6.1,3.3-9.5,3.9c-4.2,0.8-8.3,0.4-12.3-1.1c-1.6-0.6-3.1-1.3-4.5-2.1
		c-0.2-0.1-0.4-0.2-0.5-0.3c-0.4,0.6-0.7,1.1-1,1.6c-0.5,0.8-1.1,1.4-1.8,2c-0.1,0.1-0.3,0.2-0.5,0.3c-3.6,1.7-7.2,3.5-10.8,5.2
		c-0.5,0.2-0.9,0.5-1.4,0.7c-1,0.4-1.7,0.2-2.2-0.8c-0.6-1.2-1.2-2.4-1.8-3.6c-4-8.2-8-16.4-12-24.5c-0.2-0.3-0.3-0.6-0.5-1
		c-0.4-0.8-0.3-1.4,0.5-1.8c0.8-0.5,1.7-0.9,2.6-1.3c1.9-1,3.8-1.9,5.7-2.9c0.8-0.4,1.5-0.8,2.3-1.2c-0.5-1.4-1-2.7-1.5-4.1
		c-0.1,0-0.2,0-0.3,0c-1.1,0.4-2.1,0.2-3.1-0.3c-1-0.5-1.9-1.3-2.6-2.2c-1.3-1.5-2.4-3.3-3.3-5.1c-1.5-3-2.5-6-3-9.3
		c-0.2-1.5-0.3-3.1,0-4.7c0.1-0.7,0.3-1.3,0.6-1.9c0.8-1.5,2.2-2.1,3.8-1.7c0.1,0,0.3,0.1,0.5,0.1c0-0.2,0-0.3-0.1-0.4
		c-0.8-3.4-1.6-6.7-2.1-10.2c-0.9-5.5-1.3-11-0.9-16.6c0.3-5.1,1.3-10.1,3.3-14.9c1.5-3.5,3.4-6.8,5.9-9.7c3.6-4.1,7.9-7.2,12.9-9.5
		c4-1.8,8.2-3,12.5-3.7c3.8-0.7,7.6-1.1,11.4-1c7.5,0.1,14.9,1.2,21.9,4c5.6,2.2,10.4,5.4,14.4,10c2.4,2.7,4.3,5.8,5.7,9.1
		c1.5,3.5,2.5,7.2,3.1,11c0.7,4.5,0.8,9,0.5,13.5c-0.4,5.4-1.3,10.8-2.6,16.1c-0.2,0.7-0.3,1.4-0.5,2.1c0,0,0,0.1,0,0.2
		c0.2,0,0.4-0.1,0.5-0.1c1.5-0.4,2.9,0.2,3.7,1.6c0.5,0.9,0.7,1.8,0.8,2.8c0.2,2-0.1,3.9-0.5,5.8c-0.9,3.9-2.4,7.6-4.8,11
		c-0.6,0.8-1.2,1.5-1.9,2.3c-0.3,0.3-0.7,0.6-1.1,0.9C732.9,309.6,731.6,310.1,730,309.4z M717.4,253.2c-0.1,0-0.3,0.1-0.4,0.1
		c-1,0.3-2,0.5-3,0.8c-4.3,0.9-8.7,1.3-13.1,1.5c-3.6,0.1-7.2,0.1-10.8-0.1c-2.8-0.2-5.5-0.4-8.2-1c-1.6-0.3-3.1-0.4-4.7-0.1
		c-2.7,0.5-5,1.7-7.1,3.4c-2.3,1.8-4.2,3.9-5.7,6.3c-5.1,7.7-7.5,16.2-7,25.5c0,1,0.1,1.9,0.3,2.9c0.8,2.6,1.6,5.2,2.3,7.8
		c0.6,2.2,1.2,4.4,1.9,6.6c0.5,1.7,1.1,3.3,1.7,4.9c0.1,0.1,0.1,0.3,0.2,0.5c0.9-0.5,1.9-0.7,2.9-0.7c0.4,0,0.6-0.1,0.9-0.4
		c4.8-5.2,10.3-9.5,16.4-13.1c2.5-1.5,5.2-2.8,7.9-3.8c0.9-0.3,1.9-0.7,2.9-0.8c1.3-0.2,2.6-0.1,3.9,0.3c1.7,0.5,3.4,1.1,5.1,1.9
		c4.7,2.2,9,5,13,8.2c2.8,2.2,5.5,4.6,8,7.3c0.1,0.2,0.4,0.3,0.6,0.4c0.4,0.1,0.8,0,1.2,0c0.1-0.2,0.2-0.3,0.2-0.5
		c0.8-2.4,1.7-4.8,2.4-7.3c1.1-4.1,2.4-8.2,3.5-12.2c0.4-1.3,0.6-2.6,0.6-4c0-0.5,0-1.1,0-1.6c0.2-2.4-0.3-4.7-1-7
		c-0.2-0.7-0.5-1.3-0.8-1.9c-0.7-1.9-1.9-3.6-3.2-5.2c-0.8-0.9-1.5-1.8-2.3-2.7c-0.6-0.7-1.1-1.5-1.7-2.1c-1.4-1.5-2.7-3-3.7-4.8
		c-1-1.7-1.8-3.4-2.2-5.4C717.8,255.6,717.6,254.4,717.4,253.2z M670.6,312.1c0.4,0.2,0.7,0.3,0.9,0.4c0.5,0.2,0.8,0.5,1,1
		c0.4,1,0.9,2,1.3,3c0.7,1.6,1.4,3.3,2.1,5c0.6,1.4,1.2,2.8,1.8,4.2c0.7,1.6,1.4,3.1,2.1,4.7c1,2.1,2,4.1,3,6.1
		c0.3,0.6,0.6,1.2,0.8,1.9c0.1,0.3,0.3,0.5,0.6,0.7c2.1,1.2,4.4,2,6.8,2.5c0.9,0.2,1.9,0.3,2.9,0.4c2.8,0.2,5.4-0.4,8-1.3
		c2.4-0.8,4.6-2.1,6.6-3.6c0.2-0.2,0.4-0.4,0.6-0.7c1.8-3.5,3.5-7,5-10.6c0.6-1.5,1.3-3,1.9-4.5c0.6-1.4,1.2-2.9,1.8-4.3
		c0.4-1,0.9-2,1.3-3c0.3-0.7,0.7-1.2,1.4-1.5c0.2-0.1,0.4-0.2,0.7-0.3c-0.1-0.1-0.1-0.2-0.1-0.2c-0.1-0.1-0.3-0.3-0.4-0.4
		c-4.5-4.5-9.6-8.3-15.1-11.4c-2.3-1.3-4.7-2.5-7.3-3.2c-1.2-0.4-2.5-0.6-3.8-0.3c-2,0.5-3.8,1.2-5.6,2.1
		c-6.7,3.3-12.6,7.7-17.8,12.9C670.9,311.7,670.8,311.9,670.6,312.1z M659.3,317.8c4.4,8.9,8.7,17.7,13,26.5
		c0.2-0.1,0.4-0.2,0.6-0.3c1.2-0.6,2.4-1.2,3.6-1.8c0.7-0.3,1.2-0.8,1.6-1.4c0.5-0.8,0.9-1.6,1.3-2.4c0.4-0.8,0.4-1.6,0-2.4
		c-0.7-1.5-1.5-2.9-2.2-4.4c-1-2.2-2-4.5-3-6.7c-0.5-1.2-1-2.5-1.5-3.7c-0.9-2-1.7-3.9-2.6-5.9c-0.1-0.3-0.3-0.5-0.7-0.6
		c-1-0.3-2.1-0.3-3.2-0.4c-0.2,0-0.4,0.1-0.6,0.2c-0.9,0.5-1.9,0.9-2.8,1.4C661.7,316.7,660.5,317.2,659.3,317.8z M732.4,317.7
		c-0.3-0.1-0.5-0.2-0.7-0.3c-0.7-0.3-1.3-0.6-2-1c-1.1-0.7-2.2-1.3-3.5-1.5c-1.3-0.3-2.6-0.2-3.9,0.1c-0.3,0.1-0.5,0.3-0.7,0.6
		c-0.1,0.4-0.3,0.7-0.5,1.1c-0.7,1.7-1.5,3.3-2.2,5c-0.6,1.4-1.1,2.8-1.7,4.1c-1.1,2.5-2.3,5-3.4,7.5c-0.5,1.2-1,2.4-1.5,3.5
		c-0.2,0.6-0.3,1.2-0.1,1.8c0.4,0.9,0.9,1.9,1.5,2.7c0.4,0.5,0.8,0.9,1.3,1.1c1.1,0.5,2.1,1,3.2,1.6c0.1,0.1,0.3,0.1,0.5,0.2
		C723.4,335.3,727.8,326.5,732.4,317.7z M734.5,318.8c-0.6,0.8-13.4,25.9-13.5,26.4c1.6,0.8,3.1,1.5,4.7,2.3
		c4.3-8.9,8.6-17.7,12.9-26.5C737.2,320.2,735.9,319.5,734.5,318.8z M666.1,347.4c1.2-0.5,3.8-1.8,4.1-2.1
		c-4.3-8.8-8.6-17.6-12.9-26.4c-1.3,0.9-2.8,1.4-4,2.3C657.6,330,661.8,338.7,666.1,347.4z M658.4,306.1c0-0.1-0.1-0.3-0.1-0.4
		c-1.5-5.2-3.1-10.4-4.6-15.6c-0.1-0.2-0.1-0.4-0.2-0.5c-0.6-0.7-1.3-1.4-2-2c-0.9-0.7-1.3-0.5-1.5,0.6c-0.2,1-0.2,2.1-0.1,3.1
		c0.5,4.5,2.1,8.6,4.6,12.4c0.6,0.8,1.3,1.6,2,2.3c0.3,0.3,0.7,0.5,1,0.7C658.1,306.9,658.5,306.7,658.4,306.1z M739.7,290.1
		c-0.1-0.8-0.2-1.5-0.4-2.3c-0.2-0.7-0.5-0.8-1.1-0.4c-0.7,0.4-1.2,0.9-1.7,1.5c-0.3,0.3-0.5,0.7-0.6,1.1c-0.5,1.6-0.9,3.2-1.4,4.8
		c-1.1,3.7-2.2,7.5-3.3,11.2c-0.1,0.2-0.2,0.5,0,0.7c0.3,0.2,0.5,0.1,0.8-0.1c0.4-0.3,0.9-0.6,1.2-1c0.9-0.8,1.6-1.8,2.2-2.8
		c1.1-1.7,1.9-3.5,2.6-5.4C738.9,295.1,739.5,292.7,739.7,290.1z M700.8,251.9c0,0,0,0.1,0,0.1c0.2,0,0.4,0,0.6,0
		c1.3-0.1,2.5-0.1,3.8-0.3c3-0.3,5.9-1,8.7-1.9c2.7-0.9,5.1-2.3,7.3-4.1c2.6-2.3,4.5-5.1,5.2-8.6c0.1-0.7,0.2-1.3,0.3-2
		c0-0.3-0.2-0.6-0.4-0.5c-0.3,0-0.4,0.2-0.4,0.5c0,0.1,0,0.2,0,0.3c-0.1,0.9-0.3,1.9-0.7,2.8c-0.9,2.2-2.2,4.1-3.9,5.8
		c-2.1,2-4.5,3.5-7.1,4.7c-3.5,1.8-7.3,2.7-11.2,3.1C702.3,251.7,701.5,251.8,700.8,251.9z M723.9,253.1c0,0-0.1,0-0.1,0
		c0,0.3-0.1,0.6-0.1,0.8c0,1.3,0.1,2.6,0.6,3.9c1.3,3.5,3.3,6.6,5.9,9.4c0.4,0.4,0.9,0.8,1.4,1.1c0.1,0.1,0.3,0.1,0.4,0.2
		c-0.6-0.9-1.2-1.6-1.9-2.4c-3.3-3.6-5.2-7.8-6.1-12.6C723.9,253.3,723.9,253.2,723.9,253.1z M671.4,226.3c-0.1,0.1-0.3,0.1-0.4,0.2
		c-3.7,1.8-7,4.2-9.9,7.2c-1.2,1.3-2.2,2.7-2.9,4.3c-0.2,0.4-0.4,0.9-0.5,1.3c0,0,0.1,0,0.1,0.1
		C661.2,233.8,665.9,229.6,671.4,226.3z M673.9,225.4c0-0.1,0-0.1-0.1-0.1c-0.3,0.1-0.5,0.2-0.8,0.3c0,0,0,0.1,0,0.1
		C673.4,225.6,673.7,225.5,673.9,225.4z"/>
	<path class="st2" d="M670.6,312.1c0.2-0.2,0.3-0.4,0.4-0.5c5.3-5.2,11.2-9.6,17.8-12.9c1.8-0.9,3.7-1.6,5.6-2.1
		c1.3-0.3,2.6-0.1,3.8,0.3c2.6,0.8,5,1.9,7.3,3.2c5.5,3.1,10.6,6.9,15.1,11.4c0.1,0.1,0.3,0.3,0.4,0.4c0,0,0,0.1,0.1,0.2
		c-0.2,0.1-0.4,0.2-0.7,0.3c-0.7,0.3-1.1,0.8-1.4,1.5c-0.4,1-0.9,2-1.3,3c-0.6,1.4-1.2,2.9-1.8,4.3c-0.6,1.5-1.3,3-1.9,4.5
		c-1.5,3.6-3.3,7.1-5,10.6c-0.1,0.3-0.3,0.5-0.6,0.7c-2,1.5-4.2,2.8-6.6,3.6c-2.6,0.9-5.2,1.5-8,1.3c-1-0.1-1.9-0.2-2.9-0.4
		c-2.4-0.5-4.7-1.3-6.8-2.5c-0.3-0.2-0.5-0.4-0.6-0.7c-0.2-0.7-0.5-1.3-0.8-1.9c-1-2-2-4.1-3-6.1c-0.7-1.5-1.4-3.1-2.1-4.7
		c-0.6-1.4-1.2-2.8-1.8-4.2c-0.7-1.7-1.4-3.3-2.1-5c-0.4-1-0.9-2-1.3-3c-0.2-0.5-0.6-0.8-1-1C671.2,312.3,671,312.2,670.6,312.1z
		 M711,319.7c0-8.3-6.5-16-16-15.9c-9.3,0-15.8,7.6-15.8,15.9c0,8.8,7.1,15.9,15.9,16C703.8,335.7,711,328.5,711,319.7z"/>
	<path class="st3" d="M659.3,317.8c1.2-0.6,2.3-1.2,3.5-1.7c0.9-0.5,1.9-1,2.8-1.4c0.2-0.1,0.4-0.2,0.6-0.2c1.1,0.1,2.1,0.1,3.2,0.4
		c0.3,0.1,0.5,0.3,0.7,0.6c0.9,2,1.8,3.9,2.6,5.9c0.5,1.2,1,2.5,1.5,3.7c1,2.2,1.9,4.5,3,6.7c0.7,1.5,1.5,2.9,2.2,4.4
		c0.4,0.8,0.4,1.6,0,2.4c-0.4,0.8-0.8,1.6-1.3,2.4c-0.4,0.6-0.9,1.1-1.6,1.4c-1.2,0.6-2.4,1.2-3.6,1.8c-0.2,0.1-0.3,0.2-0.6,0.3
		C668,335.6,663.7,326.8,659.3,317.8z"/>
	<path class="st3" d="M732.4,317.7c-4.5,8.8-9,17.6-13.5,26.4c-0.2-0.1-0.4-0.1-0.5-0.2c-1.1-0.5-2.1-1.1-3.2-1.6
		c-0.6-0.3-1-0.7-1.3-1.1c-0.6-0.8-1.1-1.8-1.5-2.7c-0.3-0.6-0.2-1.2,0.1-1.8c0.5-1.2,1-2.4,1.5-3.5c1.1-2.5,2.3-5,3.4-7.5
		c0.6-1.4,1.1-2.7,1.7-4.1c0.7-1.7,1.5-3.3,2.2-5c0.2-0.4,0.4-0.7,0.5-1.1c0.1-0.3,0.3-0.5,0.7-0.6c1.3-0.3,2.6-0.3,3.9-0.1
		c1.3,0.3,2.4,0.8,3.5,1.5c0.6,0.4,1.3,0.7,2,1C731.9,317.5,732.1,317.6,732.4,317.7z"/>
	<path class="st2" d="M734.5,318.8c1.4,0.7,2.8,1.4,4.2,2.2c-4.3,8.8-8.6,17.6-12.9,26.5c-1.6-0.8-3.2-1.5-4.7-2.3
		C721.1,344.7,733.9,319.6,734.5,318.8z"/>
	<path class="st2" d="M666.1,347.4c-4.3-8.7-8.5-17.4-12.8-26.2c1.2-0.9,2.6-1.5,4-2.3c4.3,8.8,8.6,17.6,12.9,26.4
		C669.8,345.7,667.3,347,666.1,347.4z"/>
	<path d="M710.6,289c-1,0-1.8-0.2-2.6-0.5c-0.7-0.3-1.3-0.8-1.6-1.5c-0.4-1-0.2-1.9,0.5-2.8c0.5-0.5,1.1-0.9,1.8-1.1
		c1.3-0.4,2.6-0.4,3.8,0.1c0.4,0.2,0.9,0.4,1.2,0.7c1.2,1,1.2,2.6,0.1,3.7c-0.4,0.4-0.9,0.7-1.5,0.9
		C711.8,288.9,711.1,289,710.6,289z"/>
	<path d="M679,289c-0.7,0-1.4-0.1-2.1-0.4c-0.4-0.2-0.8-0.4-1.1-0.6c-1.6-1.2-1.6-3.3,0.2-4.4c1.7-1.1,4.4-1,6,0.2
		c1.7,1.2,1.6,3.3-0.2,4.4c-0.2,0.1-0.5,0.3-0.7,0.4c-0.3,0.1-0.6,0.2-0.9,0.3C679.8,289,679.4,289,679,289z"/>
	<path d="M678.3,275.1c1.8,0.1,3.3,0.2,4.8,0.6c0.3,0.1,0.6,0.2,0.8,0.4c0.6,0.4,0.8,1.1,0.5,1.7c-0.2,0.6-0.9,1-1.5,0.9
		c-0.2,0-0.4-0.1-0.6-0.1c-2.2-0.6-4.4-0.6-6.6-0.2c-0.5,0.1-0.9,0.3-1.4,0.5c-0.1,0-0.3,0.1-0.4,0.2c-0.7,0.2-1.4-0.1-1.7-0.6
		c-0.4-0.6-0.3-1.4,0.3-1.9c0.2-0.2,0.5-0.3,0.7-0.5c0.9-0.4,2-0.7,3-0.8C677,275.1,677.8,275.1,678.3,275.1z"/>
	<path d="M710.9,275.7c1.3,0,2.5,0.1,3.8,0.4c0.5,0.1,1,0.3,1.4,0.8c0.8,0.9,0.4,2.2-0.7,2.5c-0.3,0.1-0.7,0.1-0.9-0.1
		c-0.8-0.5-1.7-0.5-2.6-0.6c-1.4-0.1-2.9,0-4.3,0.3c-0.3,0.1-0.7,0.2-1,0.3c-0.4,0.1-0.8,0.2-1.2,0c-1-0.4-1.2-1.7-0.4-2.4
		c0.2-0.2,0.6-0.3,0.9-0.5C707.5,275.8,709.2,275.7,710.9,275.7z"/>
	<path d="M711,319.7c0,8.8-7.2,16-16,15.9c-8.8,0-15.9-7.2-15.9-16c0-8.3,6.5-15.8,15.8-15.9C704.5,303.7,711,311.4,711,319.7z
		 M682.1,319.7c0,7.2,5.8,13,12.9,13c7.2,0,13-5.8,13-12.9c0-7.2-5.8-12.7-12.5-13C688.1,306.5,682.1,312.5,682.1,319.7z"/>
	<path class="st3" d="M682.1,319.7c0-7.2,5.9-13.2,13.5-12.9c6.7,0.2,12.5,5.7,12.5,13c0,7.2-5.8,12.9-13,12.9
		C687.9,332.6,682.1,326.8,682.1,319.7z M695.1,311.3c-4.6-0.1-8.5,3.8-8.6,8.4c-0.1,4.7,3.7,8.6,8.5,8.7c4.7,0.1,8.6-3.7,8.6-8.5
		C703.7,315.2,700,311.3,695.1,311.3z"/>
	<path d="M695.1,311.3c4.8,0.1,8.6,3.9,8.6,8.7c-0.1,4.7-3.9,8.5-8.6,8.5c-4.7-0.1-8.5-4-8.5-8.7C686.6,315,690.5,311.2,695.1,311.3
		z M689.5,319.8c0,3.1,2.5,5.6,5.6,5.6c3.1,0,5.6-2.5,5.6-5.6c0-3-2.5-5.6-5.5-5.6C692.1,314.2,689.5,316.7,689.5,319.8z"/>
	<path class="st2" d="M689.5,319.8c0-3.1,2.5-5.6,5.7-5.6c3,0,5.5,2.6,5.5,5.6c0,3.1-2.5,5.6-5.6,5.6
		C692,325.4,689.5,322.9,689.5,319.8z"/>
</g>
</svg>
