<?xml version="1.0" encoding="utf-8"?>
<!-- Generator: Adobe Illustrator 16.0.0, SVG Export Plug-In . SVG Version: 6.00 Build 0)  -->
<!DOCTYPE svg PUBLIC "-//W3C//DTD SVG 1.1//EN" "http://www.w3.org/Graphics/SVG/1.1/DTD/svg11.dtd">
<svg version="1.1" id="Layer_1" xmlns="http://www.w3.org/2000/svg" xmlns:xlink="http://www.w3.org/1999/xlink" x="0px" y="0px"
	 width="50px" height="50px" viewBox="0 0 50 50" enable-background="new 0 0 50 50" xml:space="preserve">
<path fill="#A7A9AC" d="M31.275,1.402C18.27-1.973,4.991,5.835,1.616,18.841C-1.757,31.847,6.05,45.126,19.057,48.5
	c13.006,3.375,26.283-4.434,29.657-17.439C52.089,18.054,44.281,4.776,31.275,1.402z M27.487,45.297
	c-11.786,0.523-4.921-9.463-2.594-19.296c2.085-8.815-15.596-7.512-19.271-7.148C8.849,8.485,19.685,2.378,30.306,5.133
	c1.396,0.363,2.717,0.86,3.959,1.474c-0.003,0-15.555-2.181-13.671,2.235c1.884,4.416,14.519,5.45,15.761,8.016
	c1.241,2.565-5.923,8.047,2.005,8.71c9.505,0.795,5.596,9.917,1.361,13.785C36.461,42.641,32.143,44.763,27.487,45.297z"/>
</svg>
