<?xml version="1.0" encoding="utf-8"?>
<!-- Generator: Adobe Illustrator 15.1.0, SVG Export Plug-In . SVG Version: 6.00 Build 0)  -->
<!DOCTYPE svg PUBLIC "-//W3C//DTD SVG 1.1//EN" "http://www.w3.org/Graphics/SVG/1.1/DTD/svg11.dtd">
<svg version="1.1" id="Layer_1" xmlns="http://www.w3.org/2000/svg" xmlns:xlink="http://www.w3.org/1999/xlink" x="0px" y="0px"
	 width="1307px" height="106px" viewBox="0 0 1307 106" enable-background="new 0 0 1307 106" xml:space="preserve">
<g>
	
		<linearGradient id="SVGID_1_" gradientUnits="userSpaceOnUse" x1="-49.5559" y1="747.9893" x2="0.4364" y2="831.9388" gradientTransform="matrix(1 0 0 1 282.4448 -749.6406)">
		<stop  offset="0" style="stop-color:#39B54A"/>
		<stop  offset="1" style="stop-color:#000000"/>
	</linearGradient>
	<path fill="url(#SVGID_1_)" d="M237.371,97.93V10h25.387c32.417,0,48.625,14.287,48.625,42.861
		c0,13.573-4.499,24.475-13.493,32.713c-8.99,8.234-21.05,12.355-36.175,12.355H237.371L237.371,97.93z M251.904,22.386v63.217
		h11.65c10.262,0,18.242-2.818,23.946-8.461c5.7-5.642,8.552-13.615,8.552-23.914c0-20.561-10.649-30.843-31.946-30.843H251.904z"/>
	
		<linearGradient id="SVGID_2_" gradientUnits="userSpaceOnUse" x1="-1.9436" y1="719.6357" x2="48.0489" y2="803.5856" gradientTransform="matrix(1 0 0 1 282.4448 -749.6406)">
		<stop  offset="0" style="stop-color:#39B54A"/>
		<stop  offset="1" style="stop-color:#000000"/>
	</linearGradient>
	<path fill="url(#SVGID_2_)" d="M355.278,74.428c0,13.354-6.322,20.029-18.969,20.029c-12.114,0-18.173-6.421-18.173-19.266V46.109
		h7.894v27.458c0,9.33,3.625,13.994,10.877,13.994c6.985,0,10.479-4.498,10.479-13.496V46.109h7.893V74.428L355.278,74.428z"/>
	
		<linearGradient id="SVGID_3_" gradientUnits="userSpaceOnUse" x1="26.6799" y1="702.6006" x2="76.6696" y2="786.5456" gradientTransform="matrix(1 0 0 1 282.4448 -749.6406)">
		<stop  offset="0" style="stop-color:#39B54A"/>
		<stop  offset="1" style="stop-color:#000000"/>
	</linearGradient>
	<path fill="url(#SVGID_3_)" d="M364.265,91.771v-8.125c0.729,0.664,1.595,1.262,2.602,1.791c1.006,0.529,2.074,0.979,3.201,1.347
		c1.127,0.364,2.254,0.644,3.384,0.842c1.127,0.2,2.166,0.299,3.116,0.299c3.316,0,5.785-0.552,7.41-1.657
		c1.625-1.104,2.439-2.707,2.439-4.808c0-1.128-0.273-2.104-0.815-2.935c-0.542-0.828-1.297-1.588-2.269-2.273
		c-0.974-0.686-2.119-1.341-3.436-1.971c-1.315-0.631-2.723-1.289-4.227-1.975c-1.613-0.863-3.117-1.738-4.51-2.621
		c-1.394-0.885-2.605-1.86-3.634-2.936c-1.027-1.068-1.834-2.283-2.421-3.632c-0.586-1.351-0.876-2.929-0.876-4.741
		c0-2.23,0.501-4.172,1.507-5.818c1.006-1.648,2.333-3.007,3.979-4.08c1.646-1.072,3.521-1.868,5.622-2.389
		c2.1-0.518,4.245-0.779,6.434-0.779c4.975,0,8.601,0.564,10.877,1.691v7.792c-2.695-1.945-6.167-2.917-10.413-2.917
		c-1.171,0-2.339,0.11-3.5,0.329c-1.159,0.222-2.198,0.586-3.116,1.096c-0.917,0.506-1.661,1.16-2.236,1.958
		c-0.575,0.795-0.862,1.756-0.862,2.885c0,1.063,0.222,1.979,0.663,2.754c0.442,0.771,1.087,1.479,1.938,2.121
		c0.851,0.642,1.89,1.267,3.117,1.875c1.227,0.606,2.649,1.265,4.264,1.972c1.657,0.862,3.22,1.771,4.689,2.72
		c1.471,0.951,2.765,2.001,3.88,3.148c1.116,1.152,2.001,2.43,2.651,3.834c0.653,1.404,0.981,2.998,0.981,4.789
		c0,2.41-0.487,4.443-1.459,6.103c-0.974,1.658-2.285,3.007-3.932,4.045c-1.647,1.04-3.542,1.791-5.686,2.257
		c-2.145,0.463-4.41,0.694-6.798,0.694c-0.796,0-1.776-0.06-2.938-0.179c-1.161-0.123-2.347-0.299-3.563-0.532
		c-1.215-0.231-2.365-0.515-3.448-0.847C365.802,92.566,364.928,92.191,364.265,91.771z"/>
	
		<linearGradient id="SVGID_4_" gradientUnits="userSpaceOnUse" x1="58.9646" y1="683.3604" x2="108.9582" y2="767.3121" gradientTransform="matrix(1 0 0 1 282.4448 -749.6406)">
		<stop  offset="0" style="stop-color:#39B54A"/>
		<stop  offset="1" style="stop-color:#000000"/>
	</linearGradient>
	<path fill="url(#SVGID_4_)" d="M433.274,52.807h-13.663v40.855h-7.893V52.807H398.09v-6.698h35.186L433.274,52.807L433.274,52.807z
		"/>
	
		<linearGradient id="SVGID_5_" gradientUnits="userSpaceOnUse" x1="75.9968" y1="673.2295" x2="125.9876" y2="757.1764" gradientTransform="matrix(1 0 0 1 282.4448 -749.6406)">
		<stop  offset="0" style="stop-color:#39B54A"/>
		<stop  offset="1" style="stop-color:#000000"/>
	</linearGradient>
	<path fill="url(#SVGID_5_)" d="M476.582,93.662h-8.654l-4.276-12.104h-18.704l-4.111,12.104h-8.622l17.809-47.553h8.887
		L476.582,93.662z M461.561,75.125l-6.599-18.969c-0.2-0.619-0.409-1.613-0.632-2.984h-0.132c-0.198,1.26-0.42,2.254-0.663,2.984
		l-6.532,18.969H461.561z"/>
	
		<linearGradient id="SVGID_6_" gradientUnits="userSpaceOnUse" x1="116.2722" y1="649.2334" x2="166.2658" y2="733.1851" gradientTransform="matrix(1 0 0 1 282.4448 -749.6406)">
		<stop  offset="0" style="stop-color:#39B54A"/>
		<stop  offset="1" style="stop-color:#000000"/>
	</linearGradient>
	<path fill="url(#SVGID_6_)" d="M510.905,52.807h-13.662v40.855h-7.894V52.807H475.72v-6.698h35.185V52.807z"/>
	
		<linearGradient id="SVGID_7_" gradientUnits="userSpaceOnUse" x1="132.3464" y1="639.666" x2="182.339" y2="723.6158" gradientTransform="matrix(1 0 0 1 282.4448 -749.6406)">
		<stop  offset="0" style="stop-color:#39B54A"/>
		<stop  offset="1" style="stop-color:#000000"/>
	</linearGradient>
	<path fill="url(#SVGID_7_)" d="M525.961,93.662h-8.125V46.109h8.125V93.662z"/>
	
		<linearGradient id="SVGID_8_" gradientUnits="userSpaceOnUse" x1="158.614" y1="624.0283" x2="208.6053" y2="707.9762" gradientTransform="matrix(1 0 0 1 282.4448 -749.6406)">
		<stop  offset="0" style="stop-color:#39B54A"/>
		<stop  offset="1" style="stop-color:#000000"/>
	</linearGradient>
	<path fill="url(#SVGID_8_)" d="M557.266,94.457c-6.854,0-12.344-2.221-16.466-6.665c-4.124-4.442-6.184-10.226-6.184-17.345
		c0-7.646,2.101-13.75,6.3-18.304c4.2-4.554,9.904-6.83,17.111-6.83c6.676,0,12.052,2.21,16.131,6.633
		c4.079,4.419,6.12,10.201,6.12,17.341c0,7.76-2.089,13.896-6.269,18.404C569.834,92.203,564.25,94.457,557.266,94.457z
		 M557.63,52.243c-4.354,0-7.899,1.625-10.63,4.875c-2.731,3.252-4.095,7.528-4.095,12.834c0,5.282,1.327,9.54,3.979,12.769
		c2.651,3.229,6.123,4.842,10.412,4.842c4.554,0,8.146-1.537,10.776-4.608c2.631-3.073,3.945-7.372,3.945-12.897
		c0-5.685-1.277-10.07-3.831-13.166C565.638,53.791,562.117,52.243,557.63,52.243z"/>
	
		<linearGradient id="SVGID_9_" gradientUnits="userSpaceOnUse" x1="196.7688" y1="601.3076" x2="246.7602" y2="685.2556" gradientTransform="matrix(1 0 0 1 282.4448 -749.6406)">
		<stop  offset="0" style="stop-color:#39B54A"/>
		<stop  offset="1" style="stop-color:#000000"/>
	</linearGradient>
	<path fill="url(#SVGID_9_)" d="M629.325,93.662h-8.623L597.988,58.71c-0.575-0.886-1.052-1.804-1.427-2.753h-0.199
		c0.177,1.018,0.267,3.195,0.267,6.531v31.174H589V46.109h9.187l21.953,34.124c0.929,1.414,1.524,2.39,1.791,2.918h0.133
		c-0.221-1.26-0.331-3.395-0.331-6.399V46.11h7.595L629.325,93.662L629.325,93.662z"/>
	<g>
		
			<linearGradient id="SVGID_10_" gradientUnits="userSpaceOnUse" x1="-60.4529" y1="754.4785" x2="-10.4656" y2="838.4196" gradientTransform="matrix(1 0 0 1 282.4448 -749.6406)">
			<stop  offset="0" style="stop-color:#39B54A"/>
			<stop  offset="1" style="stop-color:#000000"/>
		</linearGradient>
		<rect x="225.685" y="12.772" fill="url(#SVGID_10_)" width="5.104" height="5.108"/>
		
			<linearGradient id="SVGID_11_" gradientUnits="userSpaceOnUse" x1="-64.0618" y1="756.6299" x2="-14.0815" y2="840.5591" gradientTransform="matrix(1 0 0 1 282.4448 -749.6406)">
			<stop  offset="0" style="stop-color:#39B54A"/>
			<stop  offset="1" style="stop-color:#000000"/>
		</linearGradient>
		<rect x="225.685" y="20.984" fill="url(#SVGID_11_)" width="5.104" height="5.107"/>
		
			<linearGradient id="SVGID_12_" gradientUnits="userSpaceOnUse" x1="-67.4734" y1="758.6641" x2="-17.4914" y2="842.5964" gradientTransform="matrix(1 0 0 1 282.4448 -749.6406)">
			<stop  offset="0" style="stop-color:#39B54A"/>
			<stop  offset="1" style="stop-color:#000000"/>
		</linearGradient>
		<rect x="225.685" y="28.746" fill="url(#SVGID_12_)" width="5.104" height="5.108"/>
		
			<linearGradient id="SVGID_13_" gradientUnits="userSpaceOnUse" x1="-71.0857" y1="760.8096" x2="-21.0922" y2="844.7612" gradientTransform="matrix(1 0 0 1 282.4448 -749.6406)">
			<stop  offset="0" style="stop-color:#39B54A"/>
			<stop  offset="1" style="stop-color:#000000"/>
		</linearGradient>
		<rect x="225.685" y="36.958" fill="url(#SVGID_13_)" width="5.104" height="5.107"/>
		
			<linearGradient id="SVGID_14_" gradientUnits="userSpaceOnUse" x1="-74.5872" y1="762.8926" x2="-24.5922" y2="846.8465" gradientTransform="matrix(1 0 0 1 282.4448 -749.6406)">
			<stop  offset="0" style="stop-color:#39B54A"/>
			<stop  offset="1" style="stop-color:#000000"/>
		</linearGradient>
		<rect x="225.685" y="44.919" fill="url(#SVGID_14_)" width="5.104" height="5.111"/>
		
			<linearGradient id="SVGID_15_" gradientUnits="userSpaceOnUse" x1="-78.1902" y1="765.0547" x2="-28.2099" y2="848.984" gradientTransform="matrix(1 0 0 1 282.4448 -749.6406)">
			<stop  offset="0" style="stop-color:#39B54A"/>
			<stop  offset="1" style="stop-color:#000000"/>
		</linearGradient>
		<rect x="225.685" y="53.135" fill="url(#SVGID_15_)" width="5.104" height="5.105"/>
		
			<linearGradient id="SVGID_16_" gradientUnits="userSpaceOnUse" x1="-81.6077" y1="767.0771" x2="-31.6169" y2="851.0239" gradientTransform="matrix(1 0 0 1 282.4448 -749.6406)">
			<stop  offset="0" style="stop-color:#39B54A"/>
			<stop  offset="1" style="stop-color:#000000"/>
		</linearGradient>
		<rect x="225.685" y="60.895" fill="url(#SVGID_16_)" width="5.104" height="5.107"/>
		
			<linearGradient id="SVGID_17_" gradientUnits="userSpaceOnUse" x1="-85.2292" y1="769.2061" x2="-35.2176" y2="853.1882" gradientTransform="matrix(1 0 0 1 282.4448 -749.6406)">
			<stop  offset="0" style="stop-color:#39B54A"/>
			<stop  offset="1" style="stop-color:#000000"/>
		</linearGradient>
		<rect x="225.685" y="69.104" fill="url(#SVGID_17_)" width="5.104" height="5.11"/>
		
			<linearGradient id="SVGID_18_" gradientUnits="userSpaceOnUse" x1="-88.6384" y1="771.2773" x2="-38.6554" y2="855.2113" gradientTransform="matrix(1 0 0 1 282.4448 -749.6406)">
			<stop  offset="0" style="stop-color:#39B54A"/>
			<stop  offset="1" style="stop-color:#000000"/>
		</linearGradient>
		<rect x="225.685" y="76.902" fill="url(#SVGID_18_)" width="5.104" height="5.104"/>
		
			<linearGradient id="SVGID_19_" gradientUnits="userSpaceOnUse" x1="-92.0613" y1="773.292" x2="-42.0642" y2="857.2494" gradientTransform="matrix(1 0 0 1 282.4448 -749.6406)">
			<stop  offset="0" style="stop-color:#39B54A"/>
			<stop  offset="1" style="stop-color:#000000"/>
		</linearGradient>
		<rect x="225.685" y="84.664" fill="url(#SVGID_19_)" width="5.104" height="5.105"/>
		
			<linearGradient id="SVGID_20_" gradientUnits="userSpaceOnUse" x1="-95.6716" y1="775.4434" x2="-45.6746" y2="859.4009" gradientTransform="matrix(1 0 0 1 282.4448 -749.6406)">
			<stop  offset="0" style="stop-color:#39B54A"/>
			<stop  offset="1" style="stop-color:#000000"/>
		</linearGradient>
		<rect x="225.685" y="92.878" fill="url(#SVGID_20_)" width="5.104" height="5.106"/>
		
			<linearGradient id="SVGID_21_" gradientUnits="userSpaceOnUse" x1="-66.2078" y1="757.9043" x2="-16.2041" y2="841.8728" gradientTransform="matrix(1 0 0 1 282.4448 -749.6406)">
			<stop  offset="0" style="stop-color:#39B54A"/>
			<stop  offset="1" style="stop-color:#000000"/>
		</linearGradient>
		<rect x="217.887" y="12.772" fill="url(#SVGID_21_)" width="5.111" height="5.108"/>
		
			<linearGradient id="SVGID_22_" gradientUnits="userSpaceOnUse" x1="-73.2273" y1="762.0908" x2="-23.2453" y2="846.023" gradientTransform="matrix(1 0 0 1 282.4448 -749.6406)">
			<stop  offset="0" style="stop-color:#39B54A"/>
			<stop  offset="1" style="stop-color:#000000"/>
		</linearGradient>
		<rect x="217.887" y="28.746" fill="url(#SVGID_22_)" width="5.111" height="5.108"/>
		
			<linearGradient id="SVGID_23_" gradientUnits="userSpaceOnUse" x1="-76.8367" y1="764.2412" x2="-26.8547" y2="848.1734" gradientTransform="matrix(1 0 0 1 282.4448 -749.6406)">
			<stop  offset="0" style="stop-color:#39B54A"/>
			<stop  offset="1" style="stop-color:#000000"/>
		</linearGradient>
		<rect x="217.887" y="36.958" fill="url(#SVGID_23_)" width="5.111" height="5.107"/>
		
			<linearGradient id="SVGID_24_" gradientUnits="userSpaceOnUse" x1="-80.3347" y1="766.3301" x2="-30.3566" y2="850.2558" gradientTransform="matrix(1 0 0 1 282.4448 -749.6406)">
			<stop  offset="0" style="stop-color:#39B54A"/>
			<stop  offset="1" style="stop-color:#000000"/>
		</linearGradient>
		<rect x="217.887" y="44.919" fill="url(#SVGID_24_)" width="5.111" height="5.111"/>
		
			<linearGradient id="SVGID_25_" gradientUnits="userSpaceOnUse" x1="-87.3699" y1="770.4902" x2="-37.3627" y2="854.4645" gradientTransform="matrix(1 0 0 1 282.4448 -749.6406)">
			<stop  offset="0" style="stop-color:#39B54A"/>
			<stop  offset="1" style="stop-color:#000000"/>
		</linearGradient>
		<rect x="217.887" y="60.895" fill="url(#SVGID_25_)" width="5.111" height="5.107"/>
		
			<linearGradient id="SVGID_26_" gradientUnits="userSpaceOnUse" x1="-90.9763" y1="772.6445" x2="-40.9763" y2="856.6071" gradientTransform="matrix(1 0 0 1 282.4448 -749.6406)">
			<stop  offset="0" style="stop-color:#39B54A"/>
			<stop  offset="1" style="stop-color:#000000"/>
		</linearGradient>
		<rect x="217.887" y="69.104" fill="url(#SVGID_26_)" width="5.111" height="5.11"/>
		
			<linearGradient id="SVGID_27_" gradientUnits="userSpaceOnUse" x1="-94.3943" y1="774.7002" x2="-44.408" y2="858.6394" gradientTransform="matrix(1 0 0 1 282.4448 -749.6406)">
			<stop  offset="0" style="stop-color:#39B54A"/>
			<stop  offset="1" style="stop-color:#000000"/>
		</linearGradient>
		<rect x="217.887" y="76.902" fill="url(#SVGID_27_)" width="5.111" height="5.104"/>
		
			<linearGradient id="SVGID_28_" gradientUnits="userSpaceOnUse" x1="-97.8035" y1="776.7383" x2="-47.8232" y2="860.6675" gradientTransform="matrix(1 0 0 1 282.4448 -749.6406)">
			<stop  offset="0" style="stop-color:#39B54A"/>
			<stop  offset="1" style="stop-color:#000000"/>
		</linearGradient>
		<rect x="217.887" y="84.664" fill="url(#SVGID_28_)" width="5.111" height="5.105"/>
		
			<linearGradient id="SVGID_29_" gradientUnits="userSpaceOnUse" x1="-101.4221" y1="778.876" x2="-51.4296" y2="862.8258" gradientTransform="matrix(1 0 0 1 282.4448 -749.6406)">
			<stop  offset="0" style="stop-color:#39B54A"/>
			<stop  offset="1" style="stop-color:#000000"/>
		</linearGradient>
		<rect x="217.887" y="92.878" fill="url(#SVGID_29_)" width="5.111" height="5.106"/>
		
			<linearGradient id="SVGID_30_" gradientUnits="userSpaceOnUse" x1="-75.449" y1="763.4072" x2="-25.4559" y2="847.358" gradientTransform="matrix(1 0 0 1 282.4448 -749.6406)">
			<stop  offset="0" style="stop-color:#39B54A"/>
			<stop  offset="1" style="stop-color:#000000"/>
		</linearGradient>
		<rect x="210.26" y="20.984" fill="url(#SVGID_30_)" width="5.108" height="5.107"/>
		
			<linearGradient id="SVGID_31_" gradientUnits="userSpaceOnUse" x1="-78.8611" y1="765.4395" x2="-28.8662" y2="849.3934" gradientTransform="matrix(1 0 0 1 282.4448 -749.6406)">
			<stop  offset="0" style="stop-color:#39B54A"/>
			<stop  offset="1" style="stop-color:#000000"/>
		</linearGradient>
		<rect x="210.26" y="28.746" fill="url(#SVGID_31_)" width="5.108" height="5.108"/>
		
			<linearGradient id="SVGID_32_" gradientUnits="userSpaceOnUse" x1="-85.9773" y1="769.6641" x2="-35.9673" y2="853.6431" gradientTransform="matrix(1 0 0 1 282.4448 -749.6406)">
			<stop  offset="0" style="stop-color:#39B54A"/>
			<stop  offset="1" style="stop-color:#000000"/>
		</linearGradient>
		<rect x="210.26" y="44.919" fill="url(#SVGID_32_)" width="5.108" height="5.111"/>
		
			<linearGradient id="SVGID_33_" gradientUnits="userSpaceOnUse" x1="-89.5793" y1="771.8291" x2="-39.5938" y2="855.7671" gradientTransform="matrix(1 0 0 1 282.4448 -749.6406)">
			<stop  offset="0" style="stop-color:#39B54A"/>
			<stop  offset="1" style="stop-color:#000000"/>
		</linearGradient>
		<rect x="210.26" y="53.135" fill="url(#SVGID_33_)" width="5.108" height="5.105"/>
		
			<linearGradient id="SVGID_34_" gradientUnits="userSpaceOnUse" x1="-92.9895" y1="773.8633" x2="-43.005" y2="857.7996" gradientTransform="matrix(1 0 0 1 282.4448 -749.6406)">
			<stop  offset="0" style="stop-color:#39B54A"/>
			<stop  offset="1" style="stop-color:#000000"/>
		</linearGradient>
		<rect x="210.26" y="60.895" fill="url(#SVGID_34_)" width="5.108" height="5.107"/>
		
			<linearGradient id="SVGID_35_" gradientUnits="userSpaceOnUse" x1="-100.0295" y1="778.0469" x2="-50.0387" y2="861.9938" gradientTransform="matrix(1 0 0 1 282.4448 -749.6406)">
			<stop  offset="0" style="stop-color:#39B54A"/>
			<stop  offset="1" style="stop-color:#000000"/>
		</linearGradient>
		<rect x="210.26" y="76.902" fill="url(#SVGID_35_)" width="5.108" height="5.104"/>
		
			<linearGradient id="SVGID_36_" gradientUnits="userSpaceOnUse" x1="-103.4485" y1="780.0684" x2="-53.4491" y2="864.03" gradientTransform="matrix(1 0 0 1 282.4448 -749.6406)">
			<stop  offset="0" style="stop-color:#39B54A"/>
			<stop  offset="1" style="stop-color:#000000"/>
		</linearGradient>
		<rect x="210.26" y="84.664" fill="url(#SVGID_36_)" width="5.108" height="5.105"/>
		
			<linearGradient id="SVGID_37_" gradientUnits="userSpaceOnUse" x1="-77.592" y1="764.6846" x2="-27.611" y2="848.6151" gradientTransform="matrix(1 0 0 1 282.4448 -749.6406)">
			<stop  offset="0" style="stop-color:#39B54A"/>
			<stop  offset="1" style="stop-color:#000000"/>
		</linearGradient>
		<rect x="202.467" y="12.772" fill="url(#SVGID_37_)" width="5.107" height="5.108"/>
		
			<linearGradient id="SVGID_38_" gradientUnits="userSpaceOnUse" x1="-81.2014" y1="766.834" x2="-31.209" y2="850.7838" gradientTransform="matrix(1 0 0 1 282.4448 -749.6406)">
			<stop  offset="0" style="stop-color:#39B54A"/>
			<stop  offset="1" style="stop-color:#000000"/>
		</linearGradient>
		<rect x="202.467" y="20.984" fill="url(#SVGID_38_)" width="5.107" height="5.107"/>
		
			<linearGradient id="SVGID_39_" gradientUnits="userSpaceOnUse" x1="-88.2253" y1="771.0137" x2="-38.2258" y2="854.975" gradientTransform="matrix(1 0 0 1 282.4448 -749.6406)">
			<stop  offset="0" style="stop-color:#39B54A"/>
			<stop  offset="1" style="stop-color:#000000"/>
		</linearGradient>
		<rect x="202.467" y="36.958" fill="url(#SVGID_39_)" width="5.107" height="5.107"/>
		
			<linearGradient id="SVGID_40_" gradientUnits="userSpaceOnUse" x1="-91.7244" y1="773.1016" x2="-41.7354" y2="857.0455" gradientTransform="matrix(1 0 0 1 282.4448 -749.6406)">
			<stop  offset="0" style="stop-color:#39B54A"/>
			<stop  offset="1" style="stop-color:#000000"/>
		</linearGradient>
		<rect x="202.467" y="44.919" fill="url(#SVGID_40_)" width="5.107" height="5.111"/>
		
			<linearGradient id="SVGID_41_" gradientUnits="userSpaceOnUse" x1="-102.3625" y1="779.4219" x2="-52.3588" y2="863.3905" gradientTransform="matrix(1 0 0 1 282.4448 -749.6406)">
			<stop  offset="0" style="stop-color:#39B54A"/>
			<stop  offset="1" style="stop-color:#000000"/>
		</linearGradient>
		<rect x="202.467" y="69.104" fill="url(#SVGID_41_)" width="5.107" height="5.11"/>
		
			<linearGradient id="SVGID_42_" gradientUnits="userSpaceOnUse" x1="-105.7825" y1="781.4746" x2="-55.7918" y2="865.4214" gradientTransform="matrix(1 0 0 1 282.4448 -749.6406)">
			<stop  offset="0" style="stop-color:#39B54A"/>
			<stop  offset="1" style="stop-color:#000000"/>
		</linearGradient>
		<rect x="202.467" y="76.902" fill="url(#SVGID_42_)" width="5.107" height="5.104"/>
		
			<linearGradient id="SVGID_43_" gradientUnits="userSpaceOnUse" x1="-109.1965" y1="783.5029" x2="-59.2041" y2="867.4526" gradientTransform="matrix(1 0 0 1 282.4448 -749.6406)">
			<stop  offset="0" style="stop-color:#39B54A"/>
			<stop  offset="1" style="stop-color:#000000"/>
		</linearGradient>
		<rect x="202.467" y="84.664" fill="url(#SVGID_43_)" width="5.107" height="5.105"/>
		
			<linearGradient id="SVGID_44_" gradientUnits="userSpaceOnUse" x1="-90.197" y1="772.1885" x2="-40.2003" y2="856.1453" gradientTransform="matrix(1 0 0 1 282.4448 -749.6406)">
			<stop  offset="0" style="stop-color:#39B54A"/>
			<stop  offset="1" style="stop-color:#000000"/>
		</linearGradient>
		<rect x="194.906" y="28.746" fill="url(#SVGID_44_)" width="5.108" height="5.108"/>
		
			<linearGradient id="SVGID_45_" gradientUnits="userSpaceOnUse" x1="-93.804" y1="774.3428" x2="-43.8246" y2="858.2704" gradientTransform="matrix(1 0 0 1 282.4448 -749.6406)">
			<stop  offset="0" style="stop-color:#39B54A"/>
			<stop  offset="1" style="stop-color:#000000"/>
		</linearGradient>
		<rect x="194.906" y="36.958" fill="url(#SVGID_45_)" width="5.108" height="5.107"/>
		
			<linearGradient id="SVGID_46_" gradientUnits="userSpaceOnUse" x1="-97.3083" y1="776.4209" x2="-47.3053" y2="860.3882" gradientTransform="matrix(1 0 0 1 282.4448 -749.6406)">
			<stop  offset="0" style="stop-color:#39B54A"/>
			<stop  offset="1" style="stop-color:#000000"/>
		</linearGradient>
		<rect x="194.906" y="44.919" fill="url(#SVGID_46_)" width="5.108" height="5.111"/>
		
			<linearGradient id="SVGID_47_" gradientUnits="userSpaceOnUse" x1="-100.9172" y1="778.5742" x2="-50.9231" y2="862.5269" gradientTransform="matrix(1 0 0 1 282.4448 -749.6406)">
			<stop  offset="0" style="stop-color:#39B54A"/>
			<stop  offset="1" style="stop-color:#000000"/>
		</linearGradient>
		<rect x="194.906" y="53.135" fill="url(#SVGID_47_)" width="5.108" height="5.105"/>
		
			<linearGradient id="SVGID_48_" gradientUnits="userSpaceOnUse" x1="-107.9377" y1="782.7559" x2="-57.9469" y2="866.7026" gradientTransform="matrix(1 0 0 1 282.4448 -749.6406)">
			<stop  offset="0" style="stop-color:#39B54A"/>
			<stop  offset="1" style="stop-color:#000000"/>
		</linearGradient>
		<rect x="194.906" y="69.104" fill="url(#SVGID_48_)" width="5.108" height="5.11"/>
		
			<linearGradient id="SVGID_49_" gradientUnits="userSpaceOnUse" x1="-114.7688" y1="786.8428" x2="-64.7913" y2="870.7673" gradientTransform="matrix(1 0 0 1 282.4448 -749.6406)">
			<stop  offset="0" style="stop-color:#39B54A"/>
			<stop  offset="1" style="stop-color:#000000"/>
		</linearGradient>
		<rect x="194.906" y="84.664" fill="url(#SVGID_49_)" width="5.108" height="5.105"/>
		
			<linearGradient id="SVGID_50_" gradientUnits="userSpaceOnUse" x1="-118.3914" y1="788.9746" x2="-68.3937" y2="872.9332" gradientTransform="matrix(1 0 0 1 282.4448 -749.6406)">
			<stop  offset="0" style="stop-color:#39B54A"/>
			<stop  offset="1" style="stop-color:#000000"/>
		</linearGradient>
		<rect x="194.906" y="92.878" fill="url(#SVGID_50_)" width="5.108" height="5.106"/>
		
			<linearGradient id="SVGID_51_" gradientUnits="userSpaceOnUse" x1="-92.5359" y1="773.583" x2="-42.5549" y2="857.5135" gradientTransform="matrix(1 0 0 1 282.4448 -749.6406)">
			<stop  offset="0" style="stop-color:#39B54A"/>
			<stop  offset="1" style="stop-color:#000000"/>
		</linearGradient>
		<rect x="187.114" y="20.984" fill="url(#SVGID_51_)" width="5.108" height="5.107"/>
		
			<linearGradient id="SVGID_52_" gradientUnits="userSpaceOnUse" x1="-103.0603" y1="779.8467" x2="-53.0574" y2="863.814" gradientTransform="matrix(1 0 0 1 282.4448 -749.6406)">
			<stop  offset="0" style="stop-color:#39B54A"/>
			<stop  offset="1" style="stop-color:#000000"/>
		</linearGradient>
		<rect x="187.114" y="44.919" fill="url(#SVGID_52_)" width="5.108" height="5.111"/>
		
			<linearGradient id="SVGID_53_" gradientUnits="userSpaceOnUse" x1="-110.0789" y1="784.0342" x2="-60.0944" y2="867.9705" gradientTransform="matrix(1 0 0 1 282.4448 -749.6406)">
			<stop  offset="0" style="stop-color:#39B54A"/>
			<stop  offset="1" style="stop-color:#000000"/>
		</linearGradient>
		<rect x="187.114" y="60.895" fill="url(#SVGID_53_)" width="5.108" height="5.107"/>
		
			<linearGradient id="SVGID_54_" gradientUnits="userSpaceOnUse" x1="-117.1165" y1="788.2227" x2="-67.1257" y2="872.1696" gradientTransform="matrix(1 0 0 1 282.4448 -749.6406)">
			<stop  offset="0" style="stop-color:#39B54A"/>
			<stop  offset="1" style="stop-color:#000000"/>
		</linearGradient>
		<rect x="187.114" y="76.902" fill="url(#SVGID_54_)" width="5.108" height="5.104"/>
		
			<linearGradient id="SVGID_55_" gradientUnits="userSpaceOnUse" x1="-105.1917" y1="781.1191" x2="-55.1973" y2="865.0718" gradientTransform="matrix(1 0 0 1 282.4448 -749.6406)">
			<stop  offset="0" style="stop-color:#39B54A"/>
			<stop  offset="1" style="stop-color:#000000"/>
		</linearGradient>
		<rect x="179.484" y="36.958" fill="url(#SVGID_55_)" width="5.105" height="5.107"/>
		
			<linearGradient id="SVGID_56_" gradientUnits="userSpaceOnUse" x1="-115.7161" y1="787.3838" x2="-65.7184" y2="871.3424" gradientTransform="matrix(1 0 0 1 282.4448 -749.6406)">
			<stop  offset="0" style="stop-color:#39B54A"/>
			<stop  offset="1" style="stop-color:#000000"/>
		</linearGradient>
		<rect x="179.484" y="60.895" fill="url(#SVGID_56_)" width="5.105" height="5.107"/>
		
			<linearGradient id="SVGID_57_" gradientUnits="userSpaceOnUse" x1="-119.3254" y1="789.5332" x2="-69.3288" y2="873.4899" gradientTransform="matrix(1 0 0 1 282.4448 -749.6406)">
			<stop  offset="0" style="stop-color:#39B54A"/>
			<stop  offset="1" style="stop-color:#000000"/>
		</linearGradient>
		<rect x="179.484" y="69.104" fill="url(#SVGID_57_)" width="5.105" height="5.11"/>
		
			<linearGradient id="SVGID_58_" gradientUnits="userSpaceOnUse" x1="-122.7483" y1="791.5801" x2="-72.7628" y2="875.5182" gradientTransform="matrix(1 0 0 1 282.4448 -749.6406)">
			<stop  offset="0" style="stop-color:#39B54A"/>
			<stop  offset="1" style="stop-color:#000000"/>
		</linearGradient>
		<rect x="179.484" y="76.902" fill="url(#SVGID_58_)" width="5.105" height="5.104"/>
		
			<linearGradient id="SVGID_59_" gradientUnits="userSpaceOnUse" x1="-126.1633" y1="793.6084" x2="-76.1727" y2="877.5553" gradientTransform="matrix(1 0 0 1 282.4448 -749.6406)">
			<stop  offset="0" style="stop-color:#39B54A"/>
			<stop  offset="1" style="stop-color:#000000"/>
		</linearGradient>
		<rect x="179.484" y="84.664" fill="url(#SVGID_59_)" width="5.105" height="5.105"/>
		
			<linearGradient id="SVGID_60_" gradientUnits="userSpaceOnUse" x1="-114.449" y1="786.6289" x2="-64.4401" y2="870.6062" gradientTransform="matrix(1 0 0 1 282.4448 -749.6406)">
			<stop  offset="0" style="stop-color:#39B54A"/>
			<stop  offset="1" style="stop-color:#000000"/>
		</linearGradient>
		<rect x="171.688" y="44.919" fill="url(#SVGID_60_)" width="5.105" height="5.111"/>
		
			<linearGradient id="SVGID_61_" gradientUnits="userSpaceOnUse" x1="-118.0544" y1="788.7871" x2="-68.0723" y2="872.7193" gradientTransform="matrix(1 0 0 1 282.4448 -749.6406)">
			<stop  offset="0" style="stop-color:#39B54A"/>
			<stop  offset="1" style="stop-color:#000000"/>
		</linearGradient>
		<rect x="171.688" y="53.135" fill="url(#SVGID_61_)" width="5.105" height="5.105"/>
		
			<linearGradient id="SVGID_62_" gradientUnits="userSpaceOnUse" x1="-113.1648" y1="785.8682" x2="-63.1752" y2="869.8132" gradientTransform="matrix(1 0 0 1 282.4448 -749.6406)">
			<stop  offset="0" style="stop-color:#39B54A"/>
			<stop  offset="1" style="stop-color:#000000"/>
		</linearGradient>
		<rect x="163.792" y="28.746" fill="url(#SVGID_62_)" width="5.107" height="5.108"/>
		
			<linearGradient id="SVGID_63_" gradientUnits="userSpaceOnUse" x1="-116.7742" y1="788.0176" x2="-66.7881" y2="871.9568" gradientTransform="matrix(1 0 0 1 282.4448 -749.6406)">
			<stop  offset="0" style="stop-color:#39B54A"/>
			<stop  offset="1" style="stop-color:#000000"/>
		</linearGradient>
		<rect x="163.792" y="36.958" fill="url(#SVGID_63_)" width="5.107" height="5.107"/>
		
			<linearGradient id="SVGID_64_" gradientUnits="userSpaceOnUse" x1="-123.884" y1="792.2549" x2="-73.8968" y2="876.1959" gradientTransform="matrix(1 0 0 1 282.4448 -749.6406)">
			<stop  offset="0" style="stop-color:#39B54A"/>
			<stop  offset="1" style="stop-color:#000000"/>
		</linearGradient>
		<rect x="163.792" y="53.135" fill="url(#SVGID_64_)" width="5.107" height="5.105"/>
		
			<linearGradient id="SVGID_65_" gradientUnits="userSpaceOnUse" x1="-127.3" y1="794.2793" x2="-77.2953" y2="878.2496" gradientTransform="matrix(1 0 0 1 282.4448 -749.6406)">
			<stop  offset="0" style="stop-color:#39B54A"/>
			<stop  offset="1" style="stop-color:#000000"/>
		</linearGradient>
		<rect x="163.792" y="60.895" fill="url(#SVGID_65_)" width="5.107" height="5.107"/>
		
			<linearGradient id="SVGID_66_" gradientUnits="userSpaceOnUse" x1="-130.9089" y1="796.4297" x2="-80.9111" y2="880.3883" gradientTransform="matrix(1 0 0 1 282.4448 -749.6406)">
			<stop  offset="0" style="stop-color:#39B54A"/>
			<stop  offset="1" style="stop-color:#000000"/>
		</linearGradient>
		<rect x="163.792" y="69.104" fill="url(#SVGID_66_)" width="5.107" height="5.11"/>
		
			<linearGradient id="SVGID_67_" gradientUnits="userSpaceOnUse" x1="-134.3328" y1="798.4756" x2="-84.3402" y2="882.4253" gradientTransform="matrix(1 0 0 1 282.4448 -749.6406)">
			<stop  offset="0" style="stop-color:#39B54A"/>
			<stop  offset="1" style="stop-color:#000000"/>
		</linearGradient>
		<rect x="163.792" y="76.902" fill="url(#SVGID_67_)" width="5.107" height="5.104"/>
		
			<linearGradient id="SVGID_68_" gradientUnits="userSpaceOnUse" x1="-126.0276" y1="793.5264" x2="-76.0316" y2="877.4822" gradientTransform="matrix(1 0 0 1 282.4448 -749.6406)">
			<stop  offset="0" style="stop-color:#39B54A"/>
			<stop  offset="1" style="stop-color:#000000"/>
		</linearGradient>
		<rect x="156" y="44.919" fill="url(#SVGID_68_)" width="5.107" height="5.111"/>
		
			<linearGradient id="SVGID_69_" gradientUnits="userSpaceOnUse" x1="-133.0505" y1="797.707" x2="-83.0522" y2="881.6669" gradientTransform="matrix(1 0 0 1 282.4448 -749.6406)">
			<stop  offset="0" style="stop-color:#39B54A"/>
			<stop  offset="1" style="stop-color:#000000"/>
		</linearGradient>
		<rect x="156" y="60.895" fill="url(#SVGID_69_)" width="5.107" height="5.107"/>
		
			<linearGradient id="SVGID_70_" gradientUnits="userSpaceOnUse" x1="-128.1584" y1="794.7949" x2="-78.1686" y2="878.7399" gradientTransform="matrix(1 0 0 1 282.4448 -749.6406)">
			<stop  offset="0" style="stop-color:#39B54A"/>
			<stop  offset="1" style="stop-color:#000000"/>
		</linearGradient>
		<rect x="148.372" y="36.958" fill="url(#SVGID_70_)" width="5.106" height="5.107"/>
		
			<linearGradient id="SVGID_71_" gradientUnits="userSpaceOnUse" x1="-138.6819" y1="801.0605" x2="-88.6842" y2="885.0191" gradientTransform="matrix(1 0 0 1 282.4448 -749.6406)">
			<stop  offset="0" style="stop-color:#39B54A"/>
			<stop  offset="1" style="stop-color:#000000"/>
		</linearGradient>
		<rect x="148.372" y="60.895" fill="url(#SVGID_71_)" width="5.106" height="5.107"/>
		
			<linearGradient id="SVGID_72_" gradientUnits="userSpaceOnUse" x1="-142.2898" y1="803.2129" x2="-92.2991" y2="887.1597" gradientTransform="matrix(1 0 0 1 282.4448 -749.6406)">
			<stop  offset="0" style="stop-color:#39B54A"/>
			<stop  offset="1" style="stop-color:#000000"/>
		</linearGradient>
		<rect x="148.372" y="69.104" fill="url(#SVGID_72_)" width="5.106" height="5.11"/>
		
			<linearGradient id="SVGID_73_" gradientUnits="userSpaceOnUse" x1="-145.7146" y1="805.2578" x2="-95.7309" y2="889.1929" gradientTransform="matrix(1 0 0 1 282.4448 -749.6406)">
			<stop  offset="0" style="stop-color:#39B54A"/>
			<stop  offset="1" style="stop-color:#000000"/>
		</linearGradient>
		<rect x="148.372" y="76.902" fill="url(#SVGID_73_)" width="5.106" height="5.104"/>
		
			<linearGradient id="SVGID_74_" gradientUnits="userSpaceOnUse" x1="-141.0208" y1="802.457" x2="-91.0353" y2="886.3951" gradientTransform="matrix(1 0 0 1 282.4448 -749.6406)">
			<stop  offset="0" style="stop-color:#39B54A"/>
			<stop  offset="1" style="stop-color:#000000"/>
		</linearGradient>
		<rect x="140.58" y="53.135" fill="url(#SVGID_74_)" width="5.106" height="5.105"/>
		
			<linearGradient id="SVGID_75_" gradientUnits="userSpaceOnUse" x1="-150.0173" y1="807.8105" x2="-100.0189" y2="891.7703" gradientTransform="matrix(1 0 0 1 282.4448 -749.6406)">
			<stop  offset="0" style="stop-color:#39B54A"/>
			<stop  offset="1" style="stop-color:#000000"/>
		</linearGradient>
		<rect x="133.016" y="60.895" fill="url(#SVGID_75_)" width="5.108" height="5.107"/>
		
			<linearGradient id="SVGID_76_" gradientUnits="userSpaceOnUse" x1="-153.6296" y1="809.9551" x2="-103.6103" y2="893.9499" gradientTransform="matrix(1 0 0 1 282.4448 -749.6406)">
			<stop  offset="0" style="stop-color:#39B54A"/>
			<stop  offset="1" style="stop-color:#000000"/>
		</linearGradient>
		<rect x="133.016" y="69.104" fill="url(#SVGID_76_)" width="5.108" height="5.11"/>
		
			<linearGradient id="SVGID_77_" gradientUnits="userSpaceOnUse" x1="-161.4006" y1="814.5918" x2="-111.4161" y2="898.5281" gradientTransform="matrix(1 0 0 1 282.4448 -749.6406)">
			<stop  offset="0" style="stop-color:#39B54A"/>
			<stop  offset="1" style="stop-color:#000000"/>
		</linearGradient>
		<rect x="117.595" y="60.895" fill="url(#SVGID_77_)" width="5.107" height="5.107"/>
	</g>
</g>
<rect x="410.48" y="13.436" fill="none" width="222.836" height="24.49"/>
<g enable-background="new    ">
	<path d="M430.607,33.442h-1.466l-1.188-16.64l-6.101,16.64h-1.03l-6.101-16.64l-1.189,16.64h-1.466l1.308-18.857h1.822
		l6.142,16.916l6.141-16.916h1.823L430.607,33.442z"/>
	<path d="M446.85,26.747c0,1.98-0.621,3.658-1.862,5.031c-1.242,1.374-2.879,2.061-4.913,2.061c-2.033,0-3.671-0.687-4.913-2.061
		c-1.241-1.373-1.861-3.051-1.861-5.031s0.62-3.651,1.861-5.012c1.241-1.359,2.878-2.04,4.913-2.04c2.034,0,3.671,0.681,4.913,2.04
		C446.229,23.096,446.85,24.767,446.85,26.747z M445.305,26.747c0-1.638-0.492-3.004-1.476-4.101
		c-0.982-1.096-2.233-1.644-3.755-1.644c-1.521,0-2.771,0.548-3.755,1.644c-0.982,1.097-1.475,2.463-1.475,4.101
		s0.492,3.011,1.475,4.12c0.983,1.109,2.234,1.664,3.755,1.664c1.521,0,2.772-0.555,3.755-1.664
		C444.813,29.758,445.305,28.385,445.305,26.747z"/>
	<path d="M461.349,33.442h-1.545V25.82c0-3.211-1.348-4.817-4.041-4.817c-1.083,0-2.054,0.454-2.912,1.362
		c-0.858,0.908-1.288,1.889-1.288,2.942v8.135h-1.545V23.301c0-0.714-0.093-1.823-0.277-3.328h1.466
		c0.186,0.555,0.291,1.36,0.317,2.417c1.03-1.796,2.549-2.694,4.556-2.694c3.513,0,5.27,2.034,5.27,6.101V33.442z"/>
	<path d="M467.449,15.892c0,0.37-0.119,0.668-0.355,0.892c-0.238,0.225-0.542,0.337-0.911,0.337c-0.371,0-0.667-0.112-0.892-0.337
		c-0.226-0.224-0.338-0.521-0.338-0.892c0-0.369,0.112-0.673,0.338-0.911c0.224-0.237,0.521-0.356,0.892-0.356
		c0.369,0,0.673,0.119,0.911,0.356C467.33,15.219,467.449,15.522,467.449,15.892z M467.014,33.442h-1.545v-13.47h1.545V33.442z"/>
	<path d="M477.394,32.254l0.158,1.199c-0.529,0.23-1.229,0.346-2.101,0.346c-1.163,0-2.047-0.448-2.653-1.347
		c-0.529-0.793-0.792-1.783-0.792-2.972v-8.279h-2.694v-1.229h2.694v-4.001l1.545-0.714v4.715h4.317v1.229h-4.317v8.269
		c0,2.015,0.674,3.021,2.021,3.021C476.39,32.491,476.997,32.412,477.394,32.254z"/>
	<path d="M493.16,26.747c0,1.98-0.621,3.658-1.861,5.031c-1.242,1.374-2.879,2.061-4.913,2.061s-3.671-0.687-4.913-2.061
		c-1.242-1.373-1.862-3.051-1.862-5.031s0.62-3.651,1.862-5.012c1.241-1.359,2.878-2.04,4.913-2.04c2.034,0,3.671,0.681,4.913,2.04
		C492.539,23.096,493.16,24.767,493.16,26.747z M491.615,26.747c0-1.638-0.492-3.004-1.475-4.101
		c-0.983-1.096-2.234-1.644-3.755-1.644c-1.521,0-2.772,0.548-3.755,1.644c-0.983,1.097-1.476,2.463-1.476,4.101
		s0.492,3.011,1.476,4.12c0.982,1.109,2.233,1.664,3.755,1.664c1.521,0,2.771-0.555,3.755-1.664
		C491.123,29.758,491.615,28.385,491.615,26.747z"/>
	<path d="M502.51,21.042c-0.079-0.025-0.238-0.039-0.476-0.039c-2.034,0-3.381,1.271-4.041,3.815
		c-0.079,0.291-0.118,0.742-0.118,1.352v7.272h-1.546V24.37c0-1.98-0.132-3.446-0.396-4.397h1.307
		c0.291,0.581,0.437,1.479,0.437,2.694c0.845-1.981,2.205-2.972,4.081-2.972c0.236,0,0.487,0.026,0.752,0.079V21.042z"/>
	<path d="M506.907,15.892c0,0.37-0.119,0.668-0.355,0.892c-0.238,0.225-0.542,0.337-0.911,0.337c-0.371,0-0.667-0.112-0.893-0.337
		c-0.225-0.224-0.337-0.521-0.337-0.892c0-0.369,0.112-0.673,0.337-0.911c0.225-0.237,0.521-0.356,0.893-0.356
		c0.369,0,0.673,0.119,0.911,0.356C506.788,15.219,506.907,15.522,506.907,15.892z M506.472,33.442h-1.545v-13.47h1.545V33.442z"/>
	<path d="M521.922,33.442h-1.545V25.82c0-3.211-1.348-4.817-4.041-4.817c-1.083,0-2.055,0.454-2.912,1.362
		c-0.858,0.908-1.288,1.889-1.288,2.942v8.135h-1.545V23.301c0-0.714-0.094-1.823-0.277-3.328h1.466
		c0.186,0.555,0.291,1.36,0.317,2.417c1.03-1.796,2.549-2.694,4.556-2.694c3.512,0,5.27,2.034,5.27,6.101V33.442z"/>
	<path d="M534.916,24.41c0,1.479-0.456,2.654-1.367,3.525c-0.911,0.872-2.04,1.308-3.388,1.308c-0.818,0-1.519-0.146-2.1-0.436
		c-0.159,0.396-0.238,0.779-0.238,1.148c0,0.688,1.07,1.334,3.209,1.941c2.536,0.713,3.804,2.007,3.804,3.883
		c0,1.135-0.416,2.065-1.248,2.793c-0.832,0.726-2.04,1.089-3.625,1.089c-1.4,0-2.682-0.346-3.844-1.038l0.556-1.26
		c1.135,0.66,2.271,0.99,3.406,0.99c0.978,0,1.783-0.225,2.417-0.675c0.635-0.45,0.951-1.032,0.951-1.746
		c0-1.271-1.037-2.25-3.111-2.938c-1.262-0.397-2.127-0.754-2.601-1.072c-0.813-0.502-1.221-1.151-1.221-1.945
		c0-0.477,0.132-1.111,0.396-1.905c-1.004-1.059-1.505-2.184-1.505-3.375c0-1.429,0.451-2.58,1.354-3.454
		c0.9-0.873,1.962-1.311,3.183-1.311h5.283v1.269l-1.941-0.198C534.371,22.06,534.916,23.195,534.916,24.41z M533.53,24.607
		c0-0.871-0.275-1.637-0.827-2.298c-0.63-0.792-1.483-1.188-2.56-1.188c-1.051,0-1.865,0.351-2.442,1.05
		c-0.577,0.7-0.866,1.525-0.866,2.477c0,1.057,0.354,1.901,1.063,2.535c0.656,0.581,1.404,0.872,2.245,0.872
		c0.945,0,1.746-0.304,2.402-0.911C533.2,26.537,533.53,25.691,533.53,24.607z"/>
	<path d="M557.536,28.53c0,1.426-0.515,2.614-1.545,3.565c-1.163,1.136-2.787,1.703-4.873,1.703c-2.06,0-3.79-0.476-5.188-1.426
		l0.631-1.348c1.289,0.978,2.854,1.466,4.696,1.466c1.473,0,2.631-0.35,3.473-1.05c0.842-0.699,1.263-1.63,1.263-2.793
		c0-1.056-0.321-1.907-0.967-2.555c-0.645-0.648-1.716-1.209-3.215-1.684c-3.498-1.136-5.247-2.905-5.247-5.31
		c0-1.399,0.541-2.562,1.624-3.486c1.083-0.924,2.496-1.386,4.239-1.386c1.769,0,3.209,0.33,4.317,0.99
		c-0.237,0.449-0.462,0.858-0.674,1.228c-1.136-0.606-2.364-0.911-3.684-0.911c-1.479,0-2.615,0.384-3.407,1.149
		c-0.634,0.634-0.951,1.373-0.951,2.219c0,1.743,1.399,3.09,4.199,4.041c1.823,0.634,3.13,1.32,3.922,2.06
		C557.073,25.876,557.536,27.051,557.536,28.53z"/>
	<path d="M566.094,33.442c-1.56,3.513-3.632,5.572-6.221,6.181l-0.356-1.229c2.245-0.502,3.948-2.298,5.111-5.388
		c0-0.079-0.04-0.238-0.119-0.476l-5.586-12.559h1.664l5.03,11.409l4.716-11.409h1.702L566.094,33.442z"/>
	<path d="M581.98,29.877c0,1.136-0.43,2.073-1.288,2.813c-0.859,0.74-2.054,1.109-3.585,1.109c-1.321,0-2.589-0.356-3.803-1.069
		l0.594-1.268c1.268,0.687,2.377,1.029,3.328,1.029c2.219,0,3.328-0.832,3.328-2.495c0-1.294-1.044-2.259-3.13-2.893
		c-2.404-0.739-3.605-1.954-3.605-3.645c0-1.03,0.382-1.915,1.149-2.654c0.766-0.739,1.848-1.109,3.249-1.109
		c1.398,0,2.509,0.304,3.328,0.911l-0.635,1.268c-0.792-0.634-1.782-0.95-2.971-0.95c-0.846,0-1.505,0.225-1.98,0.673
		c-0.477,0.449-0.714,1.004-0.714,1.664c0,1.057,1.036,1.941,3.108,2.654C580.771,26.734,581.98,28.055,581.98,29.877z"/>
	<path d="M591.646,32.254l0.158,1.199c-0.529,0.23-1.229,0.346-2.101,0.346c-1.162,0-2.047-0.448-2.653-1.347
		c-0.529-0.793-0.792-1.783-0.792-2.972v-8.279h-2.694v-1.229h2.694v-4.001l1.545-0.714v4.715h4.317v1.229h-4.317v8.269
		c0,2.015,0.674,3.021,2.021,3.021C590.642,32.491,591.25,32.412,591.646,32.254z"/>
	<path d="M605.631,31.541l0.119,1.307c-1.532,0.635-3.196,0.951-4.992,0.951c-2.061,0-3.73-0.634-5.012-1.901
		c-1.28-1.268-1.921-2.879-1.921-4.833c0-2.219,0.641-4.002,1.921-5.349c1.281-1.347,2.898-2.021,4.854-2.021
		c3.776,0,5.705,2.364,5.784,7.092h-11.015c0.054,1.809,0.587,3.211,1.604,4.208c1.017,0.998,2.331,1.496,3.942,1.496
		C602.5,32.491,604.072,32.175,605.631,31.541z M604.918,25.559c-0.027-1.083-0.331-2.047-0.911-2.892
		c-0.792-1.162-1.995-1.743-3.605-1.743c-1.453,0-2.641,0.528-3.564,1.584c-0.74,0.846-1.202,1.862-1.388,3.051H604.918z"/>
	<path d="M629.322,33.442h-1.545v-7.425c0-1.526-0.311-2.744-0.931-3.652c-0.621-0.908-1.525-1.362-2.714-1.362
		c-1.03,0-1.936,0.401-2.714,1.204c-0.779,0.804-1.17,1.705-1.17,2.705v8.53h-1.545v-8.135c0-2.87-1.136-4.305-3.406-4.305
		c-1.058,0-2.008,0.454-2.853,1.362c-0.846,0.908-1.268,1.889-1.268,2.942v8.135h-1.545v-10.14c0-0.714-0.093-1.823-0.277-3.328
		h1.466c0.186,0.555,0.291,1.36,0.317,2.417c1.03-1.796,2.536-2.694,4.517-2.694c1.822,0,3.183,1.004,4.081,3.011
		c1.057-2.007,2.667-3.011,4.833-3.011c1.479,0,2.642,0.562,3.486,1.684c0.845,1.123,1.268,2.648,1.268,4.576L629.322,33.442
		L629.322,33.442z"/>
</g>
<linearGradient id="SVGID_78_" gradientUnits="userSpaceOnUse" x1="395.9226" y1="761.0928" x2="395.9226" y2="847.4459" gradientTransform="matrix(1 0 0 1 282.4448 -749.6406)">
	<stop  offset="0" style="stop-color:#39B54A"/>
	<stop  offset="1" style="stop-color:#000000"/>
</linearGradient>
<rect x="674.594" y="10.516" fill="url(#SVGID_78_)" width="7.547" height="85.83"/>
<path d="M726.009,32.748c-0.229,1.092-0.853,1.977-1.862,2.654c-1.013,0.678-2.171,1.017-3.474,1.017
	c-1.394,0-2.598-0.379-3.617-1.135l1.001-1.505c0.849,0.757,1.858,1.136,3.039,1.136c0.862,0,1.579-0.189,2.152-0.569
	c0.57-0.378,0.92-0.884,1.042-1.518c0.229-1.056-0.439-1.858-2.008-2.404c-2.323-0.793-3.309-2.008-2.959-3.645
	c0.214-0.986,0.781-1.8,1.707-2.443c0.923-0.643,2.01-0.964,3.26-0.964c1.249,0,2.271,0.282,3.064,0.845l-1.005,1.321
	c-0.791-0.44-1.604-0.66-2.432-0.66c-0.758,0-1.402,0.171-1.938,0.514c-0.537,0.343-0.858,0.762-0.966,1.254
	c-0.192,0.969,0.494,1.727,2.061,2.272c1.284,0.44,2.147,0.95,2.591,1.532C726.104,31.03,726.219,31.796,726.009,32.748z"/>
<path d="M728.965,36.181h-1.664l1.901-8.979h1.664L728.965,36.181z M731.818,24.56c-0.071,0.353-0.256,0.652-0.557,0.898
	c-0.298,0.246-0.624,0.37-0.977,0.37c-0.354,0-0.628-0.124-0.818-0.37c-0.192-0.246-0.255-0.545-0.187-0.898
	c0.07-0.352,0.257-0.652,0.557-0.898c0.297-0.246,0.626-0.37,0.977-0.37c0.354,0,0.628,0.124,0.818,0.37
	C731.826,23.908,731.889,24.208,731.818,24.56z"/>
<path d="M746.186,34.168c-0.069,0.441-0.088,0.8-0.052,1.073c0.034,0.274,0.122,0.525,0.263,0.755l-1.586,0.581
	c-0.158-0.229-0.268-0.584-0.326-1.07c-0.063-0.484-0.033-1.034,0.093-1.65l0.552-2.641c0.178-0.809,0.144-1.479-0.104-2.007
	c-0.301-0.582-0.792-0.873-1.479-0.873c-0.581,0-1.171,0.23-1.77,0.688c-0.601,0.457-0.96,0.951-1.083,1.479l-1.188,5.678h-1.664
	l1.135-5.415c0.354-1.619-0.148-2.43-1.505-2.43c-0.601,0-1.229,0.27-1.888,0.807c-0.66,0.537-1.053,1.096-1.177,1.677l-1.136,5.361
	h-1.666l1.4-6.622c0.088-0.441,0.158-0.829,0.211-1.166c0.055-0.37,0-0.759-0.157-1.165l1.452-0.291
	c0.229,0.423,0.301,0.926,0.211,1.51c0.389-0.53,0.889-0.919,1.508-1.166c0.615-0.247,1.195-0.371,1.742-0.371
	c1.16,0,1.989,0.493,2.48,1.479c1.146-0.986,2.379-1.479,3.698-1.479c1.039,0,1.811,0.393,2.311,1.179
	c0.502,0.786,0.623,1.814,0.356,3.086L746.186,34.168z"/>
<path d="M758.781,31.454c-0.315,1.461-1.021,2.653-2.111,3.579c-1.094,0.923-2.307,1.386-3.644,1.386
	c-1.232,0-2.166-0.354-2.802-1.063l-0.979,4.602h-1.639l2.402-11.463c0.053-0.422,0-0.835-0.158-1.241l1.453-0.292
	c0.229,0.423,0.301,0.925,0.212,1.506c1.071-1.074,2.323-1.611,3.751-1.611c1.301,0,2.277,0.44,2.931,1.32
	C758.854,29.059,759.05,30.15,758.781,31.454z M757.145,31.493c0.193-0.919,0.072-1.693-0.368-2.32
	c-0.438-0.627-1.101-0.941-1.979-0.941c-0.705,0-1.45,0.283-2.231,0.848c-0.785,0.565-1.246,1.193-1.388,1.882l-0.314,1.484
	c-0.16,0.69-0.005,1.288,0.46,1.79c0.47,0.503,1.112,0.757,1.941,0.757c0.984,0,1.821-0.314,2.511-0.942
	C756.457,33.424,756.916,32.57,757.145,31.493z"/>
<path d="M763.669,36.392c-2.587-0.141-3.557-1.75-2.904-4.833l1.851-8.689h1.662l-1.77,8.32c-0.301,1.356-0.291,2.316,0.024,2.879
	c0.267,0.476,0.813,0.749,1.64,0.819L763.669,36.392z"/>
<path d="M769.612,35.996c-1.604,2.341-3.441,3.733-5.521,4.173l-0.134-1.373c1.64-0.352,3.021-1.444,4.146-3.275l-2.221-8.319h1.823
	l1.689,6.655l4.384-6.655h1.821L769.612,35.996z"/>
<path d="M783.319,35.626c-0.653,3.011-2.147,4.516-4.489,4.516c-0.739,0-1.321-0.194-1.742-0.581l0.737-1.242
	c0.546,0.264,0.994,0.397,1.349,0.397c1.215,0,2.042-1.031,2.481-3.091l1.506-7.052h-1.506l0.29-1.373h1.531
	c0.635-3.012,2.122-4.517,4.465-4.517c0.737,0,1.32,0.194,1.741,0.581l-0.737,1.242c-0.545-0.264-0.995-0.396-1.35-0.396
	c-1.214,0-2.041,1.029-2.481,3.09h2.563l-0.291,1.373h-2.562L783.319,35.626z"/>
<path d="M797.448,31.638c-0.282,1.338-0.969,2.465-2.06,3.38c-1.093,0.917-2.325,1.373-3.696,1.373
	c-1.375,0-2.413-0.457-3.117-1.373c-0.706-0.915-0.917-2.042-0.635-3.38c0.281-1.337,0.973-2.47,2.072-3.394
	c1.102-0.924,2.338-1.387,3.71-1.387c1.374,0,2.409,0.462,3.104,1.387C797.523,29.168,797.73,30.301,797.448,31.638z
	 M795.813,31.625c0.211-0.947,0.095-1.74-0.356-2.38c-0.447-0.64-1.131-0.96-2.048-0.96c-0.913,0-1.729,0.321-2.442,0.96
	c-0.71,0.641-1.175,1.433-1.387,2.38c-0.192,0.947-0.067,1.741,0.37,2.381c0.441,0.641,1.12,0.96,2.034,0.96
	c0.917,0,1.733-0.319,2.456-0.96C795.16,33.366,795.617,32.572,795.813,31.625z"/>
<path d="M804.922,28.442c-0.141-0.034-0.344-0.053-0.604-0.053c-1.675,0-2.723,1.003-3.145,3.011l-1.005,4.781h-1.663l1.241-5.926
	c0.142-0.631,0.244-1.237,0.315-1.816c0.055-0.368,0-0.755-0.156-1.159l1.453-0.291c0.229,0.422,0.254,0.976,0.078,1.659
	c0.353-0.527,0.809-0.938,1.371-1.237c0.564-0.298,1.094-0.449,1.586-0.449c0.353,0,0.625,0.026,0.817,0.079L804.922,28.442z"/>
<path d="M821.535,30.519c0,1.581-0.556,2.955-1.666,4.123c-1.107,1.167-2.429,1.75-3.961,1.75c-2.763,0-4.146-0.985-4.146-2.957
	c0-0.282,0.032-0.59,0.104-0.925l1.954-9.218h1.663l-0.979,4.629c0.935-0.709,2.009-1.063,3.224-1.063
	c1.125,0,2.043,0.338,2.746,1.014C821.181,28.548,821.535,29.43,821.535,30.519z M819.95,30.741c0-1.638-0.85-2.457-2.546-2.457
	c-0.796,0-1.557,0.234-2.281,0.7c-0.726,0.466-1.14,1.079-1.243,1.835l-0.451,1.928c-0.055,0.229-0.081,0.449-0.081,0.66
	c0,0.459,0.238,0.841,0.717,1.149c0.479,0.308,1.146,0.462,2.017,0.462c1.044,0,1.949-0.431,2.719-1.294
	C819.567,32.862,819.95,31.867,819.95,30.741z"/>
<path d="M831.862,29.684c0,0.898-0.466,1.584-1.398,2.06c-0.795,0.405-1.786,0.607-2.974,0.607c-1.078,0-2.139-0.071-3.184-0.212
	c-0.016,0.106-0.025,0.212-0.025,0.317c0,0.792,0.258,1.404,0.771,1.835c0.511,0.432,1.186,0.646,2.016,0.646
	c0.954,0,2.141-0.228,3.556-0.686l-0.132,1.453c-1.375,0.476-2.644,0.713-3.804,0.713c-1.216,0-2.197-0.313-2.946-0.938
	c-0.748-0.624-1.121-1.474-1.121-2.548c0-1.69,0.599-3.125,1.795-4.305c1.197-1.18,2.599-1.77,4.2-1.77
	C830.781,26.858,831.862,27.8,831.862,29.684z M830.436,29.657c0-0.951-0.688-1.425-2.061-1.425c-0.722,0-1.456,0.263-2.204,0.792
	c-0.748,0.527-1.265,1.17-1.546,1.927c0.492,0.124,1.34,0.185,2.536,0.185C829.343,31.136,830.436,30.644,830.436,29.657z"/>
<path d="M837.884,36.049c-0.634,0.246-1.241,0.369-1.823,0.369c-0.808,0-1.39-0.273-1.741-0.819
	c-0.354-0.545-0.433-1.294-0.236-2.245l1.026-4.781h-1.793l0.291-1.373h1.795l0.526-2.457l1.798-0.713l-0.66,3.17h2.879
	l-0.293,1.373h-2.875l-1.031,4.754c-0.229,1.076,0,1.611,0.688,1.611c0.438,0,0.959-0.095,1.558-0.29L837.884,36.049z"/>
<path d="M844.696,36.049c-0.634,0.246-1.24,0.369-1.822,0.369c-0.808,0-1.39-0.273-1.74-0.819c-0.354-0.545-0.436-1.294-0.236-2.245
	l1.028-4.781h-1.798l0.291-1.373h1.798l0.527-2.457l1.794-0.713l-0.657,3.17h2.879l-0.291,1.373h-2.879l-1.03,4.754
	c-0.229,1.076,0,1.611,0.688,1.611c0.438,0,0.958-0.095,1.56-0.29L844.696,36.049z"/>
<path d="M855.817,29.684c0,0.898-0.47,1.584-1.4,2.06c-0.796,0.405-1.785,0.607-2.971,0.607c-1.078,0-2.141-0.071-3.185-0.212
	c-0.018,0.106-0.025,0.212-0.025,0.317c0,0.792,0.257,1.404,0.77,1.835c0.514,0.432,1.187,0.646,2.019,0.646
	c0.953,0,2.139-0.228,3.552-0.686l-0.134,1.453c-1.371,0.476-2.64,0.713-3.801,0.713c-1.217,0-2.194-0.313-2.943-0.938
	c-0.749-0.624-1.124-1.474-1.124-2.548c0-1.69,0.602-3.125,1.797-4.305c1.194-1.18,2.597-1.77,4.198-1.77
	C854.734,26.858,855.817,27.8,855.817,29.684z M854.393,29.657c0-0.951-0.688-1.425-2.061-1.425c-0.724,0-1.459,0.263-2.206,0.792
	c-0.749,0.527-1.266,1.17-1.544,1.927c0.491,0.124,1.337,0.185,2.533,0.185C853.299,31.136,854.393,30.644,854.393,29.657z"/>
<path d="M863.156,28.442c-0.141-0.034-0.343-0.053-0.604-0.053c-1.673,0-2.724,1.003-3.145,3.011l-1.004,4.781h-1.664l1.242-5.926
	c0.14-0.631,0.244-1.237,0.315-1.816c0.054-0.368,0-0.755-0.158-1.159l1.453-0.291c0.229,0.422,0.256,0.976,0.077,1.659
	c0.354-0.527,0.813-0.938,1.375-1.237c0.563-0.298,1.091-0.449,1.584-0.449c0.354,0,0.625,0.026,0.817,0.079L863.156,28.442z"/>
<path d="M873.09,36.392c-2.589-0.141-3.559-1.75-2.906-4.833l1.852-8.689h1.66l-1.769,8.32c-0.299,1.356-0.292,2.316,0.025,2.879
	c0.266,0.476,0.811,0.749,1.642,0.819L873.09,36.392z"/>
<path d="M876.494,36.181h-1.662l1.9-8.979h1.663L876.494,36.181z M879.348,24.56c-0.069,0.353-0.255,0.652-0.553,0.898
	c-0.301,0.246-0.626,0.37-0.979,0.37c-0.353,0-0.624-0.124-0.82-0.37c-0.19-0.246-0.253-0.545-0.184-0.898
	c0.069-0.352,0.254-0.652,0.557-0.898c0.298-0.246,0.622-0.37,0.978-0.37c0.353,0,0.625,0.124,0.817,0.37
	C879.355,23.908,879.416,24.208,879.348,24.56z"/>
<path d="M881.539,35.626c-0.652,3.011-2.146,4.516-4.489,4.516c-0.737,0-1.321-0.194-1.742-0.581l0.738-1.242
	c0.546,0.264,0.993,0.397,1.349,0.397c1.216,0,2.041-1.031,2.482-3.091l1.505-7.052h-1.505l0.288-1.373h1.533
	c0.634-3.012,2.121-4.517,4.462-4.517c0.739,0,1.321,0.194,1.743,0.581l-0.737,1.242c-0.546-0.264-0.994-0.396-1.349-0.396
	c-1.216,0-2.043,1.029-2.481,3.09h2.563l-0.291,1.373h-2.563L881.539,35.626z"/>
<path d="M895.246,29.684c0,0.898-0.466,1.584-1.397,2.06c-0.797,0.405-1.784,0.607-2.971,0.607c-1.08,0-2.142-0.071-3.187-0.212
	c-0.017,0.106-0.025,0.212-0.025,0.317c0,0.792,0.26,1.404,0.771,1.835c0.513,0.432,1.185,0.646,2.018,0.646
	c0.953,0,2.139-0.228,3.554-0.686l-0.134,1.453c-1.371,0.476-2.64,0.713-3.803,0.713c-1.214,0-2.197-0.313-2.944-0.938
	c-0.748-0.624-1.123-1.474-1.123-2.548c0-1.69,0.602-3.125,1.797-4.305c1.198-1.18,2.6-1.77,4.202-1.77
	C894.166,26.858,895.246,27.8,895.246,29.684z M893.821,29.657c0-0.951-0.687-1.425-2.062-1.425c-0.724,0-1.456,0.263-2.204,0.792
	c-0.749,0.527-1.264,1.17-1.546,1.927c0.494,0.124,1.339,0.185,2.536,0.185C892.73,31.136,893.821,30.644,893.821,29.657z"/>
<path d="M898.602,35.151c-0.07,0.352-0.257,0.651-0.554,0.898c-0.302,0.246-0.627,0.369-0.979,0.369
	c-0.354,0-0.621-0.124-0.808-0.369c-0.185-0.247-0.25-0.546-0.198-0.898c0.071-0.352,0.256-0.652,0.558-0.898
	c0.297-0.247,0.625-0.369,0.977-0.369c0.354,0,0.627,0.122,0.816,0.369C898.61,34.5,898.673,34.799,898.602,35.151z"/>
<path d="M903.146,35.151c-0.072,0.352-0.257,0.651-0.556,0.898c-0.302,0.246-0.628,0.369-0.978,0.369
	c-0.354,0-0.623-0.124-0.809-0.369c-0.185-0.247-0.249-0.546-0.197-0.898c0.07-0.352,0.255-0.652,0.556-0.898
	c0.301-0.247,0.625-0.369,0.978-0.369s0.627,0.122,0.816,0.369C903.154,34.5,903.215,34.799,903.146,35.151z"/>
<path d="M907.688,35.151c-0.07,0.352-0.256,0.651-0.554,0.898c-0.303,0.246-0.627,0.369-0.979,0.369
	c-0.354,0-0.622-0.124-0.807-0.369c-0.187-0.247-0.25-0.546-0.199-0.898c0.071-0.352,0.256-0.652,0.558-0.898
	c0.3-0.247,0.623-0.369,0.976-0.369c0.354,0,0.627,0.122,0.818,0.369C907.697,34.5,907.759,34.799,907.688,35.151z"/>
<path d="M731.146,62.594h-2.082l-1.902-4.801h-5.764l-1.873,4.801h-2.052l6.036-14.581h1.63L731.146,62.594z M726.438,56.164
	l-2.112-5.978l-2.231,5.978H726.438z"/>
<path d="M734.98,49.312c0,0.402-0.143,0.746-0.424,1.025c-0.281,0.282-0.624,0.423-1.026,0.423c-0.401,0-0.744-0.141-1.024-0.423
	c-0.282-0.279-0.423-0.624-0.423-1.025c0-0.403,0.141-0.745,0.423-1.027c0.28-0.281,0.622-0.422,1.024-0.422
	s0.745,0.141,1.026,0.422C734.839,48.567,734.98,48.909,734.98,49.312z M734.496,62.594h-1.87V52.33h1.87V62.594z"/>
<path d="M739.416,62.594h-1.871v-6.791c0-1.611-0.122-2.82-0.361-3.625h1.67c0.217,0.355,0.325,0.828,0.325,1.421
	c0.18-0.377,0.557-0.731,1.13-1.071c0.57-0.335,1.141-0.503,1.704-0.503c0.403,0,0.725,0.032,0.968,0.091v1.598
	c-0.162-0.039-0.395-0.059-0.696-0.059c-1.913,0-2.866,1.148-2.866,3.451L739.416,62.594L739.416,62.594z"/>
<path d="M761.782,66.908h-1.872v-5.281c-0.889,0.824-2.039,1.236-3.453,1.236c-1.532,0-2.816-0.527-3.847-1.584
	c-1.028-1.055-1.544-2.418-1.544-4.09c0-1.49,0.484-2.735,1.452-3.744c0.97-1.006,2.203-1.51,3.696-1.51
	c1.353,0,2.563,0.442,3.635,1.329l0.207-1.119h1.847c-0.081,0.666-0.121,1.833-0.121,3.502V66.908z M759.91,58.324v-1.696
	c0-0.788-0.382-1.505-1.146-2.151c-0.768-0.646-1.552-0.971-2.354-0.971c-1.007,0-1.837,0.357-2.49,1.078
	c-0.654,0.716-0.98,1.6-0.98,2.65c0,1.23,0.316,2.207,0.95,2.924c0.634,0.718,1.516,1.074,2.644,1.074
	c0.943,0,1.745-0.287,2.397-0.861C759.584,59.795,759.91,59.113,759.91,58.324z"/>
<path d="M775.033,62.473l-1.821,0.361c-0.197-0.482-0.376-1.066-0.531-1.752c-1.213,1.188-2.416,1.781-3.604,1.781
	c-2.851,0-4.273-1.639-4.273-4.92V52.33h1.871v5.434c0,2.272,0.876,3.411,2.623,3.411c0.732,0,1.455-0.274,2.167-0.829
	c0.711-0.557,1.065-1.205,1.065-1.949V52.33h1.871v7.516C774.4,60.529,774.613,61.404,775.033,62.473z"/>
<path d="M785.866,62.502l-1.756,0.361l-0.299-1.303c-1.027,0.869-2.189,1.303-3.482,1.303c-1.03,0-1.889-0.274-2.573-0.826
	c-0.688-0.549-1.044-1.299-1.063-2.238c0-2.545,2.294-3.847,6.883-3.908c-0.201-1.529-1.026-2.293-2.478-2.293
	c-1.086,0-2.282,0.252-3.593,0.754l-0.209-1.72c1.366-0.403,2.664-0.604,3.895-0.604c2.838,0,4.257,1.469,4.257,4.408v3.41
	C785.448,60.609,785.588,61.496,785.866,62.502z M783.576,59.348v-1.826c-3.301,0.063-4.951,0.763-4.951,2.101
	c0,1.073,0.598,1.612,1.793,1.612c0.668,0,1.335-0.164,2.004-0.484C783.188,60.363,783.576,59.896,783.576,59.348z"/>
<path d="M792.964,62.834c-2.979-0.16-4.469-2.002-4.469-5.525V47.38h1.871v9.509c0,1.549,0.242,2.646,0.726,3.289
	c0.422,0.545,1.117,0.854,2.083,0.934L792.964,62.834z"/>
<path d="M797.279,49.312c0,0.402-0.141,0.746-0.422,1.025c-0.281,0.282-0.625,0.423-1.025,0.423c-0.402,0-0.743-0.141-1.027-0.423
	c-0.278-0.279-0.42-0.624-0.42-1.025c0-0.403,0.142-0.745,0.42-1.027c0.284-0.281,0.625-0.422,1.027-0.422
	c0.4,0,0.744,0.141,1.025,0.422C797.14,48.567,797.279,48.909,797.279,49.312z M796.797,62.594h-1.871V52.33h1.871V62.594z"/>
<path d="M805.61,62.441c-0.662,0.279-1.328,0.422-1.992,0.422c-0.922,0-1.646-0.313-2.17-0.936c-0.523-0.625-0.787-1.48-0.787-2.566
	V53.9h-2.053v-1.57h2.053v-2.808l1.87-0.814v3.622h3.289v1.57h-3.289v5.432c0,1.227,0.395,1.843,1.179,1.843
	c0.5,0,1.063-0.11,1.69-0.333L805.61,62.441z"/>
<path d="M807.09,67.152l-0.482-1.57c1.789-0.402,3.107-1.65,3.955-3.744l-4.559-9.508h2.084l3.563,7.607l3.379-7.607h2.083
	l-4.71,10.053C811.134,65.059,809.364,66.646,807.09,67.152z"/>
<path d="M841.5,62.594h-1.871v-5.656c0-0.922-0.212-1.684-0.64-2.289c-0.484-0.656-1.123-0.988-1.913-0.988
	c-0.667,0-1.289,0.262-1.864,0.781c-0.577,0.521-0.864,1.082-0.864,1.684v6.473h-1.871v-6.17c0-1.848-0.78-2.768-2.34-2.768
	c-0.687,0-1.346,0.307-1.974,0.918c-0.628,0.609-0.94,1.25-0.94,1.908v6.107h-1.871v-7.547c0-1.25-0.08-2.162-0.239-2.749h1.753
	c0.141,0.351,0.207,0.752,0.207,1.206c0.281-0.41,0.745-0.76,1.392-1.045c0.643-0.287,1.275-0.431,1.9-0.431
	c1.328,0,2.395,0.564,3.198,1.689c1.065-1.125,2.354-1.689,3.863-1.689c1.188,0,2.163,0.448,2.928,1.342
	c0.766,0.896,1.146,2.069,1.146,3.521L841.5,62.594L841.5,62.594z"/>
<path d="M853.634,62.047c-1.468,0.547-2.868,0.816-4.194,0.816c-1.632,0-2.973-0.487-4.03-1.463
	c-1.058-0.979-1.583-2.238-1.583-3.789c0-1.709,0.521-3.098,1.568-4.166c1.025-1.006,2.334-1.51,3.924-1.51
	c3.102,0,4.68,1.942,4.738,5.828h-8.359c0.081,1.086,0.468,1.928,1.16,2.521c0.695,0.593,1.596,0.892,2.703,0.892
	c1.125,0,2.413-0.261,3.862-0.783L853.634,62.047z M852.186,56.133c-0.102-0.775-0.424-1.406-0.967-1.896
	c-0.543-0.485-1.236-0.729-2.081-0.729c-0.809,0-1.525,0.244-2.159,0.729c-0.635,0.49-1.021,1.121-1.16,1.896H852.186z"/>
<path d="M864.8,62.502l-1.759,0.361l-0.297-1.303c-1.027,0.869-2.19,1.303-3.481,1.303c-1.03,0-1.892-0.274-2.575-0.826
	c-0.689-0.549-1.043-1.299-1.063-2.238c0-2.545,2.294-3.847,6.884-3.908c-0.202-1.529-1.028-2.293-2.477-2.293
	c-1.087,0-2.284,0.252-3.594,0.754l-0.209-1.72c1.366-0.403,2.664-0.604,3.893-0.604c2.841,0,4.258,1.469,4.258,4.408v3.41
	C864.38,60.609,864.521,61.496,864.8,62.502z M862.509,59.348v-1.826c-3.302,0.063-4.952,0.763-4.952,2.101
	c0,1.073,0.597,1.612,1.794,1.612c0.667,0,1.335-0.164,2.003-0.484C862.12,60.363,862.509,59.896,862.509,59.348z"/>
<path d="M874.099,59.664c0,0.945-0.364,1.717-1.104,2.309c-0.732,0.596-1.727,0.894-2.973,0.894c-1.026,0-2.132-0.327-3.318-0.979
	l0.753-1.492c0.825,0.563,1.711,0.842,2.655,0.842c1.408,0,2.115-0.484,2.115-1.461c0-0.752-0.687-1.34-2.055-1.77
	c-2.014-0.623-3.021-1.578-3.021-2.869c0-0.861,0.34-1.593,1.013-2.185c0.677-0.595,1.587-0.891,2.729-0.891
	c1.168,0,2.154,0.291,2.961,0.874l-0.695,1.385c-0.705-0.521-1.499-0.781-2.384-0.781c-0.524,0-0.962,0.137-1.313,0.406
	c-0.353,0.271-0.526,0.619-0.526,1.039c0,0.525,0.733,1.039,2.203,1.541C873.114,57.211,874.099,58.257,874.099,59.664z"/>
<path d="M886.597,62.473l-1.82,0.361c-0.199-0.482-0.376-1.066-0.535-1.752c-1.211,1.188-2.413,1.781-3.604,1.781
	c-2.85,0-4.271-1.639-4.271-4.92V52.33h1.872v5.434c0,2.272,0.872,3.411,2.621,3.411c0.731,0,1.452-0.274,2.165-0.829
	c0.71-0.557,1.067-1.205,1.067-1.949V52.33h1.871v7.516C885.961,60.529,886.172,61.404,886.597,62.473z"/>
<path d="M890.852,62.594h-1.871v-6.791c0-1.611-0.122-2.82-0.362-3.625h1.67c0.218,0.355,0.326,0.828,0.326,1.421
	c0.18-0.377,0.555-0.731,1.13-1.071c0.57-0.335,1.142-0.503,1.704-0.503c0.401,0,0.726,0.032,0.967,0.091v1.598
	c-0.161-0.039-0.396-0.059-0.696-0.059c-1.912,0-2.866,1.148-2.866,3.451L890.852,62.594L890.852,62.594z"/>
<path d="M905.49,62.047c-1.471,0.547-2.867,0.816-4.196,0.816c-1.629,0-2.974-0.487-4.028-1.463
	c-1.057-0.979-1.586-2.238-1.586-3.789c0-1.709,0.523-3.098,1.57-4.166c1.025-1.006,2.334-1.51,3.924-1.51
	c3.099,0,4.678,1.942,4.737,5.828h-8.358c0.079,1.086,0.467,1.928,1.161,2.521c0.692,0.593,1.595,0.892,2.701,0.892
	c1.128,0,2.413-0.261,3.862-0.783L905.49,62.047z M904.041,56.133c-0.104-0.775-0.423-1.406-0.968-1.896
	c-0.543-0.485-1.235-0.729-2.083-0.729c-0.804,0-1.523,0.244-2.158,0.729c-0.633,0.49-1.021,1.121-1.16,1.896H904.041z"/>
<path d="M924.355,62.594h-1.872v-5.656c0-0.922-0.214-1.684-0.639-2.289c-0.485-0.656-1.124-0.988-1.911-0.988
	c-0.67,0-1.291,0.262-1.867,0.781c-0.577,0.521-0.867,1.082-0.867,1.684v6.473h-1.869v-6.17c0-1.848-0.778-2.768-2.34-2.768
	c-0.688,0-1.346,0.307-1.975,0.918c-0.627,0.609-0.938,1.25-0.938,1.908v6.107h-1.872v-7.547c0-1.25-0.082-2.162-0.24-2.749h1.756
	c0.137,0.351,0.206,0.752,0.206,1.206c0.281-0.41,0.744-0.76,1.39-1.045c0.643-0.287,1.277-0.431,1.901-0.431
	c1.326,0,2.396,0.564,3.196,1.689c1.067-1.125,2.354-1.689,3.864-1.689c1.188,0,2.162,0.448,2.928,1.342
	c0.767,0.896,1.148,2.069,1.148,3.521L924.355,62.594L924.355,62.594z"/>
<path d="M936.488,62.047c-1.471,0.547-2.866,0.816-4.196,0.816c-1.628,0-2.975-0.487-4.029-1.463
	c-1.056-0.979-1.583-2.238-1.583-3.789c0-1.709,0.521-3.098,1.568-4.166c1.025-1.006,2.334-1.51,3.926-1.51
	c3.099,0,4.678,1.942,4.738,5.828h-8.362c0.08,1.086,0.467,1.928,1.165,2.521c0.691,0.593,1.593,0.892,2.699,0.892
	c1.127,0,2.413-0.261,3.863-0.783L936.488,62.047z M935.041,56.133c-0.104-0.775-0.425-1.406-0.969-1.896
	c-0.543-0.485-1.234-0.729-2.083-0.729c-0.805,0-1.523,0.244-2.158,0.729c-0.633,0.49-1.021,1.121-1.163,1.896H935.041z"/>
<path d="M948.952,62.594h-1.87v-5.808c0-2.086-0.968-3.128-2.896-3.128c-0.709,0-1.406,0.316-2.089,0.947
	c-0.68,0.631-1.021,1.261-1.021,1.881v6.105h-1.87v-7.547c0-1.25-0.081-2.162-0.241-2.749h1.755
	c0.138,0.351,0.207,0.774,0.207,1.271c0.969-1.025,2.143-1.541,3.516-1.541c1.374,0,2.469,0.422,3.287,1.269
	c0.816,0.846,1.227,2.001,1.227,3.473v5.826H948.952L948.952,62.594z"/>
<path d="M957.736,62.441c-0.662,0.279-1.329,0.422-1.993,0.422c-0.92,0-1.646-0.313-2.17-0.936c-0.522-0.625-0.788-1.48-0.788-2.566
	V53.9h-2.053v-1.57h2.053v-2.808l1.871-0.814v3.622h3.29v1.57h-3.29v5.432c0,1.227,0.396,1.843,1.181,1.843
	c0.501,0,1.063-0.11,1.689-0.333L957.736,62.441z"/>
<path d="M975.031,62.502l-1.757,0.361l-0.3-1.303c-1.031,0.869-2.192,1.303-3.485,1.303c-1.026,0-1.885-0.274-2.575-0.826
	c-0.687-0.549-1.039-1.299-1.058-2.238c0-2.545,2.291-3.847,6.881-3.908c-0.199-1.529-1.023-2.293-2.476-2.293
	c-1.086,0-2.284,0.252-3.592,0.754l-0.214-1.72c1.37-0.403,2.667-0.604,3.895-0.604c2.838,0,4.258,1.469,4.258,4.408v3.41
	C974.609,60.609,974.748,61.496,975.031,62.502z M972.738,59.348v-1.826c-3.299,0.063-4.949,0.763-4.949,2.101
	c0,1.073,0.598,1.612,1.79,1.612c0.668,0,1.337-0.164,2.006-0.484C972.354,60.363,972.738,59.896,972.738,59.348z"/>
<path d="M987.408,62.594h-1.872v-5.808c0-2.086-0.966-3.128-2.896-3.128c-0.712,0-1.407,0.316-2.091,0.947
	c-0.682,0.631-1.021,1.261-1.021,1.881v6.105h-1.871v-7.547c0-1.25-0.081-2.162-0.243-2.749h1.754
	c0.142,0.351,0.21,0.774,0.21,1.271c0.971-1.025,2.143-1.541,3.518-1.541c1.369,0,2.469,0.422,3.285,1.269
	c0.817,0.846,1.228,2.001,1.228,3.473V62.594L987.408,62.594z"/>
<path d="M1000.536,62.594h-1.777c-0.063-0.218-0.094-0.582-0.094-1.094c-0.946,0.908-2.17,1.363-3.661,1.363
	c-1.497,0-2.755-0.527-3.773-1.584c-1.021-1.055-1.528-2.4-1.528-4.027c0-1.514,0.487-2.773,1.472-3.789
	c0.976-1.017,2.201-1.526,3.677-1.526c1.52,0,2.748,0.473,3.696,1.418v-5.976h1.869v12.467
	C1000.414,60.691,1000.455,61.605,1000.536,62.594z M998.545,58.719v-2.363c0-0.766-0.373-1.433-1.12-2.002
	c-0.748-0.563-1.548-0.848-2.396-0.848c-1.051,0-1.891,0.355-2.518,1.063c-0.626,0.709-0.939,1.605-0.939,2.697
	c0,1.23,0.313,2.199,0.939,2.907c0.627,0.707,1.508,1.062,2.639,1.062c1.011,0,1.828-0.227,2.453-0.682
	C998.23,60.098,998.545,59.486,998.545,58.719z"/>
<path d="M1026.524,62.594h-1.868v-5.656c0-0.922-0.213-1.684-0.642-2.289c-0.481-0.656-1.12-0.988-1.911-0.988
	c-0.666,0-1.289,0.262-1.863,0.781c-0.58,0.521-0.866,1.082-0.866,1.684v6.473h-1.873v-6.17c0-1.848-0.775-2.768-2.336-2.768
	c-0.688,0-1.349,0.307-1.974,0.918c-0.627,0.609-0.94,1.25-0.94,1.908v6.107h-1.87v-7.547c0-1.25-0.081-2.162-0.244-2.749h1.754
	c0.142,0.351,0.212,0.752,0.212,1.206c0.278-0.41,0.743-0.76,1.389-1.045c0.643-0.287,1.273-0.431,1.9-0.431
	c1.325,0,2.392,0.564,3.199,1.689c1.063-1.125,2.354-1.689,3.863-1.689c1.188,0,2.163,0.448,2.927,1.342
	c0.767,0.896,1.146,2.069,1.146,3.521L1026.524,62.594L1026.524,62.594z"/>
<path d="M1039.717,57.402c0,1.527-0.514,2.814-1.541,3.861c-1.023,1.047-2.32,1.568-3.892,1.568c-1.567,0-2.87-0.521-3.896-1.568
	c-1.026-1.047-1.541-2.334-1.541-3.861c0-1.529,0.515-2.824,1.541-3.881c1.023-1.059,2.326-1.584,3.896-1.584
	c1.568,0,2.866,0.527,3.892,1.584C1039.203,54.578,1039.717,55.873,1039.717,57.402z M1037.845,57.389
	c0-1.086-0.331-1.99-0.995-2.724c-0.662-0.731-1.52-1.099-2.563-1.099s-1.9,0.367-2.567,1.099c-0.663,0.733-0.995,1.638-0.995,2.724
	c0,1.08,0.332,1.986,0.995,2.717c0.667,0.734,1.521,1.102,2.567,1.102s1.901-0.365,2.563-1.102
	C1037.514,59.375,1037.845,58.469,1037.845,57.389z"/>
<path d="M1051.762,62.594h-1.872v-5.808c0-2.086-0.965-3.128-2.896-3.128c-0.711,0-1.407,0.316-2.089,0.947
	c-0.683,0.631-1.021,1.261-1.021,1.881v6.105h-1.872v-7.547c0-1.25-0.081-2.162-0.242-2.749h1.755
	c0.141,0.351,0.209,0.774,0.209,1.271c0.97-1.025,2.142-1.541,3.517-1.541c1.369,0,2.468,0.422,3.285,1.269
	c0.818,0.846,1.229,2.001,1.229,3.473L1051.762,62.594L1051.762,62.594z"/>
<path d="M1057.134,49.312c0,0.402-0.142,0.746-0.425,1.025c-0.28,0.282-0.621,0.423-1.023,0.423c-0.404,0-0.746-0.141-1.027-0.423
	c-0.279-0.279-0.423-0.624-0.423-1.025c0-0.403,0.144-0.745,0.423-1.027c0.281-0.281,0.623-0.422,1.027-0.422
	c0.402,0,0.743,0.141,1.023,0.422C1056.992,48.567,1057.134,48.909,1057.134,49.312z M1056.65,62.594h-1.873V52.33h1.873V62.594z"/>
<path d="M1065.465,62.441c-0.668,0.279-1.331,0.422-1.994,0.422c-0.924,0-1.646-0.313-2.17-0.936
	c-0.527-0.625-0.789-1.48-0.789-2.566V53.9h-2.053v-1.57h2.053v-2.808l1.872-0.814v3.622h3.29v1.57h-3.29v5.432
	c0,1.227,0.392,1.843,1.176,1.843c0.505,0,1.067-0.11,1.69-0.333L1065.465,62.441z"/>
<path d="M1077.627,57.402c0,1.527-0.513,2.814-1.541,3.861c-1.023,1.047-2.323,1.568-3.896,1.568c-1.568,0-2.865-0.521-3.891-1.568
	c-1.027-1.047-1.539-2.334-1.539-3.861c0-1.529,0.512-2.824,1.539-3.881c1.023-1.059,2.32-1.584,3.891-1.584s2.87,0.527,3.896,1.584
	C1077.115,54.578,1077.627,55.873,1077.627,57.402z M1075.756,57.389c0-1.086-0.332-1.99-0.995-2.724
	c-0.668-0.731-1.521-1.099-2.567-1.099s-1.9,0.367-2.564,1.099c-0.662,0.733-0.994,1.638-0.994,2.724
	c0,1.08,0.332,1.986,0.994,2.717c0.664,0.734,1.52,1.102,2.564,1.102s1.899-0.365,2.567-1.102
	C1075.424,59.375,1075.756,58.469,1075.756,57.389z"/>
<path d="M1081.789,62.594h-1.871v-6.791c0-1.611-0.117-2.82-0.359-3.625h1.668c0.218,0.355,0.329,0.828,0.329,1.421
	c0.177-0.377,0.554-0.731,1.127-1.071c0.574-0.335,1.144-0.503,1.706-0.503c0.4,0,0.724,0.032,0.967,0.091v1.598
	c-0.163-0.039-0.395-0.059-0.697-0.059c-1.907,0-2.866,1.148-2.866,3.451L1081.789,62.594L1081.789,62.594z"/>
<path d="M1089.697,49.312c0,0.402-0.141,0.746-0.419,1.025c-0.284,0.282-0.627,0.423-1.027,0.423s-0.744-0.141-1.023-0.423
	c-0.283-0.279-0.425-0.624-0.425-1.025c0-0.403,0.142-0.745,0.425-1.027c0.279-0.281,0.623-0.422,1.023-0.422
	s0.744,0.141,1.027,0.422C1089.558,48.567,1089.697,48.909,1089.697,49.312z M1089.216,62.594h-1.872V52.33h1.872V62.594z"/>
<path d="M1102.017,62.594h-1.873v-5.808c0-2.086-0.966-3.128-2.896-3.128c-0.71,0-1.406,0.316-2.089,0.947s-1.021,1.261-1.021,1.881
	v6.105h-1.872v-7.547c0-1.25-0.081-2.162-0.242-2.749h1.753c0.141,0.351,0.211,0.774,0.211,1.271
	c0.969-1.025,2.141-1.541,3.516-1.541c1.371,0,2.469,0.422,3.287,1.269c0.816,0.846,1.229,2.001,1.229,3.473L1102.017,62.594
	L1102.017,62.594z"/>
<path d="M1112.336,63.951c0,0.945-0.344,1.71-1.021,2.293c-0.688,0.583-1.682,0.875-2.989,0.875c-1.088,0-2.204-0.348-3.354-1.044
	l0.667-1.521c1.064,0.623,2.001,0.934,2.809,0.934c0.623,0,1.14-0.143,1.551-0.432c0.414-0.289,0.62-0.635,0.62-1.031
	c0-0.6-0.563-1.127-1.688-1.584c-0.847-0.342-1.661-0.728-2.445-1.146c-0.785-0.425-1.177-0.977-1.177-1.66
	c0-0.32,0.09-0.732,0.27-1.238c-0.725-0.785-1.087-1.619-1.087-2.506c0-1.104,0.371-2.013,1.116-2.716
	c0.744-0.704,1.646-1.057,2.689-1.057h4.344v1.298h-1.508c0.36,0.143,0.651,0.475,0.875,0.997c0.18,0.422,0.271,0.844,0.271,1.269
	c0,1.187-0.325,2.125-0.979,2.82c-0.655,0.691-1.595,1.038-2.82,1.038c-0.441,0-0.877-0.067-1.301-0.209
	c-0.101,0.104-0.146,0.231-0.146,0.394c0,0.303,0.723,0.651,2.17,1.057C1111.289,61.367,1112.336,62.423,1112.336,63.951z
	 M1110.679,55.833c0-0.604-0.218-1.118-0.647-1.54c-0.437-0.426-0.951-0.635-1.556-0.635s-1.124,0.209-1.556,0.635
	c-0.437,0.422-0.648,0.936-0.648,1.54c0,0.603,0.215,1.11,0.648,1.522c0.432,0.412,0.95,0.617,1.556,0.617
	c0.723,0,1.271-0.205,1.644-0.617C1110.49,56.943,1110.679,56.436,1110.679,55.833z"/>
<path d="M1128.546,59.664c0,0.945-0.366,1.717-1.104,2.309c-0.731,0.596-1.726,0.894-2.976,0.894c-1.021,0-2.132-0.327-3.318-0.979
	l0.756-1.492c0.826,0.563,1.709,0.842,2.655,0.842c1.408,0,2.111-0.484,2.111-1.461c0-0.752-0.683-1.34-2.053-1.77
	c-2.012-0.623-3.019-1.578-3.019-2.869c0-0.861,0.34-1.593,1.014-2.185c0.672-0.595,1.585-0.891,2.73-0.891
	c1.168,0,2.15,0.291,2.958,0.874l-0.696,1.385c-0.703-0.521-1.5-0.781-2.384-0.781c-0.521,0-0.964,0.137-1.313,0.406
	c-0.354,0.271-0.53,0.619-0.53,1.039c0,0.525,0.735,1.039,2.202,1.541C1127.563,57.211,1128.546,58.257,1128.546,59.664z"/>
<path d="M1130.265,67.152l-0.481-1.57c1.793-0.402,3.11-1.65,3.955-3.744l-4.56-9.508h2.085l3.562,7.607l3.382-7.607h2.081
	l-4.708,10.053C1134.313,65.059,1132.539,66.646,1130.265,67.152z"/>
<path d="M1148.375,59.664c0,0.945-0.363,1.717-1.102,2.309c-0.732,0.596-1.727,0.894-2.976,0.894c-1.022,0-2.134-0.327-3.318-0.979
	l0.756-1.492c0.824,0.563,1.709,0.842,2.656,0.842c1.406,0,2.11-0.484,2.11-1.461c0-0.752-0.684-1.34-2.053-1.77
	c-2.013-0.623-3.018-1.578-3.018-2.869c0-0.861,0.339-1.593,1.012-2.185c0.672-0.595,1.586-0.891,2.729-0.891
	c1.169,0,2.151,0.291,2.959,0.874l-0.696,1.385c-0.703-0.521-1.5-0.781-2.384-0.781c-0.522,0-0.962,0.137-1.313,0.406
	c-0.354,0.271-0.53,0.619-0.53,1.039c0,0.525,0.737,1.039,2.202,1.541C1147.393,57.211,1148.375,58.257,1148.375,59.664z"/>
<path d="M1156.407,62.441c-0.666,0.279-1.33,0.422-1.994,0.422c-0.924,0-1.646-0.313-2.17-0.936
	c-0.526-0.625-0.788-1.48-0.788-2.566V53.9h-2.054v-1.57h2.054v-2.808l1.872-0.814v3.622h3.289v1.57h-3.289v5.432
	c0,1.227,0.392,1.843,1.175,1.843c0.506,0,1.069-0.11,1.691-0.333L1156.407,62.441z"/>
<path d="M1167.513,62.047c-1.47,0.547-2.866,0.816-4.196,0.816c-1.627,0-2.971-0.487-4.025-1.463
	c-1.059-0.979-1.585-2.238-1.585-3.789c0-1.709,0.522-3.098,1.569-4.166c1.023-1.006,2.332-1.51,3.924-1.51
	c3.1,0,4.677,1.942,4.738,5.828h-8.359c0.076,1.086,0.469,1.928,1.16,2.521c0.692,0.593,1.598,0.892,2.701,0.892
	c1.127,0,2.416-0.261,3.865-0.783L1167.513,62.047z M1166.064,56.133c-0.099-0.775-0.424-1.406-0.964-1.896
	c-0.547-0.485-1.238-0.729-2.084-0.729c-0.807,0-1.524,0.244-2.159,0.729c-0.632,0.49-1.021,1.121-1.164,1.896H1166.064z"/>
<path d="M1186.379,62.594h-1.871v-5.656c0-0.922-0.215-1.684-0.637-2.289c-0.487-0.656-1.125-0.988-1.913-0.988
	c-0.667,0-1.289,0.262-1.868,0.781c-0.574,0.521-0.861,1.082-0.861,1.684v6.473h-1.872v-6.17c0-1.848-0.78-2.768-2.341-2.768
	c-0.688,0-1.345,0.307-1.973,0.918c-0.629,0.609-0.941,1.25-0.941,1.908v6.107h-1.871v-7.547c0-1.25-0.081-2.162-0.238-2.749h1.753
	c0.137,0.351,0.206,0.752,0.206,1.206c0.283-0.41,0.744-0.76,1.39-1.045c0.646-0.287,1.279-0.431,1.901-0.431
	c1.33,0,2.396,0.564,3.201,1.689c1.063-1.125,2.354-1.689,3.861-1.689c1.188,0,2.162,0.448,2.93,1.342
	c0.763,0.896,1.146,2.069,1.146,3.521L1186.379,62.594L1186.379,62.594z"/>
<line fill="none" x1="1191.268" y1="55.688" x2="1301.025" y2="55.688"/>
<g>
	
		<linearGradient id="SVGID_79_" gradientUnits="userSpaceOnUse" x1="796.9143" y1="825.3867" x2="796.9143" y2="843.0397" gradientTransform="matrix(1 0 0 1 282.4448 -749.6406)">
		<stop  offset="0" style="stop-color:#39B54A"/>
		<stop  offset="1" style="stop-color:#000000"/>
	</linearGradient>
	<rect x="1038.916" y="75.518" fill="url(#SVGID_79_)" width="80.886" height="18.489"/>
	<g>
		<path d="M725.824,82.086c0,1.044-0.42,1.883-1.259,2.523c-0.843,0.642-1.949,0.961-3.332,0.961c-0.348,0-0.726-0.021-1.135-0.063
			v4.255h-1.402V79.145c1.086-0.183,2.044-0.271,2.873-0.271c1.331,0,2.369,0.298,3.125,0.894
			C725.448,80.361,725.824,81.135,725.824,82.086z M724.425,82.152c0-1.371-0.961-2.059-2.884-2.059c-0.521,0-1,0.022-1.44,0.067
			v4.054c0.52,0.09,0.953,0.133,1.304,0.133C723.416,84.348,724.425,83.619,724.425,82.152z"/>
		<path d="M738.733,89.762h-1.383l-0.59-8.355l-3.396,8.355h-0.95l-3.395-8.355l-0.589,8.355h-1.382l0.771-10.777h1.493l3.575,8.966
			l3.578-8.966h1.496L738.733,89.762z"/>
		<path d="M746.337,89.762h-4.777v-1.152h1.678v-7.518l-1.427,1.197l-0.838-0.93l2.875-2.42c0.558,0,0.836,0.36,0.836,1.088v8.582
			h1.653V89.762z"/>
		<path d="M750.977,88.877c0,0.303-0.104,0.561-0.314,0.771c-0.211,0.209-0.469,0.314-0.768,0.314c-0.303,0-0.561-0.105-0.771-0.314
			c-0.214-0.211-0.315-0.469-0.315-0.771c0-0.301,0.104-0.557,0.315-0.77c0.211-0.211,0.469-0.316,0.771-0.316
			c0.299,0,0.557,0.105,0.768,0.316C750.872,88.32,750.977,88.576,750.977,88.877z"/>
		<path d="M759.739,84.454c0,1.521-0.316,2.819-0.95,3.897c-0.635,1.072-1.541,1.611-2.716,1.611c-1.131,0-2.018-0.539-2.648-1.611
			c-0.636-1.078-0.95-2.377-0.95-3.897c0-1.524,0.314-2.821,0.95-3.901c0.633-1.074,1.52-1.611,2.648-1.611
			c1.175,0,2.081,0.537,2.716,1.611C759.422,81.633,759.739,82.93,759.739,84.454z M758.291,84.454c0-1.272-0.182-2.306-0.547-3.103
			c-0.359-0.793-0.9-1.188-1.628-1.188c-0.741,0-1.289,0.396-1.65,1.188c-0.365,0.797-0.544,1.828-0.544,3.103
			c0,1.271,0.179,2.302,0.544,3.097c0.361,0.795,0.901,1.189,1.629,1.189c0.74,0,1.29-0.395,1.649-1.189
			C758.11,86.756,758.291,85.725,758.291,84.454z"/>
		<path fill="#939598" d="M773.276,93.52h-1.29V77.854h1.29V93.52z"/>
		<path d="M793.128,82.086c0,1.044-0.419,1.883-1.26,2.523c-0.841,0.642-1.954,0.961-3.331,0.961c-0.347,0-0.728-0.021-1.134-0.063
			v4.255H786V79.145c1.087-0.183,2.045-0.271,2.873-0.271c1.327,0,2.369,0.298,3.125,0.894
			C792.753,80.361,793.128,81.135,793.128,82.086z M791.725,82.152c0-1.371-0.961-2.059-2.881-2.059
			c-0.521,0-0.999,0.022-1.438,0.067v4.054c0.517,0.09,0.948,0.133,1.304,0.133C790.721,84.348,791.725,83.619,791.725,82.152z"/>
		<path d="M806.032,89.762h-1.379l-0.59-8.355l-3.396,8.355h-0.951l-3.395-8.355l-0.589,8.355h-1.381l0.771-10.777h1.491
			l3.577,8.966l3.578-8.966h1.491L806.032,89.762z"/>
		<path d="M814.566,89.762h-7.332c0.121-0.662,0.246-1.209,0.383-1.629c0.396-0.486,1.594-1.66,3.601-3.533
			c1.237-1.16,1.856-2.111,1.856-2.854c0-0.992-0.59-1.494-1.767-1.494c-1.163,0-1.855,0.673-2.081,2.018l-1.338-0.34
			c0.106-0.967,0.481-1.716,1.131-2.24c0.604-0.498,1.375-0.748,2.312-0.748c0.922,0,1.685,0.271,2.285,0.813
			c0.604,0.544,0.905,1.229,0.905,2.06c0,0.74-0.392,1.576-1.176,2.515c-0.482,0.562-1.288,1.337-2.425,2.333
			c-1.01,0.891-1.629,1.502-1.856,1.834h5.774L814.566,89.762z"/>
		<path d="M818.279,88.877c0,0.303-0.105,0.561-0.314,0.771c-0.214,0.209-0.47,0.314-0.771,0.314c-0.304,0-0.562-0.105-0.771-0.314
			c-0.21-0.211-0.317-0.469-0.317-0.771c0-0.301,0.107-0.557,0.317-0.77c0.209-0.211,0.467-0.316,0.771-0.316
			c0.302,0,0.558,0.105,0.771,0.316C818.173,88.32,818.279,88.576,818.279,88.877z"/>
		<path d="M826.973,85.957c0,1.18-0.416,2.137-1.244,2.877c-0.829,0.738-1.9,1.107-3.214,1.107c-1.116,0-2.046-0.323-2.786-0.973
			l0.611-1.045c0.846,0.531,1.622,0.795,2.332,0.795c0.784,0,1.456-0.26,2.018-0.781c0.557-0.521,0.836-1.172,0.836-1.957
			c0-0.649-0.211-1.149-0.633-1.506c-0.426-0.354-0.987-0.529-1.7-0.529c-0.707,0-1.169,0.244-1.382,0.746l-0.902,0.043l0.383-5.752
			h5.389l-0.247,1.225h-3.759l-0.157,2.627c0.271-0.122,0.597-0.18,0.974-0.18c0.995,0,1.827,0.309,2.489,0.927
			C826.641,84.202,826.973,84.992,826.973,85.957z"/>
		<path fill="#939598" d="M840.576,93.52h-1.29V77.854h1.29V93.52z"/>
		<path d="M860.433,82.086c0,1.044-0.421,1.883-1.264,2.523c-0.842,0.642-1.949,0.961-3.327,0.961c-0.351,0-0.729-0.021-1.141-0.063
			v4.255h-1.402V79.145c1.087-0.183,2.045-0.271,2.878-0.271c1.325,0,2.368,0.298,3.121,0.894
			C860.054,80.361,860.433,81.135,860.433,82.086z M859.029,82.152c0-1.371-0.963-2.059-2.887-2.059
			c-0.517,0-0.998,0.022-1.44,0.067v4.054c0.521,0.09,0.955,0.133,1.307,0.133C858.021,84.348,859.029,83.619,859.029,82.152z"/>
		<path d="M873.336,89.762h-1.382l-0.591-8.355l-3.394,8.355h-0.949l-3.397-8.355l-0.591,8.355h-1.378l0.769-10.777h1.496
			l3.577,8.966l3.572-8.966h1.495L873.336,89.762z"/>
		<path d="M880.941,89.762h-4.775v-1.152h1.674v-7.518l-1.428,1.197l-0.835-0.93l2.873-2.42c0.561,0,0.84,0.36,0.84,1.088v8.582
			h1.651V89.762L880.941,89.762z"/>
		<path d="M890.448,84.454c0,1.521-0.317,2.819-0.951,3.897c-0.634,1.072-1.536,1.611-2.716,1.611c-1.131,0-2.017-0.539-2.647-1.611
			c-0.636-1.078-0.95-2.377-0.95-3.897c0-1.524,0.314-2.821,0.95-3.901c0.633-1.074,1.519-1.611,2.647-1.611
			c1.18,0,2.082,0.537,2.716,1.611C890.13,81.633,890.448,82.93,890.448,84.454z M888.998,84.454c0-1.272-0.181-2.306-0.541-3.103
			c-0.364-0.793-0.905-1.188-1.633-1.188c-0.736,0-1.29,0.396-1.649,1.188c-0.362,0.797-0.545,1.828-0.545,3.103
			c0,1.271,0.183,2.302,0.545,3.097c0.359,0.795,0.905,1.189,1.629,1.189c0.741,0,1.289-0.395,1.653-1.189
			C888.818,86.756,888.998,85.725,888.998,84.454z"/>
		<path fill="#939598" d="M903.985,93.52h-1.29V77.854h1.29V93.52z"/>
		<path d="M921.057,89.762h-1.402v-9.555h-3.982v-1.225h9.323v1.225h-3.938L921.057,89.762L921.057,89.762z"/>
		<path d="M932.621,89.762h-6.382V78.982h6.382v1.225h-4.978v3.264h4.436v1.221h-4.436v3.848h4.978V89.762z"/>
		<path d="M945.552,89.762h-1.382l-0.592-8.355l-3.396,8.355h-0.952l-3.393-8.355l-0.591,8.355h-1.382l0.771-10.777h1.496
			l3.574,8.966l3.577-8.966h1.495L945.552,89.762z"/>
		<path d="M954.469,82.086c0,1.044-0.42,1.883-1.26,2.523c-0.841,0.642-1.953,0.961-3.331,0.961c-0.348,0-0.728-0.021-1.136-0.063
			v4.255h-1.403V79.145c1.087-0.183,2.045-0.271,2.875-0.271c1.324,0,2.368,0.298,3.123,0.894
			C954.094,80.361,954.469,81.135,954.469,82.086z M953.064,82.152c0-1.371-0.961-2.059-2.883-2.059
			c-0.521,0-0.996,0.022-1.438,0.067v4.054c0.517,0.09,0.95,0.133,1.305,0.133C952.058,84.348,953.064,83.619,953.064,82.152z"/>
		<path d="M962.553,89.762h-6.385V78.982h6.385v1.225h-4.98v3.264h4.437v1.221h-4.437v3.848h4.98V89.762z"/>
		<path d="M971.74,89.762h-1.425c-0.409-3.125-1.349-4.688-2.822-4.688h-1.815v4.688h-1.403V79.188
			c1.083-0.195,2.061-0.293,2.919-0.293c1.281,0,2.302,0.271,3.059,0.813c0.753,0.54,1.132,1.278,1.132,2.21
			c0,1.229-0.59,2.118-1.767,2.661c0.558,0.375,0.991,0.929,1.302,1.649C971.227,86.953,971.503,88.133,971.74,89.762z
			 M969.979,81.995c0-1.249-0.938-1.877-2.809-1.877c-0.604,0-1.103,0.022-1.492,0.065v3.715h1.742
			C969.121,83.898,969.979,83.266,969.979,81.995z"/>
		<path d="M982.313,89.762h-1.563l-1.426-3.601h-4.322l-1.403,3.601h-1.54l4.527-10.936h1.225L982.313,89.762z M978.782,84.938
			l-1.584-4.479l-1.676,4.479H978.782z"/>
		<path d="M986.863,89.762h-1.403v-9.555h-3.982v-1.225h9.326v1.225h-3.938L986.863,89.762L986.863,89.762z"/>
		<path d="M1000.696,85.167c0,3.198-1.439,4.798-4.322,4.798c-2.885,0-4.325-1.6-4.325-4.798v-6.185h1.448v6.185
			c0,2.384,0.958,3.573,2.877,3.573c1.915,0,2.875-1.189,2.875-3.573v-6.185h1.447V85.167z"/>
		<path d="M1010.431,89.762h-1.427c-0.409-3.125-1.349-4.688-2.822-4.688h-1.815v4.688h-1.402V79.188
			c1.083-0.195,2.059-0.293,2.918-0.293c1.282,0,2.303,0.271,3.06,0.813c0.752,0.54,1.131,1.278,1.131,2.21
			c0,1.229-0.591,2.118-1.766,2.661c0.557,0.375,0.991,0.929,1.302,1.649C1009.916,86.953,1010.191,88.133,1010.431,89.762z
			 M1008.666,81.995c0-1.249-0.937-1.877-2.809-1.877c-0.604,0-1.104,0.022-1.493,0.065v3.715h1.743
			C1007.811,83.898,1008.666,83.266,1008.666,81.995z"/>
		<path d="M1018.285,89.762h-6.386V78.982h6.386v1.225h-4.979v3.264h4.437v1.221h-4.437v3.848h4.979V89.762z"/>
		<path fill="#939598" d="M1031.754,93.52h-1.289V77.854h1.289V93.52z"/>
		<path fill="#FFFFFF" d="M1052.899,89.762h-1.402v-5.117h-5.615v5.117h-1.404V78.982h1.404v4.439h5.615v-4.439h1.402V89.762z"/>
		<path fill="#FFFFFF" d="M1063.811,85.167c0,3.198-1.439,4.798-4.321,4.798s-4.326-1.6-4.326-4.798v-6.185h1.451v6.185
			c0,2.384,0.959,3.573,2.875,3.573s2.873-1.189,2.873-3.573v-6.185h1.448V85.167z"/>
		<path fill="#FFFFFF" d="M1077.281,89.762h-1.382l-0.587-8.355l-3.397,8.355h-0.949l-3.396-8.355l-0.586,8.355h-1.384l0.771-10.777
			h1.493l3.578,8.966l3.577-8.966h1.491L1077.281,89.762z"/>
		<path fill="#FFFFFF" d="M1080.471,89.762h-1.402V78.982h1.402V89.762z"/>
		<path fill="#FFFFFF" d="M1091.43,84.145c0,1.635-0.393,2.938-1.176,3.918c-0.97,1.193-2.454,1.787-4.461,1.787
			c-0.619,0-1.63-0.072-3.033-0.225V79.164c1.721-0.193,2.881-0.291,3.484-0.291c1.844,0,3.206,0.55,4.099,1.65
			C1091.068,81.414,1091.43,82.621,1091.43,84.145z M1089.982,84.145c0-2.697-1.274-4.049-3.817-4.049c-0.428,0-1.091,0.047-2,0.137
			v8.33c0.5,0.047,1.125,0.067,1.887,0.067c1.471,0,2.537-0.522,3.205-1.562C1089.738,86.297,1089.982,85.324,1089.982,84.145z"/>
		<path fill="#FFFFFF" d="M1094.555,89.762h-1.403V78.982h1.403V89.762z"/>
		<path fill="#FFFFFF" d="M1101.188,89.762h-1.405v-9.555h-3.981v-1.225h9.326v1.225h-3.938L1101.188,89.762L1101.188,89.762z"/>
		<path fill="#FFFFFF" d="M1110.445,89.762h-1.401v-4.709l-3.939-6.068h1.651l2.986,4.848l2.966-4.848h1.634l-3.896,6.049V89.762
			L1110.445,89.762z"/>
	</g>
</g>
</svg>
