<?xml version="1.0" encoding="utf-8"?>
<!-- Generator: Adobe Illustrator 16.0.0, SVG Export Plug-In . SVG Version: 6.00 Build 0)  -->
<!DOCTYPE svg PUBLIC "-//W3C//DTD SVG 1.1//EN" "http://www.w3.org/Graphics/SVG/1.1/DTD/svg11.dtd">
<svg version="1.1" id="Layer_1" xmlns="http://www.w3.org/2000/svg" xmlns:xlink="http://www.w3.org/1999/xlink" x="0px" y="0px"
	 width="41px" height="32px" viewBox="0 0 41 32" enable-background="new 0 0 41 32" xml:space="preserve">
<path fill="#BCBCBC" d="M24.697,13.833l-0.053-0.096 M19.603,17.157l-3.344-7.236l-2.553-5.715l-4.208,9.456L5.675,5.107
	L1.626,14.21c-0.166,0.24-0.352,0.813-0.475,1.084l-0.043,0.077h0.007c-0.282,0.641-0.442,1.35-0.442,2.1
	c0,2.83,2.24,5.128,5.002,5.128c0.506,0,0.984-0.099,1.444-0.242c0.662,3.107,3.356,5.438,6.586,5.438
	c3.417,0,6.234-2.609,6.678-5.988C20.971,19.786,19.603,17.157,19.603,17.157z M5.675,21.839c-2.383,0-4.316-1.941-4.316-4.333
	c0-0.633,0.138-1.233,0.381-1.775H1.733l0.039-0.065c0.105-0.226,0.267-0.714,0.409-0.917l3.494-7.687l3.425,7.5l-0.855,1.921
	c-0.222,0.321-0.474,1.097-0.64,1.457l-0.059,0.105h0.009c-0.379,0.862-0.595,1.822-0.595,2.831c0,0.251,0.014,0.493,0.04,0.734
	C6.58,21.744,6.141,21.839,5.675,21.839z M13.706,26.765c-2.85,0-5.212-2.058-5.713-4.772c-0.048-0.262-0.067-0.528-0.08-0.798
	c-0.005-0.09-0.027-0.177-0.027-0.271c0-0.854,0.186-1.662,0.515-2.394h-0.01l0.051-0.087c0.143-0.308,0.36-0.96,0.552-1.232
	l0.641-1.41l0.406-0.895l3.665-8.064l1.988,4.355l0.453,0.994l2.364,5.174c0.251,0.541,0.314,0.769,0.455,1.067l0.057,0.098h-0.01
	c0.328,0.731,0.515,1.539,0.515,2.394c0,0.039-0.011,0.067-0.011,0.106c-0.006,0.286-0.04,0.566-0.085,0.839
	C18.979,24.645,16.597,26.765,13.706,26.765z"/>
<g>
	<path fill="#BCBCBC" d="M29.671,10.523c0,3.345-1.758,5.007-3.81,5.007c-1.979,0-3.687-1.588-3.712-4.787
		c0-3.174,1.733-4.957,3.835-4.957C28.206,5.786,29.671,7.497,29.671,10.523z M23.859,10.67c-0.048,2.025,0.708,3.564,2.052,3.564
		c1.416,0,2.05-1.514,2.05-3.613c0-1.93-0.561-3.541-2.05-3.541C24.567,7.081,23.859,8.668,23.859,10.67z M25.715,22.195
		l9.328-16.41h1.368l-9.329,16.41H25.715z M40,17.092c0,3.346-1.758,5.006-3.785,5.006c-1.977,0-3.687-1.588-3.711-4.762
		c0-3.199,1.734-4.982,3.834-4.982C38.559,12.354,40,14.065,40,17.092z M34.188,17.238c-0.024,2.027,0.758,3.564,2.075,3.564
		c1.416,0,2.053-1.514,2.053-3.613c0-1.929-0.563-3.541-2.053-3.541C34.922,13.649,34.188,15.236,34.188,17.238z"/>
</g>
</svg>
