<?xml version="1.0" encoding="utf-8"?>
<!-- Generator: Adobe Illustrator 15.1.0, SVG Export Plug-In . SVG Version: 6.00 Build 0)  -->
<!DOCTYPE svg PUBLIC "-//W3C//DTD SVG 1.1//EN" "http://www.w3.org/Graphics/SVG/1.1/DTD/svg11.dtd">
<svg version="1.1" id="Layer_1" xmlns="http://www.w3.org/2000/svg" xmlns:xlink="http://www.w3.org/1999/xlink" x="0px" y="0px"
	 width="158.74px" height="59.53px" viewBox="0 0 158.74 59.53" enable-background="new 0 0 158.74 59.53" xml:space="preserve">
<path fill="#EC2227" d="M150.65,45.634c0,7.399-6.365,13.391-14.234,13.391H22.342c-7.866,0-14.251-5.991-14.251-13.391V13.901
	c0-7.396,6.386-13.394,14.251-13.394h114.074c7.869,0,14.234,5.998,14.234,13.394V45.634z"/>
<path fill="#FFFFFF" d="M74.703,45.643H54.615V13.225h4.221V41.97h15.851v3.673H74.703z"/>
<path fill="#FFFFFF" d="M84.376,15.681c0,0.911-0.321,1.687-0.954,2.315c-0.645,0.64-1.405,0.952-2.32,0.952
	c-0.911,0-1.689-0.312-2.319-0.952c-0.645-0.629-0.942-1.404-0.942-2.315c0-0.907,0.307-1.673,0.942-2.314
	c0.633-0.634,1.411-0.954,2.319-0.954c0.915,0,1.676,0.32,2.32,0.954C84.055,14.007,84.376,14.773,84.376,15.681z M83.281,45.643
	h-4.226V22.49h4.226V45.643z"/>
<path fill="#FFFFFF" d="M100.646,45.643h-3.404L86.482,22.49h4.498l7.967,17.849l7.958-17.849h4.502L100.646,45.643z"/>
<path fill="#FFFFFF" d="M135.032,44.42c-3.32,1.223-6.471,1.835-9.463,1.835c-3.679,0-6.703-1.095-9.087-3.304
	c-2.378-2.2-3.579-5.052-3.579-8.542c0-3.859,1.189-6.987,3.548-9.399c2.318-2.267,5.269-3.401,8.845-3.401
	c6.993,0,10.563,4.383,10.702,13.13h-18.864c0.188,2.456,1.063,4.354,2.619,5.692c1.566,1.34,3.604,2.016,6.094,2.016
	c2.548,0,5.453-0.597,8.713-1.774L135.032,44.42z M131.767,31.078c-0.232-1.753-0.958-3.183-2.193-4.282
	c-1.218-1.099-2.798-1.651-4.701-1.651c-1.817,0-3.44,0.553-4.864,1.651c-1.439,1.099-2.306,2.529-2.624,4.282H131.767z"/>
<path fill="#FFFFFF" d="M43.083,31.131c0,6.011-4.876,10.874-10.886,10.874c-5.986,0-10.863-4.863-10.863-10.874
	c0-6.003,4.874-10.873,10.863-10.873C38.207,20.252,43.083,25.127,43.083,31.131z"/>
</svg>
