<?xml version="1.0" encoding="utf-8"?>
<!-- Generator: Adobe Illustrator 19.0.0, SVG Export Plug-In . SVG Version: 6.00 Build 0)  -->
<svg version="1.1" id="Layer_1" xmlns="http://www.w3.org/2000/svg" xmlns:xlink="http://www.w3.org/1999/xlink" x="0px" y="0px"
	 viewBox="174 228 1307 106" style="enable-background:new 174 228 1307 106;" xml:space="preserve">
<style type="text/css">
	.st0{fill:#C8C8C8;}
	.st1{enable-background:new    ;}
</style>
<g>
	<g>
		<path class="st0" d="M411.4,325.9V238h25.4c32.4,0,48.6,14.3,48.6,42.9c0,13.6-4.5,24.5-13.5,32.7c-9,8.2-21,12.4-36.2,12.4
			L411.4,325.9L411.4,325.9z M425.9,250.4v63.2h11.7c10.3,0,18.2-2.8,23.9-8.5c5.7-5.6,8.6-13.6,8.6-23.9
			c0-20.6-10.6-30.8-31.9-30.8C438.1,250.4,425.9,250.4,425.9,250.4z"/>
		<path class="st0" d="M529.3,302.4c0,13.4-6.3,20-19,20c-12.1,0-18.2-6.4-18.2-19.3v-29.1h7.9v27.5c0,9.3,3.6,14,10.9,14
			c7,0,10.5-4.5,10.5-13.5v-28h7.9L529.3,302.4L529.3,302.4z"/>
		<path class="st0" d="M538.3,319.8v-8.1c0.7,0.7,1.6,1.3,2.6,1.8s2.1,1,3.2,1.3c1.1,0.4,2.3,0.6,3.4,0.8c1.1,0.2,2.2,0.3,3.1,0.3
			c3.3,0,5.8-0.6,7.4-1.7c1.6-1.1,2.4-2.7,2.4-4.8c0-1.1-0.3-2.1-0.8-2.9c-0.5-0.8-1.3-1.6-2.3-2.3c-1-0.7-2.1-1.3-3.4-2
			c-1.3-0.6-2.7-1.3-4.2-2c-1.6-0.9-3.1-1.7-4.5-2.6c-1.4-0.9-2.6-1.9-3.6-2.9c-1-1.1-1.8-2.3-2.4-3.6c-0.6-1.4-0.9-2.9-0.9-4.7
			c0-2.2,0.5-4.2,1.5-5.8c1-1.6,2.3-3,4-4.1c1.6-1.1,3.5-1.9,5.6-2.4c2.1-0.5,4.2-0.8,6.4-0.8c5,0,8.6,0.6,10.9,1.7v7.8
			c-2.7-1.9-6.2-2.9-10.4-2.9c-1.2,0-2.3,0.1-3.5,0.3c-1.2,0.2-2.2,0.6-3.1,1.1c-0.9,0.5-1.7,1.2-2.2,2c-0.6,0.8-0.9,1.8-0.9,2.9
			c0,1.1,0.2,2,0.7,2.8c0.4,0.8,1.1,1.5,1.9,2.1c0.9,0.6,1.9,1.3,3.1,1.9c1.2,0.6,2.7,1.3,4.3,2c1.7,0.9,3.2,1.8,4.7,2.7
			c1.5,1,2.8,2,3.9,3.1c1.1,1.2,2,2.4,2.7,3.8c0.7,1.4,1,3,1,4.8c0,2.4-0.5,4.4-1.5,6.1c-1,1.7-2.3,3-3.9,4c-1.6,1-3.5,1.8-5.7,2.3
			c-2.1,0.5-4.4,0.7-6.8,0.7c-0.8,0-1.8-0.1-2.9-0.2c-1.2-0.1-2.3-0.3-3.6-0.5c-1.2-0.2-2.4-0.5-3.4-0.8
			C539.8,320.6,538.9,320.2,538.3,319.8z"/>
		<path class="st0" d="M607.3,280.8h-13.7v40.9h-7.9v-40.9h-13.6v-6.7h35.2L607.3,280.8L607.3,280.8z"/>
		<path class="st0" d="M650.6,321.7h-8.7l-4.3-12.1h-18.7l-4.1,12.1h-8.6l17.8-47.6h8.9L650.6,321.7z M635.6,303.1l-6.6-19
			c-0.2-0.6-0.4-1.6-0.6-3h-0.1c-0.2,1.3-0.4,2.3-0.7,3l-6.5,19H635.6z"/>
		<path class="st0" d="M684.9,280.8h-13.7v40.9h-7.9v-40.9h-13.6v-6.7h35.2L684.9,280.8L684.9,280.8z"/>
		<path class="st0" d="M700,321.7h-8.1v-47.6h8.1V321.7z"/>
		<path class="st0" d="M731.3,322.5c-6.9,0-12.3-2.2-16.5-6.7c-4.1-4.4-6.2-10.2-6.2-17.3c0-7.6,2.1-13.8,6.3-18.3
			c4.2-4.6,9.9-6.8,17.1-6.8c6.7,0,12.1,2.2,16.1,6.6c4.1,4.4,6.1,10.2,6.1,17.3c0,7.8-2.1,13.9-6.3,18.4
			C743.8,320.2,738.3,322.5,731.3,322.5z M731.6,280.2c-4.4,0-7.9,1.6-10.6,4.9c-2.7,3.3-4.1,7.5-4.1,12.8c0,5.3,1.3,9.5,4,12.8
			s6.1,4.8,10.4,4.8c4.6,0,8.1-1.5,10.8-4.6c2.6-3.1,3.9-7.4,3.9-12.9c0-5.7-1.3-10.1-3.8-13.2C739.6,281.8,736.1,280.2,731.6,280.2
			z"/>
		<path class="st0" d="M803.3,321.7h-8.6l-22.7-35c-0.6-0.9-1.1-1.8-1.4-2.8h-0.2c0.2,1,0.3,3.2,0.3,6.5v31.2H763v-47.6h9.2l22,34.1
			c0.9,1.4,1.5,2.4,1.8,2.9h0.1c-0.2-1.3-0.3-3.4-0.3-6.4v-30.6h7.6L803.3,321.7L803.3,321.7z"/>
		<g>
			<rect x="399.7" y="240.8" class="st0" width="5.1" height="5.1"/>
			<rect x="399.7" y="249" class="st0" width="5.1" height="5.1"/>
			<rect x="399.7" y="256.7" class="st0" width="5.1" height="5.1"/>
			<rect x="399.7" y="265" class="st0" width="5.1" height="5.1"/>
			<rect x="399.7" y="272.9" class="st0" width="5.1" height="5.1"/>
			<rect x="399.7" y="281.1" class="st0" width="5.1" height="5.1"/>
			<rect x="399.7" y="288.9" class="st0" width="5.1" height="5.1"/>
			<rect x="399.7" y="297.1" class="st0" width="5.1" height="5.1"/>
			<rect x="399.7" y="304.9" class="st0" width="5.1" height="5.1"/>
			<rect x="399.7" y="312.7" class="st0" width="5.1" height="5.1"/>
			<rect x="399.7" y="320.9" class="st0" width="5.1" height="5.1"/>
			<rect x="391.9" y="240.8" class="st0" width="5.1" height="5.1"/>
			<rect x="391.9" y="256.7" class="st0" width="5.1" height="5.1"/>
			<rect x="391.9" y="265" class="st0" width="5.1" height="5.1"/>
			<rect x="391.9" y="272.9" class="st0" width="5.1" height="5.1"/>
			<rect x="391.9" y="288.9" class="st0" width="5.1" height="5.1"/>
			<rect x="391.9" y="297.1" class="st0" width="5.1" height="5.1"/>
			<rect x="391.9" y="304.9" class="st0" width="5.1" height="5.1"/>
			<rect x="391.9" y="312.7" class="st0" width="5.1" height="5.1"/>
			<rect x="391.9" y="320.9" class="st0" width="5.1" height="5.1"/>
			<rect x="384.3" y="249" class="st0" width="5.1" height="5.1"/>
			<rect x="384.3" y="256.7" class="st0" width="5.1" height="5.1"/>
			<rect x="384.3" y="272.9" class="st0" width="5.1" height="5.1"/>
			<rect x="384.3" y="281.1" class="st0" width="5.1" height="5.1"/>
			<rect x="384.3" y="288.9" class="st0" width="5.1" height="5.1"/>
			<rect x="384.3" y="304.9" class="st0" width="5.1" height="5.1"/>
			<rect x="384.3" y="312.7" class="st0" width="5.1" height="5.1"/>
			<rect x="376.5" y="240.8" class="st0" width="5.1" height="5.1"/>
			<rect x="376.5" y="249" class="st0" width="5.1" height="5.1"/>
			<rect x="376.5" y="265" class="st0" width="5.1" height="5.1"/>
			<rect x="376.5" y="272.9" class="st0" width="5.1" height="5.1"/>
			<rect x="376.5" y="297.1" class="st0" width="5.1" height="5.1"/>
			<rect x="376.5" y="304.9" class="st0" width="5.1" height="5.1"/>
			<rect x="376.5" y="312.7" class="st0" width="5.1" height="5.1"/>
			<rect x="368.9" y="256.7" class="st0" width="5.1" height="5.1"/>
			<rect x="368.9" y="265" class="st0" width="5.1" height="5.1"/>
			<rect x="368.9" y="272.9" class="st0" width="5.1" height="5.1"/>
			<rect x="368.9" y="281.1" class="st0" width="5.1" height="5.1"/>
			<rect x="368.9" y="297.1" class="st0" width="5.1" height="5.1"/>
			<rect x="368.9" y="312.7" class="st0" width="5.1" height="5.1"/>
			<rect x="368.9" y="320.9" class="st0" width="5.1" height="5.1"/>
			<rect x="361.1" y="249" class="st0" width="5.1" height="5.1"/>
			<rect x="361.1" y="272.9" class="st0" width="5.1" height="5.1"/>
			<rect x="361.1" y="288.9" class="st0" width="5.1" height="5.1"/>
			<rect x="361.1" y="304.9" class="st0" width="5.1" height="5.1"/>
			<rect x="353.5" y="265" class="st0" width="5.1" height="5.1"/>
			<rect x="353.5" y="288.9" class="st0" width="5.1" height="5.1"/>
			<rect x="353.5" y="297.1" class="st0" width="5.1" height="5.1"/>
			<rect x="353.5" y="304.9" class="st0" width="5.1" height="5.1"/>
			<rect x="353.5" y="312.7" class="st0" width="5.1" height="5.1"/>
			<rect x="345.7" y="272.9" class="st0" width="5.1" height="5.1"/>
			<rect x="345.7" y="281.1" class="st0" width="5.1" height="5.1"/>
			<rect x="337.8" y="256.7" class="st0" width="5.1" height="5.1"/>
			<rect x="337.8" y="265" class="st0" width="5.1" height="5.1"/>
			<rect x="337.8" y="281.1" class="st0" width="5.1" height="5.1"/>
			<rect x="337.8" y="288.9" class="st0" width="5.1" height="5.1"/>
			<rect x="337.8" y="297.1" class="st0" width="5.1" height="5.1"/>
			<rect x="337.8" y="304.9" class="st0" width="5.1" height="5.1"/>
			<rect x="330" y="272.9" class="st0" width="5.1" height="5.1"/>
			<rect x="330" y="288.9" class="st0" width="5.1" height="5.1"/>
			<rect x="322.4" y="265" class="st0" width="5.1" height="5.1"/>
			<rect x="322.4" y="288.9" class="st0" width="5.1" height="5.1"/>
			<rect x="322.4" y="297.1" class="st0" width="5.1" height="5.1"/>
			<rect x="322.4" y="304.9" class="st0" width="5.1" height="5.1"/>
			<rect x="314.6" y="281.1" class="st0" width="5.1" height="5.1"/>
			<rect x="307" y="288.9" class="st0" width="5.1" height="5.1"/>
			<rect x="307" y="297.1" class="st0" width="5.1" height="5.1"/>
			<rect x="291.6" y="288.9" class="st0" width="5.1" height="5.1"/>
		</g>
	</g>
	<g class="st1">
		<path class="st0" d="M604.6,261.4h-1.5l-1.2-16.6l-6.1,16.6h-1l-6.1-16.6l-1.2,16.6h-1.5l1.3-18.9h1.8l6.1,16.9l6.1-16.9h1.8
			L604.6,261.4z"/>
		<path class="st0" d="M620.8,254.7c0,2-0.6,3.7-1.9,5c-1.2,1.4-2.9,2.1-4.9,2.1s-3.7-0.7-4.9-2.1c-1.2-1.4-1.9-3.1-1.9-5
			s0.6-3.7,1.9-5c1.2-1.4,2.9-2,4.9-2c2,0,3.7,0.7,4.9,2C620.2,251.1,620.8,252.8,620.8,254.7z M619.3,254.7c0-1.6-0.5-3-1.5-4.1
			c-1-1.1-2.2-1.6-3.8-1.6s-2.8,0.5-3.8,1.6c-1,1.1-1.5,2.5-1.5,4.1c0,1.6,0.5,3,1.5,4.1c1,1.1,2.2,1.7,3.8,1.7s2.8-0.6,3.8-1.7
			C618.8,257.8,619.3,256.4,619.3,254.7z"/>
		<path class="st0" d="M635.3,261.4h-1.5v-7.6c0-3.2-1.3-4.8-4-4.8c-1.1,0-2.1,0.5-2.9,1.4c-0.9,0.9-1.3,1.9-1.3,2.9v8.1H624v-10.1
			c0-0.7-0.1-1.8-0.3-3.3h1.5c0.2,0.6,0.3,1.4,0.3,2.4c1-1.8,2.5-2.7,4.6-2.7c3.5,0,5.3,2,5.3,6.1V261.4z"/>
		<path class="st0" d="M641.5,243.9c0,0.4-0.1,0.7-0.4,0.9c-0.2,0.2-0.5,0.3-0.9,0.3c-0.4,0-0.7-0.1-0.9-0.3
			c-0.2-0.2-0.3-0.5-0.3-0.9c0-0.4,0.1-0.7,0.3-0.9c0.2-0.2,0.5-0.4,0.9-0.4c0.4,0,0.7,0.1,0.9,0.4
			C641.3,243.2,641.5,243.5,641.5,243.9z M641,261.4h-1.5V248h1.5V261.4z"/>
		<path class="st0" d="M651.4,260.3l0.2,1.2c-0.5,0.2-1.2,0.3-2.1,0.3c-1.2,0-2-0.4-2.7-1.3c-0.5-0.8-0.8-1.8-0.8-3v-8.3h-2.7V248
			h2.7v-4l1.5-0.7v4.7h4.3v1.2h-4.3v8.3c0,2,0.7,3,2,3C650.4,260.5,651,260.4,651.4,260.3z"/>
		<path class="st0" d="M667.2,254.7c0,2-0.6,3.7-1.9,5c-1.2,1.4-2.9,2.1-4.9,2.1c-2,0-3.7-0.7-4.9-2.1c-1.2-1.4-1.9-3.1-1.9-5
			s0.6-3.7,1.9-5c1.2-1.4,2.9-2,4.9-2c2,0,3.7,0.7,4.9,2C666.5,251.1,667.2,252.8,667.2,254.7z M665.6,254.7c0-1.6-0.5-3-1.5-4.1
			c-1-1.1-2.2-1.6-3.8-1.6s-2.8,0.5-3.8,1.6c-1,1.1-1.5,2.5-1.5,4.1c0,1.6,0.5,3,1.5,4.1s2.2,1.7,3.8,1.7s2.8-0.6,3.8-1.7
			S665.6,256.4,665.6,254.7z"/>
		<path class="st0" d="M676.5,249c-0.1,0-0.2,0-0.5,0c-2,0-3.4,1.3-4,3.8c-0.1,0.3-0.1,0.7-0.1,1.4v7.3h-1.5v-9.1
			c0-2-0.1-3.4-0.4-4.4h1.3c0.3,0.6,0.4,1.5,0.4,2.7c0.8-2,2.2-3,4.1-3c0.2,0,0.5,0,0.8,0.1V249L676.5,249z"/>
		<path class="st0" d="M680.9,243.9c0,0.4-0.1,0.7-0.4,0.9c-0.2,0.2-0.5,0.3-0.9,0.3c-0.4,0-0.7-0.1-0.9-0.3
			c-0.2-0.2-0.3-0.5-0.3-0.9c0-0.4,0.1-0.7,0.3-0.9c0.2-0.2,0.5-0.4,0.9-0.4c0.4,0,0.7,0.1,0.9,0.4
			C680.8,243.2,680.9,243.5,680.9,243.9z M680.5,261.4h-1.5V248h1.5V261.4z"/>
		<path class="st0" d="M695.9,261.4h-1.5v-7.6c0-3.2-1.3-4.8-4-4.8c-1.1,0-2.1,0.5-2.9,1.4c-0.9,0.9-1.3,1.9-1.3,2.9v8.1h-1.5v-10.1
			c0-0.7-0.1-1.8-0.3-3.3h1.5c0.2,0.6,0.3,1.4,0.3,2.4c1-1.8,2.5-2.7,4.6-2.7c3.5,0,5.3,2,5.3,6.1V261.4z"/>
		<path class="st0" d="M708.9,252.4c0,1.5-0.5,2.7-1.4,3.5c-0.9,0.9-2,1.3-3.4,1.3c-0.8,0-1.5-0.1-2.1-0.4c-0.2,0.4-0.2,0.8-0.2,1.1
			c0,0.7,1.1,1.3,3.2,1.9c2.5,0.7,3.8,2,3.8,3.9c0,1.1-0.4,2.1-1.2,2.8c-0.8,0.7-2,1.1-3.6,1.1c-1.4,0-2.7-0.3-3.8-1l0.6-1.3
			c1.1,0.7,2.3,1,3.4,1c1,0,1.8-0.2,2.4-0.7c0.6-0.5,1-1,1-1.7c0-1.3-1-2.3-3.1-2.9c-1.3-0.4-2.1-0.8-2.6-1.1
			c-0.8-0.5-1.2-1.2-1.2-1.9c0-0.5,0.1-1.1,0.4-1.9c-1-1.1-1.5-2.2-1.5-3.4c0-1.4,0.5-2.6,1.4-3.5c0.9-0.9,2-1.3,3.2-1.3h5.3v1.3
			l-1.9-0.2C708.4,250.1,708.9,251.2,708.9,252.4z M707.5,252.6c0-0.9-0.3-1.6-0.8-2.3c-0.6-0.8-1.5-1.2-2.6-1.2
			c-1.1,0-1.9,0.4-2.4,1.1c-0.6,0.7-0.9,1.5-0.9,2.5c0,1.1,0.4,1.9,1.1,2.5c0.7,0.6,1.4,0.9,2.2,0.9c0.9,0,1.7-0.3,2.4-0.9
			S707.5,253.7,707.5,252.6z"/>
		<path class="st0" d="M731.5,256.5c0,1.4-0.5,2.6-1.5,3.6c-1.2,1.1-2.8,1.7-4.9,1.7c-2.1,0-3.8-0.5-5.2-1.4l0.6-1.3
			c1.3,1,2.9,1.5,4.7,1.5c1.5,0,2.6-0.3,3.5-1c0.8-0.7,1.3-1.6,1.3-2.8c0-1.1-0.3-1.9-1-2.6c-0.6-0.6-1.7-1.2-3.2-1.7
			c-3.5-1.1-5.2-2.9-5.2-5.3c0-1.4,0.5-2.6,1.6-3.5c1.1-0.9,2.5-1.4,4.2-1.4c1.8,0,3.2,0.3,4.3,1c-0.2,0.4-0.5,0.9-0.7,1.2
			c-1.1-0.6-2.4-0.9-3.7-0.9c-1.5,0-2.6,0.4-3.4,1.1c-0.6,0.6-1,1.4-1,2.2c0,1.7,1.4,3.1,4.2,4c1.8,0.6,3.1,1.3,3.9,2.1
			C731.1,253.9,731.5,255.1,731.5,256.5z"/>
		<path class="st0" d="M740.1,261.4c-1.6,3.5-3.6,5.6-6.2,6.2l-0.4-1.2c2.2-0.5,3.9-2.3,5.1-5.4c0-0.1,0-0.2-0.1-0.5l-5.6-12.6h1.7
			l5,11.4l4.7-11.4h1.7L740.1,261.4z"/>
		<path class="st0" d="M756,257.9c0,1.1-0.4,2.1-1.3,2.8c-0.9,0.7-2.1,1.1-3.6,1.1c-1.3,0-2.6-0.4-3.8-1.1l0.6-1.3
			c1.3,0.7,2.4,1,3.3,1c2.2,0,3.3-0.8,3.3-2.5c0-1.3-1-2.3-3.1-2.9c-2.4-0.7-3.6-2-3.6-3.6c0-1,0.4-1.9,1.1-2.7
			c0.8-0.7,1.8-1.1,3.2-1.1c1.4,0,2.5,0.3,3.3,0.9l-0.6,1.3c-0.8-0.6-1.8-0.9-3-0.9c-0.8,0-1.5,0.2-2,0.7c-0.5,0.4-0.7,1-0.7,1.7
			c0,1.1,1,1.9,3.1,2.7C754.8,254.7,756,256.1,756,257.9z"/>
		<path class="st0" d="M765.6,260.3l0.2,1.2c-0.5,0.2-1.2,0.3-2.1,0.3c-1.2,0-2-0.4-2.7-1.3c-0.5-0.8-0.8-1.8-0.8-3v-8.3h-2.7V248
			h2.7v-4l1.5-0.7v4.7h4.3v1.2h-4.3v8.3c0,2,0.7,3,2,3C764.6,260.5,765.3,260.4,765.6,260.3z"/>
		<path class="st0" d="M779.6,259.5l0.1,1.3c-1.5,0.6-3.2,1-5,1c-2.1,0-3.7-0.6-5-1.9c-1.3-1.3-1.9-2.9-1.9-4.8c0-2.2,0.6-4,1.9-5.3
			s2.9-2,4.9-2c3.8,0,5.7,2.4,5.8,7.1h-11c0.1,1.8,0.6,3.2,1.6,4.2c1,1,2.3,1.5,3.9,1.5C776.5,260.5,778.1,260.2,779.6,259.5z
			 M778.9,253.6c0-1.1-0.3-2-0.9-2.9c-0.8-1.2-2-1.7-3.6-1.7c-1.5,0-2.6,0.5-3.6,1.6c-0.7,0.8-1.2,1.9-1.4,3.1H778.9z"/>
		<path class="st0" d="M803.3,261.4h-1.5V254c0-1.5-0.3-2.7-0.9-3.7c-0.6-0.9-1.5-1.4-2.7-1.4c-1,0-1.9,0.4-2.7,1.2
			c-0.8,0.8-1.2,1.7-1.2,2.7v8.5h-1.5v-8.1c0-2.9-1.1-4.3-3.4-4.3c-1.1,0-2,0.5-2.9,1.4c-0.8,0.9-1.3,1.9-1.3,2.9v8.1h-1.5v-10.1
			c0-0.7-0.1-1.8-0.3-3.3h1.5c0.2,0.6,0.3,1.4,0.3,2.4c1-1.8,2.5-2.7,4.5-2.7c1.8,0,3.2,1,4.1,3c1.1-2,2.7-3,4.8-3
			c1.5,0,2.6,0.6,3.5,1.7c0.8,1.1,1.3,2.6,1.3,4.6L803.3,261.4L803.3,261.4z"/>
	</g>
	<rect x="848.6" y="238.5" class="st0" width="7.5" height="85.8"/>
	<path class="st0" d="M900,260.7c-0.2,1.1-0.9,2-1.9,2.7c-1,0.7-2.2,1-3.5,1c-1.4,0-2.6-0.4-3.6-1.1l1-1.5c0.8,0.8,1.9,1.1,3,1.1
		c0.9,0,1.6-0.2,2.2-0.6c0.6-0.4,0.9-0.9,1-1.5c0.2-1.1-0.4-1.9-2-2.4c-2.3-0.8-3.3-2-3-3.6c0.2-1,0.8-1.8,1.7-2.4
		c0.9-0.6,2-1,3.3-1c1.2,0,2.3,0.3,3.1,0.8l-1,1.3c-0.8-0.4-1.6-0.7-2.4-0.7c-0.8,0-1.4,0.2-1.9,0.5s-0.9,0.8-1,1.3
		c-0.2,1,0.5,1.7,2.1,2.3c1.3,0.4,2.1,0.9,2.6,1.5C900.1,259,900.2,259.8,900,260.7z"/>
	<path class="st0" d="M903,264.2h-1.7l1.9-9h1.7L903,264.2z M905.8,252.6c-0.1,0.4-0.3,0.7-0.6,0.9c-0.3,0.2-0.6,0.4-1,0.4
		c-0.4,0-0.6-0.1-0.8-0.4c-0.2-0.2-0.3-0.5-0.2-0.9c0.1-0.4,0.3-0.7,0.6-0.9c0.3-0.2,0.6-0.4,1-0.4c0.4,0,0.6,0.1,0.8,0.4
		C905.8,251.9,905.9,252.2,905.8,252.6z"/>
	<path class="st0" d="M920.2,262.2c-0.1,0.4-0.1,0.8-0.1,1.1c0,0.3,0.1,0.5,0.3,0.8l-1.6,0.6c-0.2-0.2-0.3-0.6-0.3-1.1
		c-0.1-0.5,0-1,0.1-1.6l0.6-2.6c0.2-0.8,0.1-1.5-0.1-2c-0.3-0.6-0.8-0.9-1.5-0.9c-0.6,0-1.2,0.2-1.8,0.7c-0.6,0.5-1,1-1.1,1.5
		l-1.2,5.7h-1.7l1.1-5.4c0.4-1.6-0.1-2.4-1.5-2.4c-0.6,0-1.2,0.3-1.9,0.8c-0.7,0.5-1.1,1.1-1.2,1.7l-1.1,5.4h-1.7l1.4-6.6
		c0.1-0.4,0.2-0.8,0.2-1.2c0.1-0.4,0-0.8-0.2-1.2l1.5-0.3c0.2,0.4,0.3,0.9,0.2,1.5c0.4-0.5,0.9-0.9,1.5-1.2c0.6-0.2,1.2-0.4,1.7-0.4
		c1.2,0,2,0.5,2.5,1.5c1.1-1,2.4-1.5,3.7-1.5c1,0,1.8,0.4,2.3,1.2c0.5,0.8,0.6,1.8,0.4,3.1L920.2,262.2z"/>
	<path class="st0" d="M932.8,259.5c-0.3,1.5-1,2.7-2.1,3.6c-1.1,0.9-2.3,1.4-3.6,1.4c-1.2,0-2.2-0.4-2.8-1.1l-1,4.6h-1.6l2.4-11.5
		c0.1-0.4,0-0.8-0.2-1.2l1.5-0.3c0.2,0.4,0.3,0.9,0.2,1.5c1.1-1.1,2.3-1.6,3.8-1.6c1.3,0,2.3,0.4,2.9,1.3
		C932.9,257.1,933,258.1,932.8,259.5z M931.1,259.5c0.2-0.9,0.1-1.7-0.4-2.3c-0.4-0.6-1.1-0.9-2-0.9c-0.7,0-1.5,0.3-2.2,0.8
		c-0.8,0.6-1.2,1.2-1.4,1.9l-0.3,1.5c-0.2,0.7,0,1.3,0.5,1.8c0.5,0.5,1.1,0.8,1.9,0.8c1,0,1.8-0.3,2.5-0.9
		C930.5,261.4,930.9,260.6,931.1,259.5z"/>
	<path class="st0" d="M937.7,264.4c-2.6-0.1-3.6-1.8-2.9-4.8l1.9-8.7h1.7l-1.8,8.3c-0.3,1.4-0.3,2.3,0,2.9c0.3,0.5,0.8,0.7,1.6,0.8
		L937.7,264.4z"/>
	<path class="st0" d="M943.6,264c-1.6,2.3-3.4,3.7-5.5,4.2l-0.1-1.4c1.6-0.4,3-1.4,4.1-3.3l-2.2-8.3h1.8l1.7,6.7l4.4-6.7h1.8
		L943.6,264z"/>
	<path class="st0" d="M957.3,263.6c-0.7,3-2.1,4.5-4.5,4.5c-0.7,0-1.3-0.2-1.7-0.6l0.7-1.2c0.5,0.3,1,0.4,1.3,0.4c1.2,0,2-1,2.5-3.1
		l1.5-7.1h-1.5l0.3-1.4h1.5c0.6-3,2.1-4.5,4.5-4.5c0.7,0,1.3,0.2,1.7,0.6l-0.7,1.2c-0.5-0.3-1-0.4-1.4-0.4c-1.2,0-2,1-2.5,3.1h2.6
		l-0.3,1.4h-2.6L957.3,263.6z"/>
	<path class="st0" d="M971.4,259.6c-0.3,1.3-1,2.5-2.1,3.4c-1.1,0.9-2.3,1.4-3.7,1.4c-1.4,0-2.4-0.5-3.1-1.4c-0.7-0.9-0.9-2-0.6-3.4
		c0.3-1.3,1-2.5,2.1-3.4c1.1-0.9,2.3-1.4,3.7-1.4c1.4,0,2.4,0.5,3.1,1.4C971.5,257.2,971.7,258.3,971.4,259.6z M969.8,259.6
		c0.2-0.9,0.1-1.7-0.4-2.4c-0.4-0.6-1.1-1-2-1c-0.9,0-1.7,0.3-2.4,1c-0.7,0.6-1.2,1.4-1.4,2.4c-0.2,0.9-0.1,1.7,0.4,2.4
		c0.4,0.6,1.1,1,2,1c0.9,0,1.7-0.3,2.5-1C969.2,261.4,969.6,260.6,969.8,259.6z"/>
	<path class="st0" d="M978.9,256.4c-0.1,0-0.3-0.1-0.6-0.1c-1.7,0-2.7,1-3.1,3l-1,4.8h-1.7l1.2-5.9c0.1-0.6,0.2-1.2,0.3-1.8
		c0.1-0.4,0-0.8-0.2-1.2l1.5-0.3c0.2,0.4,0.3,1,0.1,1.7c0.4-0.5,0.8-0.9,1.4-1.2c0.6-0.3,1.1-0.4,1.6-0.4c0.4,0,0.6,0,0.8,0.1
		L978.9,256.4z"/>
	<path class="st0" d="M995.5,258.5c0,1.6-0.6,3-1.7,4.1c-1.1,1.2-2.4,1.8-4,1.8c-2.8,0-4.1-1-4.1-3c0-0.3,0-0.6,0.1-0.9l2-9.2h1.7
		l-1,4.6c0.9-0.7,2-1.1,3.2-1.1c1.1,0,2,0.3,2.7,1C995.2,256.5,995.5,257.4,995.5,258.5z M994,258.7c0-1.6-0.8-2.5-2.5-2.5
		c-0.8,0-1.6,0.2-2.3,0.7c-0.7,0.5-1.1,1.1-1.2,1.8l-0.5,1.9c-0.1,0.2-0.1,0.4-0.1,0.7c0,0.5,0.2,0.8,0.7,1.1s1.1,0.5,2,0.5
		c1,0,1.9-0.4,2.7-1.3C993.6,260.9,994,259.9,994,258.7z"/>
	<path class="st0" d="M1005.9,257.7c0,0.9-0.5,1.6-1.4,2.1c-0.8,0.4-1.8,0.6-3,0.6c-1.1,0-2.1-0.1-3.2-0.2c0,0.1,0,0.2,0,0.3
		c0,0.8,0.3,1.4,0.8,1.8c0.5,0.4,1.2,0.6,2,0.6c1,0,2.1-0.2,3.6-0.7l-0.1,1.5c-1.4,0.5-2.6,0.7-3.8,0.7c-1.2,0-2.2-0.3-2.9-0.9
		c-0.7-0.6-1.1-1.5-1.1-2.5c0-1.7,0.6-3.1,1.8-4.3c1.2-1.2,2.6-1.8,4.2-1.8C1004.8,254.9,1005.9,255.8,1005.9,257.7z M1004.4,257.7
		c0-1-0.7-1.4-2.1-1.4c-0.7,0-1.5,0.3-2.2,0.8c-0.7,0.5-1.3,1.2-1.5,1.9c0.5,0.1,1.3,0.2,2.5,0.2
		C1003.3,259.1,1004.4,258.6,1004.4,257.7z"/>
	<path class="st0" d="M1011.9,264c-0.6,0.2-1.2,0.4-1.8,0.4c-0.8,0-1.4-0.3-1.7-0.8c-0.4-0.5-0.4-1.3-0.2-2.2l1-4.8h-1.8l0.3-1.4
		h1.8l0.5-2.5l1.8-0.7l-0.7,3.2h2.9l-0.3,1.4h-2.9l-1,4.8c-0.2,1.1,0,1.6,0.7,1.6c0.4,0,1-0.1,1.6-0.3L1011.9,264z"/>
	<path class="st0" d="M1018.7,264c-0.6,0.2-1.2,0.4-1.8,0.4c-0.8,0-1.4-0.3-1.7-0.8c-0.4-0.5-0.4-1.3-0.2-2.2l1-4.8h-1.8l0.3-1.4
		h1.8l0.5-2.5l1.8-0.7l-0.7,3.2h2.9l-0.3,1.4h-2.9l-1,4.8c-0.2,1.1,0,1.6,0.7,1.6c0.4,0,1-0.1,1.6-0.3L1018.7,264z"/>
	<path class="st0" d="M1029.8,257.7c0,0.9-0.5,1.6-1.4,2.1c-0.8,0.4-1.8,0.6-3,0.6c-1.1,0-2.1-0.1-3.2-0.2c0,0.1,0,0.2,0,0.3
		c0,0.8,0.3,1.4,0.8,1.8c0.5,0.4,1.2,0.6,2,0.6c1,0,2.1-0.2,3.6-0.7l-0.1,1.5c-1.4,0.5-2.6,0.7-3.8,0.7c-1.2,0-2.2-0.3-2.9-0.9
		c-0.7-0.6-1.1-1.5-1.1-2.5c0-1.7,0.6-3.1,1.8-4.3c1.2-1.2,2.6-1.8,4.2-1.8C1028.7,254.9,1029.8,255.8,1029.8,257.7z M1028.4,257.7
		c0-1-0.7-1.4-2.1-1.4c-0.7,0-1.5,0.3-2.2,0.8c-0.7,0.5-1.3,1.2-1.5,1.9c0.5,0.1,1.3,0.2,2.5,0.2
		C1027.3,259.1,1028.4,258.6,1028.4,257.7z"/>
	<path class="st0" d="M1037.2,256.4c-0.1,0-0.3-0.1-0.6-0.1c-1.7,0-2.7,1-3.1,3l-1,4.8h-1.7l1.2-5.9c0.1-0.6,0.2-1.2,0.3-1.8
		c0.1-0.4,0-0.8-0.2-1.2l1.5-0.3c0.2,0.4,0.3,1,0.1,1.7c0.4-0.5,0.8-0.9,1.4-1.2c0.6-0.3,1.1-0.4,1.6-0.4c0.4,0,0.6,0,0.8,0.1
		L1037.2,256.4z"/>
	<path class="st0" d="M1047.1,264.4c-2.6-0.1-3.6-1.8-2.9-4.8l1.9-8.7h1.7l-1.8,8.3c-0.3,1.4-0.3,2.3,0,2.9c0.3,0.5,0.8,0.7,1.6,0.8
		L1047.1,264.4z"/>
	<path class="st0" d="M1050.5,264.2h-1.7l1.9-9h1.7L1050.5,264.2z M1053.3,252.6c-0.1,0.4-0.3,0.7-0.6,0.9c-0.3,0.2-0.6,0.4-1,0.4
		c-0.4,0-0.6-0.1-0.8-0.4c-0.2-0.2-0.3-0.5-0.2-0.9c0.1-0.4,0.3-0.7,0.6-0.9c0.3-0.2,0.6-0.4,1-0.4c0.4,0,0.6,0.1,0.8,0.4
		C1053.4,251.9,1053.4,252.2,1053.3,252.6z"/>
	<path class="st0" d="M1055.5,263.6c-0.7,3-2.1,4.5-4.5,4.5c-0.7,0-1.3-0.2-1.7-0.6l0.7-1.2c0.5,0.3,1,0.4,1.3,0.4
		c1.2,0,2-1,2.5-3.1l1.5-7.1h-1.5l0.3-1.4h1.5c0.6-3,2.1-4.5,4.5-4.5c0.7,0,1.3,0.2,1.7,0.6l-0.7,1.2c-0.5-0.3-1-0.4-1.3-0.4
		c-1.2,0-2,1-2.5,3.1h2.6l-0.3,1.4h-2.6L1055.5,263.6z"/>
	<path class="st0" d="M1069.2,257.7c0,0.9-0.5,1.6-1.4,2.1c-0.8,0.4-1.8,0.6-3,0.6c-1.1,0-2.1-0.1-3.2-0.2c0,0.1,0,0.2,0,0.3
		c0,0.8,0.3,1.4,0.8,1.8c0.5,0.4,1.2,0.6,2,0.6c1,0,2.1-0.2,3.6-0.7l-0.1,1.5c-1.4,0.5-2.6,0.7-3.8,0.7c-1.2,0-2.2-0.3-2.9-0.9
		c-0.7-0.6-1.1-1.5-1.1-2.5c0-1.7,0.6-3.1,1.8-4.3c1.2-1.2,2.6-1.8,4.2-1.8C1068.2,254.9,1069.2,255.8,1069.2,257.7z M1067.8,257.7
		c0-1-0.7-1.4-2.1-1.4c-0.7,0-1.5,0.3-2.2,0.8c-0.7,0.5-1.3,1.2-1.5,1.9c0.5,0.1,1.3,0.2,2.5,0.2
		C1066.7,259.1,1067.8,258.6,1067.8,257.7z"/>
	<path class="st0" d="M1072.6,263.2c-0.1,0.4-0.3,0.7-0.6,0.9c-0.3,0.2-0.6,0.4-1,0.4c-0.4,0-0.6-0.1-0.8-0.4
		c-0.2-0.2-0.3-0.5-0.2-0.9c0.1-0.4,0.3-0.7,0.6-0.9c0.3-0.2,0.6-0.4,1-0.4c0.4,0,0.6,0.1,0.8,0.4
		C1072.6,262.5,1072.7,262.8,1072.6,263.2z"/>
	<path class="st0" d="M1077.1,263.2c-0.1,0.4-0.3,0.7-0.6,0.9c-0.3,0.2-0.6,0.4-1,0.4c-0.4,0-0.6-0.1-0.8-0.4
		c-0.2-0.2-0.2-0.5-0.2-0.9c0.1-0.4,0.3-0.7,0.6-0.9c0.3-0.2,0.6-0.4,1-0.4c0.4,0,0.6,0.1,0.8,0.4
		C1077.2,262.5,1077.2,262.8,1077.1,263.2z"/>
	<path class="st0" d="M1081.7,263.2c-0.1,0.4-0.3,0.7-0.6,0.9c-0.3,0.2-0.6,0.4-1,0.4c-0.4,0-0.6-0.1-0.8-0.4
		c-0.2-0.2-0.3-0.5-0.2-0.9c0.1-0.4,0.3-0.7,0.6-0.9c0.3-0.2,0.6-0.4,1-0.4c0.4,0,0.6,0.1,0.8,0.4
		C1081.7,262.5,1081.8,262.8,1081.7,263.2z"/>
	<path class="st0" d="M905.1,290.6h-2.1l-1.9-4.8h-5.8l-1.9,4.8h-2.1l6-14.6h1.6L905.1,290.6z M900.4,284.2l-2.1-6l-2.2,6H900.4z"/>
	<path class="st0" d="M909,277.3c0,0.4-0.1,0.7-0.4,1c-0.3,0.3-0.6,0.4-1,0.4c-0.4,0-0.7-0.1-1-0.4c-0.3-0.3-0.4-0.6-0.4-1
		c0-0.4,0.1-0.7,0.4-1c0.3-0.3,0.6-0.4,1-0.4c0.4,0,0.7,0.1,1,0.4C908.8,276.6,909,276.9,909,277.3z M908.5,290.6h-1.9v-10.3h1.9
		V290.6z"/>
	<path class="st0" d="M913.4,290.6h-1.9v-6.8c0-1.6-0.1-2.8-0.4-3.6h1.7c0.2,0.4,0.3,0.8,0.3,1.4c0.2-0.4,0.6-0.7,1.1-1.1
		c0.6-0.3,1.1-0.5,1.7-0.5c0.4,0,0.7,0,1,0.1v1.6c-0.2,0-0.4-0.1-0.7-0.1c-1.9,0-2.9,1.1-2.9,3.5L913.4,290.6L913.4,290.6z"/>
	<path class="st0" d="M935.8,294.9h-1.9v-5.3c-0.9,0.8-2,1.2-3.5,1.2c-1.5,0-2.8-0.5-3.8-1.6c-1-1.1-1.5-2.4-1.5-4.1
		c0-1.5,0.5-2.7,1.5-3.7c1-1,2.2-1.5,3.7-1.5c1.4,0,2.6,0.4,3.6,1.3l0.2-1.1h1.8c-0.1,0.7-0.1,1.8-0.1,3.5L935.8,294.9L935.8,294.9z
		 M933.9,286.3v-1.7c0-0.8-0.4-1.5-1.1-2.2c-0.8-0.6-1.6-1-2.4-1c-1,0-1.8,0.4-2.5,1.1c-0.7,0.7-1,1.6-1,2.7c0,1.2,0.3,2.2,0.9,2.9
		c0.6,0.7,1.5,1.1,2.6,1.1c0.9,0,1.7-0.3,2.4-0.9C933.6,287.8,933.9,287.1,933.9,286.3z"/>
	<path class="st0" d="M949,290.5l-1.8,0.4c-0.2-0.5-0.4-1.1-0.5-1.8c-1.2,1.2-2.4,1.8-3.6,1.8c-2.9,0-4.3-1.6-4.3-4.9v-5.6h1.9v5.4
		c0,2.3,0.9,3.4,2.6,3.4c0.7,0,1.5-0.3,2.2-0.8c0.7-0.6,1.1-1.2,1.1-1.9v-6.1h1.9v7.5C948.4,288.5,948.6,289.4,949,290.5z"/>
	<path class="st0" d="M959.9,290.5l-1.8,0.4l-0.3-1.3c-1,0.9-2.2,1.3-3.5,1.3c-1,0-1.9-0.3-2.6-0.8c-0.7-0.5-1-1.3-1.1-2.2
		c0-2.5,2.3-3.8,6.9-3.9c-0.2-1.5-1-2.3-2.5-2.3c-1.1,0-2.3,0.3-3.6,0.8l-0.2-1.7c1.4-0.4,2.7-0.6,3.9-0.6c2.8,0,4.3,1.5,4.3,4.4
		v3.4C959.4,288.6,959.6,289.5,959.9,290.5z M957.6,287.3v-1.8c-3.3,0.1-5,0.8-5,2.1c0,1.1,0.6,1.6,1.8,1.6c0.7,0,1.3-0.2,2-0.5
		C957.2,288.4,957.6,287.9,957.6,287.3z"/>
	<path class="st0" d="M967,290.8c-3-0.2-4.5-2-4.5-5.5v-9.9h1.9v9.5c0,1.5,0.2,2.6,0.7,3.3c0.4,0.5,1.1,0.9,2.1,0.9L967,290.8z"/>
	<path class="st0" d="M971.3,277.3c0,0.4-0.1,0.7-0.4,1c-0.3,0.3-0.6,0.4-1,0.4c-0.4,0-0.7-0.1-1-0.4c-0.3-0.3-0.4-0.6-0.4-1
		c0-0.4,0.1-0.7,0.4-1c0.3-0.3,0.6-0.4,1-0.4c0.4,0,0.7,0.1,1,0.4C971.1,276.6,971.3,276.9,971.3,277.3z M970.8,290.6h-1.9v-10.3
		h1.9V290.6z"/>
	<path class="st0" d="M979.6,290.4c-0.7,0.3-1.3,0.4-2,0.4c-0.9,0-1.6-0.3-2.2-0.9s-0.8-1.5-0.8-2.6v-5.5h-2.1v-1.6h2.1v-2.8
		l1.9-0.8v3.6h3.3v1.6h-3.3v5.4c0,1.2,0.4,1.8,1.2,1.8c0.5,0,1.1-0.1,1.7-0.3L979.6,290.4z"/>
	<path class="st0" d="M981.1,295.2l-0.5-1.6c1.8-0.4,3.1-1.6,4-3.7l-4.6-9.5h2.1l3.6,7.6l3.4-7.6h2.1l-4.7,10.1
		C985.1,293.1,983.4,294.6,981.1,295.2z"/>
	<path class="st0" d="M1015.5,290.6h-1.9v-5.7c0-0.9-0.2-1.7-0.6-2.3c-0.5-0.7-1.1-1-1.9-1c-0.7,0-1.3,0.3-1.9,0.8
		c-0.6,0.5-0.9,1.1-0.9,1.7v6.5h-1.9v-6.2c0-1.8-0.8-2.8-2.3-2.8c-0.7,0-1.3,0.3-2,0.9c-0.6,0.6-0.9,1.3-0.9,1.9v6.1h-1.9V283
		c0-1.3-0.1-2.2-0.2-2.7h1.8c0.1,0.4,0.2,0.8,0.2,1.2c0.3-0.4,0.7-0.8,1.4-1c0.6-0.3,1.3-0.4,1.9-0.4c1.3,0,2.4,0.6,3.2,1.7
		c1.1-1.1,2.4-1.7,3.9-1.7c1.2,0,2.2,0.4,2.9,1.3c0.8,0.9,1.1,2.1,1.1,3.5V290.6z"/>
	<path class="st0" d="M1027.6,290c-1.5,0.5-2.9,0.8-4.2,0.8c-1.6,0-3-0.5-4-1.5c-1.1-1-1.6-2.2-1.6-3.8c0-1.7,0.5-3.1,1.6-4.2
		c1-1,2.3-1.5,3.9-1.5c3.1,0,4.7,1.9,4.7,5.8h-8.4c0.1,1.1,0.5,1.9,1.2,2.5c0.7,0.6,1.6,0.9,2.7,0.9c1.1,0,2.4-0.3,3.9-0.8
		L1027.6,290z M1026.2,284.1c-0.1-0.8-0.4-1.4-1-1.9c-0.5-0.5-1.2-0.7-2.1-0.7c-0.8,0-1.5,0.2-2.2,0.7c-0.6,0.5-1,1.1-1.2,1.9
		H1026.2z"/>
	<path class="st0" d="M1038.8,290.5l-1.8,0.4l-0.3-1.3c-1,0.9-2.2,1.3-3.5,1.3c-1,0-1.9-0.3-2.6-0.8c-0.7-0.5-1-1.3-1.1-2.2
		c0-2.5,2.3-3.8,6.9-3.9c-0.2-1.5-1-2.3-2.5-2.3c-1.1,0-2.3,0.3-3.6,0.8l-0.2-1.7c1.4-0.4,2.7-0.6,3.9-0.6c2.8,0,4.3,1.5,4.3,4.4
		v3.4C1038.4,288.6,1038.5,289.5,1038.8,290.5z M1036.5,287.3v-1.8c-3.3,0.1-5,0.8-5,2.1c0,1.1,0.6,1.6,1.8,1.6c0.7,0,1.3-0.2,2-0.5
		C1036.1,288.4,1036.5,287.9,1036.5,287.3z"/>
	<path class="st0" d="M1048.1,287.7c0,0.9-0.4,1.7-1.1,2.3c-0.7,0.6-1.7,0.9-3,0.9c-1,0-2.1-0.3-3.3-1l0.8-1.5
		c0.8,0.6,1.7,0.8,2.7,0.8c1.4,0,2.1-0.5,2.1-1.5c0-0.8-0.7-1.3-2.1-1.8c-2-0.6-3-1.6-3-2.9c0-0.9,0.3-1.6,1-2.2
		c0.7-0.6,1.6-0.9,2.7-0.9c1.2,0,2.2,0.3,3,0.9l-0.7,1.4c-0.7-0.5-1.5-0.8-2.4-0.8c-0.5,0-1,0.1-1.3,0.4c-0.4,0.3-0.5,0.6-0.5,1
		c0,0.5,0.7,1,2.2,1.5C1047.1,285.2,1048.1,286.3,1048.1,287.7z"/>
	<path class="st0" d="M1060.6,290.5l-1.8,0.4c-0.2-0.5-0.4-1.1-0.5-1.8c-1.2,1.2-2.4,1.8-3.6,1.8c-2.8,0-4.3-1.6-4.3-4.9v-5.6h1.9
		v5.4c0,2.3,0.9,3.4,2.6,3.4c0.7,0,1.5-0.3,2.2-0.8c0.7-0.6,1.1-1.2,1.1-1.9v-6.1h1.9v7.5C1060,288.5,1060.2,289.4,1060.6,290.5z"/>
	<path class="st0" d="M1064.9,290.6h-1.9v-6.8c0-1.6-0.1-2.8-0.4-3.6h1.7c0.2,0.4,0.3,0.8,0.3,1.4c0.2-0.4,0.6-0.7,1.1-1.1
		c0.6-0.3,1.1-0.5,1.7-0.5c0.4,0,0.7,0,1,0.1v1.6c-0.2,0-0.4-0.1-0.7-0.1c-1.9,0-2.9,1.1-2.9,3.5L1064.9,290.6L1064.9,290.6z"/>
	<path class="st0" d="M1079.5,290c-1.5,0.5-2.9,0.8-4.2,0.8c-1.6,0-3-0.5-4-1.5c-1.1-1-1.6-2.2-1.6-3.8c0-1.7,0.5-3.1,1.6-4.2
		c1-1,2.3-1.5,3.9-1.5c3.1,0,4.7,1.9,4.7,5.8h-8.4c0.1,1.1,0.5,1.9,1.2,2.5c0.7,0.6,1.6,0.9,2.7,0.9c1.1,0,2.4-0.3,3.9-0.8
		L1079.5,290z M1078,284.1c-0.1-0.8-0.4-1.4-1-1.9c-0.5-0.5-1.2-0.7-2.1-0.7c-0.8,0-1.5,0.2-2.2,0.7c-0.6,0.5-1,1.1-1.2,1.9H1078z"
		/>
	<path class="st0" d="M1098.4,290.6h-1.9v-5.7c0-0.9-0.2-1.7-0.6-2.3c-0.5-0.7-1.1-1-1.9-1c-0.7,0-1.3,0.3-1.9,0.8
		c-0.6,0.5-0.9,1.1-0.9,1.7v6.5h-1.9v-6.2c0-1.8-0.8-2.8-2.3-2.8c-0.7,0-1.3,0.3-2,0.9c-0.6,0.6-0.9,1.3-0.9,1.9v6.1h-1.9V283
		c0-1.3-0.1-2.2-0.2-2.7h1.8c0.1,0.4,0.2,0.8,0.2,1.2c0.3-0.4,0.7-0.8,1.4-1c0.6-0.3,1.3-0.4,1.9-0.4c1.3,0,2.4,0.6,3.2,1.7
		c1.1-1.1,2.4-1.7,3.9-1.7c1.2,0,2.2,0.4,2.9,1.3c0.8,0.9,1.1,2.1,1.1,3.5L1098.4,290.6C1098.4,290.6,1098.4,290.6,1098.4,290.6z"/>
	<path class="st0" d="M1110.5,290c-1.5,0.5-2.9,0.8-4.2,0.8c-1.6,0-3-0.5-4-1.5c-1.1-1-1.6-2.2-1.6-3.8c0-1.7,0.5-3.1,1.6-4.2
		c1-1,2.3-1.5,3.9-1.5c3.1,0,4.7,1.9,4.7,5.8h-8.4c0.1,1.1,0.5,1.9,1.2,2.5c0.7,0.6,1.6,0.9,2.7,0.9c1.1,0,2.4-0.3,3.9-0.8
		L1110.5,290z M1109,284.1c-0.1-0.8-0.4-1.4-1-1.9c-0.5-0.5-1.2-0.7-2.1-0.7c-0.8,0-1.5,0.2-2.2,0.7c-0.6,0.5-1,1.1-1.2,1.9H1109z"
		/>
	<path class="st0" d="M1123,290.6h-1.9v-5.8c0-2.1-1-3.1-2.9-3.1c-0.7,0-1.4,0.3-2.1,0.9c-0.7,0.6-1,1.3-1,1.9v6.1h-1.9V283
		c0-1.3-0.1-2.2-0.2-2.7h1.8c0.1,0.4,0.2,0.8,0.2,1.3c1-1,2.1-1.5,3.5-1.5c1.4,0,2.5,0.4,3.3,1.3c0.8,0.8,1.2,2,1.2,3.5L1123,290.6
		L1123,290.6L1123,290.6z"/>
	<path class="st0" d="M1131.7,290.4c-0.7,0.3-1.3,0.4-2,0.4c-0.9,0-1.6-0.3-2.2-0.9c-0.5-0.6-0.8-1.5-0.8-2.6v-5.5h-2.1v-1.6h2.1
		v-2.8l1.9-0.8v3.6h3.3v1.6h-3.3v5.4c0,1.2,0.4,1.8,1.2,1.8c0.5,0,1.1-0.1,1.7-0.3L1131.7,290.4z"/>
	<path class="st0" d="M1149,290.5l-1.8,0.4l-0.3-1.3c-1,0.9-2.2,1.3-3.5,1.3c-1,0-1.9-0.3-2.6-0.8c-0.7-0.5-1-1.3-1.1-2.2
		c0-2.5,2.3-3.8,6.9-3.9c-0.2-1.5-1-2.3-2.5-2.3c-1.1,0-2.3,0.3-3.6,0.8l-0.2-1.7c1.4-0.4,2.7-0.6,3.9-0.6c2.8,0,4.3,1.5,4.3,4.4
		v3.4C1148.6,288.6,1148.7,289.5,1149,290.5z M1146.7,287.3v-1.8c-3.3,0.1-4.9,0.8-4.9,2.1c0,1.1,0.6,1.6,1.8,1.6
		c0.7,0,1.3-0.2,2-0.5C1146.4,288.4,1146.7,287.9,1146.7,287.3z"/>
	<path class="st0" d="M1161.4,290.6h-1.9v-5.8c0-2.1-1-3.1-2.9-3.1c-0.7,0-1.4,0.3-2.1,0.9c-0.7,0.6-1,1.3-1,1.9v6.1h-1.9V283
		c0-1.3-0.1-2.2-0.2-2.7h1.8c0.1,0.4,0.2,0.8,0.2,1.3c1-1,2.1-1.5,3.5-1.5c1.4,0,2.5,0.4,3.3,1.3c0.8,0.8,1.2,2,1.2,3.5
		L1161.4,290.6L1161.4,290.6z"/>
	<path class="st0" d="M1174.5,290.6h-1.8c-0.1-0.2-0.1-0.6-0.1-1.1c-0.9,0.9-2.2,1.4-3.7,1.4c-1.5,0-2.8-0.5-3.8-1.6
		c-1-1.1-1.5-2.4-1.5-4c0-1.5,0.5-2.8,1.5-3.8c1-1,2.2-1.5,3.7-1.5c1.5,0,2.7,0.5,3.7,1.4v-6h1.9v12.5
		C1174.4,288.7,1174.5,289.6,1174.5,290.6z M1172.5,286.7v-2.4c0-0.8-0.4-1.4-1.1-2c-0.7-0.6-1.5-0.8-2.4-0.8
		c-1.1,0-1.9,0.4-2.5,1.1c-0.6,0.7-0.9,1.6-0.9,2.7c0,1.2,0.3,2.2,0.9,2.9c0.6,0.7,1.5,1.1,2.6,1.1c1,0,1.8-0.2,2.5-0.7
		C1172.2,288.1,1172.5,287.5,1172.5,286.7z"/>
	<path class="st0" d="M1200.5,290.6h-1.9v-5.7c0-0.9-0.2-1.7-0.6-2.3c-0.5-0.7-1.1-1-1.9-1c-0.7,0-1.3,0.3-1.9,0.8
		c-0.6,0.5-0.9,1.1-0.9,1.7v6.5h-1.9v-6.2c0-1.8-0.8-2.8-2.3-2.8c-0.7,0-1.3,0.3-2,0.9c-0.6,0.6-0.9,1.3-0.9,1.9v6.1h-1.9V283
		c0-1.3-0.1-2.2-0.2-2.7h1.8c0.1,0.4,0.2,0.8,0.2,1.2c0.3-0.4,0.7-0.8,1.4-1c0.6-0.3,1.3-0.4,1.9-0.4c1.3,0,2.4,0.6,3.2,1.7
		c1.1-1.1,2.4-1.7,3.9-1.7c1.2,0,2.2,0.4,2.9,1.3c0.8,0.9,1.1,2.1,1.1,3.5L1200.5,290.6L1200.5,290.6z"/>
	<path class="st0" d="M1213.7,285.4c0,1.5-0.5,2.8-1.5,3.9c-1,1-2.3,1.6-3.9,1.6c-1.6,0-2.9-0.5-3.9-1.6c-1-1-1.5-2.3-1.5-3.9
		c0-1.5,0.5-2.8,1.5-3.9c1-1.1,2.3-1.6,3.9-1.6c1.6,0,2.9,0.5,3.9,1.6C1213.2,282.6,1213.7,283.9,1213.7,285.4z M1211.8,285.4
		c0-1.1-0.3-2-1-2.7c-0.7-0.7-1.5-1.1-2.6-1.1s-1.9,0.4-2.6,1.1c-0.7,0.7-1,1.6-1,2.7c0,1.1,0.3,2,1,2.7c0.7,0.7,1.5,1.1,2.6,1.1
		s1.9-0.4,2.6-1.1C1211.5,287.4,1211.8,286.5,1211.8,285.4z"/>
	<path class="st0" d="M1225.8,290.6h-1.9v-5.8c0-2.1-1-3.1-2.9-3.1c-0.7,0-1.4,0.3-2.1,0.9c-0.7,0.6-1,1.3-1,1.9v6.1h-1.9V283
		c0-1.3-0.1-2.2-0.2-2.7h1.8c0.1,0.4,0.2,0.8,0.2,1.3c1-1,2.1-1.5,3.5-1.5c1.4,0,2.5,0.4,3.3,1.3c0.8,0.8,1.2,2,1.2,3.5
		L1225.8,290.6L1225.8,290.6z"/>
	<path class="st0" d="M1231.1,277.3c0,0.4-0.1,0.7-0.4,1c-0.3,0.3-0.6,0.4-1,0.4c-0.4,0-0.7-0.1-1-0.4c-0.3-0.3-0.4-0.6-0.4-1
		c0-0.4,0.1-0.7,0.4-1c0.3-0.3,0.6-0.4,1-0.4c0.4,0,0.7,0.1,1,0.4C1231,276.6,1231.1,276.9,1231.1,277.3z M1230.7,290.6h-1.9v-10.3
		h1.9V290.6z"/>
	<path class="st0" d="M1239.5,290.4c-0.7,0.3-1.3,0.4-2,0.4c-0.9,0-1.6-0.3-2.2-0.9c-0.5-0.6-0.8-1.5-0.8-2.6v-5.5h-2.1v-1.6h2.1
		v-2.8l1.9-0.8v3.6h3.3v1.6h-3.3v5.4c0,1.2,0.4,1.8,1.2,1.8c0.5,0,1.1-0.1,1.7-0.3L1239.5,290.4z"/>
	<path class="st0" d="M1251.6,285.4c0,1.5-0.5,2.8-1.5,3.9c-1,1-2.3,1.6-3.9,1.6c-1.6,0-2.9-0.5-3.9-1.6s-1.5-2.3-1.5-3.9
		c0-1.5,0.5-2.8,1.5-3.9c1-1.1,2.3-1.6,3.9-1.6c1.6,0,2.9,0.5,3.9,1.6C1251.1,282.6,1251.6,283.9,1251.6,285.4z M1249.8,285.4
		c0-1.1-0.3-2-1-2.7c-0.7-0.7-1.5-1.1-2.6-1.1s-1.9,0.4-2.6,1.1c-0.7,0.7-1,1.6-1,2.7c0,1.1,0.3,2,1,2.7c0.7,0.7,1.5,1.1,2.6,1.1
		s1.9-0.4,2.6-1.1C1249.4,287.4,1249.8,286.5,1249.8,285.4z"/>
	<path class="st0" d="M1255.8,290.6h-1.9v-6.8c0-1.6-0.1-2.8-0.4-3.6h1.7c0.2,0.4,0.3,0.8,0.3,1.4c0.2-0.4,0.6-0.7,1.1-1.1
		c0.6-0.3,1.1-0.5,1.7-0.5c0.4,0,0.7,0,1,0.1v1.6c-0.2,0-0.4-0.1-0.7-0.1c-1.9,0-2.9,1.1-2.9,3.5L1255.8,290.6L1255.8,290.6z"/>
	<path class="st0" d="M1263.7,277.3c0,0.4-0.1,0.7-0.4,1c-0.3,0.3-0.6,0.4-1,0.4c-0.4,0-0.7-0.1-1-0.4c-0.3-0.3-0.4-0.6-0.4-1
		c0-0.4,0.1-0.7,0.4-1c0.3-0.3,0.6-0.4,1-0.4c0.4,0,0.7,0.1,1,0.4C1263.6,276.6,1263.7,276.9,1263.7,277.3z M1263.2,290.6h-1.9
		v-10.3h1.9V290.6z"/>
	<path class="st0" d="M1276,290.6h-1.9v-5.8c0-2.1-1-3.1-2.9-3.1c-0.7,0-1.4,0.3-2.1,0.9c-0.7,0.6-1,1.3-1,1.9v6.1h-1.9V283
		c0-1.3-0.1-2.2-0.2-2.7h1.8c0.1,0.4,0.2,0.8,0.2,1.3c1-1,2.1-1.5,3.5-1.5c1.4,0,2.5,0.4,3.3,1.3c0.8,0.8,1.2,2,1.2,3.5L1276,290.6
		L1276,290.6z"/>
	<path class="st0" d="M1286.3,292c0,0.9-0.3,1.7-1,2.3c-0.7,0.6-1.7,0.9-3,0.9c-1.1,0-2.2-0.3-3.4-1l0.7-1.5c1.1,0.6,2,0.9,2.8,0.9
		c0.6,0,1.1-0.1,1.6-0.4c0.4-0.3,0.6-0.6,0.6-1c0-0.6-0.6-1.1-1.7-1.6c-0.8-0.3-1.7-0.7-2.4-1.1c-0.8-0.4-1.2-1-1.2-1.7
		c0-0.3,0.1-0.7,0.3-1.2c-0.7-0.8-1.1-1.6-1.1-2.5c0-1.1,0.4-2,1.1-2.7c0.7-0.7,1.6-1.1,2.7-1.1h4.3v1.3h-1.5c0.4,0.1,0.7,0.5,0.9,1
		c0.2,0.4,0.3,0.8,0.3,1.3c0,1.2-0.3,2.1-1,2.8c-0.7,0.7-1.6,1-2.8,1c-0.4,0-0.9-0.1-1.3-0.2c-0.1,0.1-0.1,0.2-0.1,0.4
		c0,0.3,0.7,0.7,2.2,1.1C1285.3,289.4,1286.3,290.4,1286.3,292z M1284.7,283.8c0-0.6-0.2-1.1-0.6-1.5c-0.4-0.4-1-0.6-1.6-0.6
		c-0.6,0-1.1,0.2-1.6,0.6c-0.4,0.4-0.6,0.9-0.6,1.5c0,0.6,0.2,1.1,0.6,1.5c0.4,0.4,0.9,0.6,1.6,0.6c0.7,0,1.3-0.2,1.6-0.6
		C1284.5,284.9,1284.7,284.4,1284.7,283.8z"/>
	<path class="st0" d="M1302.5,287.7c0,0.9-0.4,1.7-1.1,2.3c-0.7,0.6-1.7,0.9-3,0.9c-1,0-2.1-0.3-3.3-1l0.8-1.5
		c0.8,0.6,1.7,0.8,2.7,0.8c1.4,0,2.1-0.5,2.1-1.5c0-0.8-0.7-1.3-2.1-1.8c-2-0.6-3-1.6-3-2.9c0-0.9,0.3-1.6,1-2.2
		c0.7-0.6,1.6-0.9,2.7-0.9c1.2,0,2.2,0.3,3,0.9l-0.7,1.4c-0.7-0.5-1.5-0.8-2.4-0.8c-0.5,0-1,0.1-1.3,0.4c-0.4,0.3-0.5,0.6-0.5,1
		c0,0.5,0.7,1,2.2,1.5C1301.6,285.2,1302.5,286.3,1302.5,287.7z"/>
	<path class="st0" d="M1304.3,295.2l-0.5-1.6c1.8-0.4,3.1-1.6,4-3.7l-4.6-9.5h2.1l3.6,7.6l3.4-7.6h2.1l-4.7,10.1
		C1308.3,293.1,1306.5,294.6,1304.3,295.2z"/>
	<path class="st0" d="M1322.4,287.7c0,0.9-0.4,1.7-1.1,2.3c-0.7,0.6-1.7,0.9-3,0.9c-1,0-2.1-0.3-3.3-1l0.8-1.5
		c0.8,0.6,1.7,0.8,2.7,0.8c1.4,0,2.1-0.5,2.1-1.5c0-0.8-0.7-1.3-2.1-1.8c-2-0.6-3-1.6-3-2.9c0-0.9,0.3-1.6,1-2.2
		c0.7-0.6,1.6-0.9,2.7-0.9c1.2,0,2.2,0.3,3,0.9l-0.7,1.4c-0.7-0.5-1.5-0.8-2.4-0.8c-0.5,0-1,0.1-1.3,0.4c-0.4,0.3-0.5,0.6-0.5,1
		c0,0.5,0.7,1,2.2,1.5C1321.4,285.2,1322.4,286.3,1322.4,287.7z"/>
	<path class="st0" d="M1330.4,290.4c-0.7,0.3-1.3,0.4-2,0.4c-0.9,0-1.6-0.3-2.2-0.9c-0.5-0.6-0.8-1.5-0.8-2.6v-5.5h-2.1v-1.6h2.1
		v-2.8l1.9-0.8v3.6h3.3v1.6h-3.3v5.4c0,1.2,0.4,1.8,1.2,1.8c0.5,0,1.1-0.1,1.7-0.3L1330.4,290.4z"/>
	<path class="st0" d="M1341.5,290c-1.5,0.5-2.9,0.8-4.2,0.8c-1.6,0-3-0.5-4-1.5c-1.1-1-1.6-2.2-1.6-3.8c0-1.7,0.5-3.1,1.6-4.2
		c1-1,2.3-1.5,3.9-1.5c3.1,0,4.7,1.9,4.7,5.8h-8.4c0.1,1.1,0.5,1.9,1.2,2.5c0.7,0.6,1.6,0.9,2.7,0.9c1.1,0,2.4-0.3,3.9-0.8
		L1341.5,290z M1340.1,284.1c-0.1-0.8-0.4-1.4-1-1.9c-0.5-0.5-1.2-0.7-2.1-0.7c-0.8,0-1.5,0.2-2.2,0.7c-0.6,0.5-1,1.1-1.2,1.9
		H1340.1z"/>
	<path class="st0" d="M1360.4,290.6h-1.9v-5.7c0-0.9-0.2-1.7-0.6-2.3c-0.5-0.7-1.1-1-1.9-1c-0.7,0-1.3,0.3-1.9,0.8
		c-0.6,0.5-0.9,1.1-0.9,1.7v6.5h-1.9v-6.2c0-1.8-0.8-2.8-2.3-2.8c-0.7,0-1.3,0.3-2,0.9c-0.6,0.6-0.9,1.3-0.9,1.9v6.1h-1.9V283
		c0-1.3-0.1-2.2-0.2-2.7h1.8c0.1,0.4,0.2,0.8,0.2,1.2c0.3-0.4,0.7-0.8,1.4-1c0.6-0.3,1.3-0.4,1.9-0.4c1.3,0,2.4,0.6,3.2,1.7
		c1.1-1.1,2.4-1.7,3.9-1.7c1.2,0,2.2,0.4,2.9,1.3c0.8,0.9,1.1,2.1,1.1,3.5L1360.4,290.6C1360.4,290.6,1360.4,290.6,1360.4,290.6z"/>
	<line class="st0" x1="1365.3" y1="283.7" x2="1475" y2="283.7"/>
</g>
<g>
	<path class="st0" d="M899.8,310.1c0,1-0.4,1.9-1.3,2.5c-0.8,0.6-2,1-3.3,1c-0.3,0-0.7,0-1.1-0.1v4.3h-1.4v-10.6
		c1.1-0.2,2-0.3,2.9-0.3c1.3,0,2.4,0.3,3.1,0.9C899.4,308.4,899.8,309.1,899.8,310.1z M898.4,310.2c0-1.4-1-2.1-2.9-2.1
		c-0.5,0-1,0-1.4,0.1v4.1c0.5,0.1,1,0.1,1.3,0.1C897.4,312.3,898.4,311.6,898.4,310.2z"/>
	<path class="st0" d="M912.7,317.8h-1.4l-0.6-8.4l-3.4,8.4h-0.9l-3.4-8.4l-0.6,8.4H901l0.8-10.8h1.5l3.6,9l3.6-9h1.5L912.7,317.8z"
		/>
	<path class="st0" d="M920.3,317.8h-4.8v-1.2h1.7v-7.5l-1.4,1.2l-0.8-0.9l2.9-2.4c0.6,0,0.8,0.4,0.8,1.1v8.6h1.7V317.8z"/>
	<path class="st0" d="M924.9,316.9c0,0.3-0.1,0.6-0.3,0.8c-0.2,0.2-0.5,0.3-0.8,0.3c-0.3,0-0.6-0.1-0.8-0.3
		c-0.2-0.2-0.3-0.5-0.3-0.8c0-0.3,0.1-0.6,0.3-0.8c0.2-0.2,0.5-0.3,0.8-0.3c0.3,0,0.6,0.1,0.8,0.3
		C924.8,316.3,924.9,316.6,924.9,316.9z"/>
	<path class="st0" d="M933.7,312.5c0,1.5-0.3,2.8-1,3.9c-0.6,1.1-1.5,1.6-2.7,1.6c-1.1,0-2-0.5-2.6-1.6c-0.6-1.1-1-2.4-1-3.9
		c0-1.5,0.3-2.8,1-3.9c0.6-1.1,1.5-1.6,2.6-1.6c1.2,0,2.1,0.5,2.7,1.6C933.4,309.6,933.7,310.9,933.7,312.5z M932.2,312.5
		c0-1.3-0.2-2.3-0.5-3.1c-0.4-0.8-0.9-1.2-1.6-1.2c-0.7,0-1.3,0.4-1.7,1.2c-0.4,0.8-0.5,1.8-0.5,3.1c0,1.3,0.2,2.3,0.5,3.1
		c0.4,0.8,0.9,1.2,1.6,1.2c0.7,0,1.3-0.4,1.6-1.2C932.1,314.8,932.2,313.7,932.2,312.5z"/>
	<path class="st0" d="M947.2,321.5h-1.3v-15.7h1.3V321.5z"/>
	<path class="st0" d="M967.1,310.1c0,1-0.4,1.9-1.3,2.5c-0.8,0.6-2,1-3.3,1c-0.4,0-0.7,0-1.1-0.1v4.3h-1.4v-10.6
		c1.1-0.2,2-0.3,2.9-0.3c1.3,0,2.4,0.3,3.1,0.9C966.7,308.4,967.1,309.1,967.1,310.1z M965.7,310.2c0-1.4-1-2.1-2.9-2.1
		c-0.5,0-1,0-1.4,0.1v4.1c0.5,0.1,0.9,0.1,1.3,0.1C964.7,312.3,965.7,311.6,965.7,310.2z"/>
	<path class="st0" d="M980,317.8h-1.4l-0.6-8.4l-3.4,8.4h-1l-3.4-8.4l-0.6,8.4h-1.4l0.8-10.8h1.5l3.6,9l3.6-9h1.5L980,317.8z"/>
	<path class="st0" d="M988.5,317.8h-7.3c0.1-0.7,0.2-1.2,0.4-1.6c0.4-0.5,1.6-1.7,3.6-3.5c1.2-1.2,1.9-2.1,1.9-2.9
		c0-1-0.6-1.5-1.8-1.5c-1.2,0-1.9,0.7-2.1,2l-1.3-0.3c0.1-1,0.5-1.7,1.1-2.2c0.6-0.5,1.4-0.7,2.3-0.7c0.9,0,1.7,0.3,2.3,0.8
		c0.6,0.5,0.9,1.2,0.9,2.1c0,0.7-0.4,1.6-1.2,2.5c-0.5,0.6-1.3,1.3-2.4,2.3c-1,0.9-1.6,1.5-1.9,1.8h5.8L988.5,317.8z"/>
	<path class="st0" d="M992.2,316.9c0,0.3-0.1,0.6-0.3,0.8c-0.2,0.2-0.5,0.3-0.8,0.3s-0.6-0.1-0.8-0.3c-0.2-0.2-0.3-0.5-0.3-0.8
		c0-0.3,0.1-0.6,0.3-0.8c0.2-0.2,0.5-0.3,0.8-0.3c0.3,0,0.6,0.1,0.8,0.3C992.1,316.3,992.2,316.6,992.2,316.9z"/>
	<path class="st0" d="M1000.9,314c0,1.2-0.4,2.1-1.2,2.9c-0.8,0.7-1.9,1.1-3.2,1.1c-1.1,0-2-0.3-2.8-1l0.6-1
		c0.8,0.5,1.6,0.8,2.3,0.8c0.8,0,1.5-0.3,2-0.8c0.6-0.5,0.8-1.2,0.8-2c0-0.6-0.2-1.1-0.6-1.5c-0.4-0.4-1-0.5-1.7-0.5
		c-0.7,0-1.2,0.3-1.4,0.7l-0.9,0l0.4-5.8h5.4l-0.2,1.2h-3.8l-0.2,2.6c0.3-0.1,0.6-0.2,1-0.2c1,0,1.8,0.3,2.5,0.9
		C1000.6,312.2,1000.9,313,1000.9,314z"/>
	<path class="st0" d="M1014.5,321.5h-1.3v-15.7h1.3V321.5z"/>
	<path class="st0" d="M1034.4,310.1c0,1-0.4,1.9-1.3,2.5c-0.8,0.6-1.9,1-3.3,1c-0.4,0-0.7,0-1.1-0.1v4.3h-1.4v-10.6
		c1.1-0.2,2-0.3,2.9-0.3c1.3,0,2.4,0.3,3.1,0.9C1034,308.4,1034.4,309.1,1034.4,310.1z M1033,310.2c0-1.4-1-2.1-2.9-2.1
		c-0.5,0-1,0-1.4,0.1v4.1c0.5,0.1,1,0.1,1.3,0.1C1032,312.3,1033,311.6,1033,310.2z"/>
	<path class="st0" d="M1047.3,317.8h-1.4l-0.6-8.4l-3.4,8.4h-0.9l-3.4-8.4l-0.6,8.4h-1.4l0.8-10.8h1.5l3.6,9l3.6-9h1.5L1047.3,317.8
		z"/>
	<path class="st0" d="M1054.9,317.8h-4.8v-1.2h1.7v-7.5l-1.4,1.2l-0.8-0.9l2.9-2.4c0.6,0,0.8,0.4,0.8,1.1v8.6h1.7L1054.9,317.8
		L1054.9,317.8z"/>
	<path class="st0" d="M1064.4,312.5c0,1.5-0.3,2.8-1,3.9c-0.6,1.1-1.5,1.6-2.7,1.6c-1.1,0-2-0.5-2.6-1.6c-0.6-1.1-0.9-2.4-0.9-3.9
		c0-1.5,0.3-2.8,0.9-3.9c0.6-1.1,1.5-1.6,2.6-1.6c1.2,0,2.1,0.5,2.7,1.6C1064.1,309.6,1064.4,310.9,1064.4,312.5z M1062.9,312.5
		c0-1.3-0.2-2.3-0.5-3.1c-0.4-0.8-0.9-1.2-1.6-1.2c-0.7,0-1.3,0.4-1.7,1.2c-0.4,0.8-0.5,1.8-0.5,3.1c0,1.3,0.2,2.3,0.5,3.1
		c0.4,0.8,0.9,1.2,1.6,1.2c0.7,0,1.3-0.4,1.7-1.2C1062.8,314.8,1062.9,313.7,1062.9,312.5z"/>
	<path class="st0" d="M1077.9,321.5h-1.3v-15.7h1.3V321.5z"/>
	<path class="st0" d="M1095,317.8h-1.4v-9.6h-4V307h9.3v1.2h-3.9V317.8z"/>
	<path class="st0" d="M1106.6,317.8h-6.4V307h6.4v1.2h-5v3.3h4.4v1.2h-4.4v3.9h5V317.8z"/>
	<path class="st0" d="M1119.5,317.8h-1.4l-0.6-8.4l-3.4,8.4h-1l-3.4-8.4l-0.6,8.4h-1.4l0.8-10.8h1.5l3.6,9l3.6-9h1.5L1119.5,317.8z"
		/>
	<path class="st0" d="M1128.4,310.1c0,1-0.4,1.9-1.3,2.5c-0.8,0.6-2,1-3.3,1c-0.3,0-0.7,0-1.1-0.1v4.3h-1.4v-10.6
		c1.1-0.2,2-0.3,2.9-0.3c1.3,0,2.4,0.3,3.1,0.9C1128,308.4,1128.4,309.1,1128.4,310.1z M1127,310.2c0-1.4-1-2.1-2.9-2.1
		c-0.5,0-1,0-1.4,0.1v4.1c0.5,0.1,1,0.1,1.3,0.1C1126,312.3,1127,311.6,1127,310.2z"/>
	<path class="st0" d="M1136.5,317.8h-6.4V307h6.4v1.2h-5v3.3h4.4v1.2h-4.4v3.9h5V317.8z"/>
	<path class="st0" d="M1145.7,317.8h-1.4c-0.4-3.1-1.3-4.7-2.8-4.7h-1.8v4.7h-1.4v-10.6c1.1-0.2,2.1-0.3,2.9-0.3
		c1.3,0,2.3,0.3,3.1,0.8c0.8,0.5,1.1,1.3,1.1,2.2c0,1.2-0.6,2.1-1.8,2.7c0.6,0.4,1,0.9,1.3,1.7
		C1145.2,315,1145.4,316.1,1145.7,317.8z M1143.9,310c0-1.3-0.9-1.9-2.8-1.9c-0.6,0-1.1,0-1.5,0.1v3.7h1.7
		C1143.1,311.9,1143.9,311.3,1143.9,310z"/>
	<path class="st0" d="M1156.3,317.8h-1.6l-1.4-3.6h-4.3l-1.4,3.6h-1.5l4.5-10.9h1.2L1156.3,317.8z M1152.7,312.9l-1.6-4.5l-1.7,4.5
		H1152.7z"/>
	<path class="st0" d="M1160.8,317.8h-1.4v-9.6h-4V307h9.3v1.2h-3.9L1160.8,317.8L1160.8,317.8z"/>
	<path class="st0" d="M1174.6,313.2c0,3.2-1.4,4.8-4.3,4.8c-2.9,0-4.3-1.6-4.3-4.8V307h1.4v6.2c0,2.4,1,3.6,2.9,3.6
		c1.9,0,2.9-1.2,2.9-3.6V307h1.4V313.2z"/>
	<path class="st0" d="M1184.4,317.8h-1.4c-0.4-3.1-1.3-4.7-2.8-4.7h-1.8v4.7h-1.4v-10.6c1.1-0.2,2.1-0.3,2.9-0.3
		c1.3,0,2.3,0.3,3.1,0.8c0.8,0.5,1.1,1.3,1.1,2.2c0,1.2-0.6,2.1-1.8,2.7c0.6,0.4,1,0.9,1.3,1.7
		C1183.9,315,1184.1,316.1,1184.4,317.8z M1182.6,310c0-1.3-0.9-1.9-2.8-1.9c-0.6,0-1.1,0-1.5,0.1v3.7h1.7
		C1181.7,311.9,1182.6,311.3,1182.6,310z"/>
	<path class="st0" d="M1192.2,317.8h-6.4V307h6.4v1.2h-5v3.3h4.4v1.2h-4.4v3.9h5V317.8z"/>
	<path class="st0" d="M1205.7,321.5h-1.3v-15.7h1.3V321.5z"/>
	<path class="st0" d="M1226.8,317.8h-1.4v-5.1h-5.6v5.1h-1.4V307h1.4v4.4h5.6V307h1.4V317.8z"/>
	<path class="st0" d="M1237.7,313.2c0,3.2-1.4,4.8-4.3,4.8c-2.9,0-4.3-1.6-4.3-4.8V307h1.5v6.2c0,2.4,1,3.6,2.9,3.6s2.9-1.2,2.9-3.6
		V307h1.4V313.2z"/>
	<path class="st0" d="M1251.2,317.8h-1.4l-0.6-8.4l-3.4,8.4h-0.9l-3.4-8.4l-0.6,8.4h-1.4l0.8-10.8h1.5l3.6,9l3.6-9h1.5L1251.2,317.8
		z"/>
	<path class="st0" d="M1254.4,317.8h-1.4V307h1.4V317.8z"/>
	<path class="st0" d="M1265.4,312.1c0,1.6-0.4,2.9-1.2,3.9c-1,1.2-2.5,1.8-4.5,1.8c-0.6,0-1.6-0.1-3-0.2v-10.5
		c1.7-0.2,2.9-0.3,3.5-0.3c1.8,0,3.2,0.6,4.1,1.7C1265,309.4,1265.4,310.6,1265.4,312.1z M1263.9,312.1c0-2.7-1.3-4.1-3.8-4.1
		c-0.4,0-1.1,0-2,0.1v8.3c0.5,0,1.1,0.1,1.9,0.1c1.5,0,2.5-0.5,3.2-1.6C1263.7,314.3,1263.9,313.3,1263.9,312.1z"/>
	<path class="st0" d="M1268.5,317.8h-1.4V307h1.4V317.8z"/>
	<path class="st0" d="M1275.1,317.8h-1.4v-9.6h-4V307h9.3v1.2h-3.9L1275.1,317.8L1275.1,317.8z"/>
	<path class="st0" d="M1284.4,317.8h-1.4V313l-3.9-6.1h1.7l3,4.8l3-4.8h1.6l-3.9,6L1284.4,317.8L1284.4,317.8z"/>
</g>
</svg>
