<?xml version="1.0" encoding="utf-8"?>
<!-- Generator: Adobe Illustrator 16.0.0, SVG Export Plug-In . SVG Version: 6.00 Build 0)  -->
<!DOCTYPE svg PUBLIC "-//W3C//DTD SVG 1.1//EN" "http://www.w3.org/Graphics/SVG/1.1/DTD/svg11.dtd">
<svg version="1.1" id="Layer_1" xmlns="http://www.w3.org/2000/svg" xmlns:xlink="http://www.w3.org/1999/xlink" x="0px" y="0px"
	 width="40px" height="40px" viewBox="0 0 40 40" enable-background="new 0 0 40 40" xml:space="preserve">
<g>
	<path fill-rule="evenodd" clip-rule="evenodd" fill="#FFFFFF" d="M37.891,25.98c-0.437,0.977-0.813,1.979-1.324,2.922
		c-3.738,6.959-11.129,10.895-18.987,10.125c-0.26-0.025-0.507-0.086-0.884-0.166c0.163-0.662,0.27-1.326,0.507-1.939
		c0.053-0.15,0.495-0.242,0.748-0.221c5.613,0.404,10.363-1.348,14.194-5.521c0.44-0.48,0.505-0.852,0.15-1.389
		c-0.389-0.588-0.695-1.229-0.965-1.713c2.408-1.547,4.794-3.055,7.18-4.574C38.3,24.334,38.102,25.158,37.891,25.98z"/>
	<path fill-rule="evenodd" clip-rule="evenodd" fill="#FFFFFF" d="M1.431,13.9c0.474-1.028,0.889-2.079,1.422-3.064
		c3.716-6.84,11.084-10.697,18.781-9.841c0.28,0.027,0.55,0.108,0.966,0.184c-0.157,0.619-0.248,1.233-0.476,1.788
		c-0.058,0.156-0.495,0.237-0.758,0.221C15.768,2.794,11.013,4.544,7.178,8.708c-0.447,0.48-0.501,0.851-0.152,1.389
		c0.394,0.588,0.695,1.229,0.954,1.687c-2.413,1.545-4.794,3.06-7.153,4.594C1.026,15.554,1.237,14.725,1.431,13.9z"/>
</g>
<g>
	<path fill="#FFFFFF" d="M38.871,15.743l-7.896-11.99c-0.966-1.455-2.828-1.923-4.181-1.034L1.83,19.173
		c-1.353,0.889-1.66,2.79-0.701,4.245L9.03,35.404c0.96,1.457,2.828,1.922,4.176,1.033l24.965-16.451
		C39.523,19.099,39.83,17.196,38.871,15.743z M11.53,34.73L2.81,21.49L28.54,4.533l8.72,13.239L11.53,34.73z"/>
</g>
</svg>
