<?xml version="1.0" encoding="utf-8"?>
<!-- Generator: Adobe Illustrator 15.1.0, SVG Export Plug-In . SVG Version: 6.00 Build 0)  -->
<!DOCTYPE svg PUBLIC "-//W3C//DTD SVG 1.1//EN" "http://www.w3.org/Graphics/SVG/1.1/DTD/svg11.dtd">
<svg version="1.1" id="Layer_1" xmlns="http://www.w3.org/2000/svg" xmlns:xlink="http://www.w3.org/1999/xlink" x="0px" y="0px"
	 width="300px" height="60px" viewBox="0 0 300 60" enable-background="new 0 0 300 60" xml:space="preserve">
<rect y="52.625" fill="#939598" width="300" height="7.375"/>
<g>
	<path fill="#A8AAAD" d="M132.175,45.874c-0.139,0.054,0.083,0.68-0.107,0.79c-7.045,0-14.091,0-21.136,0c0-8.326,0-16.656,0-24.981
		c-0.003-0.051-0.007-0.103,0.035-0.108c7.045,0,14.091,0,21.136,0c0.084,7.779,0.013,16.069,0.036,24.047 M118.624,45.262
		c1.434,0,2.982,0.159,4.348,0c0.549-0.063,1.119-0.349,1.654-0.574c3.783-1.597,5.354-5.207,5.354-10.316
		c0-2.762-0.381-5.4-1.582-7.369c-0.834-1.37-2.049-2.424-3.631-3.091c-0.517-0.218-1.151-0.517-1.689-0.575
		c-1.23-0.132-2.797,0-4.278,0c-0.652,0-1.379,0-2.121,0c-1.117,0-3.014-0.333-2.444,0.934c0.845,0.061,1.78,0.254,2.049,1.007
		c0.157,0.439,0.071,1.5,0.071,2.265c0,4.538,0,9.082,0,13.554c0,0.812,0.113,1.764-0.036,2.229
		c-0.24,0.735-1.223,0.748-1.871,0.933c-0.177,0.199-0.231,0.653-0.142,1.007C115.849,45.262,117.223,45.262,118.624,45.262z"/>
	<path fill="#A8AAAD" d="M120.925,24.882c0.827-0.199,2.128,0.475,2.66,0.935c1.691,1.461,2.246,4.782,2.301,8.266
		c0.056,3.754-0.309,7.722-2.517,9.131c-0.605,0.387-2.189,0.757-2.624,0.108c-0.213-0.32-0.108-1.585-0.108-2.267
		c0-3.679,0-7.895,0-11.682c0-0.601,0-1.436,0-2.334c0-0.295-0.042-1.271,0-1.762C120.67,24.87,120.58,24.964,120.925,24.882z"/>
	<path fill="#A8AAAD" d="M182.174,32.105c-0.119,0.578-0.18,1.211-0.322,1.762c-0.625-0.021-1.342,0.048-1.906-0.035
		c0.093-0.576,0.202-1.141,0.288-1.725C180.88,32.105,181.527,32.105,182.174,32.105z"/>
	<path fill="#A8AAAD" d="M168.84,35.377c0.646,0.086,1.449,0.014,2.156,0.037c-0.009,0.434-0.135,0.751-0.18,1.149
		c-0.718,0-1.438,0-2.157,0c-0.236,1.35-0.607,3.211-0.862,4.745c-0.131,0.778-0.446,1.9,0.073,2.37
		c0.526,0.48,1.384,0.191,2.264,0.182c-0.031,0.41-0.125,0.764-0.144,1.187c-2.094,0.281-3.971,0.084-3.846-2.227
		c0.107-2.006,0.844-4.519,1.007-6.221c-0.42-0.084-0.994-0.012-1.473-0.036c0.08-0.374,0.138-0.771,0.215-1.148
		c0.489,0,0.98,0,1.475,0c0.18-0.72,0.268-1.528,0.394-2.301c0.361,0.067,1.204-0.253,1.366-0.142c0.182,0.117,0.046,0.283,0,0.537
		C169.029,34.051,168.921,34.971,168.84,35.377z"/>
	<path fill="#A8AAAD" d="M133.686,33.582c3.186,0,6.372,0,9.559,0c0.08,0.648-0.466,1.086-0.79,1.509
		c-2.29,2.978-4.582,5.974-6.866,9.021c1.962-0.202,5.174,0.44,6.328-0.469c0.585-0.461,0.572-1.284,0.755-2.191
		c0.108,0,0.215,0,0.322,0c0.112,0.987-0.024,2.379-0.07,3.487c-3.381,0-6.757,0-10.137,0c-0.085-0.651,0.47-1.051,0.79-1.474
		c2.269-2.99,4.537-6.009,6.831-9.023c-1.766,0.194-4.145-0.363-5.427,0.253c-0.729,0.349-0.802,1.089-0.973,2.013
		c-0.172-0.024-0.395,0.037-0.467,0c0.049-0.984,0.066-1.997,0.072-3.021C133.611,33.626,133.64,33.595,133.686,33.582z"/>
	<path fill="#A8AAAD" d="M153.526,40.303c-2.36,0-4.719,0-7.082,0c-0.293,1.575,0.32,2.97,1.368,3.449
		c1.672,0.768,3.425-0.414,4.025-1.617c0.45,0.137,0.803,0.37,1.223,0.539c-0.843,1.504-2.138,2.69-4.565,2.518
		c-2.078-0.149-3.518-1.749-3.667-3.813c-0.227-3.113,1.581-6.246,4.852-6.29C152.627,35.052,153.981,37.215,153.526,40.303z
		 M149.393,36.239c-1.609,0.167-2.449,1.527-2.768,2.984c1.821,0,3.644,0,5.463,0C152.269,37.32,151.219,36.052,149.393,36.239z"/>
	<path fill="#A8AAAD" d="M190.982,38.468c-0.514,0.076-0.942,0.233-1.477,0.288c-0.212-1.382-0.864-2.522-2.55-2.336
		c-1.877,0.207-2.796,2.96-2.625,5.211c0.115,1.514,1.268,2.788,2.983,2.192c0.971-0.335,1.396-1.191,1.869-2.155
		c0.431,0.121,0.803,0.303,1.223,0.431c-0.56,1.54-1.646,2.938-3.486,3.127c-2.802,0.288-4.205-2.004-4.205-4.456
		c0-2.701,1.767-5.649,4.564-5.681C189.503,35.064,190.686,36.459,190.982,38.468z"/>
	<path fill="#A8AAAD" d="M162.693,44.939c-0.479,0-0.96,0-1.438,0c0.304-1.735,0.59-3.421,0.898-5.141
		c0.1-0.563,0.235-1.192,0.217-1.762c-0.041-1.098-0.931-1.925-2.229-1.688c-3.104,0.563-3.069,5.587-3.774,8.591
		c-0.458,0-0.914,0-1.368,0c0.518-3.197,1.068-6.361,1.617-9.525c0.422,0,0.839,0,1.259,0c-0.077,0.69-0.207,1.326-0.322,1.977
		c0.719-1.026,1.529-2.21,3.271-2.266c1.688-0.053,2.851,1.011,2.946,2.552c0.076,1.22-0.262,2.479-0.467,3.702
		C163.098,42.622,162.834,43.822,162.693,44.939z"/>
	<path fill="#A8AAAD" d="M178.222,35.162c-0.105,0.47-0.163,0.985-0.254,1.473c-1.264-0.1-2.1,0.389-2.694,1.079
		c-1.397,1.614-1.706,4.763-2.157,7.226c-0.491,0-0.981,0-1.475,0c0.539-3.177,1.079-6.352,1.616-9.525c0.494,0,0.983,0,1.473,0
		c-0.126,0.806-0.291,1.574-0.428,2.371C175.088,36.559,175.994,34.947,178.222,35.162z"/>
	<path fill="#A8AAAD" d="M179.911,35.414c0.489,0,0.98,0,1.473,0c-0.554,3.161-1.092,6.334-1.618,9.525c-0.502,0-1.006,0-1.509,0
		C178.814,41.772,179.298,38.525,179.911,35.414z"/>
	<path fill="#A8AAAD" d="M150.037,45.622c7.058,0,14.27,0,21.387,0c0.16,0,0.459-0.095,0.574,0.107
		c-0.058,0.264-0.436,0.145-0.574,0.145c-6.878,0-13.917,0.036-20.85,0c-0.163-0.003-0.451,0.089-0.575-0.109
		C150.002,45.71,149.982,45.627,150.037,45.622z"/>
	<path fill="#A8AAAD" d="M173.256,45.622c3.944,0,8.037,0,12.041,0c0.194,0,0.59-0.088,0.686,0.107
		c-0.012,0.252-0.451,0.145-0.686,0.145c-3.733,0-7.532,0-11.395,0c-0.16,0-0.283,0.006-0.395,0
		c-0.151-0.011-0.306,0.086-0.288-0.145C173.219,45.68,173.215,45.627,173.256,45.622z"/>
	<rect x="127.14" y="45.622" fill="#A8AAAD" width="21.472" height="0.28"/>
</g>
</svg>
